<?xml version="1.0" standalone="no"?>
<!DOCTYPE svg PUBLIC "-//W3C//DTD SVG 1.1//EN" "http://www.w3.org/Graphics/SVG/1.1/DTD/svg11.dtd">
<svg xmlns="http://www.w3.org/2000/svg">
<defs >
<font id="Grandstander" horiz-adv-x="1123" ><font-face
    font-family="Grandstander Thin"
    units-per-em="2000"
    panose-1="0 0 0 0 0 0 0 0 0 0"
    ascent="1465"
    descent="-530"
    alphabetic="0" />
<glyph unicode=" " horiz-adv-x="615" />
<glyph unicode="!" horiz-adv-x="708" d="M372 389Q354 389 321 390T256 393T205 398Q228 493 257 609T319 848T383 1088T444 1305T496 1472L717 1462Q696 1410 662 1311T588 1088T507 833T431 587T372 389ZM206 -27Q138 -27 102 8T65 96Q65 148 92 187T164 249T260
272Q320 272 357 237T395 147Q395 98 369 59T299 -4T206 -27Z" />
<glyph unicode="&quot;" horiz-adv-x="764" d="M443 1041Q428 1041 406 1041T364 1043T337 1046Q340 1089 348 1145T366 1260T387 1368T405 1447Q432 1453 459 1457T519 1461Q534 1461 548 1461T575 1458Q574 1437 564 1400Q547 1338 527 1272T485 1145T443 1041ZM581
1043Q583 1057 588 1083T600 1139T614 1200T627 1252Q637 1289 648 1329T669 1403T686 1456Q720 1457 768 1456T847 1451Q846 1445 845 1438T841 1423Q833 1391 816 1344T777 1244T733 1140T692 1049Q652 1045 624 1044T581 1043Z" />
<glyph unicode="#" horiz-adv-x="1511" d="M150 859Q155 876 163 901T179 951T194 997T204 1025Q306 1027 423 1032T662 1044T901 1058Q1092 1070 1278 1079T1632 1090Q1628 1076 1620 1051T1603 998T1584 946T1568 908Q1414 905 1236 898T881 883Q746 878 615
873T365 864T150 859ZM1387 427Q1248 431 1095 437T785 449Q652 455 522 456T272 458Q200 458 133 457T6 452Q9 464 16 486T32 533T49 579T62 611Q166 616 273 618T489 623Q604 624 719 624T950 622Q1079 621 1206 618T1458 611Q1454 594 1445 568T1424 513T1402
461T1387 427ZM264 5Q300 140 343 290T432 597T526 906T620 1202T710 1468Q726 1472 757 1473T823 1475T888 1476Q860 1389 820 1259T734 973T639 650T545 321T462 19Q449 17 423 14T366 10T308 7T264 5ZM817 72Q854 264 901 464T1000 859Q1043 1020 1089 1174T1183
1471Q1194 1473 1216 1475T1265 1479T1317 1482T1357 1483Q1328 1387 1296 1275T1231 1041Q1190 886 1150 723T1076 400T1016 95Q1003 93 977 89T919 81T859 75T817 72Z" />
<glyph unicode="$" horiz-adv-x="1027" d="M422 -82L236 -79Q239 -68 249 -36T274 34T300 105T318 150L491 140Q484 118 471 77T445 -9T422 -82ZM624 1213Q630 1231 642 1271T666 1351T683 1408L839 1415Q833 1391 823 1352T802 1275T784 1214L624 1213ZM426 67Q327
67 239 94T85 166T-12 259Q-2 272 17 296T60 346T106 396T142 431Q172 383 220 339T330 267T461 239Q531 239 595 261T701 329T743 444Q743 515 687 561T534 646Q453 679 394 717T301 810T268 940Q268 1024 309 1086T419 1188T570 1247T735 1267Q860 1267 950 1236T1083
1169Q1074 1152 1054 1125T1009 1070T960 1018Q921 1050 859 1079T717 1108Q676 1108 631 1100T547 1074T484 1027T459 956Q459 901 509 862T649 787Q739 754 804 708T904 602T939 462Q939 332 867 244T678 112T426 67Z" />
<glyph unicode="%" horiz-adv-x="1385" d="M90 -21Q79 -13 60 1T23 31T-5 59Q86 141 202 252T449 489T712 747T968 1004T1194 1239T1367 1428Q1395 1415 1424 1386T1465 1333Q1406 1266 1316 1173T1118 970T891 742T656 510T431 293T235 109T90 -21ZM955 234Q1005
234 1044 260T1107 329T1131 420Q1131 463 1103 486T1025 509Q979 509 939 484T875 418T851 327Q851 285 876 260T955 234ZM934 118Q841 118 782 163T723 297Q723 383 769 458T890 580T1049 627Q1152 627 1203 577T1254 442Q1254 351 1213 278T1099 161T934 118ZM498
785Q394 785 340 838T285 978Q285 1064 330 1135T450 1250T611 1293Q707 1293 766 1246T825 1114Q825 1028 780 953T661 832T498 785ZM524 914Q601 914 647 966T694 1090Q694 1131 671 1155T604 1179Q523 1179 471 1127T419 999Q419 957 447 936T524 914Z" />
<glyph unicode="&amp;" horiz-adv-x="1395" d="M446 -106Q313 -106 223 -62T86 61T39 243Q39 352 82 441T197 603T358 733T540 837Q510 875 478 941T446 1081Q446 1182 497 1255T635 1370T827 1411Q907 1411 962 1384T1047 1309T1076 1201Q1076 1107 1029 1032T907
896T745 788Q768 754 803 701T877 588T954 471T1018 373Q1036 391 1064 422T1121 489T1172 552T1202 593Q1219 585 1243 569T1290 533T1325 496Q1315 478 1278 434T1193 340T1107 252Q1127 225 1150 191T1195 122T1234 59Q1217 41 1191 16T1136 -32T1087 -64Q1071
-41 1050 -6T1008 64T976 120Q954 95 907 58T792 -17T637 -80T446 -106ZM477 50Q557 50 625 74T747 133T838 202T895 256Q865 300 827 361T749 490T674 618T616 718Q547 679 478 635T352 538T260 417T225 264Q225 165 292 108T477 50ZM674 898Q731 931 785 977T876
1078T912 1191Q912 1228 887 1252T804 1276Q750 1276 707 1251T638 1183T613 1082Q613 1031 631 982T674 898Z" />
<glyph unicode="&apos;" horiz-adv-x="462" d="M541 1383Q527 1328 507 1263T463 1133T416 1015Q388 1012 364 1012Q348 1012 333 1013T304 1017Q310 1061 319 1121T338 1246T358 1365T376 1451Q405 1456 435 1458T494 1461Q511 1461 527 1460T559 1457Q556 1444
551 1424T541 1383Z" />
<glyph unicode="(" horiz-adv-x="677" d="M102 -495Q73 -442 55 -361T27 -186T17 -5Q17 198 61 407T186 819T374 1205T610 1537Q656 1530 706 1512T781 1478Q658 1320 555 1144T375 781T258 404T216 29Q216 -49 224 -129T248 -277T287 -390Q272 -401 247 -416T194
-447T142 -476T102 -495Z" />
<glyph unicode=")" horiz-adv-x="651" d="M428 1024Q428 1113 419 1198T391 1355T347 1473Q387 1493 434 1510T529 1538Q561 1470 582 1383T613 1199T624 1010Q624 867 593 708T507 387T376 72T211 -215T23 -449Q9 -445 -13 -435T-60 -413T-104 -388T-132 -366Q-35
-261 50 -133T204 139T324 433T401 733T428 1024Z" />
<glyph unicode="*" horiz-adv-x="941" d="M881 994Q841 1019 790 1055T688 1131T600 1202Q567 1218 526 1237T443 1279T361 1324T291 1365Q301 1380 316 1399T349 1437T382 1474T410 1501Q437 1483 473 1457T549 1401T626 1343T692 1290Q736 1269 792 1241T903
1183T999 1125Q991 1112 976 1094T942 1056T908 1020T881 994ZM559 871Q534 871 511 872T476 876Q491 928 511 991T554 1120T598 1249Q607 1304 617 1361T640 1472T663 1573Q677 1576 700 1577T747 1579Q771 1579 792 1578T825 1573Q811 1519 794 1462T758 1351T723
1249Q712 1197 698 1127T669 989T642 876Q630 875 608 873T559 871ZM282 978Q278 985 271 1003T255 1043T242 1086T234 1117Q275 1137 328 1160T440 1207T552 1253T650 1292Q690 1316 739 1344T841 1401T942 1455T1028 1500Q1036 1489 1046 1462T1065 1405T1076
1356Q1037 1337 986 1314T879 1266T771 1220T678 1180Q591 1134 482 1078T282 978Z" />
<glyph unicode="+" horiz-adv-x="1050" d="M964 656Q893 642 773 632T495 622Q421 622 345 624T201 632T86 643Q86 655 90 678T99 727T110 775T117 806Q145 803 190 801T295 797T419 796Q539 796 653 800T862 811T1016 828Q1009 798 998 762T978 697T964 656ZM723
1180Q720 1118 708 1038T676 867T631 681Q602 576 567 468T492 265Q483 264 461 264T411 265T360 267T326 268Q351 332 375 411T422 574Q444 653 462 736T496 899T522 1050T540 1175Q547 1176 565 1176T609 1178T658 1179T700 1179T723 1180Z" />
<glyph unicode="," horiz-adv-x="667" d="M154 -253Q146 -250 126 -237T86 -205T57 -164Q90 -142 133 -99T209 -11T244 63Q244 70 244 73Q233 49 206 30T131 10Q77 10 52 41T27 120Q27 173 54 213T129 275T237 298Q285 298 323 282T383 234T405 152Q405 84 369
7T276 -140T154 -253Z" />
<glyph unicode="-" horiz-adv-x="890" d="M901 773Q896 735 885 688T863 608Q804 608 722 607T548 604T365 599T194 593T61 586Q65 603 72 627T87 676T102 723T114 757Q207 766 327 773T581 781Q685 781 767 780T901 773Z" />
<glyph unicode="." horiz-adv-x="632" d="M211 272Q266 272 304 237T342 150Q342 94 316 52T248 -14T153 -38Q97 -38 55 0T12 91Q12 145 40 185T113 249T211 272Z" />
<glyph unicode="/" horiz-adv-x="969" d="M1039 1498Q1097 1486 1132 1468T1182 1428Q1028 1189 864 956T539 513T233 130T-30 -162Q-68 -152 -109 -129T-170 -84Q-80 14 22 136T233 395T453 677T668 966T867 1246T1039 1498Z" />
<glyph unicode="0" horiz-adv-x="1087" d="M407 -32Q307 -32 245 18T154 158T125 367Q125 493 155 628T240 890T373 1117T543 1278T742 1338Q892 1338 958 1245T1024 982Q1024 852 995 712T910 439T779 200T609 31T407 -32ZM443 156Q508 156 568 208T678 346T765
535T822 740T843 925Q843 1038 813 1102T712 1166Q647 1166 587 1112T476 969T388 776T330 571T308 392Q308 273 341 215T443 156Z" />
<glyph unicode="1" horiz-adv-x="809" d="M387 176Q421 176 467 175T553 171T609 167Q606 156 599 135T584 90T568 44T553 9Q533 9 474 8T335 4T176 -1T35 -7T-49 -12Q-47 10 -40 42T-23 104T-7 148Q10 151 43 154T113 161T182 167T227 171Q232 194 249 260T292
420T344 615T398 813T443 982T472 1087Q462 1079 436 1059T375 1011T308 957T250 910T216 882Q204 902 187 947T163 1027Q180 1041 226 1077T330 1160T445 1248T538 1315Q559 1315 587 1314T640 1312T681 1307Q679 1295 664 1225T621 1042T560 792T486 506Q465
426 440 341T387 176Z" />
<glyph unicode="2" horiz-adv-x="995" d="M828 222Q827 200 822 172T809 114T795 61T784 27L-15 -17Q-15 -9 -14 10T-10 54T-4 105T3 154Q47 189 115 249T265 385T431 540Q476 582 532 636T644 752T747 874T823 990T852 1089Q852 1139 815 1162T725 1185Q646 1185
574 1150T440 1055T325 917Q310 927 285 946T236 985T198 1020Q265 1121 359 1198T561 1320T781 1364Q897 1364 970 1306T1043 1152Q1043 1082 1012 1006T929 853T815 706T692 575Q643 527 590 477T486 378T390 289T313 218T267 179Q293 182 346 186T468 196T606
207T735 216T828 222Z" />
<glyph unicode="3" horiz-adv-x="1032" d="M378 -3Q273 -3 192 27T63 113T11 244Q35 260 66 277T132 310T195 335Q198 254 250 205T405 156Q496 156 573 192T699 291T747 436Q747 541 643 579T334 617Q334 640 340 682T357 765Q432 765 514 782T668 835T785 922T830
1045Q830 1096 800 1132T688 1169Q619 1169 551 1147T424 1088T321 1011Q301 1029 279 1053T241 1097T219 1126Q261 1165 338 1213T519 1298T745 1335Q879 1335 952 1269T1026 1087Q1026 991 976 916T845 791T675 723Q789 711 859 643T929 457Q929 316 855 213T656
53T378 -3Z" />
<glyph unicode="4" horiz-adv-x="1104" d="M972 378Q940 378 899 378T814 377T736 374Q696 225 673 130T643 5Q627 3 599 0T539 -5T483 -9T445 -11Q476 103 505 200T557 362Q489 357 415 350T272 336T153 322T83 313Q84 349 88 399T98 484Q134 533 195 608T332
772T487 952T637 1122T762 1258T838 1335Q850 1336 874 1337T927 1339T981 1341T1022 1341Q1017 1325 999 1267T953 1123T896 937T835 734T780 542Q817 544 866 545T955 547T1004 548Q1004 541 1001 523T994 479T984 428T972 378ZM803 1099Q773 1067 727 1015T626
901T517 775T416 655T337 558T293 501Q305 503 346 507T442 517T545 527T619 532Q627 560 644 617T683 744T728 885T771 1013T803 1099Z" />
<glyph unicode="5" horiz-adv-x="1137" d="M26 194Q39 209 62 229T111 269T160 306T195 330Q210 298 243 264T336 205T490 181Q609 181 701 238T847 391T900 604Q900 687 864 742T740 798Q675 798 621 774T526 713T458 640T423 579Q405 577 382 575T327 573Q316
573 300 573T268 574T242 575Q284 732 314 892T367 1221Q417 1232 493 1244T658 1269T833 1293T994 1312T1114 1325Q1115 1310 1115 1279T1113 1216T1110 1162Q1012 1156 921 1148T754 1132T622 1117T539 1104Q534 1067 526 1018T507 920T489 831T476 775Q495 810
541 851T656 922T803 951Q945 951 1013 860T1081 629Q1081 498 1034 385T902 188T704 57T457 9Q368 9 284 27T133 87T26 194Z" />
<glyph unicode="6" horiz-adv-x="1154" d="M1046 1211Q924 1168 818 1100T625 953T476 799T382 663Q428 715 491 753T628 813T776 834Q857 834 917 801T1012 705T1046 555Q1046 435 1002 333T878 153T691 34T459 -9Q348 -9 272 31T158 145T119 315Q119 483 188
644T378 945T657 1193T993 1361Q1003 1353 1015 1325T1036 1266T1046 1211ZM408 552Q359 507 332 451T305 333Q305 255 356 210T503 164Q602 164 684 212T817 343T867 525Q867 594 833 636T718 678Q634 678 550 642T408 552Z" />
<glyph unicode="7" horiz-adv-x="1012" d="M229 -20Q208 -15 176 -5T112 15T55 35T24 46Q85 146 169 266T349 513T548 763T748 991T934 1173Q820 1157 708 1137T501 1096T342 1060T265 1041Q265 1052 269 1078T278 1136T288 1194T297 1235Q407 1259 534 1282T786
1325T1015 1356T1184 1368Q1185 1359 1184 1337T1181 1289T1177 1241T1174 1211Q985 1011 846 846T600 538T405 258T229 -20Z" />
<glyph unicode="8" horiz-adv-x="1243" d="M513 -10Q297 -10 188 68T78 286Q78 398 127 489T257 643T429 732Q400 744 370 774T319 847T299 944Q299 1085 372 1180T569 1324T844 1373Q952 1373 1032 1342T1158 1250T1203 1098Q1203 1002 1164 921T1057 784T904
706Q975 694 1030 631T1086 458Q1086 352 1040 266T914 119T731 24T513 -10ZM526 154Q629 154 713 190T848 295T898 461Q898 550 832 587T655 624Q556 624 470 593T331 496T277 328Q277 260 312 222T405 169T526 154ZM696 792Q780 792 853 825T971 918T1017 1062Q1017
1145 964 1183T807 1221Q718 1221 646 1191T530 1102T487 956Q487 870 542 831T696 792Z" />
<glyph unicode="9" horiz-adv-x="1067" d="M685 13Q652 7 585 3T456 -1Q478 27 520 92T614 244T710 426T782 612Q760 582 717 551T610 499T462 478Q312 478 240 566T167 797Q167 921 212 1024T336 1203T519 1322T743 1364Q911 1364 992 1286T1074 1063Q1074 983
1050 879T984 657T892 424T787 201T685 13ZM724 1217Q615 1217 531 1166T400 1029T353 833Q353 748 396 697T520 646Q602 646 670 679T789 769T866 900T894 1054Q894 1131 852 1174T724 1217Z" />
<glyph unicode=":" horiz-adv-x="564" d="M143 -9Q78 -9 29 31T-21 132Q-21 174 1 210T60 268T141 290Q212 290 255 243T299 132Q299 70 254 31T143 -9ZM362 998Q417 998 455 963T493 876Q493 820 467 778T399 712T304 688Q248 688 206 726T163 817Q163 871 191
911T264 975T362 998Z" />
<glyph unicode=";" horiz-adv-x="593" d="M389 965Q444 965 482 930T520 843Q520 788 495 745T426 679T331 655Q275 655 233 693T191 784Q191 838 219 878T292 942T389 965ZM82 -309Q74 -306 55 -294T16 -263T-10 -224Q14 -207 44 -179T104 -116T153 -51T174 3Q174
10 174 13Q164 -11 137 -31T62 -51Q9 -51 -15 -21T-40 57Q-40 133 18 181T164 230Q234 230 281 195T328 88Q328 22 293 -54T202 -198T82 -309Z" />
<glyph unicode="&lt;" horiz-adv-x="807" d="M827 1113Q843 1101 862 1080T896 1036T913 994Q787 916 672 842T442 693T205 533L184 590Q239 571 316 541T473 478T613 417T695 374Q690 356 678 330T653 277T627 231Q495 293 348 356T49 471L91 611Q188 680 300
759T518 911T707 1038T827 1113Z" />
<glyph unicode="=" horiz-adv-x="1050" d="M202 1040Q247 1049 335 1057T533 1072T759 1086T977 1095T1151 1098Q1149 1087 1145 1063T1136 1010T1126 958T1118 923Q1064 923 965 921T745 914T506 904T291 893T143 885Q147 899 154 921T170 966T187 1010T202 1040ZM57
600Q153 611 264 617T491 627T712 630Q807 630 889 628T1029 622Q1028 611 1024 588T1015 537T1005 488T997 454Q953 454 880 454T715 455T526 454T332 454T156 452T17 448Q19 458 23 477T33 519T46 564T57 600Z" />
<glyph unicode="&gt;" horiz-adv-x="790" d="M222 1000Q239 1017 263 1037T312 1074T355 1101Q373 1096 424 1061T544 974T687 862T826 746L786 585Q670 530 545 472T309 365T123 283T32 247Q27 261 19 286T4 337T-3 380Q12 387 62 412T188 474T349 555T522 642T680
721L681 656Q647 685 588 730T461 826T329 923T222 1000Z" />
<glyph unicode="?" horiz-adv-x="1036" d="M594 411Q555 411 522 413T457 418T393 425Q417 511 455 592T553 744T702 870Q801 932 858 1003T916 1166Q916 1232 876 1265T746 1298Q666 1298 606 1275T501 1215T423 1135T365 1049L218 1133Q308 1305 457 1388T780
1472Q889 1472 966 1444T1085 1358T1126 1212Q1126 1115 1093 1039T1000 902T861 789Q806 753 755 703T663 583T594 411ZM402 -10Q347 -10 313 22T278 108Q278 161 306 198T376 254T461 274Q522 274 556 245T590 167Q590 118 563 78T493 14T402 -10Z" />
<glyph unicode="@" horiz-adv-x="1920" d="M761 -41Q565 -41 419 22T192 206T111 497Q111 669 171 821T338 1097T590 1310T902 1448T1252 1497Q1454 1497 1601 1432T1827 1241T1906 937Q1906 822 1876 718T1790 532T1653 404T1471 357Q1380 357 1320 402T1260
533Q1210 449 1106 402T886 354Q747 354 675 423T603 611Q603 707 641 793T745 946T897 1051T1077 1090Q1154 1090 1205 1071T1278 1029Q1280 1049 1284 1073T1291 1113Q1308 1114 1335 1115T1389 1118T1435 1120Q1428 1050 1423 969T1412 813T1405 686T1402 621Q1402
558 1423 532T1501 505Q1557 505 1601 542T1676 639T1723 772T1739 915Q1739 1126 1609 1234T1233 1342Q1051 1342 883 1283T584 1115T376 859T299 534Q299 402 356 307T524 161T798 109Q919 109 1009 134T1164 199T1270 285L1382 178Q1330 117 1242 68T1033 -11T761
-41ZM936 509Q1040 509 1119 555T1251 676L1263 888Q1238 913 1193 928T1092 943Q1000 943 931 902T824 795T786 650Q786 582 828 546T936 509Z" />
<glyph unicode="A" horiz-adv-x="1074" d="M139 -15Q120 -15 92 -14T32 -12T-28 -9T-75 -5Q-52 47 -8 141T93 354T215 605T345 865T468 1109T570 1305Q612 1311 668 1317T787 1328T910 1332Q949 1332 990 1330T1066 1323Q1062 1235 1049 1113T1012 829T950 462T863
0Q839 -4 801 -7T721 -13T647 -15Q652 14 662 61T684 165T708 280T731 387T750 467Q718 466 671 464T573 459T474 451T392 443T345 437Q303 352 263 266T191 106T139 -15ZM420 611Q458 619 525 625T664 635T791 642Q797 673 810 741T839 890T866 1044T882 1157Q859
1157 816 1155T733 1149T675 1143Q662 1117 637 1065T577 941T502 785T420 611Z" />
<glyph unicode="B" horiz-adv-x="1174" d="M21 18Q32 57 56 142T111 341T179 581T249 828T311 1050T358 1214T378 1285Q423 1290 487 1294T628 1302T784 1306Q922 1306 1008 1250T1094 1061Q1094 968 1047 890T927 760T776 692Q779 692 782 692T793 692Q865 689
921 657T1010 572T1043 449Q1043 316 975 230T790 94T529 24T230 3Q173 3 117 6T21 18ZM277 190Q283 190 295 190T324 190Q415 190 508 198T680 231T807 307T855 442Q855 525 787 558T577 592Q560 592 523 592T446 590T383 585L277 190ZM423 746Q533 748 595 754T703
782Q755 801 801 831T877 907T907 1016Q907 1098 859 1128T729 1159Q674 1159 617 1153T527 1143L423 746Z" />
<glyph unicode="C" horiz-adv-x="1137" d="M1024 250Q924 143 791 67T490 -10Q352 -10 262 56T127 231T82 467Q82 634 137 788T290 1063T519 1255T805 1326Q900 1326 984 1298T1128 1215T1209 1084Q1188 1066 1154 1042T1085 997T1026 962Q1024 976 1014 1005T978
1067T903 1121T775 1144Q672 1144 586 1087T438 937T342 733T308 514Q308 366 360 279T522 191Q606 191 678 224T810 306T912 398Q930 385 953 358T997 301T1024 250Z" />
<glyph unicode="D" horiz-adv-x="1198" d="M93 -30Q101 20 117 112T154 322T198 567T244 818T286 1044T318 1215T334 1299Q364 1304 417 1310T532 1320T643 1325Q820 1325 924 1257T1075 1072T1121 808Q1121 607 1062 453T879 193T560 32T93 -30ZM333 176Q496
185 607 238T787 377T886 569T917 792Q917 898 893 979T809 1106T642 1152Q619 1152 580 1151T516 1147Q486 989 454 823T392 492T333 176Z" />
<glyph unicode="E" horiz-adv-x="957" d="M690 -11Q584 -5 483 -1T273 6Q209 8 140 10T7 13Q43 170 81 323T156 614Q224 863 271 1026T339 1251Q525 1281 682 1296T944 1317T1076 1323Q1064 1278 1051 1240T1022 1156L501 1115Q494 1092 481 1048T454 954T428
860T409 794Q432 794 477 795T578 798T692 801T797 804T872 805L828 629Q813 629 768 630T663 631T541 632T431 633T362 633Q358 620 348 582T323 491T294 384T266 281T244 202Q267 203 323 203T428 204Q494 204 559 202T680 198T768 192Q760 167 750 136T727 74T706
21T690 -11Z" />
<glyph unicode="F" horiz-adv-x="949" d="M263 -16L50 -1Q104 212 157 437T260 883T351 1305Q462 1308 555 1308T726 1307Q826 1305 904 1298T1053 1280Q1046 1236 1035 1185T1014 1100Q978 1104 908 1110T737 1120T509 1124Q503 1086 490 1024T463 895T435 771Q541
771 630 766T779 755T855 745Q847 708 834 664T806 583Q753 589 682 594T537 602T402 605Q386 520 364 413T316 195T263 -16Z" />
<glyph unicode="G" horiz-adv-x="1275" d="M597 -48Q360 -48 235 76T110 421Q110 602 161 766T310 1060T547 1263T859 1338Q974 1338 1061 1305T1203 1219T1279 1112Q1263 1097 1232 1072T1163 1020T1094 977Q1070 1039 1036 1075T951 1128T828 1144Q708 1144
614 1083T454 919T353 694T318 447Q318 298 388 217T624 135Q733 135 806 180T924 298T991 454Q996 472 1000 491T1007 526Q986 531 938 538T829 554T711 568T617 576Q621 595 628 623T645 682T660 730Q735 727 838 717T1048 692T1232 658Q1227 617 1219 572T1199
485Q1159 332 1083 211T887 21T597 -48Z" />
<glyph unicode="H" horiz-adv-x="1094" d="M45 1Q52 45 70 135T116 342T173 590T234 845T293 1075Q310 1140 325 1193T353 1282Q363 1283 388 1285T445 1288T506 1291T556 1292Q541 1240 523 1168T487 1031Q471 970 457 912T432 811T417 750Q440 752 480 754T568
759T665 764T754 768T816 770Q837 842 866 937T925 1129T981 1304Q992 1305 1010 1306T1049 1307Q1089 1307 1130 1305T1190 1299Q1174 1258 1148 1184T1092 1013T1029 811T964 597T904 391Q882 313 862 240T826 106T800 6Q783 4 751 3T681 1T610 0Q635 108 662
213T716 413T764 584Q743 583 705 583T618 581T523 578T437 577T378 576Q361 497 340 403T301 223T270 79T255 11Q240 9 214 7T155 4T94 2T45 1Z" />
<glyph unicode="I" horiz-adv-x="525" d="M207 -9Q185 -9 150 -9T80 -6T20 0Q33 54 51 130T92 292T137 463T178 623Q216 765 265 941T369 1316Q380 1317 403 1318T456 1319T512 1320T558 1321Q530 1199 498 1065T433 803T372 570Q359 523 341 457T304 319T265
181T231 64T207 -9Z" />
<glyph unicode="J" horiz-adv-x="1178" d="M459 -19Q325 -19 235 35T98 185T47 403Q63 412 90 425T150 452T213 478T266 498Q266 413 288 340T360 221T496 176Q583 176 649 227T764 372T846 592Q863 654 882 741T919 922T953 1097T978 1234T989 1295Q1014 1300
1046 1303T1106 1306Q1136 1306 1160 1305T1205 1301Q1194 1237 1177 1147T1140 956T1098 762T1058 596Q1007 397 925 260T727 52T459 -19Z" />
<glyph unicode="K" horiz-adv-x="1081" d="M41 -32Q59 42 84 149T138 384T196 644T253 901T302 1127T337 1296Q359 1300 388 1302T443 1304Q473 1304 497 1302T536 1297Q532 1273 520 1216T490 1080T455 917T420 752Q480 791 559 848T725 976T898 1127T1055 1292Q1079
1271 1107 1249T1161 1210T1200 1184Q1176 1156 1123 1102T993 979T824 837T628 697Q667 641 705 570T778 424T839 281T883 163T905 90Q885 77 848 60T772 26T702 -1Q699 15 687 61T654 174T605 314T544 461T472 591Q453 578 424 564T378 542Q363 466 344 376T306
201T275 59T258 -11Q244 -12 209 -15T129 -23T41 -32Z" />
<glyph unicode="L" horiz-adv-x="961" d="M18 13Q36 68 64 164T126 379T195 627Q229 756 262 881T322 1113T365 1290Q382 1292 418 1295T490 1298Q514 1298 544 1296T583 1292Q568 1221 543 1122T487 908T423 675T358 448Q336 373 318 313T287 213Q357 217 445
221T628 228T808 231Q804 212 796 177T778 104T757 37Q642 26 538 20T342 11Q256 8 175 9T18 13Z" />
<glyph unicode="M" horiz-adv-x="1421" d="M-10 -11Q12 70 42 177T106 405T175 649T244 887T306 1096T354 1252Q386 1255 427 1257T508 1260T576 1262T610 1262Q610 1254 612 1200T617 1061T624 873T629 666T633 468T635 309T630 216L605 214Q626 248 672 325T779
506T905 723T1031 943T1138 1134T1206 1263Q1234 1263 1279 1261T1368 1257T1438 1249Q1435 1187 1418 1096T1374 896T1318 672Q1284 547 1247 418T1177 178T1119 -3Q1088 -3 1051 -2T982 2T927 6Q963 105 1002 233T1078 494Q1101 576 1124 664T1168 828T1199 943Q1173
895 1126 813T1020 632T899 430T781 238T685 84T627 1Q617 0 598 0T564 -1Q544 -1 523 1T480 5Q480 15 480 77T478 236T475 442T471 660T467 855T463 988Q440 904 413 804T358 598T304 393T254 210T216 69T196 -6Q172 -7 137 -8T63 -10T-10 -11Z" />
<glyph unicode="N" horiz-adv-x="1282" d="M280 -6Q246 -6 204 -5T125 -2T66 2Q70 20 87 86T130 249T186 459T246 685T301 894Q321 970 340 1042T374 1174T397 1270Q412 1270 438 1269T496 1266T555 1261T601 1254Q645 1142 687 1013T766 753T835 503T888 290L1106
1257Q1128 1257 1157 1255T1216 1250T1269 1242T1307 1231Q1296 1175 1278 1096T1237 926T1191 739T1145 555T1102 391Q1084 324 1066 260T1031 142T1001 51T981 1Q959 0 938 0T896 -1Q868 -1 842 0T797 4Q790 34 771 101T726 259T671 451T612 651T558 830T516
963Q511 934 494 861T453 689T403 484T353 278T309 103T280 -6Z" />
<glyph unicode="O" horiz-adv-x="1354" d="M553 -51Q400 -51 303 9T160 175T114 415Q114 604 163 768T307 1056T537 1250T848 1320Q1008 1320 1101 1254T1234 1077T1274 831Q1274 646 1228 486T1090 205T864 17T553 -51ZM575 148Q699 148 794 200T953 345T1051
558T1085 814Q1085 899 1063 975T987 1099T835 1148Q709 1148 613 1093T452 942T353 723T320 463Q320 377 345 306T427 191T575 148Z" />
<glyph unicode="P" horiz-adv-x="1010" d="M-13 -18Q2 38 23 111T68 270T121 451T180 647T242 852T305 1056T368 1251Q448 1267 538 1277T738 1287Q895 1287 983 1222T1072 1027Q1072 920 1033 839T921 701T753 617T542 588Q505 588 458 592T375 603Q367 574 347
504T299 340T244 152T191 -23Q174 -23 147 -23T88 -22T30 -20T-13 -18ZM419 773Q450 767 488 763T572 758Q661 758 734 784T849 862T892 990Q892 1070 846 1103T717 1137Q679 1137 628 1133T518 1122Q517 1116 508 1082T486 1001T458 906T434 821T419 773Z" />
<glyph unicode="Q" horiz-adv-x="1291" d="M979 -89Q952 -78 911 -44T833 27T784 82Q767 69 730 49T636 13T504 -3Q374 -3 293 52T174 203T136 419Q136 585 186 742T329 1025T549 1225T829 1299Q975 1299 1063 1246T1192 1097T1232 873Q1232 738 1200 602T1102
352T933 165Q962 125 1011 95T1113 45Q1088 13 1050 -25T979 -89ZM715 229Q695 253 675 292T639 377T615 461Q630 471 656 488T711 521T759 548Q770 493 793 419T854 292Q906 339 943 405T1004 547T1040 702T1052 854Q1052 982 999 1059T814 1136Q701 1136 612
1076T462 916T369 691T337 437Q337 322 382 247T551 171Q619 171 659 193T715 229Z" />
<glyph unicode="R" horiz-adv-x="1094" d="M33 -27Q64 100 99 258T171 593T245 951T317 1303Q366 1309 437 1314T587 1322T729 1325Q833 1325 910 1298T1028 1210T1070 1050Q1070 905 993 817T781 678Q795 638 807 575T828 436T845 286T856 148T861 47Q835 34
804 23T741 3T687 -11T653 -17Q653 64 651 157T643 342T629 509T607 630Q566 620 520 613T435 603T376 599Q374 582 364 530T339 404T308 252T278 103T253 -14Q227 -19 189 -22T110 -26T33 -27ZM405 758Q486 758 597 780Q688 798 752 824T850 897T885 1025Q885
1114 831 1145T685 1176Q669 1176 639 1175T575 1171T514 1166T477 1162Q474 1144 467 1103T451 1009T432 904T415 812T405 758Z" />
<glyph unicode="S" horiz-adv-x="1152" d="M474 -12Q380 -12 302 14T164 83T62 176T2 274Q10 282 30 300T77 341T127 381T169 408Q183 379 208 337T274 252T371 181T504 153Q590 153 667 183T792 272T840 419Q840 480 807 522T715 594T575 650Q484 681 413 721T300
819T259 963Q259 1092 326 1177T503 1306T744 1349Q848 1349 938 1323T1091 1257T1181 1175Q1155 1140 1114 1098T1044 1037Q1024 1067 984 1103T880 1166T725 1193Q656 1193 595 1171T497 1105T460 994Q460 944 486 912T553 861T640 827Q721 800 793 770T922 699T1010
600T1042 459Q1042 344 995 256T868 109T685 19T474 -12Z" />
<glyph unicode="T" horiz-adv-x="1039" d="M211 1140Q213 1155 217 1180T226 1233T237 1284T246 1320Q362 1326 511 1332T810 1338Q919 1338 1021 1334T1205 1319Q1194 1270 1179 1223T1152 1149Q1131 1150 1088 1151T991 1152T884 1153T791 1155Q782 1118 764
1042T721 864T671 651T618 430T571 229T536 76T518 0Q492 -4 450 -7T367 -12T300 -14Q314 46 336 139T385 344T443 575T501 804T554 1004Q566 1049 576 1086T594 1153Q555 1151 504 1150T399 1146T296 1143T211 1140Z" />
<glyph unicode="U" horiz-adv-x="1212" d="M492 -37Q309 -37 234 62T159 339Q159 447 183 583T248 877Q278 990 314 1110T390 1353Q415 1356 442 1358T495 1360Q530 1360 561 1358T615 1352Q579 1250 538 1124T463 870Q438 778 418 691T386 531T374 408Q374 192
548 192Q680 192 777 330T942 721Q953 766 968 827T1000 957T1031 1095T1057 1224T1075 1329Q1101 1329 1132 1327T1195 1322T1250 1316T1284 1309Q1277 1251 1264 1178T1234 1025T1195 870Q1142 674 1081 509T941 221T752 31T492 -37Z" />
<glyph unicode="V" horiz-adv-x="1172" d="M466 -20Q429 -20 392 -17T335 -10Q326 57 319 165T307 404T298 673T292 939T288 1170T287 1330Q317 1339 359 1345T443 1356T511 1360Q511 1318 511 1237T511 1048T512 821T513 579T513 347T510 151L490 147Q555 258
623 386T758 647T884 902T989 1124T1064 1287T1097 1362Q1131 1360 1170 1355T1246 1340T1310 1317Q1219 1130 1133 962T967 650T821 387T704 183T622 46T584 -16Q563 -18 533 -19T466 -20Z" />
<glyph unicode="W" horiz-adv-x="1344" d="M723 -16Q721 35 719 108T716 262T712 419T709 555T709 643L730 645Q724 634 692 588T612 475T512 335T410 190T323 68T270 -4L58 3Q81 134 106 265T158 530T217 798T282 1070T353 1349L568 1340Q539 1231 508 1116T445
885T385 655T331 435T286 234L272 231Q293 267 331 327T417 459T514 607T608 750T682 866T721 935L886 936Q885 925 882 875T876 749T870 590T865 424T860 279T858 186L830 182Q871 271 916 386T1007 630T1096 888T1175 1136T1235 1346L1444 1367Q1395 1184 1333
1000T1207 646T1085 340T986 114T932 2L723 -16Z" />
<glyph unicode="X" horiz-adv-x="1166" d="M540 671Q512 761 473 856T395 1035T324 1180T280 1263Q303 1274 334 1285T399 1306T463 1324T517 1335Q532 1305 552 1250T595 1124T643 971T692 807Q755 873 815 949T929 1097T1019 1228T1074 1316Q1112 1310 1153
1298T1229 1271T1278 1242Q1225 1166 1151 1078T999 904T856 751T756 652Q778 606 807 525T868 351T925 174T964 37Q932 19 895 6T822 -16T756 -30Q745 30 726 115T680 297T620 486Q603 463 566 419T479 322T378 213T280 109T204 28T166 -11Q60 1 -47 45Q34 124
121 215T291 393T438 554T540 671Z" />
<glyph unicode="Y" horiz-adv-x="1065" d="M451 524Q440 551 425 607T391 735T356 887T323 1043T296 1180T279 1276Q342 1298 395 1308T490 1321Q491 1304 498 1253T515 1132T536 985T560 843T583 734Q602 760 644 817T741 945T850 1089T952 1219T1026 1305Q1061
1299 1096 1285T1162 1255T1211 1223Q1152 1163 1068 1065T876 834T642 536Q634 501 619 447T590 338T566 247Q555 203 542 151T518 56T503 1Q491 -2 466 -4T413 -6Q383 -6 353 -4T298 3Q322 94 348 190T402 373T451 524Z" />
<glyph unicode="Z" horiz-adv-x="1044" d="M814 -14Q637 -14 428 -6T-25 22Q-21 42 -13 77T3 148T18 206Q76 256 155 335T326 508T510 699T684 887T829 1048T923 1157Q897 1157 830 1153T673 1144T492 1132T323 1119Q326 1135 331 1159T343 1208Q350 1234 357
1257T369 1294Q434 1299 513 1304T679 1315T850 1325T1005 1330Q1022 1330 1060 1330T1138 1331T1196 1330Q1194 1316 1190 1294T1180 1252Q1172 1224 1165 1200T1152 1165Q1097 1094 1019 1004T850 815T670 622T498 442T354 297T260 209Q299 205 361 202T497 198T649
196Q708 196 768 198T881 202Q878 184 871 156T855 99Q845 65 833 33T814 -14Z" />
<glyph unicode="[" horiz-adv-x="735" d="M69 -527Q12 -527 -47 -525T-161 -520Q-120 -281 -58 -9T76 532Q132 743 191 937T307 1295T413 1576Q465 1585 539 1593T695 1607T859 1616T1006 1620Q998 1588 984 1547Q975 1523 967 1504T954 1475Q920 1475 852 1471T703
1461T554 1448Q520 1361 482 1248T404 1005T324 736T247 457Q203 294 164 138T96 -146T52 -358Q65 -359 108 -360T206 -362Q257 -362 314 -362T410 -362Q404 -382 394 -412T374 -471T358 -515Q306 -519 231 -523T69 -527Z" />
<glyph unicode="\" horiz-adv-x="725" d="M573 -15Q526 -44 478 -64T391 -93Q340 144 305 390T250 893T222 1421Q246 1440 298 1453T399 1470Q399 1385 405 1272T421 1027T447 757T482 480T524 216T573 -15Z" />
<glyph unicode="]" horiz-adv-x="619" d="M648 522Q601 350 548 178T437 -158T320 -469Q238 -485 139 -494T-52 -507T-208 -511Q-203 -490 -196 -461T-181 -403T-168 -358Q-135 -358 -84 -355T22 -348T119 -338T178 -329Q223 -220 269 -84T361 205T448 510Q488
660 522 804T584 1075T627 1303T649 1466Q608 1471 553 1473T443 1477T344 1478Q329 1484 319 1489T306 1500Q314 1530 326 1566T347 1627Q378 1627 412 1627T477 1628Q578 1628 669 1622T851 1601Q839 1417 789 1140T648 522Z" />
<glyph unicode="^" horiz-adv-x="1032" d="M859 1325Q884 1290 917 1231T983 1099T1043 950T1081 805Q1053 784 1013 769T919 741Q916 775 901 826T863 937T816 1053T767 1158T722 1231H807Q757 1195 694 1145T564 1036T434 920T320 813T238 731Q206 739 168 760T107
812Q168 874 245 946T404 1089T560 1223T689 1326Q707 1330 731 1331T778 1333Q805 1333 826 1331T859 1325Z" />
<glyph unicode="_" horiz-adv-x="1549" d="M257 14Q422 14 586 16T898 22T1167 29T1366 36Q1349 -24 1333 -73T1303 -153Q1253 -155 1169 -157T966 -159Q875 -159 750 -159T482 -157T192 -153T-88 -149Q-87 -140 -84 -120T-77 -74T-67 -24T-59 16Q-37 15 5 15T95
14T187 14T257 14Z" />
<glyph unicode="`" horiz-adv-x="663" d="M338 1436Q359 1434 410 1417T526 1371T652 1306T756 1230Q748 1216 733 1196T704 1159T683 1138Q650 1158 593 1181T468 1229T336 1274T223 1307Q232 1318 250 1341T291 1391T338 1436Z" />
<glyph unicode="a" horiz-adv-x="1295" d="M402 -21Q230 -21 129 47T28 265Q28 374 77 451T211 576T400 646T616 669Q683 669 746 660T856 638T917 618Q922 644 922 673T919 733Q912 819 842 859T665 900Q588 900 519 877T394 816T299 733L166 840Q257 937 398
1000T700 1063Q884 1063 992 983T1101 732Q1101 684 1091 628T1065 512Q1042 433 1023 354T1003 216Q1003 187 1014 178T1045 169Q1078 169 1105 196T1150 275L1220 168Q1192 84 1130 40T997 -4Q923 -4 888 36T853 158Q823 118 755 77T596 7T402 -21ZM467 136Q532
136 599 155T728 208T834 282Q850 344 863 392T889 482Q863 492 786 508T606 525Q540 525 474 512T354 470T266 399T233 298Q233 210 291 173T467 136Z" />
<glyph unicode="b" horiz-adv-x="1200" d="M60 -14Q67 21 85 104T129 301T186 547T248 810T307 1062T358 1272T393 1408Q407 1410 463 1418T590 1435Q572 1363 546 1253T492 1015T436 760Q455 777 489 804T569 858T673 903T793 921Q956 921 1026 832T1096 570Q1096
462 1063 361T963 180T800 52T577 4Q500 4 443 23T349 69T298 113Q291 84 282 42T268 -19Q226 -20 162 -19T60 -14ZM336 279Q348 264 379 242T459 201T574 183Q676 183 750 229T864 355T904 534Q904 641 870 697T730 754Q660 754 596 723T481 649T398 573Q396 562
390 533T375 464T359 387T345 319T336 279Z" />
<glyph unicode="c" horiz-adv-x="1026" d="M879 208Q845 159 778 110T620 27T419 -7Q297 -7 219 44T102 186T64 392Q64 537 109 664T238 888T437 1040T692 1095Q784 1095 856 1065T974 983T1034 871L873 780Q872 791 864 816T836 868T775 915T668 934Q574 934
499 892T372 777T292 613T264 422Q264 322 310 258T467 193Q530 193 582 212T673 257T736 308T767 342L879 208Z" />
<glyph unicode="d" horiz-adv-x="1195" d="M730 3Q735 21 743 55T760 122T774 172Q765 160 739 133T668 76T555 25T396 4Q297 4 221 51T102 182T59 380Q59 553 133 683T337 886T638 959Q729 959 795 939T904 892T961 843Q973 887 993 950T1038 1084T1084 1223T1125
1343T1154 1420Q1194 1420 1241 1417T1321 1405Q1200 1055 1101 707T905 -2Q887 -2 852 -2T783 0T730 3ZM467 189Q535 189 592 211T695 265T772 329T820 378Q827 401 839 443T865 533T891 622T909 683Q892 704 853 729T759 773T633 791Q462 791 357 693T252 422Q252
304 311 247T467 189Z" />
<glyph unicode="e" horiz-adv-x="1104" d="M964 223Q937 195 892 159T783 90T638 34T458 11Q277 11 171 110T64 398Q64 548 114 670T254 882T462 1019T719 1067Q883 1067 969 980T1055 742Q1055 688 1044 632T1012 520Q1001 520 960 520T861 521T746 521T646 518Q581
517 507 513T369 504T269 492Q260 457 260 403Q260 344 289 297T372 222T497 194Q571 194 631 216T739 270T818 331T866 374Q871 369 885 352T915 312T946 266T964 223ZM305 625Q333 630 388 635T515 644T667 650Q714 651 758 651T833 652T870 652Q876 672 879
698T882 748Q881 795 863 835T804 901T694 927Q607 927 525 891T383 787T305 625Z" />
<glyph unicode="f" horiz-adv-x="896" d="M166 -4Q166 3 171 60T185 199T203 366T220 513Q184 507 132 494T45 469Q45 488 48 520T55 585T65 641Q76 645 101 651T156 665T212 678T248 686Q256 742 267 801T292 914Q325 1035 389 1137T548 1301T766 1364Q847 1364
903 1339T994 1277T1046 1204T1068 1146Q1053 1129 1032 1107T988 1061T945 1019T914 991Q910 1005 901 1035T873 1096T824 1150T744 1173Q673 1173 623 1134T540 1032T487 896Q477 857 468 805T453 716Q487 719 546 723T662 729T749 730Q745 697 735 650T714 565Q705
565 656 562T544 554T430 543Q427 514 422 459T411 338T402 206T394 89T389 13Q361 9 320 5T237 -1T166 -4Z" />
<glyph unicode="g" horiz-adv-x="1231" d="M577 231Q421 231 332 278T205 401T168 559Q168 711 247 822T456 995T743 1056Q937 1056 1032 971T1127 741Q1127 585 1055 471T859 294T577 231ZM337 -499Q200 -499 96 -472T-68 -387T-128 -236Q-128 -152 -87 -88T25
22T180 91T354 119Q416 121 486 122T632 123Q773 123 854 68T936 -97Q936 -208 889 -285T759 -409T568 -477T337 -499ZM368 -367Q461 -367 545 -346T683 -276T736 -145Q736 -98 710 -73T643 -38T559 -28Q501 -28 439 -28T320 -28Q261 -28 205 -49T113 -111T77 -212Q77
-266 115 -300T219 -351T368 -367ZM240 36Q148 53 107 97T66 190Q66 238 92 278T162 345T254 382L361 309Q304 293 271 265T237 202Q237 170 266 145T354 119L240 36ZM588 389Q689 389 769 427T895 537T941 705Q941 791 888 845T734 899Q636 899 554 862T424 754T375
584Q375 498 430 444T588 389ZM1058 838L966 933Q992 972 1035 1015T1125 1095T1211 1155Q1218 1141 1232 1116T1261 1066T1286 1025Q1268 1015 1237 993T1170 943T1104 887T1058 838Z" />
<glyph unicode="h" d="M181 -20Q163 -22 136 -23T79 -24Q46 -24 18 -22T-23 -15Q5 55 40 163T115 403T193 677Q227 806 258 937T317 1191T365 1414Q373 1417 397 1421T453 1430T511 1438T553 1443Q549 1368 530 1257T481 1015T417 748Q457 791 519 828T654 888T799
911Q918 911 972 853T1027 684Q1027 624 1008 539T958 358T891 168T822 -6Q799 -9 773 -10T722 -12Q666 -12 623 -3Q651 60 685 144T750 317T801 483T821 609Q821 668 791 701T696 734Q640 734 588 715T492 666T414 605T363 550Q340 467 315 382T265 218T218 77T181
-20Z" />
<glyph unicode="i" horiz-adv-x="610" d="M237 -1Q222 -2 192 -4T130 -6Q102 -6 77 -4T29 1Q39 23 59 84T107 232T165 417T225 611T279 789T319 922Q340 924 376 926T448 930T505 932Q501 905 488 848T456 720Q431 627 400 517T336 301T278 114T237 -1ZM472 1084Q417
1084 384 1112T351 1186Q351 1238 375 1279T441 1346T534 1371Q582 1371 611 1341T641 1265Q641 1218 619 1177T558 1110T472 1084Z" />
<glyph unicode="j" horiz-adv-x="650" d="M411 184Q373 36 326 -86T214 -296T65 -431T-135 -479Q-232 -479 -308 -442T-431 -338T-488 -183Q-443 -154 -384 -126T-283 -84Q-279 -133 -260 -183T-204 -268T-108 -302Q-50 -302 -4 -258T79 -142T144 14T193 180Q223
294 248 424T292 686T321 937L531 949Q527 875 517 783T492 588T456 382T411 184ZM490 1376Q551 1376 583 1341T616 1262Q616 1219 591 1182T524 1122T435 1099Q381 1099 346 1130T311 1206Q311 1253 335 1291T401 1353T490 1376Z" />
<glyph unicode="k" horiz-adv-x="1156" d="M781 -43Q770 -5 747 53T694 177T632 307T571 420T520 493Q505 484 477 467T419 429T365 394T333 371Q320 328 302 269T265 150T230 42T207 -28Q184 -30 160 -32T111 -34Q82 -34 55 -32T7 -26Q20 13 46 99T107 303T184
555T266 825T345 1084T413 1301T460 1448Q480 1449 502 1450T548 1451Q578 1451 604 1449T651 1439Q622 1339 588 1221T520 987T456 772T407 614Q452 654 520 699T668 790T827 878T974 954T1088 1010Q1102 996 1121 968T1156 909T1180 862Q1140 843 1073 809T929
734T785 657T677 594Q694 577 722 535T785 433T855 305T922 165T977 30Q966 25 940 15T883 -7T823 -28T781 -43Z" />
<glyph unicode="l" horiz-adv-x="645" d="M498 64Q465 31 404 -2T261 -36Q156 -36 108 15T59 157Q59 214 77 309T126 522T194 766T271 1017T345 1247T405 1429Q452 1433 490 1433Q517 1433 542 1431T594 1426Q563 1335 526 1224T452 995T379 761T316 543T272 363T256
243Q256 199 272 173T327 146Q368 146 398 166T453 217Q457 209 463 188T477 140T491 92T498 64Z" />
<glyph unicode="m" horiz-adv-x="1858" d="M40 -9Q52 63 72 163T117 376T168 603T219 819T265 999Q282 1004 308 1009T365 1018T422 1024T465 1027Q461 1011 454 981T439 917T425 855T416 816Q429 837 460 873T541 946T658 1008T809 1033Q920 1033 969 969T1024
817Q1025 780 1021 742T1007 668Q1050 763 1118 849T1280 991T1492 1046Q1630 1046 1692 975T1754 778Q1754 702 1736 606T1687 402T1622 188T1551 -16Q1527 -19 1502 -20T1451 -22Q1427 -22 1401 -21T1348 -17Q1399 108 1448 243T1529 500T1562 709Q1562 867 1435
867Q1342 867 1271 812T1144 665T1046 455T968 213Q953 160 938 104T908 -9Q892 -10 868 -11T818 -13Q789 -13 760 -12T717 -7Q754 120 787 252T842 501T864 693Q864 779 834 819T728 860Q672 860 613 830T501 756T412 665T364 584Q327 424 302 297T262 89T246
-13Q236 -14 213 -15T171 -16Q133 -16 97 -14T40 -9Z" />
<glyph unicode="n" horiz-adv-x="1330" d="M233 -13Q213 -13 186 -13T132 -13Q107 -12 76 -11T28 -7Q61 76 94 174T166 396T250 677T350 1036Q375 1040 409 1042T479 1045Q501 1045 523 1044T561 1040Q560 1029 552 998T535 931T518 874Q563 915 642 958T815 1030T993
1060Q1145 1060 1208 1000T1271 824Q1271 755 1250 657T1195 444T1120 215T1041 -3Q1026 -5 998 -7T937 -9Q905 -9 877 -8T832 -3Q868 81 907 182T982 386T1039 578T1061 727Q1061 796 1026 834T907 872Q818 872 734 842T582 772T469 698Q420 530 374 389T292 145T233
-13Z" />
<glyph unicode="o" horiz-adv-x="1171" d="M477 -31Q269 -31 168 74T66 353Q66 503 112 633T244 861T450 1014T720 1070Q915 1070 1005 965T1095 675Q1095 527 1054 400T932 175T738 24T477 -31ZM500 148Q597 148 673 190T802 305T884 469T912 657Q912 772 858
844T686 916Q589 916 512 873T379 755T295 588T266 400Q266 290 324 219T500 148Z" />
<glyph unicode="p" horiz-adv-x="1210" d="M-175 -439Q-118 -288 -60 -119T53 223T156 553T242 841T304 1058Q346 1070 401 1075T505 1081Q500 1055 488 1009T466 926Q495 954 550 989T681 1052T847 1079Q955 1079 1023 1037T1124 919T1157 737Q1157 558 1086
410T883 173T573 85Q498 85 431 106T317 157T254 209Q247 187 228 128T182 -9T127 -167T73 -316T33 -421Q-3 -427 -43 -431T-119 -437T-175 -439ZM585 282Q708 282 791 339T917 492T959 708Q959 807 916 859T769 911Q710 911 655 894T553 853T472 804T420 762Q417
748 406 712T381 628T353 532T327 447T311 397Q327 379 361 352T450 303T585 282Z" />
<glyph unicode="q" horiz-adv-x="1207" d="M802 -456Q750 -456 700 -453T612 -446Q624 -366 644 -267T691 -62T745 147Q724 125 681 97T574 50T432 30Q319 30 249 76T147 204T114 392Q114 589 182 746T379 994T694 1085Q813 1085 893 1047T1015 963Q1020 979 1030
1005T1050 1056T1066 1090Q1107 1090 1154 1082T1238 1061Q1181 919 1122 755T1011 426T918 113Q888 -1 865 -110T827 -309T802 -456ZM490 225Q557 225 619 247T728 298T797 347Q805 372 820 418T854 518T892 628T928 729T955 802Q945 813 910 837T819 881T693
902Q574 902 488 838T356 668T309 436Q309 344 350 285T490 225Z" />
<glyph unicode="r" horiz-adv-x="853" d="M370 886Q414 937 479 979T621 1046T771 1071Q823 1071 874 1062T948 1039L854 838Q833 848 799 859T710 871Q650 871 586 848T463 787T359 700Q353 630 340 530T309 325T275 134T247 3Q203 -1 141 -2T27 -2Q52 92 76
196T120 408T157 623T183 832T194 1025Q223 1033 260 1041T330 1055T373 1062Q373 1025 373 971T370 886Z" />
<glyph unicode="s" horiz-adv-x="992" d="M363 -81Q264 -81 176 -54T22 17T-75 111Q-64 124 -45 147T-2 198T43 248T79 283Q110 235 158 191T267 119T398 91Q469 91 533 113T639 181T680 295Q680 367 625 413T472 498Q391 531 331 569T239 661T206 792Q206 876
247 937T356 1039T507 1099T673 1119Q797 1119 887 1088T1021 1021Q1011 1004 991 977T946 921T898 870Q859 902 796 931T655 960Q614 960 569 952T485 926T421 879T396 807Q396 753 446 713T587 639Q676 605 741 560T841 453T876 314Q876 184 804 96T615 -36T363
-81Z" />
<glyph unicode="t" horiz-adv-x="964" d="M766 175Q741 127 700 77T597 -6T448 -40Q336 -40 289 26T241 193Q241 240 254 315T287 477T330 648T373 799T405 902Q304 892 230 881T133 863Q135 895 141 930T154 995T163 1034Q221 1042 298 1051T448 1065Q463 1113
478 1166T506 1270Q517 1313 526 1353T541 1421L728 1432Q727 1424 720 1390T701 1307T674 1205Q666 1174 657 1142T640 1076Q670 1078 714 1080T786 1082Q834 1083 877 1083T950 1082T988 1080Q985 1053 974 1006T954 926Q944 927 886 927T770 927Q730 925 682
923T594 918Q581 879 561 812T517 662T474 499T440 350T427 244Q427 193 443 164T503 134Q547 134 580 163T638 230T676 298Q681 293 694 276T722 237T749 197T766 175Z" />
<glyph unicode="u" horiz-adv-x="1178" d="M944 1000Q960 1004 989 1007T1047 1010Q1071 1010 1100 1009T1145 1004Q1135 907 1119 806T1076 607Q1040 473 988 354T861 145T686 2T454 -50Q326 -50 250 -4T141 124T108 314Q108 417 132 536T197 784T282 1041Q301
1042 327 1042T377 1041Q407 1039 436 1036T484 1026Q442 914 404 793T341 559T316 356Q316 243 361 188T491 132Q575 132 646 189T776 355T877 619Q901 708 918 803T944 1000Z" />
<glyph unicode="v" horiz-adv-x="1007" d="M920 1091Q963 1083 1002 1072T1069 1053T1102 1041Q1074 985 1029 905T926 730T807 534T681 335T560 149T454 -6Q419 -12 364 -12Q339 -12 317 -10T279 -6Q254 112 235 247T203 523T182 798T169 1047Q182 1051 205 1056T255
1068T308 1081T352 1092Q352 994 358 870T373 620T394 386T420 216L405 213Q447 275 500 358T611 538T727 732T834 923T920 1091Z" />
<glyph unicode="w" horiz-adv-x="1520" d="M326 7Q201 7 149 85T97 290Q97 396 125 524T199 789T294 1059Q333 1059 387 1057T481 1052Q448 965 415 866T352 667T306 483T288 337Q288 272 310 235T381 197Q434 197 484 243T580 372T666 563T740 798Q754 850 771
918T800 1040Q821 1040 854 1040T922 1039T977 1036Q937 890 908 779T860 584T832 438T822 326Q822 258 843 219T917 180Q975 180 1028 232T1130 373T1219 577T1293 816Q1306 862 1321 926T1349 1041Q1368 1042 1389 1042T1432 1042Q1454 1042 1481 1041T1527 1037Q1521
1002 1511 957T1491 869T1471 790Q1440 676 1400 564T1308 353T1195 178T1060 58T899 14Q827 14 782 42T713 118T681 226T672 352L724 376Q707 312 671 247T583 127T466 40T326 7Z" />
<glyph unicode="x" horiz-adv-x="1142" d="M83 -13Q68 1 45 25T1 74T-29 116Q-9 131 37 172T147 268T278 384T409 501T519 600Q468 691 408 774T291 926T197 1039Q206 1048 227 1063T275 1095T326 1128T369 1152Q394 1123 435 1068T520 949T601 825T653 727Q723
795 792 868T924 1014T1039 1157Q1062 1146 1093 1131T1154 1101T1200 1073Q1164 1029 1110 968T993 840T864 708T738 592Q763 546 792 482T849 346T903 207T946 82Q915 59 860 30T763 -17Q753 33 733 98T689 231T639 359T591 458Q540 409 483 353T366 241T253
135T155 47T83 -13Z" />
<glyph unicode="y" horiz-adv-x="1079" d="M182 -528Q90 -528 10 -507T-131 -456T-225 -397Q-216 -383 -199 -361T-161 -314T-121 -267T-89 -232Q-67 -252 -22 -279T85 -328T215 -349Q305 -349 378 -303T510 -177T613 3T686 209Q663 170 619 131T508 66T354 40Q217
40 160 117T103 326Q103 461 147 631T249 979Q263 982 288 983T341 984Q374 984 404 983T445 978Q422 919 397 842T349 683T312 526T298 394Q298 320 326 272T426 224Q501 224 567 267T688 393T784 599Q800 646 818 704T853 817T881 910T893 957Q909 959 926 960T961
961Q1022 961 1069 949Q1051 867 1019 749Q993 654 959 538T887 299T810 56Q756 -114 670 -246T464 -453T182 -528Z" />
<glyph unicode="z" horiz-adv-x="1074" d="M846 5Q762 1 647 -2T411 -6Q279 -6 153 -2T-65 12L-10 185Q18 212 70 258T189 362T332 483T482 609T623 726T741 822T817 883Q804 884 773 884T701 885T615 885T526 885Q472 885 415 884T310 882T229 880T189 877L240
1038Q264 1038 312 1039T427 1041T570 1043T728 1044Q820 1044 920 1044T1110 1039Q1110 1035 1106 1015T1096 968T1085 920T1076 888Q1035 858 966 803T812 677T639 532T471 388T331 265T242 183Q268 178 343 176T506 174Q581 174 658 176T800 182T907 190Q904
181 897 155T879 98T860 41T846 5Z" />
<glyph unicode="{" horiz-adv-x="665" d="M284 -397Q184 -384 135 -307T86 -122Q86 -39 109 22T159 138Q184 188 204 239T224 353Q224 416 180 455T55 513Q55 527 59 549T68 592Q73 612 79 632T93 664Q195 680 251 746T324 913Q331 954 333 985T336 1046Q336 1076
339 1106T353 1175Q379 1275 441 1359T598 1497T817 1561Q827 1548 831 1523T837 1469T838 1422Q758 1412 694 1369T587 1264T526 1134Q516 1095 514 1066T511 1008Q511 981 509 951T495 879Q474 789 423 725T304 624T165 584L171 600Q230 595 283 573T370 508T405
395Q405 331 384 277T336 169Q309 113 287 55T264 -76Q264 -145 293 -196T384 -261Q362 -295 338 -330T284 -397Z" />
<glyph unicode="|" horiz-adv-x="487" d="M35 -558Q1 -558 -48 -555T-133 -546Q-97 -385 -37 -145T105 404Q170 647 249 929T421 1527Q437 1529 467 1530T531 1532T590 1534Q566 1426 534 1291T465 1004T389 694T309 382T231 89Q192 -57 156 -183T90 -406T35 -558Z" />
<glyph unicode="}" horiz-adv-x="614" d="M-94 -401Q-104 -382 -111 -346T-119 -266Q-32 -249 29 -208T128 -107T178 29Q185 63 186 91T186 146Q186 173 187 202T196 268Q211 362 262 438T385 559T531 606L523 585Q472 588 418 610T327 675T290 789Q290 852 312
906T363 1014Q392 1070 417 1131T442 1270Q442 1337 414 1386T314 1448Q335 1479 368 1517T427 1581Q527 1567 574 1491T622 1314Q622 1230 594 1160T533 1027Q505 972 484 920T462 813Q462 748 512 718T634 678Q634 658 633 637T625 596Q620 576 611 555T592 522Q526
513 479 474T402 376T360 245Q353 214 351 186T349 129Q350 100 348 71T337 7Q326 -69 289 -139T195 -265T64 -356T-94 -401Z" />
<glyph unicode="~" horiz-adv-x="1115" d="M227 736Q242 778 278 820T367 891T483 919Q541 919 582 890T658 824Q689 792 722 767T797 741Q843 741 872 777T917 859L1033 797Q1028 775 1011 743T965 680T896 627T805 606Q744 606 699 640T616 712Q585 743 555
766T492 789Q452 789 421 768T369 716T335 654L227 736Z" />
<glyph unicode="&#xa0;" horiz-adv-x="615" />
<glyph unicode="&#xa1;" horiz-adv-x="708" d="M344 677Q362 677 395 676T460 673T510 668Q488 573 459 457T397 218T333 -22T271 -239T220 -406L-1 -396Q20 -344 53 -245T127 -22T209 233T285 479T344 677ZM510 1093Q577 1093 614 1058T651 970Q651 918 624 879T552
817T456 795Q396 795 358 830T320 920Q320 969 347 1008T417 1070T510 1093Z" />
<glyph unicode="&#xa2;" horiz-adv-x="1026" d="M775 1318Q802 1318 837 1314T882 1303Q851 1212 805 1096T704 850T592 592T479 346T378 134T298 -17Q266 -14 233 -5T178 16Q235 121 301 253T435 531T567 819T684 1091T775 1318ZM868 327Q834 278 767 229T609
146T408 112Q286 112 208 164T92 306T54 511Q54 656 99 783T228 1007T426 1159T681 1214Q774 1214 845 1184T963 1102T1023 990L862 899Q861 911 853 935T825 987T765 1034T658 1053Q564 1053 489 1011T361 896T281 732T253 542Q253 441 299 377T457 312Q519 312
571 331T662 376T725 427T756 461L868 327Z" />
<glyph unicode="&#xa3;" horiz-adv-x="1140" d="M218 569Q175 569 143 570T94 575L138 726Q159 725 187 724T251 723Q320 723 407 725T582 734T741 746T849 760Q848 750 845 731T836 690T826 648T818 614Q782 604 711 596T550 582T374 573T218 569ZM-9 -30Q-10
-15 -11 6T-14 52T-18 97T-20 132Q44 157 102 207T207 323T283 462T318 603Q328 667 326 729T332 851Q344 996 420 1105T618 1274T885 1334Q967 1334 1027 1315T1125 1271T1181 1226Q1177 1217 1165 1197T1137 1155T1108 1113T1087 1087Q1058 1121 1001 1152T873
1184Q766 1184 681 1138T548 1008T500 815Q500 774 501 721T502 626Q502 558 476 486T405 347T306 227T192 142Q226 155 272 163T366 176T448 181Q525 181 587 168T700 155Q771 155 822 168T933 206Q933 197 934 176T937 130T940 84T940 52Q881 26 803 11T666 -4Q600
-4 549 2T450 15T348 22Q233 22 139 2T-9 -30Z" />
<glyph unicode="&#xa4;" horiz-adv-x="974" d="M31 78Q25 87 12 102T-15 134T-43 166T-62 191Q-21 226 29 266T131 346T228 421L327 339Q307 322 271 289T191 217T105 141T31 78ZM690 102Q666 137 639 179T588 257T548 309L676 394Q700 367 726 334T778 269T822
214Q813 204 797 189T761 158T723 126T690 102ZM294 679Q251 727 208 786T130 896Q138 903 156 917T197 948T240 979T273 1001Q297 975 322 938T372 860T415 781L294 679ZM747 684L673 783Q727 827 797 884T937 998Q943 991 954 976T978 943T1001 909T1016 885Q947
831 878 779T747 684ZM389 238Q309 238 248 270T152 359T118 486Q118 591 176 673T329 802T529 850Q653 850 730 788T808 622Q808 544 773 475T679 353T545 269T389 238ZM414 382Q471 382 522 410T605 486T638 591Q638 642 605 674T496 706Q441 706 393 679T314
607T284 504Q284 447 317 415T414 382Z" />
<glyph unicode="&#xa5;" horiz-adv-x="1065" d="M123 488Q130 512 140 539T162 591T179 627Q252 632 319 635T457 640T614 642Q714 642 799 639T942 628Q940 594 935 560T923 500Q900 500 840 500T699 498T529 495T358 493T213 490T123 488ZM859 251Q833 251 770
251T624 251T450 252T276 252T132 252T47 252Q56 282 68 312T96 372Q168 376 242 379T401 383T582 385Q669 385 748 383T886 377Q884 362 880 340T871 295T859 251ZM442 524Q431 551 416 607T382 735T347 887T314 1043T288 1180T270 1276Q333 1298 386 1308T481
1321Q482 1304 489 1253T506 1132T528 985T552 843T574 734Q594 760 636 817T732 945T841 1089T943 1219T1017 1305Q1052 1299 1087 1285T1153 1255T1202 1223Q1143 1163 1059 1065T868 834T634 536Q625 501 611 447T582 338T557 247Q546 203 533 151T509 56T495
1Q482 -2 457 -4T404 -6Q374 -6 344 -4T290 3Q313 94 339 190T393 373T442 524Z" />
<glyph unicode="&#xa6;" horiz-adv-x="432" d="M50 272Q89 275 137 276T223 277Q215 246 196 173T153 7T106 -179T64 -346T38 -453Q23 -458 -7 -461T-69 -465T-122 -467Q-115 -432 -100 -362T-65 -204T-23 -25T18 145T50 272ZM177 719Q203 820 237 934T306 1159T371
1360T419 1502Q442 1502 471 1501T526 1496T565 1485Q551 1438 528 1359T479 1187T427 1001T381 833T350 717Q316 716 279 716T214 717T177 719Z" />
<glyph unicode="&#xa7;" horiz-adv-x="1000" d="M578 731Q523 727 462 706T357 645T314 550Q314 492 371 448T517 372Q609 342 672 296T767 189T800 56Q800 -69 730 -160T546 -301T301 -350Q205 -350 111 -325T-57 -256T-168 -161Q-158 -145 -141 -124T-102 -79T-61
-37T-25 -7Q8 -53 64 -93T188 -158T327 -182Q401 -182 467 -156T576 -80T618 39Q618 109 563 153T398 240Q322 270 260 306T161 392T124 513Q124 601 169 664T290 767T454 828L578 731ZM564 323Q617 340 665 373T745 452T777 548Q777 612 705 656T526 742Q414 786
348 842T282 1001Q282 1121 343 1199T507 1318T732 1358Q811 1358 881 1343T1006 1303T1092 1253Q1085 1243 1067 1218T1024 1164T974 1113Q948 1134 908 1153T819 1186T718 1199Q655 1199 597 1183T501 1133T463 1042Q463 986 517 947T658 874Q749 841 817 798T922
698T960 568Q960 480 916 410T801 288T644 203L564 323Z" />
<glyph unicode="&#xa8;" horiz-adv-x="944" d="M489 1193Q440 1193 401 1224T361 1308Q361 1364 399 1401T487 1439Q541 1439 578 1402T615 1309Q615 1259 577 1226T489 1193ZM886 1206Q833 1206 794 1241T755 1328Q755 1380 789 1411T872 1443Q927 1443 966 1409T1006
1321Q1006 1285 989 1260T945 1220T886 1206Z" />
<glyph unicode="&#xa9;" horiz-adv-x="1745" d="M750 -68Q542 -68 395 -4T171 178T94 453Q94 659 167 825T374 1108T687 1287T1080 1350Q1274 1350 1410 1285T1619 1098T1691 809Q1691 609 1621 448T1423 171T1125 -6T750 -68ZM765 85Q926 85 1060 135T1293 278T1446
503T1500 796Q1500 988 1384 1095T1043 1203Q887 1203 752 1151T516 1003T357 778T300 495Q300 361 359 270T523 132T765 85ZM819 284Q681 284 610 350T538 534Q538 666 606 768T787 930T1032 989Q1117 989 1183 967T1277 901Q1245 867 1211 836T1153 785Q1143
808 1098 827T984 847Q907 847 841 810T735 710T694 571Q694 514 720 485T785 447T860 437Q917 437 966 458T1057 513T1131 581Q1157 566 1185 542T1231 495Q1154 392 1044 338T819 284Z" />
<glyph unicode="&#xaa;" horiz-adv-x="750" d="M603 716Q607 725 619 754T639 799Q615 781 575 763T488 733T398 721Q285 721 218 762T151 896Q151 984 209 1040T355 1124T534 1151Q563 1151 606 1147T686 1136T731 1123Q734 1141 734 1158Q734 1229 688 1262T564
1295Q490 1295 427 1269T325 1207L251 1301Q312 1353 399 1387T594 1422Q740 1422 803 1359T867 1182Q867 1116 848 1035T800 870T740 712Q737 711 722 711T697 710Q674 710 646 712T603 716ZM449 837Q510 837 571 859T675 915Q683 936 688 952T697 982Q700 993
702 1005T707 1030Q697 1033 667 1038T599 1046T525 1050Q474 1050 424 1035T340 990T306 911Q306 868 344 853T449 837Z" />
<glyph unicode="&#xab;" horiz-adv-x="1214" d="M1259 1135Q1278 1119 1290 1094T1308 1047T1317 1015L766 595Q809 562 859 523T955 446T1038 378T1089 331Q1086 318 1077 297T1057 253T1033 209T1011 174T999 158L561 572Q745 736 923 880T1259 1135ZM765 1120Q789
1099 815 1068T852 1022L287 537Q343 478 405 413T524 290T620 194T668 149Q659 132 643 108T610 59T581 18T567 0Q434 117 313 248T91 523Q247 669 417 821T765 1120Z" />
<glyph unicode="&#xac;" horiz-adv-x="1000" d="M965 798Q961 785 949 745T920 649T882 530T843 405T807 294Q796 293 775 292T731 291T687 290T656 292Q665 320 680 369T713 472T744 571T766 640Q730 637 662 635T509 629T342 623T193 619T94 617Q99 637 105
665T119 722T133 773Q175 775 260 778T450 785T660 792T846 796T965 798Z" />
<glyph unicode="&#xad;" horiz-adv-x="719" d="M728 773Q723 735 711 688T690 608Q646 608 583 607T447 604T302 599T166 593T62 586Q66 603 72 627T87 676T102 723T114 757Q187 766 281 773T477 781Q558 781 622 780T728 773Z" />
<glyph unicode="&#xae;" horiz-adv-x="1400" d="M679 268Q567 268 474 295T314 373T210 498T173 666Q173 814 230 934T387 1141T621 1274T906 1321Q1049 1321 1155 1274T1319 1136T1378 915Q1378 763 1329 643T1187 439T966 312T679 268ZM686 390Q847 390 966
453T1151 631T1217 905Q1217 990 1181 1056T1072 1162T887 1201Q773 1201 673 1163T496 1056T377 893T333 685Q333 606 361 550T437 458T549 407T686 390ZM663 523Q630 523 597 528T541 542Q553 587 571 656T610 800T649 939T677 1040Q705 1054 750 1062T847 1071Q916
1071 973 1049T1030 966Q1030 903 980 859T863 798Q872 776 883 740T907 665T929 592T943 544Q921 535 887 529T814 523Q798 580 785 642T757 767Q750 767 742 767T729 767Q726 755 718 723T699 650T678 575T663 523ZM746 854Q808 854 858 877T909 948Q909 968
888 974T839 980Q820 980 802 979T771 976Q771 969 766 943T755 890T746 854Z" />
<glyph unicode="&#xaf;" horiz-adv-x="1079" d="M1084 1203Q1020 1203 928 1200T731 1193T525 1183T343 1170Q348 1199 355 1229T373 1284Q409 1291 479 1298T638 1311T818 1323T987 1332T1113 1336Q1112 1322 1104 1283T1084 1203Z" />
<glyph unicode="&#xb0;" horiz-adv-x="814" d="M515 894Q435 894 374 926T278 1015T244 1142Q244 1247 302 1329T455 1458T655 1506Q779 1506 856 1444T934 1278Q934 1200 899 1131T805 1009T671 925T515 894ZM540 1038Q597 1038 648 1066T731 1142T764 1247Q764
1298 731 1330T622 1362Q567 1362 519 1335T440 1263T410 1160Q410 1103 443 1071T540 1038Z" />
<glyph unicode="&#xb1;" horiz-adv-x="1050" d="M1059 813Q988 799 868 789T590 779Q516 779 440 781T296 789T181 800Q181 812 185 835T194 884T205 932T212 963Q240 960 285 958T390 954T514 953Q634 953 748 957T957 968T1111 985Q1104 955 1093 919T1073 854T1059
813ZM818 1337Q815 1275 803 1195T771 1024T726 838Q697 733 662 625T587 422Q578 421 556 421T506 422T455 424T421 425Q446 489 470 568T517 731Q539 810 557 893T591 1056T617 1207T635 1332Q642 1333 660 1333T704 1335T753 1336T795 1336T818 1337ZM886 343Q880
321 871 293T854 238T839 193Q799 191 722 188T551 181T361 173T186 166T61 162Q65 182 71 210T85 267T99 318Q147 321 228 324T406 331T598 337T769 341T886 343Z" />
<glyph unicode="&#xb2;" horiz-adv-x="738" d="M698 662Q697 652 692 631T681 586T669 543T661 516L99 490Q99 499 100 523T104 576T111 624Q172 667 246 721T402 838Q467 892 524 941T616 1034T651 1110Q651 1140 626 1153T564 1167Q514 1167 469 1148T385 1098T318
1031Q304 1040 286 1055T250 1086T223 1114Q296 1205 398 1261T612 1318Q700 1318 754 1280T809 1175Q809 1102 748 1017T595 846Q531 786 464 733T340 636Q363 639 408 642T507 650T612 657T698 662Z" />
<glyph unicode="&#xb3;" horiz-adv-x="781" d="M389 498Q274 498 201 540T109 642Q127 653 151 665T201 689T245 708Q254 668 298 643T413 617Q463 617 510 631T587 675T617 746Q617 792 589 813T499 841T331 847Q331 870 335 898T346 951Q388 951 442 959T547
985T631 1028T664 1092Q664 1122 639 1140T561 1159Q517 1159 471 1147T384 1116T318 1077Q305 1089 287 1106T252 1141T230 1168Q258 1188 311 1216T437 1267T594 1289Q690 1289 754 1250T819 1135Q819 1077 784 1033T695 960T584 919Q663 915 715 878T768 762Q768
670 714 612T573 526T389 498Z" />
<glyph unicode="&#xb4;" horiz-adv-x="621" d="M633 1476Q663 1462 688 1438T733 1392T760 1356Q733 1346 690 1325T597 1276T498 1221T414 1172T362 1140Q356 1143 341 1150T308 1166T276 1184T254 1199Q278 1229 328 1272T438 1359T550 1434T633 1476Z" />
<glyph unicode="&#xb5;" horiz-adv-x="1178" d="M-80 -392Q-71 -340 -52 -248T-6 -40T51 202T111 449T169 673L365 678Q330 554 302 449T248 241T195 21Q178 -49 161 -126T129 -271T107 -379Q69 -385 17 -388T-80 -392ZM944 1000Q960 1004 989 1007T1047 1010Q1071
1010 1100 1009T1145 1004Q1135 907 1119 806T1076 607Q1040 473 988 354T861 145T686 2T454 -50Q326 -50 250 -4T141 124T108 314Q108 417 132 536T197 784T282 1041Q301 1042 327 1042T377 1041Q407 1039 436 1036T484 1026Q442 914 404 793T341 559T316 356Q316
243 361 188T491 132Q575 132 646 189T776 355T877 619Q901 708 918 803T944 1000Z" />
<glyph unicode="&#xb6;" horiz-adv-x="1210" d="M759 -352Q745 -352 724 -350T680 -345T640 -340T611 -335Q634 -269 665 -173T733 37T808 273T882 513T949 736T1003 920Q1016 968 1027 1013T1046 1098Q1028 1104 1001 1110T948 1119Q910 991 863 838T768 525T674
219T592 -47T533 -236T508 -315Q493 -315 468 -315T417 -315T370 -314T340 -313Q354 -265 378 -187T431 -16T490 172T546 350T591 491T616 568Q573 559 536 559Q429 559 355 590T242 680T203 825Q203 937 238 1027T340 1182T500 1280T707 1314Q771 1314 843 1306T986
1284T1120 1249T1227 1204Q1219 1148 1201 1065T1154 880Q1126 774 1087 645T1005 378T918 106T832 -146T759 -352Z" />
<glyph unicode="&#xb7;" horiz-adv-x="450" d="M296 716Q237 716 212 746T187 817Q187 862 208 896T267 949T348 969Q401 969 425 936T450 858Q450 817 428 785T370 734T296 716Z" />
<glyph unicode="&#xb8;" horiz-adv-x="660" d="M29 -475Q-49 -475 -99 -466T-163 -451L-110 -329Q-85 -338 -37 -347T45 -356Q148 -356 212 -331T277 -238Q277 -204 251 -187T173 -170Q141 -170 102 -177T27 -195T-29 -214L48 30L175 32L134 -111Q151 -95 192
-82T276 -68Q347 -68 391 -103T435 -210Q435 -283 402 -333T312 -415T182 -460T29 -475Z" />
<glyph unicode="&#xb9;" horiz-adv-x="552" d="M359 638Q372 638 394 637T440 635T477 632Q474 623 469 606T458 569T445 532T434 505Q413 505 361 504T246 502T133 498T63 493Q66 509 73 534T87 582T100 618Q115 621 141 623T192 629T229 633Q233 650 246 697T276
806T309 928T339 1039T358 1108Q351 1104 331 1090T287 1059T243 1027T212 1004Q204 1025 196 1052T184 1104Q199 1116 240 1148T329 1215T408 1270Q422 1270 445 1269T490 1267T526 1262Q525 1251 511 1193T475 1048T425 860Q410 806 393 748T359 638Z" />
<glyph unicode="&#xba;" horiz-adv-x="750" d="M465 746Q323 746 259 811T195 991Q195 1191 305 1311T610 1432Q741 1432 803 1356T865 1163Q865 1039 816 945T677 799T465 746ZM476 882Q592 882 661 963T731 1166Q731 1231 698 1274T594 1318Q517 1318 461 1278T375
1171T345 1025Q345 962 375 922T476 882Z" />
<glyph unicode="&#xbb;" horiz-adv-x="1313" d="M334 1031Q357 1046 389 1063T452 1097T503 1121Q520 1109 559 1062T647 950T745 816T830 689Q657 557 473 432T110 200Q104 218 99 242T89 292T84 336Q90 340 127 365T221 429T350 516T496 612T637 706Q593 757
535 819T422 939T334 1031ZM793 1109Q814 1122 842 1138T897 1169T943 1190Q981 1151 1029 1093T1125 970T1216 846T1286 746T1321 694Q1141 549 956 408T581 132Q571 142 556 162T528 204T511 242Q524 252 568 284T676 366T815 472T969 590T1118 705Q1081 759
1036 819T945 936T859 1040T793 1109Z" />
<glyph unicode="&#xbc;" horiz-adv-x="1537" d="M359 638Q372 638 394 637T440 635T477 632Q474 623 469 606T458 569T445 532T434 505Q413 505 361 504T246 502T133 498T63 493Q66 509 73 534T87 582T100 618Q115 621 141 623T192 629T229 633Q233 650 246 697T276
806T309 928T339 1039T358 1108Q351 1104 331 1090T287 1059T243 1027T212 1004Q204 1025 196 1052T184 1104Q199 1116 240 1148T329 1215T408 1270Q422 1270 445 1269T490 1267T526 1262Q525 1251 511 1193T475 1048T425 860Q410 806 393 748T359 638ZM1072 1310Q1085
1306 1104 1296T1140 1276T1163 1258Q1147 1233 1096 1159T970 981T809 755T634 512T466 281T326 93T237 -22Q231 -20 218 -14T189 0T161 16T145 26Q173 59 233 138T373 325T542 555T718 799T879 1026T1004 1207T1072 1310ZM1358 203Q1333 204 1288 204T1201 201Q1185
134 1171 78T1154 6Q1136 3 1108 0T1051 -4T1005 -6Q1012 24 1023 63T1045 138T1062 192Q1008 189 937 184T806 174T728 167Q728 198 731 235T737 298Q768 334 820 389T936 508T1060 631T1166 733T1229 789Q1239 790 1259 791T1305 794T1351 796T1384 797Q1377
776 1359 722T1319 597T1276 455T1239 331Q1268 332 1300 332T1356 333T1386 332Q1386 326 1382 304T1371 254T1358 203ZM1213 633Q1193 613 1157 577T1078 498T996 414T928 343T894 303Q911 306 951 310T1036 318T1109 324Q1116 344 1129 387T1159 480T1190 572T1213
633Z" />
<glyph unicode="&#xbd;" horiz-adv-x="1426" d="M359 638Q372 638 394 637T440 635T477 632Q474 623 469 606T458 569T445 532T434 505Q413 505 361 504T246 502T133 498T63 493Q66 509 73 534T87 582T100 618Q115 621 141 623T192 629T229 633Q233 650 246 697T276
806T309 928T339 1039T358 1108Q351 1104 331 1090T287 1059T243 1027T212 1004Q204 1025 196 1052T184 1104Q199 1116 240 1148T329 1215T408 1270Q422 1270 445 1269T490 1267T526 1262Q525 1251 511 1193T475 1048T425 860Q410 806 393 748T359 638ZM1072 1310Q1085
1306 1104 1296T1140 1276T1163 1258Q1147 1233 1096 1159T970 981T809 755T634 512T466 281T326 93T237 -22Q231 -20 218 -14T189 0T161 16T145 26Q173 59 233 138T373 325T542 555T718 799T879 1026T1004 1207T1072 1310ZM1253 162Q1252 152 1247 131T1236 86T1224
43T1216 16L654 -10Q654 -1 655 23T659 76T666 124Q727 167 801 221T957 338Q1022 392 1079 441T1171 534T1206 610Q1206 640 1181 653T1119 667Q1069 667 1024 648T940 598T873 531Q859 540 841 555T805 586T778 614Q851 705 953 761T1167 818Q1255 818 1309 780T1364
675Q1364 602 1303 517T1150 346Q1086 286 1019 233T895 136Q918 139 963 142T1062 150T1167 157T1253 162Z" />
<glyph unicode="&#xbe;" horiz-adv-x="1767" d="M389 498Q274 498 201 540T109 642Q127 653 151 665T201 689T245 708Q254 668 298 643T413 617Q463 617 510 631T587 675T617 746Q617 792 589 813T499 841T331 847Q331 870 335 898T346 951Q388 951 442 959T547
985T631 1028T664 1092Q664 1122 639 1140T561 1159Q517 1159 471 1147T384 1116T318 1077Q305 1089 287 1106T252 1141T230 1168Q258 1188 311 1216T437 1267T594 1289Q690 1289 754 1250T819 1135Q819 1077 784 1033T695 960T584 919Q663 915 715 878T768 762Q768
670 714 612T573 526T389 498ZM1301 1310Q1314 1306 1333 1296T1369 1276T1392 1258Q1376 1233 1325 1159T1199 981T1038 755T863 512T695 281T555 93T466 -22Q460 -20 447 -14T418 0T390 16T374 26Q402 59 462 138T602 325T771 555T947 799T1108 1026T1233 1207T1301
1310ZM1587 203Q1562 204 1517 204T1430 201Q1414 134 1400 78T1383 6Q1365 3 1337 0T1280 -4T1234 -6Q1241 24 1252 63T1274 138T1291 192Q1237 189 1166 184T1035 174T957 167Q957 198 960 235T966 298Q997 334 1049 389T1165 508T1289 631T1395 733T1458 789Q1468
790 1488 791T1534 794T1580 796T1613 797Q1606 776 1588 722T1548 597T1505 455T1468 331Q1497 332 1529 332T1585 333T1615 332Q1615 326 1611 304T1600 254T1587 203ZM1442 633Q1422 613 1386 577T1307 498T1225 414T1157 343T1123 303Q1140 306 1180 310T1265
318T1338 324Q1345 344 1358 387T1388 480T1419 572T1442 633Z" />
<glyph unicode="&#xbf;" horiz-adv-x="1036" d="M504 682Q544 682 577 681T642 676T705 669Q682 583 644 502T546 350T397 223Q298 161 240 90T182 -73Q182 -139 222 -172T352 -205Q433 -205 493 -182T597 -122T675 -41T733 44L881 -40Q791 -212 642 -295T318
-379Q210 -379 132 -351T13 -265T-28 -119Q-28 -22 5 54T99 191T237 305Q292 340 343 390T435 511T504 682ZM696 1103Q751 1103 785 1072T820 985Q820 933 792 896T722 839T638 819Q577 819 543 848T508 927Q508 975 535 1015T606 1079T696 1103Z" />
<glyph unicode="&#xc0;" horiz-adv-x="1074" d="M139 -15Q120 -15 92 -14T32 -12T-28 -9T-75 -5Q-52 47 -8 141T93 354T215 605T345 865T468 1109T570 1305Q612 1311 668 1317T787 1328T910 1332Q949 1332 990 1330T1066 1323Q1062 1235 1049 1113T1012 829T950
462T863 0Q839 -4 801 -7T721 -13T647 -15Q652 14 662 61T684 165T708 280T731 387T750 467Q718 466 671 464T573 459T474 451T392 443T345 437Q303 352 263 266T191 106T139 -15ZM420 611Q458 619 525 625T664 635T791 642Q797 673 810 741T839 890T866 1044T882
1157Q859 1157 816 1155T733 1149T675 1143Q662 1117 637 1065T577 941T502 785T420 611ZM529 1664Q551 1663 603 1644T722 1593T851 1526T956 1453L869 1395Q836 1414 778 1437T651 1483T517 1526T404 1558Q413 1568 432 1587T478 1627T529 1664Z" />
<glyph unicode="&#xc1;" horiz-adv-x="1074" d="M139 -15Q120 -15 92 -14T32 -12T-28 -9T-75 -5Q-52 47 -8 141T93 354T215 605T345 865T468 1109T570 1305Q612 1311 668 1317T787 1328T910 1332Q949 1332 990 1330T1066 1323Q1062 1235 1049 1113T1012 829T950
462T863 0Q839 -4 801 -7T721 -13T647 -15Q652 14 662 61T684 165T708 280T731 387T750 467Q718 466 671 464T573 459T474 451T392 443T345 437Q303 352 263 266T191 106T139 -15ZM420 611Q458 619 525 625T664 635T791 642Q797 673 810 741T839 890T866 1044T882
1157Q859 1157 816 1155T733 1149T675 1143Q662 1117 637 1065T577 941T502 785T420 611ZM1083 1717Q1112 1701 1137 1680T1181 1638T1207 1605Q1171 1595 1111 1568T984 1509T864 1448T786 1406L689 1464Q718 1491 772 1530T887 1610T1002 1681T1083 1717Z" />
<glyph unicode="&#xc2;" horiz-adv-x="1074" d="M139 -15Q120 -15 92 -14T32 -12T-28 -9T-75 -5Q-52 47 -8 141T93 354T215 605T345 865T468 1109T570 1305Q612 1311 668 1317T787 1328T910 1332Q949 1332 990 1330T1066 1323Q1062 1235 1049 1113T1012 829T950
462T863 0Q839 -4 801 -7T721 -13T647 -15Q652 14 662 61T684 165T708 280T731 387T750 467Q718 466 671 464T573 459T474 451T392 443T345 437Q303 352 263 266T191 106T139 -15ZM420 611Q458 619 525 625T664 635T791 642Q797 673 810 741T839 890T866 1044T882
1157Q859 1157 816 1155T733 1149T675 1143Q662 1117 637 1065T577 941T502 785T420 611ZM969 1728Q1007 1688 1057 1639T1157 1543T1242 1467Q1208 1443 1174 1424T1112 1393Q1088 1414 1056 1446T991 1513T931 1574T892 1616H913Q904 1608 874 1584T804 1527T722
1460T650 1399Q633 1405 607 1419T555 1451T512 1483Q571 1524 640 1575T767 1669T843 1728Q856 1728 880 1728T929 1728T969 1728Z" />
<glyph unicode="&#xc3;" horiz-adv-x="1074" d="M139 -15Q120 -15 92 -14T32 -12T-28 -9T-75 -5Q-52 47 -8 141T93 354T215 605T345 865T468 1109T570 1305Q612 1311 668 1317T787 1328T910 1332Q949 1332 990 1330T1066 1323Q1062 1235 1049 1113T1012 829T950
462T863 0Q839 -4 801 -7T721 -13T647 -15Q652 14 662 61T684 165T708 280T731 387T750 467Q718 466 671 464T573 459T474 451T392 443T345 437Q303 352 263 266T191 106T139 -15ZM420 611Q458 619 525 625T664 635T791 642Q797 673 810 741T839 890T866 1044T882
1157Q859 1157 816 1155T733 1149T675 1143Q662 1117 637 1065T577 941T502 785T420 611ZM479 1559Q494 1601 530 1643T619 1713T735 1742Q794 1742 835 1712T910 1647Q941 1615 974 1590T1050 1564Q1095 1564 1125 1599T1169 1682L1285 1620Q1280 1598 1263 1566T1217
1503T1148 1450T1057 1429Q996 1429 951 1463T868 1535Q837 1566 807 1589T744 1612Q704 1612 673 1591T621 1539T587 1477L479 1559Z" />
<glyph unicode="&#xc4;" horiz-adv-x="1074" d="M139 -15Q120 -15 92 -14T32 -12T-28 -9T-75 -5Q-52 47 -8 141T93 354T215 605T345 865T468 1109T570 1305Q612 1311 668 1317T787 1328T910 1332Q949 1332 990 1330T1066 1323Q1062 1235 1049 1113T1012 829T950
462T863 0Q839 -4 801 -7T721 -13T647 -15Q652 14 662 61T684 165T708 280T731 387T750 467Q718 466 671 464T573 459T474 451T392 443T345 437Q303 352 263 266T191 106T139 -15ZM420 611Q458 619 525 625T664 635T791 642Q797 673 810 741T839 890T866 1044T882
1157Q859 1157 816 1155T733 1149T675 1143Q662 1117 637 1065T577 941T502 785T420 611ZM703 1433Q654 1433 615 1464T575 1547Q575 1603 613 1641T701 1679Q755 1679 791 1641T828 1549Q828 1499 790 1466T703 1433ZM1100 1445Q1047 1445 1008 1480T969 1568Q969
1620 1003 1651T1085 1683Q1140 1683 1179 1649T1219 1561Q1219 1525 1203 1499T1159 1459T1100 1445Z" />
<glyph unicode="&#xc5;" horiz-adv-x="1074" d="M139 -15Q120 -15 92 -14T32 -12T-28 -9T-75 -5Q-52 47 -8 141T93 354T215 605T345 865T468 1109T570 1305Q612 1311 668 1317T787 1328T910 1332Q949 1332 990 1330T1066 1323Q1062 1235 1049 1113T1012 829T950
462T863 0Q839 -4 801 -7T721 -13T647 -15Q652 14 662 61T684 165T708 280T731 387T750 467Q718 466 671 464T573 459T474 451T392 443T345 437Q303 352 263 266T191 106T139 -15ZM420 611Q458 619 525 625T664 635T791 642Q797 673 810 741T839 890T866 1044T882
1157Q859 1157 816 1155T733 1149T675 1143Q662 1117 637 1065T577 941T502 785T420 611ZM856 1381Q766 1381 703 1433T640 1568Q640 1652 685 1720T805 1828T963 1868Q1025 1868 1075 1844T1156 1780T1186 1687Q1186 1605 1139 1535T1016 1423T856 1381ZM877 1509Q915
1509 952 1528T1012 1581T1036 1652Q1036 1691 1010 1715T937 1740Q876 1740 832 1695T788 1590Q788 1551 811 1530T877 1509Z" />
<glyph unicode="&#xc6;" horiz-adv-x="1668" d="M1395 -32Q1334 -29 1246 -26T1059 -20T866 -15T697 -13Q726 95 755 209T814 433Q782 433 733 431T627 425T519 419T429 412T378 406Q327 326 278 246T187 97T120 -16Q102 -16 72 -16T7 -14T-58 -10T-106 -7Q-76
42 -22 129T104 328T255 562T415 805T567 1032T697 1215Q711 1217 775 1222T934 1236T1139 1253T1358 1270T1560 1286T1712 1298T1781 1302Q1770 1261 1757 1221T1727 1135L1188 1094Q1180 1071 1167 1028T1140 934T1114 840T1095 773Q1118 774 1165 775T1271 777T1390
780T1500 783T1577 784L1533 608Q1518 608 1472 609T1362 610T1234 611T1119 612T1048 612Q1030 543 1010 468T969 320T931 181Q972 182 1029 182T1133 183Q1199 183 1264 181T1385 177T1473 171Q1465 146 1455 115T1432 54T1411 1T1395 -32ZM476 566Q515 573 583
579T726 591T853 598Q866 638 881 691T915 805T953 935T993 1077Q971 1077 931 1075T852 1069T797 1064Q780 1040 747 991T670 874T577 728T476 566Z" />
<glyph unicode="&#xc7;" horiz-adv-x="1137" d="M396 -490Q318 -490 268 -481T203 -466L254 -344Q280 -353 328 -362T409 -371Q512 -371 576 -346T641 -253Q641 -219 615 -202T536 -185Q504 -185 465 -192T391 -210T335 -229L411 37L538 39L496 -126Q512 -110
553 -97T637 -83Q709 -83 753 -119T798 -228Q798 -300 766 -350T677 -431T548 -476T396 -490ZM1024 250Q924 143 791 67T490 -10Q352 -10 262 56T127 231T82 467Q82 634 137 788T290 1063T519 1255T805 1326Q900 1326 984 1298T1128 1215T1209 1084Q1188 1066 1154
1042T1085 997T1026 962Q1024 976 1014 1005T978 1067T903 1121T775 1144Q672 1144 586 1087T438 937T342 733T308 514Q308 366 360 279T522 191Q606 191 678 224T810 306T912 398Q930 385 953 358T997 301T1024 250Z" />
<glyph unicode="&#xc8;" horiz-adv-x="957" d="M690 -11Q584 -5 483 -1T273 6Q209 8 140 10T7 13Q43 170 81 323T156 614Q224 863 271 1026T339 1251Q525 1281 682 1296T944 1317T1076 1323Q1064 1278 1051 1240T1022 1156L501 1115Q494 1092 481 1048T454 954T428
860T409 794Q432 794 477 795T578 798T692 801T797 804T872 805L828 629Q813 629 768 630T663 631T541 632T431 633T362 633Q358 620 348 582T323 491T294 384T266 281T244 202Q267 203 323 203T428 204Q494 204 559 202T680 198T768 192Q760 167 750 136T727 74T706
21T690 -11ZM632 1651Q654 1650 706 1631T825 1580T954 1513T1059 1440L972 1382Q939 1401 881 1424T754 1470T620 1513T507 1545Q516 1555 535 1574T581 1614T632 1651Z" />
<glyph unicode="&#xc9;" horiz-adv-x="957" d="M690 -11Q584 -5 483 -1T273 6Q209 8 140 10T7 13Q43 170 81 323T156 614Q224 863 271 1026T339 1251Q525 1281 682 1296T944 1317T1076 1323Q1064 1278 1051 1240T1022 1156L501 1115Q494 1092 481 1048T454 954T428
860T409 794Q432 794 477 795T578 798T692 801T797 804T872 805L828 629Q813 629 768 630T663 631T541 632T431 633T362 633Q358 620 348 582T323 491T294 384T266 281T244 202Q267 203 323 203T428 204Q494 204 559 202T680 198T768 192Q760 167 750 136T727 74T706
21T690 -11ZM930 1704Q959 1688 984 1667T1028 1625T1054 1592Q1018 1582 958 1555T831 1496T711 1435T633 1393L536 1451Q565 1478 619 1517T734 1597T849 1668T930 1704Z" />
<glyph unicode="&#xca;" horiz-adv-x="957" d="M690 -11Q584 -5 483 -1T273 6Q209 8 140 10T7 13Q43 170 81 323T156 614Q224 863 271 1026T339 1251Q525 1281 682 1296T944 1317T1076 1323Q1064 1278 1051 1240T1022 1156L501 1115Q494 1092 481 1048T454 954T428
860T409 794Q432 794 477 795T578 798T692 801T797 804T872 805L828 629Q813 629 768 630T663 631T541 632T431 633T362 633Q358 620 348 582T323 491T294 384T266 281T244 202Q267 203 323 203T428 204Q494 204 559 202T680 198T768 192Q760 167 750 136T727 74T706
21T690 -11ZM817 1715Q855 1675 905 1626T1005 1530T1090 1454Q1056 1430 1022 1411T960 1380Q936 1401 904 1433T839 1500T779 1561T740 1603H761Q752 1595 722 1571T652 1514T570 1447T498 1386Q481 1392 455 1406T403 1438T360 1470Q419 1511 488 1562T615 1656T691
1715Q704 1715 728 1715T777 1715T817 1715Z" />
<glyph unicode="&#xcb;" horiz-adv-x="957" d="M690 -11Q584 -5 483 -1T273 6Q209 8 140 10T7 13Q43 170 81 323T156 614Q224 863 271 1026T339 1251Q525 1281 682 1296T944 1317T1076 1323Q1064 1278 1051 1240T1022 1156L501 1115Q494 1092 481 1048T454 954T428
860T409 794Q432 794 477 795T578 798T692 801T797 804T872 805L828 629Q813 629 768 630T663 631T541 632T431 633T362 633Q358 620 348 582T323 491T294 384T266 281T244 202Q267 203 323 203T428 204Q494 204 559 202T680 198T768 192Q760 167 750 136T727 74T706
21T690 -11ZM551 1420Q502 1420 463 1451T423 1534Q423 1590 461 1628T549 1666Q603 1666 639 1628T676 1536Q676 1486 638 1453T551 1420ZM948 1432Q895 1432 856 1467T817 1555Q817 1607 851 1638T933 1670Q988 1670 1027 1636T1067 1548Q1067 1512 1051 1486T1007
1446T948 1432Z" />
<glyph unicode="&#xcc;" horiz-adv-x="525" d="M207 -9Q185 -9 150 -9T80 -6T20 0Q33 54 51 130T92 292T137 463T178 623Q216 765 265 941T369 1316Q380 1317 403 1318T456 1319T512 1320T558 1321Q530 1199 498 1065T433 803T372 570Q359 523 341 457T304 319T265
181T231 64T207 -9ZM158 1627Q180 1626 232 1607T351 1556T480 1489T585 1416L498 1358Q465 1377 407 1400T280 1446T146 1489T33 1521Q42 1531 61 1550T107 1590T158 1627Z" />
<glyph unicode="&#xcd;" horiz-adv-x="525" d="M207 -9Q185 -9 150 -9T80 -6T20 0Q33 54 51 130T92 292T137 463T178 623Q216 765 265 941T369 1316Q380 1317 403 1318T456 1319T512 1320T558 1321Q530 1199 498 1065T433 803T372 570Q359 523 341 457T304 319T265
181T231 64T207 -9ZM712 1680Q741 1664 766 1643T810 1601T836 1568Q800 1558 740 1531T613 1472T493 1411T415 1369L318 1427Q347 1454 401 1493T516 1573T631 1644T712 1680Z" />
<glyph unicode="&#xce;" horiz-adv-x="525" d="M207 -9Q185 -9 150 -9T80 -6T20 0Q33 54 51 130T92 292T137 463T178 623Q216 765 265 941T369 1316Q380 1317 403 1318T456 1319T512 1320T558 1321Q530 1199 498 1065T433 803T372 570Q359 523 341 457T304 319T265
181T231 64T207 -9ZM598 1691Q636 1651 686 1602T786 1506T871 1430Q837 1406 803 1387T741 1356Q717 1377 685 1409T620 1476T560 1537T521 1579H542Q533 1571 503 1547T433 1490T351 1423T279 1362Q262 1368 236 1382T184 1414T141 1446Q200 1487 269 1538T396
1632T472 1691Q485 1691 509 1691T558 1691T598 1691Z" />
<glyph unicode="&#xcf;" horiz-adv-x="525" d="M207 -9Q185 -9 150 -9T80 -6T20 0Q33 54 51 130T92 292T137 463T178 623Q216 765 265 941T369 1316Q380 1317 403 1318T456 1319T512 1320T558 1321Q530 1199 498 1065T433 803T372 570Q359 523 341 457T304 319T265
181T231 64T207 -9ZM333 1396Q284 1396 245 1427T205 1510Q205 1566 243 1604T331 1642Q385 1642 421 1604T458 1512Q458 1462 420 1429T333 1396ZM730 1408Q677 1408 638 1443T599 1531Q599 1583 633 1614T715 1646Q770 1646 809 1612T849 1524Q849 1488 833 1462T789
1422T730 1408Z" />
<glyph unicode="&#xd0;" horiz-adv-x="1198" d="M635 602Q587 602 518 600T370 592T216 580T79 567Q84 594 91 623T106 676Q141 684 214 693T374 710T539 724T663 730Q662 717 654 680T635 602ZM93 -30Q101 20 117 112T154 322T198 567T244 818T286 1044T318 1215T334
1299Q364 1304 417 1310T532 1320T643 1325Q820 1325 924 1257T1075 1072T1121 808Q1121 607 1062 453T879 193T560 32T93 -30ZM333 176Q496 185 607 238T787 377T886 569T917 792Q917 898 893 979T809 1106T642 1152Q619 1152 580 1151T516 1147Q486 989 454 823T392
492T333 176Z" />
<glyph unicode="&#xd1;" horiz-adv-x="1282" d="M280 -6Q246 -6 204 -5T125 -2T66 2Q70 20 87 86T130 249T186 459T246 685T301 894Q321 970 340 1042T374 1174T397 1270Q412 1270 438 1269T496 1266T555 1261T601 1254Q645 1142 687 1013T766 753T835 503T888
290L1106 1257Q1128 1257 1157 1255T1216 1250T1269 1242T1307 1231Q1296 1175 1278 1096T1237 926T1191 739T1145 555T1102 391Q1084 324 1066 260T1031 142T1001 51T981 1Q959 0 938 0T896 -1Q868 -1 842 0T797 4Q790 34 771 101T726 259T671 451T612 651T558
830T516 963Q511 934 494 861T453 689T403 484T353 278T309 103T280 -6ZM489 1522Q504 1564 540 1606T629 1676T745 1705Q804 1705 845 1675T920 1610Q951 1578 984 1553T1060 1527Q1105 1527 1135 1562T1179 1645L1295 1583Q1290 1561 1273 1529T1227 1466T1158
1413T1067 1392Q1006 1392 961 1426T878 1498Q847 1529 817 1552T754 1575Q714 1575 683 1554T631 1502T597 1440L489 1522Z" />
<glyph unicode="&#xd2;" horiz-adv-x="1354" d="M553 -51Q400 -51 303 9T160 175T114 415Q114 604 163 768T307 1056T537 1250T848 1320Q1008 1320 1101 1254T1234 1077T1274 831Q1274 646 1228 486T1090 205T864 17T553 -51ZM575 148Q699 148 794 200T953 345T1051
558T1085 814Q1085 899 1063 975T987 1099T835 1148Q709 1148 613 1093T452 942T353 723T320 463Q320 377 345 306T427 191T575 148ZM574 1627Q596 1626 648 1607T767 1556T896 1489T1001 1416L914 1358Q881 1377 823 1400T696 1446T562 1489T449 1521Q458 1531
477 1550T523 1590T574 1627Z" />
<glyph unicode="&#xd3;" horiz-adv-x="1354" d="M553 -51Q400 -51 303 9T160 175T114 415Q114 604 163 768T307 1056T537 1250T848 1320Q1008 1320 1101 1254T1234 1077T1274 831Q1274 646 1228 486T1090 205T864 17T553 -51ZM575 148Q699 148 794 200T953 345T1051
558T1085 814Q1085 899 1063 975T987 1099T835 1148Q709 1148 613 1093T452 942T353 723T320 463Q320 377 345 306T427 191T575 148ZM1128 1680Q1157 1664 1182 1643T1226 1601T1252 1568Q1216 1558 1156 1531T1029 1472T909 1411T831 1369L734 1427Q763 1454 817
1493T932 1573T1047 1644T1128 1680Z" />
<glyph unicode="&#xd4;" horiz-adv-x="1354" d="M553 -51Q400 -51 303 9T160 175T114 415Q114 604 163 768T307 1056T537 1250T848 1320Q1008 1320 1101 1254T1234 1077T1274 831Q1274 646 1228 486T1090 205T864 17T553 -51ZM575 148Q699 148 794 200T953 345T1051
558T1085 814Q1085 899 1063 975T987 1099T835 1148Q709 1148 613 1093T452 942T353 723T320 463Q320 377 345 306T427 191T575 148ZM1015 1691Q1053 1651 1103 1602T1203 1506T1288 1430Q1254 1406 1220 1387T1158 1356Q1134 1377 1102 1409T1037 1476T977 1537T938
1579H959Q950 1571 920 1547T850 1490T768 1423T696 1362Q679 1368 653 1382T601 1414T558 1446Q617 1487 686 1538T813 1632T889 1691Q902 1691 926 1691T975 1691T1015 1691Z" />
<glyph unicode="&#xd5;" horiz-adv-x="1354" d="M553 -51Q400 -51 303 9T160 175T114 415Q114 604 163 768T307 1056T537 1250T848 1320Q1008 1320 1101 1254T1234 1077T1274 831Q1274 646 1228 486T1090 205T864 17T553 -51ZM575 148Q699 148 794 200T953 345T1051
558T1085 814Q1085 899 1063 975T987 1099T835 1148Q709 1148 613 1093T452 942T353 723T320 463Q320 377 345 306T427 191T575 148ZM525 1522Q540 1564 576 1606T665 1676T781 1705Q840 1705 881 1675T956 1610Q987 1578 1020 1553T1096 1527Q1141 1527 1171 1562T1215
1645L1331 1583Q1326 1561 1309 1529T1263 1466T1194 1413T1103 1392Q1042 1392 997 1426T914 1498Q883 1529 853 1552T790 1575Q750 1575 719 1554T667 1502T633 1440L525 1522Z" />
<glyph unicode="&#xd6;" horiz-adv-x="1354" d="M553 -51Q400 -51 303 9T160 175T114 415Q114 604 163 768T307 1056T537 1250T848 1320Q1008 1320 1101 1254T1234 1077T1274 831Q1274 646 1228 486T1090 205T864 17T553 -51ZM575 148Q699 148 794 200T953 345T1051
558T1085 814Q1085 899 1063 975T987 1099T835 1148Q709 1148 613 1093T452 942T353 723T320 463Q320 377 345 306T427 191T575 148ZM749 1396Q700 1396 661 1427T621 1510Q621 1566 659 1604T747 1642Q801 1642 837 1604T874 1512Q874 1462 836 1429T749 1396ZM1146
1408Q1093 1408 1054 1443T1015 1531Q1015 1583 1049 1614T1131 1646Q1186 1646 1225 1612T1265 1524Q1265 1488 1249 1462T1205 1422T1146 1408Z" />
<glyph unicode="&#xd7;" horiz-adv-x="1041" d="M1036 956Q1001 920 928 856T760 714T562 556T364 405T198 288Q190 294 176 309T145 343T115 377T96 401Q134 427 200 477T350 594T522 731T692 870T838 993T938 1080Q946 1073 960 1056T991 1019T1019 981T1036
956ZM387 1066Q426 1033 489 962T626 797T769 604T895 418Q887 408 869 392T830 357T789 324T757 300Q723 353 670 425T555 575T433 726T322 854T241 935Q248 943 263 957T297 989T334 1022T367 1050T387 1066Z" />
<glyph unicode="&#xd8;" horiz-adv-x="1354" d="M1156 1368Q1204 1362 1243 1340T1297 1295Q1143 1056 975 843T641 451T332 134T83 -96Q46 -86 13 -62T-39 -14Q93 106 249 260T567 593T881 968T1156 1368ZM553 -51Q400 -51 303 9T160 175T114 415Q114 604 163
768T307 1056T537 1250T848 1320Q1008 1320 1101 1254T1234 1077T1274 831Q1274 646 1228 486T1090 205T864 17T553 -51ZM575 148Q699 148 794 200T953 345T1051 558T1085 814Q1085 899 1063 975T987 1099T835 1148Q709 1148 613 1093T452 942T353 723T320 463Q320
377 345 306T427 191T575 148Z" />
<glyph unicode="&#xd9;" horiz-adv-x="1212" d="M492 -37Q309 -37 234 62T159 339Q159 447 183 583T248 877Q278 990 314 1110T390 1353Q415 1356 442 1358T495 1360Q530 1360 561 1358T615 1352Q579 1250 538 1124T463 870Q438 778 418 691T386 531T374 408Q374
192 548 192Q680 192 777 330T942 721Q953 766 968 827T1000 957T1031 1095T1057 1224T1075 1329Q1101 1329 1132 1327T1195 1322T1250 1316T1284 1309Q1277 1251 1264 1178T1234 1025T1195 870Q1142 674 1081 509T941 221T752 31T492 -37ZM533 1658Q555 1657 607
1638T726 1587T855 1520T960 1447L873 1389Q840 1408 782 1431T655 1477T521 1520T408 1552Q417 1562 436 1581T482 1621T533 1658Z" />
<glyph unicode="&#xda;" horiz-adv-x="1212" d="M492 -37Q309 -37 234 62T159 339Q159 447 183 583T248 877Q278 990 314 1110T390 1353Q415 1356 442 1358T495 1360Q530 1360 561 1358T615 1352Q579 1250 538 1124T463 870Q438 778 418 691T386 531T374 408Q374
192 548 192Q680 192 777 330T942 721Q953 766 968 827T1000 957T1031 1095T1057 1224T1075 1329Q1101 1329 1132 1327T1195 1322T1250 1316T1284 1309Q1277 1251 1264 1178T1234 1025T1195 870Q1142 674 1081 509T941 221T752 31T492 -37ZM1087 1711Q1116 1695
1141 1674T1185 1632T1211 1599Q1175 1589 1115 1562T988 1503T868 1442T790 1400L693 1458Q722 1485 776 1524T891 1604T1006 1675T1087 1711Z" />
<glyph unicode="&#xdb;" horiz-adv-x="1212" d="M492 -37Q309 -37 234 62T159 339Q159 447 183 583T248 877Q278 990 314 1110T390 1353Q415 1356 442 1358T495 1360Q530 1360 561 1358T615 1352Q579 1250 538 1124T463 870Q438 778 418 691T386 531T374 408Q374
192 548 192Q680 192 777 330T942 721Q953 766 968 827T1000 957T1031 1095T1057 1224T1075 1329Q1101 1329 1132 1327T1195 1322T1250 1316T1284 1309Q1277 1251 1264 1178T1234 1025T1195 870Q1142 674 1081 509T941 221T752 31T492 -37ZM973 1722Q1011 1682
1061 1633T1161 1537T1246 1461Q1212 1437 1178 1418T1116 1387Q1092 1408 1060 1440T995 1507T935 1568T896 1610H917Q908 1602 878 1578T808 1521T726 1454T654 1393Q637 1399 611 1413T559 1445T516 1477Q575 1518 644 1569T771 1663T847 1722Q860 1722 884
1722T933 1722T973 1722Z" />
<glyph unicode="&#xdc;" horiz-adv-x="1212" d="M492 -37Q309 -37 234 62T159 339Q159 447 183 583T248 877Q278 990 314 1110T390 1353Q415 1356 442 1358T495 1360Q530 1360 561 1358T615 1352Q579 1250 538 1124T463 870Q438 778 418 691T386 531T374 408Q374
192 548 192Q680 192 777 330T942 721Q953 766 968 827T1000 957T1031 1095T1057 1224T1075 1329Q1101 1329 1132 1327T1195 1322T1250 1316T1284 1309Q1277 1251 1264 1178T1234 1025T1195 870Q1142 674 1081 509T941 221T752 31T492 -37ZM707 1427Q658 1427 619
1458T579 1541Q579 1597 617 1635T705 1673Q759 1673 795 1635T832 1543Q832 1493 794 1460T707 1427ZM1104 1439Q1051 1439 1012 1474T973 1562Q973 1614 1007 1645T1089 1677Q1144 1677 1183 1643T1223 1555Q1223 1519 1207 1493T1163 1453T1104 1439Z" />
<glyph unicode="&#xdd;" horiz-adv-x="1065" d="M451 524Q440 551 425 607T391 735T356 887T323 1043T296 1180T279 1276Q342 1298 395 1308T490 1321Q491 1304 498 1253T515 1132T536 985T560 843T583 734Q602 760 644 817T741 945T850 1089T952 1219T1026 1305Q1061
1299 1096 1285T1162 1255T1211 1223Q1152 1163 1068 1065T876 834T642 536Q634 501 619 447T590 338T566 247Q555 203 542 151T518 56T503 1Q491 -2 466 -4T413 -6Q383 -6 353 -4T298 3Q322 94 348 190T402 373T451 524ZM1004 1680Q1033 1664 1058 1643T1102 1601T1128
1568Q1092 1558 1032 1531T905 1472T785 1411T707 1369L610 1427Q639 1454 693 1493T808 1573T923 1644T1004 1680Z" />
<glyph unicode="&#xde;" horiz-adv-x="1316" d="M521 1282Q510 1214 490 1110T445 881T393 626T339 373T290 150T250 -10Q225 -14 186 -16T103 -20T20 -22Q34 25 59 120T115 337T179 594T243 858T298 1096T336 1271Q352 1273 404 1277T521 1282ZM400 839L435 1028Q514
1043 601 1055T782 1067Q908 1067 1007 1033T1164 926T1221 739Q1221 555 1132 448T888 294T542 247Q469 247 386 251T233 265L297 451Q362 443 432 437T572 431Q695 431 797 454T961 538T1023 708Q1023 793 950 840T728 887Q637 887 553 873T400 839Z" />
<glyph unicode="&#xdf;" horiz-adv-x="1144" d="M82 -5Q87 51 97 146T121 355T153 588T190 810T230 988Q267 1127 337 1219T506 1357T730 1403Q822 1403 895 1371T1012 1281T1055 1145Q1055 1078 1031 1026T970 932T899 857Q862 824 838 797T813 745Q813 719 827
693T878 633Q902 613 930 579T979 498T1000 393Q1000 314 968 243T878 117T749 30T596 -2Q509 -2 447 28T354 91L468 240Q497 209 540 187T639 164Q694 164 735 191T801 262T825 357Q825 432 773 493T660 604Q641 621 628 647T614 705Q614 762 654 807T744 896Q794
940 836 988T879 1098Q879 1163 823 1204T689 1245Q621 1245 568 1219T477 1139T417 1004Q404 955 389 871T357 685T327 476T300 276T280 114T268 23L82 -5Z" />
<glyph unicode="&#xe0;" horiz-adv-x="1295" d="M402 -21Q230 -21 129 47T28 265Q28 374 77 451T211 576T400 646T616 669Q683 669 746 660T856 638T917 618Q922 644 922 673T919 733Q912 819 842 859T665 900Q588 900 519 877T394 816T299 733L166 840Q257 937
398 1000T700 1063Q884 1063 992 983T1101 732Q1101 684 1091 628T1065 512Q1042 433 1023 354T1003 216Q1003 187 1014 178T1045 169Q1078 169 1105 196T1150 275L1220 168Q1192 84 1130 40T997 -4Q923 -4 888 36T853 158Q823 118 755 77T596 7T402 -21ZM467 136Q532
136 599 155T728 208T834 282Q850 344 863 392T889 482Q863 492 786 508T606 525Q540 525 474 512T354 470T266 399T233 298Q233 210 291 173T467 136ZM516 1436Q537 1434 588 1417T704 1371T830 1306T934 1230Q926 1216 911 1196T882 1159T861 1138Q828 1158 771
1181T646 1229T514 1274T401 1307Q410 1318 428 1341T469 1391T516 1436Z" />
<glyph unicode="&#xe1;" horiz-adv-x="1295" d="M402 -21Q230 -21 129 47T28 265Q28 374 77 451T211 576T400 646T616 669Q683 669 746 660T856 638T917 618Q922 644 922 673T919 733Q912 819 842 859T665 900Q588 900 519 877T394 816T299 733L166 840Q257 937
398 1000T700 1063Q884 1063 992 983T1101 732Q1101 684 1091 628T1065 512Q1042 433 1023 354T1003 216Q1003 187 1014 178T1045 169Q1078 169 1105 196T1150 275L1220 168Q1192 84 1130 40T997 -4Q923 -4 888 36T853 158Q823 118 755 77T596 7T402 -21ZM467 136Q532
136 599 155T728 208T834 282Q850 344 863 392T889 482Q863 492 786 508T606 525Q540 525 474 512T354 470T266 399T233 298Q233 210 291 173T467 136ZM937 1476Q967 1462 992 1438T1037 1392T1064 1356Q1037 1346 994 1325T901 1276T802 1221T718 1172T666 1140Q660
1143 645 1150T612 1166T580 1184T558 1199Q582 1229 632 1272T742 1359T854 1434T937 1476Z" />
<glyph unicode="&#xe2;" horiz-adv-x="1295" d="M402 -21Q230 -21 129 47T28 265Q28 374 77 451T211 576T400 646T616 669Q683 669 746 660T856 638T917 618Q922 644 922 673T919 733Q912 819 842 859T665 900Q588 900 519 877T394 816T299 733L166 840Q257 937
398 1000T700 1063Q884 1063 992 983T1101 732Q1101 684 1091 628T1065 512Q1042 433 1023 354T1003 216Q1003 187 1014 178T1045 169Q1078 169 1105 196T1150 275L1220 168Q1192 84 1130 40T997 -4Q923 -4 888 36T853 158Q823 118 755 77T596 7T402 -21ZM467 136Q532
136 599 155T728 208T834 282Q850 344 863 392T889 482Q863 492 786 508T606 525Q540 525 474 512T354 470T266 399T233 298Q233 210 291 173T467 136ZM925 1460Q955 1423 993 1375T1070 1277T1137 1187Q1107 1162 1070 1143T1001 1112Q984 1141 958 1178T904 1251T857
1314T831 1347H853Q842 1340 804 1315T716 1255T616 1188T531 1131Q517 1137 491 1151T440 1183T402 1215Q455 1249 515 1286T632 1359T734 1421T799 1459Q812 1460 836 1460T885 1461T925 1460Z" />
<glyph unicode="&#xe3;" horiz-adv-x="1295" d="M402 -21Q230 -21 129 47T28 265Q28 374 77 451T211 576T400 646T616 669Q683 669 746 660T856 638T917 618Q922 644 922 673T919 733Q912 819 842 859T665 900Q588 900 519 877T394 816T299 733L166 840Q257 937
398 1000T700 1063Q884 1063 992 983T1101 732Q1101 684 1091 628T1065 512Q1042 433 1023 354T1003 216Q1003 187 1014 178T1045 169Q1078 169 1105 196T1150 275L1220 168Q1192 84 1130 40T997 -4Q923 -4 888 36T853 158Q823 118 755 77T596 7T402 -21ZM467 136Q532
136 599 155T728 208T834 282Q850 344 863 392T889 482Q863 492 786 508T606 525Q540 525 474 512T354 470T266 399T233 298Q233 210 291 173T467 136ZM374 1260Q389 1302 425 1344T514 1414T629 1443Q688 1443 729 1413T805 1348Q836 1316 868 1291T944 1265Q990
1265 1019 1300T1064 1383L1180 1321Q1175 1299 1158 1267T1112 1204T1043 1151T952 1130Q891 1130 846 1164T762 1236Q732 1267 702 1290T639 1313Q599 1313 568 1292T516 1240T482 1178L374 1260Z" />
<glyph unicode="&#xe4;" horiz-adv-x="1295" d="M402 -21Q230 -21 129 47T28 265Q28 374 77 451T211 576T400 646T616 669Q683 669 746 660T856 638T917 618Q922 644 922 673T919 733Q912 819 842 859T665 900Q588 900 519 877T394 816T299 733L166 840Q257 937
398 1000T700 1063Q884 1063 992 983T1101 732Q1101 684 1091 628T1065 512Q1042 433 1023 354T1003 216Q1003 187 1014 178T1045 169Q1078 169 1105 196T1150 275L1220 168Q1192 84 1130 40T997 -4Q923 -4 888 36T853 158Q823 118 755 77T596 7T402 -21ZM467 136Q532
136 599 155T728 208T834 282Q850 344 863 392T889 482Q863 492 786 508T606 525Q540 525 474 512T354 470T266 399T233 298Q233 210 291 173T467 136ZM616 1193Q567 1193 528 1224T488 1308Q488 1364 526 1401T614 1439Q668 1439 705 1402T742 1309Q742 1259 704
1226T616 1193ZM1013 1206Q960 1206 921 1241T882 1328Q882 1380 916 1411T999 1443Q1054 1443 1093 1409T1133 1321Q1133 1285 1116 1260T1072 1220T1013 1206Z" />
<glyph unicode="&#xe5;" horiz-adv-x="1295" d="M402 -21Q230 -21 129 47T28 265Q28 374 77 451T211 576T400 646T616 669Q683 669 746 660T856 638T917 618Q922 644 922 673T919 733Q912 819 842 859T665 900Q588 900 519 877T394 816T299 733L166 840Q257 937
398 1000T700 1063Q884 1063 992 983T1101 732Q1101 684 1091 628T1065 512Q1042 433 1023 354T1003 216Q1003 187 1014 178T1045 169Q1078 169 1105 196T1150 275L1220 168Q1192 84 1130 40T997 -4Q923 -4 888 36T853 158Q823 118 755 77T596 7T402 -21ZM467 136Q532
136 599 155T728 208T834 282Q850 344 863 392T889 482Q863 492 786 508T606 525Q540 525 474 512T354 470T266 399T233 298Q233 210 291 173T467 136ZM764 1166Q673 1166 610 1218T547 1353Q547 1436 592 1504T712 1613T871 1653Q932 1653 982 1629T1063 1565T1094
1472Q1094 1389 1047 1320T924 1208T764 1166ZM784 1294Q822 1294 859 1313T919 1366T943 1437Q943 1476 917 1500T844 1525Q783 1525 739 1480T695 1375Q695 1336 718 1315T784 1294Z" />
<glyph unicode="&#xe6;" horiz-adv-x="1801" d="M397 7Q293 7 209 38T76 133T26 297Q26 396 69 469T186 592T353 665T545 689Q576 689 619 685T707 675T786 663T831 650Q838 697 838 734Q838 833 788 887T628 941Q521 941 426 894T276 776L162 898Q211 950 290
998T466 1077T666 1109Q833 1109 929 1019T1025 764Q1025 696 1011 608T970 403Q950 319 894 247T759 121T586 37T397 7ZM407 161Q503 161 583 194T714 276T777 368Q785 399 792 440T804 512Q786 519 743 527T645 540T539 546Q461 546 387 518T265 435T216 304Q216
223 273 192T407 161ZM1719 223Q1691 195 1646 159T1537 90T1393 34T1213 11Q1031 11 925 110T819 398Q819 548 869 670T1008 882T1217 1019T1473 1067Q1638 1067 1723 980T1809 742Q1809 688 1798 632T1766 520Q1756 520 1714 520T1615 521T1500 521T1400 518Q1336
517 1262 513T1124 504T1024 492Q1014 457 1014 403Q1014 344 1043 297T1126 222T1251 194Q1325 194 1385 216T1493 270T1572 331T1621 374Q1626 369 1639 352T1670 312T1700 266T1719 223ZM1059 625Q1088 630 1142 635T1269 644T1421 650Q1468 651 1512 651T1587
652T1625 652Q1630 672 1633 698T1636 748Q1635 795 1617 835T1558 901T1448 927Q1362 927 1279 891T1137 787T1059 625Z" />
<glyph unicode="&#xe7;" horiz-adv-x="1026" d="M326 -490Q247 -490 197 -481T133 -466L183 -344Q209 -353 257 -362T338 -371Q442 -371 506 -346T570 -253Q570 -219 544 -202T465 -185Q433 -185 394 -192T320 -210T264 -229L340 37L468 39L425 -126Q442 -110
483 -97T567 -83Q639 -83 683 -119T727 -228Q727 -300 695 -350T606 -431T477 -476T326 -490ZM879 208Q845 159 778 110T620 27T419 -7Q297 -7 219 44T102 186T64 392Q64 537 109 664T238 888T437 1040T692 1095Q784 1095 856 1065T974 983T1034 871L873 780Q872
791 864 816T836 868T775 915T668 934Q574 934 499 892T372 777T292 613T264 422Q264 322 310 258T467 193Q530 193 582 212T673 257T736 308T767 342L879 208Z" />
<glyph unicode="&#xe8;" horiz-adv-x="1104" d="M964 223Q937 195 892 159T783 90T638 34T458 11Q277 11 171 110T64 398Q64 548 114 670T254 882T462 1019T719 1067Q883 1067 969 980T1055 742Q1055 688 1044 632T1012 520Q1001 520 960 520T861 521T746 521T646
518Q581 517 507 513T369 504T269 492Q260 457 260 403Q260 344 289 297T372 222T497 194Q571 194 631 216T739 270T818 331T866 374Q871 369 885 352T915 312T946 266T964 223ZM305 625Q333 630 388 635T515 644T667 650Q714 651 758 651T833 652T870 652Q876
672 879 698T882 748Q881 795 863 835T804 901T694 927Q607 927 525 891T383 787T305 625ZM498 1436Q519 1434 570 1417T686 1371T812 1306T916 1230Q908 1216 893 1196T864 1159T843 1138Q810 1158 753 1181T628 1229T496 1274T383 1307Q392 1318 410 1341T451
1391T498 1436Z" />
<glyph unicode="&#xe9;" horiz-adv-x="1104" d="M964 223Q937 195 892 159T783 90T638 34T458 11Q277 11 171 110T64 398Q64 548 114 670T254 882T462 1019T719 1067Q883 1067 969 980T1055 742Q1055 688 1044 632T1012 520Q1001 520 960 520T861 521T746 521T646
518Q581 517 507 513T369 504T269 492Q260 457 260 403Q260 344 289 297T372 222T497 194Q571 194 631 216T739 270T818 331T866 374Q871 369 885 352T915 312T946 266T964 223ZM305 625Q333 630 388 635T515 644T667 650Q714 651 758 651T833 652T870 652Q876
672 879 698T882 748Q881 795 863 835T804 901T694 927Q607 927 525 891T383 787T305 625ZM919 1476Q949 1462 974 1438T1019 1392T1046 1356Q1019 1346 976 1325T883 1276T784 1221T700 1172T648 1140Q642 1143 627 1150T594 1166T562 1184T540 1199Q564 1229
614 1272T724 1359T836 1434T919 1476Z" />
<glyph unicode="&#xea;" horiz-adv-x="1104" d="M964 223Q937 195 892 159T783 90T638 34T458 11Q277 11 171 110T64 398Q64 548 114 670T254 882T462 1019T719 1067Q883 1067 969 980T1055 742Q1055 688 1044 632T1012 520Q1001 520 960 520T861 521T746 521T646
518Q581 517 507 513T369 504T269 492Q260 457 260 403Q260 344 289 297T372 222T497 194Q571 194 631 216T739 270T818 331T866 374Q871 369 885 352T915 312T946 266T964 223ZM305 625Q333 630 388 635T515 644T667 650Q714 651 758 651T833 652T870 652Q876
672 879 698T882 748Q881 795 863 835T804 901T694 927Q607 927 525 891T383 787T305 625ZM907 1460Q937 1423 975 1375T1052 1277T1119 1187Q1089 1162 1052 1143T983 1112Q966 1141 940 1178T886 1251T839 1314T813 1347H835Q824 1340 786 1315T698 1255T598
1188T513 1131Q499 1137 473 1151T422 1183T384 1215Q437 1249 497 1286T614 1359T716 1421T781 1459Q794 1460 818 1460T867 1461T907 1460Z" />
<glyph unicode="&#xeb;" horiz-adv-x="1104" d="M964 223Q937 195 892 159T783 90T638 34T458 11Q277 11 171 110T64 398Q64 548 114 670T254 882T462 1019T719 1067Q883 1067 969 980T1055 742Q1055 688 1044 632T1012 520Q1001 520 960 520T861 521T746 521T646
518Q581 517 507 513T369 504T269 492Q260 457 260 403Q260 344 289 297T372 222T497 194Q571 194 631 216T739 270T818 331T866 374Q871 369 885 352T915 312T946 266T964 223ZM305 625Q333 630 388 635T515 644T667 650Q714 651 758 651T833 652T870 652Q876
672 879 698T882 748Q881 795 863 835T804 901T694 927Q607 927 525 891T383 787T305 625ZM598 1193Q549 1193 510 1224T470 1308Q470 1364 508 1401T596 1439Q650 1439 687 1402T724 1309Q724 1259 686 1226T598 1193ZM995 1206Q942 1206 903 1241T864 1328Q864
1380 898 1411T981 1443Q1036 1443 1075 1409T1115 1321Q1115 1285 1098 1260T1054 1220T995 1206Z" />
<glyph unicode="&#xec;" horiz-adv-x="581" d="M216 -2Q192 -2 154 -1T75 3T3 9Q13 31 35 91T88 236T151 418T215 610T273 786T316 919Q339 926 372 929T439 933T497 934Q490 901 471 828T424 660T367 462T307 265T254 100T216 -2ZM194 1357Q215 1355 266 1338T382
1292T508 1227T612 1151Q604 1137 589 1117T560 1080T539 1059Q506 1079 449 1102T324 1150T192 1195T79 1228Q88 1239 106 1262T147 1312T194 1357Z" />
<glyph unicode="&#xed;" horiz-adv-x="581" d="M216 -2Q192 -2 154 -1T75 3T3 9Q13 31 35 91T88 236T151 418T215 610T273 786T316 919Q339 926 372 929T439 933T497 934Q490 901 471 828T424 660T367 462T307 265T254 100T216 -2ZM872 1653Q902 1639 927 1615T972
1569T999 1533Q972 1523 929 1502T836 1453T737 1398T653 1349T601 1317Q595 1320 580 1327T547 1343T515 1361T493 1376Q517 1406 567 1449T677 1536T789 1611T872 1653Z" />
<glyph unicode="&#xee;" horiz-adv-x="581" d="M216 -2Q192 -2 154 -1T75 3T3 9Q13 31 35 91T88 236T151 418T215 610T273 786T316 919Q339 926 372 929T439 933T497 934Q490 901 471 828T424 660T367 462T307 265T254 100T216 -2ZM604 1381Q634 1344 672 1296T749
1198T816 1108Q786 1083 749 1064T680 1033Q663 1062 637 1099T583 1172T536 1235T510 1268H532Q521 1261 483 1236T395 1176T295 1109T210 1052Q196 1058 170 1072T119 1104T81 1136Q134 1170 194 1207T311 1280T413 1342T478 1380Q491 1381 515 1381T564 1382T604
1381Z" />
<glyph unicode="&#xef;" horiz-adv-x="581" d="M216 -2Q192 -2 154 -1T75 3T3 9Q13 31 35 91T88 236T151 418T215 610T273 786T316 919Q339 926 372 929T439 933T497 934Q490 901 471 828T424 660T367 462T307 265T254 100T216 -2ZM295 1114Q246 1114 207 1145T167
1229Q167 1285 205 1322T293 1360Q347 1360 384 1323T421 1230Q421 1180 383 1147T295 1114ZM692 1127Q639 1127 600 1162T561 1249Q561 1301 595 1332T678 1364Q733 1364 772 1330T812 1242Q812 1206 795 1181T751 1141T692 1127Z" />
<glyph unicode="&#xf0;" horiz-adv-x="1200" d="M458 -17Q280 -17 180 61T79 294Q79 416 126 517T256 691T448 803T680 843Q755 843 812 820T882 766Q877 820 841 869T754 956T656 1010Q628 979 585 937T505 868Q476 884 439 902T382 933Q392 941 410 957T448
995T486 1036T513 1065Q485 1078 444 1092T360 1120T289 1140L404 1276Q425 1272 458 1263T526 1242T589 1221T630 1206Q646 1227 667 1258T709 1323T743 1383L892 1327Q878 1302 856 1268T811 1201T769 1144Q920 1073 996 967T1073 701Q1073 557 1029 427T903
197T709 40T458 -17ZM479 145Q554 145 622 175T743 258T828 379T859 522Q859 602 808 648T665 695Q557 695 467 650T323 524T269 336Q269 238 329 192T479 145Z" />
<glyph unicode="&#xf1;" horiz-adv-x="1330" d="M233 -13Q213 -13 186 -13T132 -13Q107 -12 76 -11T28 -7Q61 76 94 174T166 396T250 677T350 1036Q375 1040 409 1042T479 1045Q501 1045 523 1044T561 1040Q560 1029 552 998T535 931T518 874Q563 915 642 958T815
1030T993 1060Q1145 1060 1208 1000T1271 824Q1271 755 1250 657T1195 444T1120 215T1041 -3Q1026 -5 998 -7T937 -9Q905 -9 877 -8T832 -3Q868 81 907 182T982 386T1039 578T1061 727Q1061 796 1026 834T907 872Q818 872 734 842T582 772T469 698Q420 530 374
389T292 145T233 -13ZM431 1260Q446 1302 482 1344T571 1414T686 1443Q745 1443 786 1413T862 1348Q893 1316 925 1291T1001 1265Q1047 1265 1076 1300T1121 1383L1237 1321Q1232 1299 1215 1267T1169 1204T1100 1151T1009 1130Q948 1130 903 1164T819 1236Q789
1267 759 1290T696 1313Q656 1313 625 1292T573 1240T539 1178L431 1260Z" />
<glyph unicode="&#xf2;" horiz-adv-x="1171" d="M477 -31Q269 -31 168 74T66 353Q66 503 112 633T244 861T450 1014T720 1070Q915 1070 1005 965T1095 675Q1095 527 1054 400T932 175T738 24T477 -31ZM500 148Q597 148 673 190T802 305T884 469T912 657Q912 772
858 844T686 916Q589 916 512 873T379 755T295 588T266 400Q266 290 324 219T500 148ZM484 1436Q505 1434 556 1417T672 1371T798 1306T902 1230Q894 1216 879 1196T850 1159T829 1138Q796 1158 739 1181T614 1229T482 1274T369 1307Q378 1318 396 1341T437 1391T484
1436Z" />
<glyph unicode="&#xf3;" horiz-adv-x="1171" d="M477 -31Q269 -31 168 74T66 353Q66 503 112 633T244 861T450 1014T720 1070Q915 1070 1005 965T1095 675Q1095 527 1054 400T932 175T738 24T477 -31ZM500 148Q597 148 673 190T802 305T884 469T912 657Q912 772
858 844T686 916Q589 916 512 873T379 755T295 588T266 400Q266 290 324 219T500 148ZM905 1476Q935 1462 960 1438T1005 1392T1032 1356Q1005 1346 962 1325T869 1276T770 1221T686 1172T634 1140Q628 1143 613 1150T580 1166T548 1184T526 1199Q550 1229 600
1272T710 1359T822 1434T905 1476Z" />
<glyph unicode="&#xf4;" horiz-adv-x="1171" d="M477 -31Q269 -31 168 74T66 353Q66 503 112 633T244 861T450 1014T720 1070Q915 1070 1005 965T1095 675Q1095 527 1054 400T932 175T738 24T477 -31ZM500 148Q597 148 673 190T802 305T884 469T912 657Q912 772
858 844T686 916Q589 916 512 873T379 755T295 588T266 400Q266 290 324 219T500 148ZM893 1460Q923 1423 961 1375T1038 1277T1105 1187Q1075 1162 1038 1143T969 1112Q952 1141 926 1178T872 1251T825 1314T799 1347H821Q810 1340 772 1315T684 1255T584 1188T499
1131Q485 1137 459 1151T408 1183T370 1215Q423 1249 483 1286T600 1359T702 1421T767 1459Q780 1460 804 1460T853 1461T893 1460Z" />
<glyph unicode="&#xf5;" horiz-adv-x="1171" d="M477 -31Q269 -31 168 74T66 353Q66 503 112 633T244 861T450 1014T720 1070Q915 1070 1005 965T1095 675Q1095 527 1054 400T932 175T738 24T477 -31ZM500 148Q597 148 673 190T802 305T884 469T912 657Q912 772
858 844T686 916Q589 916 512 873T379 755T295 588T266 400Q266 290 324 219T500 148ZM342 1260Q357 1302 393 1344T482 1414T597 1443Q656 1443 697 1413T773 1348Q804 1316 836 1291T912 1265Q958 1265 987 1300T1032 1383L1148 1321Q1143 1299 1126 1267T1080
1204T1011 1151T920 1130Q859 1130 814 1164T730 1236Q700 1267 670 1290T607 1313Q567 1313 536 1292T484 1240T450 1178L342 1260Z" />
<glyph unicode="&#xf6;" horiz-adv-x="1171" d="M477 -31Q269 -31 168 74T66 353Q66 503 112 633T244 861T450 1014T720 1070Q915 1070 1005 965T1095 675Q1095 527 1054 400T932 175T738 24T477 -31ZM500 148Q597 148 673 190T802 305T884 469T912 657Q912 772
858 844T686 916Q589 916 512 873T379 755T295 588T266 400Q266 290 324 219T500 148ZM584 1193Q535 1193 496 1224T456 1308Q456 1364 494 1401T582 1439Q636 1439 673 1402T710 1309Q710 1259 672 1226T584 1193ZM981 1206Q928 1206 889 1241T850 1328Q850 1380
884 1411T967 1443Q1022 1443 1061 1409T1101 1321Q1101 1285 1084 1260T1040 1220T981 1206Z" />
<glyph unicode="&#xf7;" horiz-adv-x="916" d="M559 835Q500 835 458 870T416 961Q416 1013 443 1054T514 1120T610 1144Q671 1144 706 1108T741 1012Q741 932 687 884T559 835ZM377 144Q315 144 278 185T241 277Q241 322 267 360T338 421T433 444Q495 444 530
408T566 314Q566 235 510 190T377 144ZM102 579Q107 600 114 623T128 668T141 703Q193 707 275 709T452 712T632 714Q715 714 787 711T900 704Q898 685 892 649T878 584Q839 584 761 584T586 583T393 581T218 580T102 579Z" />
<glyph unicode="&#xf8;" horiz-adv-x="1176" d="M1149 1067Q1052 927 939 788T708 518T478 270T268 59T99 -102Q81 -94 55 -75T16 -41Q88 31 175 118T356 304T546 508T734 718T907 926T1050 1122Q1078 1112 1106 1096T1149 1067ZM477 -31Q269 -31 168 74T66 353Q66
503 112 633T244 861T450 1014T720 1070Q915 1070 1005 965T1095 675Q1095 527 1054 400T932 175T738 24T477 -31ZM500 148Q597 148 673 190T802 305T884 469T912 657Q912 772 858 844T686 916Q589 916 512 873T379 755T295 588T266 400Q266 290 324 219T500 148Z"
/>
<glyph unicode="&#xf9;" horiz-adv-x="1178" d="M944 1000Q960 1004 989 1007T1047 1010Q1071 1010 1100 1009T1145 1004Q1135 907 1119 806T1076 607Q1040 473 988 354T861 145T686 2T454 -50Q326 -50 250 -4T141 124T108 314Q108 417 132 536T197 784T282 1041Q301
1042 327 1042T377 1041Q407 1039 436 1036T484 1026Q442 914 404 793T341 559T316 356Q316 243 361 188T491 132Q575 132 646 189T776 355T877 619Q901 708 918 803T944 1000ZM494 1436Q515 1434 566 1417T682 1371T808 1306T912 1230Q904 1216 889 1196T860 1159T839
1138Q806 1158 749 1181T624 1229T492 1274T379 1307Q388 1318 406 1341T447 1391T494 1436Z" />
<glyph unicode="&#xfa;" horiz-adv-x="1178" d="M944 1000Q960 1004 989 1007T1047 1010Q1071 1010 1100 1009T1145 1004Q1135 907 1119 806T1076 607Q1040 473 988 354T861 145T686 2T454 -50Q326 -50 250 -4T141 124T108 314Q108 417 132 536T197 784T282 1041Q301
1042 327 1042T377 1041Q407 1039 436 1036T484 1026Q442 914 404 793T341 559T316 356Q316 243 361 188T491 132Q575 132 646 189T776 355T877 619Q901 708 918 803T944 1000ZM915 1476Q945 1462 970 1438T1015 1392T1042 1356Q1015 1346 972 1325T879 1276T780
1221T696 1172T644 1140Q638 1143 623 1150T590 1166T558 1184T536 1199Q560 1229 610 1272T720 1359T832 1434T915 1476Z" />
<glyph unicode="&#xfb;" horiz-adv-x="1178" d="M944 1000Q960 1004 989 1007T1047 1010Q1071 1010 1100 1009T1145 1004Q1135 907 1119 806T1076 607Q1040 473 988 354T861 145T686 2T454 -50Q326 -50 250 -4T141 124T108 314Q108 417 132 536T197 784T282 1041Q301
1042 327 1042T377 1041Q407 1039 436 1036T484 1026Q442 914 404 793T341 559T316 356Q316 243 361 188T491 132Q575 132 646 189T776 355T877 619Q901 708 918 803T944 1000ZM903 1460Q933 1423 971 1375T1048 1277T1115 1187Q1085 1162 1048 1143T979 1112Q962
1141 936 1178T882 1251T835 1314T809 1347H831Q820 1340 782 1315T694 1255T594 1188T509 1131Q495 1137 469 1151T418 1183T380 1215Q433 1249 493 1286T610 1359T712 1421T777 1459Q790 1460 814 1460T863 1461T903 1460Z" />
<glyph unicode="&#xfc;" horiz-adv-x="1178" d="M944 1000Q960 1004 989 1007T1047 1010Q1071 1010 1100 1009T1145 1004Q1135 907 1119 806T1076 607Q1040 473 988 354T861 145T686 2T454 -50Q326 -50 250 -4T141 124T108 314Q108 417 132 536T197 784T282 1041Q301
1042 327 1042T377 1041Q407 1039 436 1036T484 1026Q442 914 404 793T341 559T316 356Q316 243 361 188T491 132Q575 132 646 189T776 355T877 619Q901 708 918 803T944 1000ZM594 1193Q545 1193 506 1224T466 1308Q466 1364 504 1401T592 1439Q646 1439 683 1402T720
1309Q720 1259 682 1226T594 1193ZM991 1206Q938 1206 899 1241T860 1328Q860 1380 894 1411T977 1443Q1032 1443 1071 1409T1111 1321Q1111 1285 1094 1260T1050 1220T991 1206Z" />
<glyph unicode="&#xfd;" horiz-adv-x="1079" d="M182 -528Q90 -528 10 -507T-131 -456T-225 -397Q-216 -383 -199 -361T-161 -314T-121 -267T-89 -232Q-67 -252 -22 -279T85 -328T215 -349Q305 -349 378 -303T510 -177T613 3T686 209Q663 170 619 131T508 66T354
40Q217 40 160 117T103 326Q103 461 147 631T249 979Q263 982 288 983T341 984Q374 984 404 983T445 978Q422 919 397 842T349 683T312 526T298 394Q298 320 326 272T426 224Q501 224 567 267T688 393T784 599Q800 646 818 704T853 817T881 910T893 957Q909 959
926 960T961 961Q1022 961 1069 949Q1051 867 1019 749Q993 654 959 538T887 299T810 56Q756 -114 670 -246T464 -453T182 -528ZM870 1476Q900 1462 925 1438T970 1392T997 1356Q970 1346 927 1325T834 1276T735 1221T651 1172T599 1140Q593 1143 578 1150T545
1166T513 1184T491 1199Q515 1229 565 1272T675 1359T787 1434T870 1476Z" />
<glyph unicode="&#xfe;" horiz-adv-x="1200" d="M114 -395L-85 -386Q-77 -351 -56 -256T-2 -25T68 269T146 590T223 902T289 1170T337 1354L534 1384Q532 1366 520 1311T490 1179T452 1020T413 864Q435 880 473 905T560 955T667 997T787 1014Q892 1014 962 966T1067
835T1102 649Q1102 523 1058 410T935 208T752 68T530 17Q474 17 413 27T303 55T234 96Q231 77 220 30T194 -78T164 -202T135 -316T114 -395ZM535 206Q616 206 686 241T810 336T892 472T921 629Q921 720 870 772T719 825Q667 825 613 809T510 769T424 719T368 676Q366
663 358 625T337 536T313 435T292 347T280 297Q309 264 369 235T535 206Z" />
<glyph unicode="&#xff;" horiz-adv-x="1079" d="M182 -528Q90 -528 10 -507T-131 -456T-225 -397Q-216 -383 -199 -361T-161 -314T-121 -267T-89 -232Q-67 -252 -22 -279T85 -328T215 -349Q305 -349 378 -303T510 -177T613 3T686 209Q663 170 619 131T508 66T354
40Q217 40 160 117T103 326Q103 461 147 631T249 979Q263 982 288 983T341 984Q374 984 404 983T445 978Q422 919 397 842T349 683T312 526T298 394Q298 320 326 272T426 224Q501 224 567 267T688 393T784 599Q800 646 818 704T853 817T881 910T893 957Q909 959
926 960T961 961Q1022 961 1069 949Q1051 867 1019 749Q993 654 959 538T887 299T810 56Q756 -114 670 -246T464 -453T182 -528ZM549 1193Q500 1193 461 1224T421 1308Q421 1364 459 1401T547 1439Q601 1439 638 1402T675 1309Q675 1259 637 1226T549 1193ZM946
1206Q893 1206 854 1241T815 1328Q815 1380 849 1411T932 1443Q987 1443 1026 1409T1066 1321Q1066 1285 1049 1260T1005 1220T946 1206Z" />
<glyph unicode="&#x2013;" horiz-adv-x="1359" d="M1371 775Q1369 754 1365 725T1356 665T1343 611Q1304 611 1226 611T1045 609T827 607T597 605T381 602T206 600T96 597L151 774Q206 776 281 778T440 782T613 785T784 787T937 788Q1087 788 1203 784T1371 775Z" />
<glyph unicode="&#x2014;" horiz-adv-x="1667" d="M1675 775Q1672 740 1665 693T1648 615Q1601 615 1505 614T1281 612T1010 609T723 606T454 602T235 599T100 597Q107 627 117 660T137 723T155 774Q193 775 263 777T423 780T612 782T807 784T986 785T1127 786T1208
787Q1306 787 1396 785T1559 781T1675 775Z" />
<glyph unicode="&#x2018;" horiz-adv-x="533" d="M532 1392Q552 1380 568 1358T589 1313Q557 1298 516 1267T437 1195T381 1102Q396 1132 432 1154T508 1176Q555 1176 579 1150T604 1078Q604 1022 575 985T501 930T405 912Q338 912 293 948T248 1049Q248 1115
287 1181T390 1303T532 1392Z" />
<glyph unicode="&#x2019;" horiz-adv-x="515" d="M356 950Q339 962 316 985T282 1029Q308 1044 346 1070T418 1129T463 1194Q452 1185 431 1174T377 1162Q316 1162 296 1196T276 1273Q276 1321 305 1358T378 1416T469 1437Q543 1437 583 1401T624 1304Q624 1229
584 1162T481 1040T356 950Z" />
<glyph unicode="&#x201a;" horiz-adv-x="515" d="M25 -284Q8 -272 -15 -249T-49 -205Q-23 -190 15 -164T87 -105T132 -40Q121 -49 100 -60T46 -72Q-15 -72 -35 -38T-55 39Q-55 87 -26 124T47 182T138 203Q212 203 252 167T293 70Q293 -5 253 -72T150 -194T25 -284Z" />
<glyph unicode="&#x201c;" horiz-adv-x="1007" d="M859 928Q787 928 741 965T695 1060Q695 1129 737 1199T846 1330T986 1430Q1000 1425 1015 1414T1044 1389T1058 1359Q1031 1346 987 1319T905 1254T854 1174Q852 1167 851 1160T850 1146Q870 1176 900 1195T970
1215Q1017 1215 1042 1190T1067 1126Q1067 1037 1010 983T859 928ZM412 924Q333 924 287 967T240 1075Q240 1142 279 1208T379 1332T498 1434Q524 1430 554 1414T600 1376Q555 1351 509 1314T428 1238T387 1164Q386 1158 385 1152T383 1139Q403 1164 432 1188T511
1213Q561 1213 587 1185T613 1112Q613 1054 587 1012T516 947T412 924Z" />
<glyph unicode="&#x201d;" horiz-adv-x="981" d="M348 929Q334 946 321 971T305 1024Q350 1045 391 1078T463 1145T508 1206Q495 1183 465 1168T399 1153Q348 1153 323 1183T298 1258Q298 1315 325 1356T399 1419T502 1442Q579 1442 618 1405T658 1302Q658 1223
614 1154T500 1029T348 929ZM830 954Q804 971 781 990T743 1033Q775 1050 812 1078T882 1139T929 1204Q917 1189 895 1178T843 1167Q787 1167 762 1194T736 1262Q736 1320 766 1360T845 1421T948 1442Q1016 1442 1053 1402T1091 1307Q1091 1241 1051 1174T950 1049T830
954Z" />
<glyph unicode="&#x201e;" horiz-adv-x="981" d="M16 -332Q2 -315 -11 -290T-27 -237Q18 -216 59 -183T131 -116T176 -55Q163 -78 133 -93T67 -108Q16 -108 -9 -78T-34 -3Q-34 54 -7 95T67 158T170 181Q247 181 286 144T326 41Q326 -38 282 -107T168 -232T16 -332ZM498
-307Q472 -290 449 -271T411 -228Q443 -211 480 -183T550 -122T597 -57Q585 -72 563 -83T511 -94Q455 -94 430 -67T404 1Q404 59 434 99T513 160T616 181Q684 181 721 141T759 46Q759 -20 719 -87T618 -212T498 -307Z" />
<glyph unicode="&#x2022;" horiz-adv-x="636" d="M337 553Q261 553 230 590T198 679Q198 767 255 823T403 879Q469 879 503 839T538 739Q538 684 509 642T433 577T337 553Z" />
<glyph unicode="&#x2039;" horiz-adv-x="850" d="M759 1154Q772 1143 789 1122T821 1078T843 1038L304 560Q359 502 420 440T536 323T630 231T678 187Q672 175 661 155T636 111T609 68T584 34Q457 149 335 278T96 557Q259 710 423 860T759 1154Z" />
<glyph unicode="&#x203a;" horiz-adv-x="834" d="M332 1020Q350 1033 375 1050T431 1085T487 1115Q516 1090 559 1040T652 926T746 793T823 664Q649 510 474 383T116 143Q110 152 100 168T79 204T60 242T47 273Q53 278 91 305T190 375T324 470T476 576T625 678Q582
733 527 800T419 927T332 1020Z" />
</font>
</defs>
</svg>
