<?xml version="1.0" standalone="no"?>
<!DOCTYPE svg PUBLIC "-//W3C//DTD SVG 1.1//EN" "http://www.w3.org/Graphics/SVG/1.1/DTD/svg11.dtd">
<svg xmlns="http://www.w3.org/2000/svg">
<defs >
<font id="Grandstander" horiz-adv-x="1123" ><font-face
    font-family="Grandstander Thin SemiBold"
    units-per-em="2000"
    panose-1="0 0 0 0 0 0 0 0 0 0"
    ascent="1465"
    descent="-530"
    alphabetic="0" />
<glyph unicode=" " horiz-adv-x="615" />
<glyph unicode="!" horiz-adv-x="708" d="M420 421Q395 421 350 422T259 427T187 433Q207 528 232 636T285 857T341 1080T397 1291T449 1473L765 1459Q748 1414 715 1320T641 1104T558 854T479 612T420 421ZM213 -27Q135 -27 91 14T46 117Q46 179 78 226T164 301T279
329Q351 329 396 286T442 178Q442 120 409 74T324 0T213 -27Z" />
<glyph unicode="&quot;" horiz-adv-x="764" d="M445 1034Q422 1034 391 1034T333 1037T294 1041Q296 1092 303 1150T319 1264T339 1368T356 1444Q393 1451 428 1455T503 1459Q525 1459 545 1458T583 1455Q582 1432 572 1394Q557 1340 536 1274T491 1145T445 1034ZM572
1032Q576 1053 583 1089T599 1168T617 1251T634 1319Q640 1344 648 1371T663 1421T674 1456Q727 1456 791 1454T896 1446Q895 1441 894 1435T891 1421Q883 1390 864 1341T820 1237T771 1131T729 1044Q669 1037 631 1035T572 1032Z" />
<glyph unicode="#" horiz-adv-x="1511" d="M131 831Q137 853 147 887T169 957T189 1021T202 1056Q294 1059 411 1065T656 1078T902 1092Q1105 1103 1298 1112T1653 1124Q1648 1109 1638 1076T1614 1004T1589 932T1570 885Q1428 880 1262 873T927 858Q779 853 635
847T363 837T131 831ZM1367 394Q1227 400 1072 407T759 422Q639 427 520 428T290 430Q208 430 133 429T-11 422Q-7 436 2 466T24 530T46 592T62 632Q165 636 274 640T495 646Q605 649 715 649T935 649Q1069 648 1202 645T1462 634Q1457 617 1445 583T1417 510T1388
440T1367 394ZM219 11Q262 170 308 330T402 645T497 946T590 1224T677 1467Q694 1471 735 1472T827 1475T919 1476Q889 1388 848 1259T760 975T663 656T568 331T484 31Q469 28 434 25T356 18T276 13T219 11ZM778 63Q814 247 859 436T953 812Q999 981 1048 1146T1152
1468Q1163 1470 1193 1472T1261 1477T1331 1481T1379 1483Q1351 1394 1322 1291T1262 1077Q1219 919 1179 750T1105 415T1046 98Q1030 95 994 90T913 78T831 67T778 63Z" />
<glyph unicode="$" horiz-adv-x="1027" d="M462 -82L203 -84Q206 -72 217 -38T244 38T272 115T291 163L528 149Q521 127 509 85T484 -4T462 -82ZM590 1207Q596 1227 608 1268T634 1351T653 1409L863 1418Q857 1395 847 1355T825 1275T806 1208L590 1207ZM420 60Q307
60 216 88T64 157T-23 234Q-12 251 13 283T69 353T129 423T179 472Q214 428 260 387T362 320T474 294Q526 294 573 310T650 360T680 443Q680 500 628 540T493 617Q421 649 367 689T283 785T252 915Q252 1004 293 1069T402 1177T556 1241T729 1262Q851 1262 948
1231T1095 1156Q1085 1138 1058 1103T996 1028T927 957Q893 991 834 1022T708 1053Q676 1053 642 1047T577 1028T528 992T509 937Q509 895 551 862T675 795Q748 765 810 720T909 613T946 467Q946 336 872 245T678 107T420 60Z" />
<glyph unicode="%" horiz-adv-x="1385" d="M75 -32Q61 -21 36 -1T-13 42T-51 78Q43 157 160 262T409 488T674 738T935 992T1172 1232T1363 1437Q1403 1417 1438 1375T1487 1302Q1411 1220 1314 1122T1107 915T881 696T650 479T429 276T233 101T75 -32ZM973 261Q1014
261 1048 282T1104 339T1125 415Q1125 453 1101 471T1038 490Q997 490 963 470T908 416T887 340Q887 304 908 283T973 261ZM939 105Q846 105 781 153T715 296Q715 388 765 466T896 593T1070 641Q1176 641 1230 589T1285 444Q1285 344 1242 267T1121 148T939 105ZM468
762Q352 762 291 819T230 975Q230 1068 279 1145T409 1270T581 1317Q687 1317 754 1265T822 1119Q822 1027 773 945T643 813T468 762ZM501 937Q569 937 609 980T649 1087Q649 1122 629 1142T569 1162Q499 1162 455 1117T410 1009Q410 972 436 955T501 937Z" />
<glyph unicode="&amp;" horiz-adv-x="1395" d="M445 -104Q308 -104 215 -57T73 73T25 262Q25 368 67 456T179 616T338 743T518 842Q483 886 452 951T421 1086Q421 1189 476 1262T623 1374T824 1413Q908 1413 970 1385T1067 1305T1102 1183Q1102 1092 1059 1018T944
887T787 786Q807 759 837 715T902 620T969 521T1028 433Q1045 447 1068 473T1115 527T1158 580T1185 618Q1206 608 1236 587T1295 540T1339 492Q1329 472 1294 433T1216 351T1140 277Q1161 250 1182 219T1224 156T1261 97Q1239 70 1206 38T1138 -22T1072 -65Q1056
-42 1035 -9T995 57T963 113Q936 82 889 45T775 -26T626 -82T445 -104ZM486 105Q555 105 614 125T720 175T801 236T858 291Q832 330 800 382T735 489T672 596T618 688Q558 652 498 613T388 526T310 421T280 288Q280 205 333 155T486 105ZM691 926Q736 952 780 991T853
1076T883 1170Q883 1202 862 1221T795 1240Q751 1240 717 1220T663 1165T643 1083Q643 1038 658 996T691 926Z" />
<glyph unicode="&apos;" horiz-adv-x="462" d="M571 1381Q558 1327 536 1258T487 1121T436 999Q393 995 361 995Q341 995 322 996T281 1000Q284 1038 291 1098T307 1226T325 1353T341 1446Q382 1453 422 1456T501 1460Q524 1460 546 1459T588 1454Q586 1443 582
1424T571 1381Z" />
<glyph unicode="(" horiz-adv-x="677" d="M75 -512Q44 -455 23 -365T-8 -172T-18 24Q-18 228 26 437T152 848T342 1232T583 1563Q653 1552 721 1529T827 1483Q703 1320 600 1149T421 801T305 440T264 68Q264 -11 272 -94T297 -250T338 -371Q317 -384 282 -404T208
-445T133 -485T75 -512Z" />
<glyph unicode=")" horiz-adv-x="651" d="M390 1043Q390 1127 381 1207T355 1355T312 1472Q371 1500 436 1523T566 1561Q599 1495 621 1409T654 1227T665 1032Q665 884 634 719T545 384T411 54T241 -242T46 -477Q27 -470 -3 -455T-67 -421T-126 -384T-163 -352Q-68
-254 15 -126T168 148T286 449T363 754T390 1043Z" />
<glyph unicode="*" horiz-adv-x="952" d="M886 962Q848 986 797 1024T695 1103T609 1177Q576 1192 530 1213T435 1258T340 1306T263 1350Q274 1365 293 1389T336 1439T381 1489T415 1523Q442 1506 483 1478T570 1416T657 1352T727 1297Q769 1280 827 1252T942
1194T1041 1137Q1033 1123 1012 1099T966 1046T918 995T886 962ZM564 856Q530 856 500 858T456 863Q470 913 492 979T539 1115T587 1249Q596 1305 607 1365T629 1483T651 1585Q666 1587 696 1589T758 1591Q790 1591 818 1589T860 1585Q845 1528 826 1467T788 1350T752
1249Q743 1198 729 1124T699 979T673 863Q659 860 629 858T564 856ZM279 940Q274 948 265 972T246 1027T228 1083T218 1122Q259 1142 316 1165T436 1214T557 1260T657 1298Q696 1322 748 1352T856 1415T964 1474T1053 1521Q1061 1508 1074 1472T1098 1399T1113
1341Q1073 1322 1016 1295T895 1240T774 1187T674 1145Q588 1097 479 1041T279 940Z" />
<glyph unicode="+" horiz-adv-x="1050" d="M979 611Q918 599 817 592T587 585Q496 585 399 588T215 598T69 613Q70 628 76 660T89 731T104 800T115 843Q148 839 205 836T336 832T490 830Q604 830 713 833T912 843T1058 859Q1047 814 1030 761T999 666T979 611ZM786
1181Q783 1129 772 1051T740 878T692 683Q663 575 627 465T550 263Q538 263 505 263T433 265T362 267T317 271Q337 323 356 387T395 519Q418 606 438 699T475 881T502 1046T519 1172Q528 1172 555 1173T619 1176T690 1179T752 1180T786 1181Z" />
<glyph unicode="," horiz-adv-x="667" d="M172 -290Q162 -286 133 -268T76 -221T36 -159Q66 -142 107 -107T180 -34T215 26Q217 33 216 37Q204 19 177 5T108 -9Q51 -9 25 27T-2 117Q-2 183 31 230T122 303T250 329Q301 329 344 310T414 251T440 151Q440 74 404
-11T307 -170T172 -290Z" />
<glyph unicode="-" horiz-adv-x="907" d="M930 801Q924 747 908 682T879 569Q833 569 752 567T572 563T372 558T183 551T38 543Q44 567 54 602T77 675T101 742T119 787Q220 799 342 806T584 814Q694 814 781 812T930 801Z" />
<glyph unicode="." horiz-adv-x="632" d="M234 329Q301 329 345 287T390 183Q390 116 360 66T279 -11T168 -38Q100 -38 50 6T0 112Q0 178 33 226T119 302T234 329Z" />
<glyph unicode="/" horiz-adv-x="969" d="M1015 1518Q1098 1500 1141 1477T1203 1425Q1055 1181 896 948T580 505T277 123T10 -174Q-44 -160 -95 -128T-172 -63Q-84 35 18 160T230 426T450 715T663 1007T856 1281T1015 1518Z" />
<glyph unicode="0" horiz-adv-x="1087" d="M408 -32Q299 -32 232 20T133 164T102 377Q102 510 132 646T218 907T353 1128T529 1281T740 1338Q903 1338 974 1242T1046 977Q1046 845 1016 705T928 433T792 196T616 30T408 -32ZM461 231Q516 231 566 278T658 401T732
568T782 746T800 901Q800 993 776 1047T693 1102Q638 1102 588 1054T495 927T420 757T371 577T353 422Q353 323 381 277T461 231Z" />
<glyph unicode="1" horiz-adv-x="809" d="M434 233Q466 233 505 232T579 227T629 221Q625 209 617 180T597 118T575 55T557 9Q540 9 480 8T340 4T177 -1T32 -6T-54 -12Q-51 13 -41 55T-18 139T4 199Q21 203 51 207T114 214T176 220T218 224Q225 250 241 308T278
444T323 606T369 770T408 912T433 1004Q423 997 401 980T353 942T300 900T255 862T228 839Q211 868 189 926T156 1030Q175 1046 219 1081T319 1160T431 1245T525 1314Q551 1314 588 1313T661 1309T717 1302Q715 1286 702 1227T667 1073T616 861T551 610Q527 521
497 423T434 233Z" />
<glyph unicode="2" horiz-adv-x="995" d="M845 299Q844 268 837 227T821 145T804 72T791 27L-15 -17Q-15 -9 -13 18T-8 82T-1 158T10 227Q52 260 114 311T251 429T411 575Q452 613 501 661T600 762T691 866T757 964T782 1045Q782 1080 757 1095T696 1111Q636 1111
575 1080T459 998T359 885Q338 900 303 926T234 979T184 1025Q252 1123 350 1199T559 1320T778 1364Q899 1364 974 1305T1050 1144Q1050 1075 1022 1000T947 850T842 706T723 579Q676 533 631 490T544 410T469 342T410 290T371 258Q396 261 442 265T545 275T661
285T768 294T845 299Z" />
<glyph unicode="3" horiz-adv-x="1032" d="M369 -3Q262 -3 182 26T53 110T-2 243Q31 264 74 286T162 327T246 358Q251 293 289 252T413 210Q484 210 543 238T638 315T674 427Q674 516 583 552T319 588Q319 618 326 669T348 780Q412 780 482 796T615 843T717 918T756
1020Q756 1059 733 1085T651 1111Q596 1111 537 1090T426 1038T342 976Q312 1006 284 1039T236 1097T212 1131Q247 1165 320 1213T499 1298T732 1335Q865 1335 944 1269T1024 1080Q1024 991 978 919T858 798T700 728Q803 711 865 639T928 458Q928 316 855 213T655
53T369 -3Z" />
<glyph unicode="4" horiz-adv-x="1104" d="M981 343Q951 343 916 343T844 342T774 339Q741 215 721 132T692 12Q669 8 632 4T554 -3T479 -9T428 -11Q449 65 476 152T534 324Q475 320 406 314T271 301T154 289T84 281Q84 330 89 392T99 505Q137 556 198 630T332
790T480 963T622 1126T740 1255T811 1328Q825 1330 858 1332T932 1337T1010 1340T1070 1342Q1064 1326 1047 1270T1003 1130T948 949T889 751T835 562Q867 563 908 564T982 565T1025 565Q1025 558 1021 533T1011 475T996 406T981 343ZM782 1033Q754 1002 715 957T631
860T542 756T460 658T394 577T356 526Q367 528 399 531T474 539T556 547T621 551Q627 573 641 620T675 726T714 845T752 956T782 1033Z" />
<glyph unicode="5" horiz-adv-x="1137" d="M0 216Q20 238 52 264T120 316T187 362T233 391Q247 354 279 319T364 260T496 237Q596 237 674 284T798 411T844 585Q844 654 814 701T708 749Q656 749 613 731T537 686T481 629T452 578Q428 575 397 573T321 570Q307
570 284 570T241 571T208 572Q252 738 284 898T337 1214Q386 1225 463 1238T632 1265T816 1292T987 1314T1119 1328Q1120 1309 1120 1268T1120 1182T1118 1108Q1042 1104 962 1098T805 1083T670 1068T576 1054Q571 1028 565 993T550 923T536 859T525 813Q544 842
584 873T681 926T803 948Q945 948 1016 856T1088 621Q1088 492 1039 380T902 183T699 52T452 4Q363 4 273 25T110 94T0 216Z" />
<glyph unicode="6" horiz-adv-x="1154" d="M1063 1176Q968 1147 875 1094T699 973T549 835T443 699Q487 742 543 773T662 820T791 837Q875 837 937 801T1033 700T1067 550Q1067 430 1022 328T896 151T707 33T470 -9Q353 -9 272 35T150 156T108 336Q108 507 177
670T368 973T648 1217T986 1376Q1000 1366 1017 1330T1047 1252T1063 1176ZM450 530Q413 496 391 451T368 357Q368 296 410 261T530 225Q607 225 674 262T781 363T822 504Q822 560 793 593T699 627Q631 627 564 600T450 530Z" />
<glyph unicode="7" horiz-adv-x="1012" d="M275 -33Q246 -25 202 -11T113 19T36 46T-3 61Q58 159 134 269T296 492T472 715T654 922T831 1098Q737 1084 642 1067T466 1031T328 1000T253 981Q254 997 258 1032T270 1109T285 1188T298 1246Q408 1270 534 1292T785
1333T1013 1361T1182 1372Q1182 1362 1180 1331T1174 1263T1167 1194T1162 1154Q982 956 851 797T620 501T438 234T275 -33Z" />
<glyph unicode="8" horiz-adv-x="1243" d="M528 -10Q308 -10 187 66T65 293Q65 400 114 490T243 643T414 734Q385 745 354 774T300 848T278 945Q278 1084 354 1179T559 1324T844 1374Q955 1374 1039 1343T1173 1249T1222 1091Q1222 1000 1184 919T1080 780T933
699Q1006 688 1058 620T1111 441Q1111 340 1064 258T934 115T747 23T528 -10ZM547 217Q630 217 698 244T809 324T851 453Q851 525 795 555T651 585Q573 585 503 561T388 486T344 358Q344 305 372 274T447 230T547 217ZM710 825Q775 825 833 851T927 926T963 1039Q963
1107 920 1137T795 1168Q725 1168 667 1145T573 1075T537 961Q537 889 582 857T710 825Z" />
<glyph unicode="9" horiz-adv-x="1067" d="M723 20Q676 11 587 5T407 -1Q427 22 468 81T559 224T656 400T731 583Q711 559 674 536T583 498T460 483Q298 483 222 571T146 806Q146 932 192 1034T319 1210T507 1324T736 1364Q916 1364 1005 1277T1095 1034Q1095
956 1071 855T1007 640T918 414T819 199T723 20ZM704 1162Q618 1162 551 1124T444 1018T405 864Q405 797 441 756T547 715Q613 715 667 740T762 810T825 911T847 1031Q847 1093 811 1127T704 1162Z" />
<glyph unicode=":" horiz-adv-x="564" d="M156 -10Q78 -10 22 39T-34 159Q-34 209 -9 252T59 322T154 349Q236 349 287 294T338 159Q338 85 285 38T156 -10ZM375 1019Q442 1019 486 977T531 874Q531 807 501 757T420 680T309 653Q241 653 191 696T141 803Q141
869 174 917T260 992T375 1019Z" />
<glyph unicode=";" horiz-adv-x="593" d="M398 1003Q465 1003 509 961T554 858Q554 791 523 741T442 664T332 637Q264 637 214 680T164 787Q164 853 197 901T283 976T398 1003ZM107 -318Q97 -313 70 -296T15 -252T-23 -193Q-1 -180 28 -157T84 -107T131 -54T151
-11Q153 -4 152 -1Q141 -19 115 -33T47 -47Q-8 -47 -33 -12T-59 74Q-59 169 11 223T182 277Q255 277 309 236T364 107Q364 33 329 -48T236 -201T107 -318Z" />
<glyph unicode="&lt;" horiz-adv-x="807" d="M798 1128Q823 1111 850 1081T899 1020T922 962Q802 887 696 819T485 680T263 530L232 601Q274 587 343 560T488 501T623 442T704 399Q696 371 680 333T645 257T609 190Q477 253 334 316T40 430L98 631Q188 700 294
778T502 930T683 1056T798 1128Z" />
<glyph unicode="=" horiz-adv-x="1050" d="M221 1065Q267 1074 353 1083T548 1100T771 1114T986 1124T1158 1128Q1157 1114 1151 1079T1137 1001T1122 924T1112 877Q1057 876 958 874T739 869T501 862T286 855T139 850Q144 868 154 899T177 965T201 1026T221 1065ZM58
632Q162 642 281 649T523 660T757 664Q839 664 912 662T1038 657Q1037 643 1032 609T1019 536T1004 465T994 420Q954 420 881 420T715 420T519 422T320 423T141 423T9 423Q10 434 15 460T29 520T44 583T58 632Z" />
<glyph unicode="&gt;" horiz-adv-x="790" d="M197 978Q223 1002 257 1031T327 1085T389 1123Q408 1118 456 1084T570 999T705 891T837 780L778 543Q665 489 544 433T316 329T137 251T48 216Q41 234 30 270T9 345T-1 406Q11 412 59 438T178 502T331 585T490 670T630
744L623 656Q594 680 540 721T423 811T299 904T197 978Z" />
<glyph unicode="?" horiz-adv-x="1036" d="M638 434Q580 434 534 436T444 441T354 450Q378 538 417 616T516 762T663 885Q749 940 802 999T856 1129Q856 1179 824 1204T726 1229Q665 1229 617 1211T530 1162T456 1089T389 1001L191 1126Q289 1299 443 1385T778
1472Q892 1472 976 1442T1106 1351T1153 1197Q1153 1099 1120 1026T1029 894T891 782Q840 746 791 698T702 584T638 434ZM403 -10Q335 -10 292 27T248 131Q248 192 282 235T367 302T472 326Q546 326 589 289T632 194Q632 137 599 91T513 18T403 -10Z" />
<glyph unicode="@" horiz-adv-x="1920" d="M756 -41Q556 -41 406 25T172 216T87 514Q87 687 148 837T320 1109T577 1317T896 1450T1252 1497Q1460 1497 1610 1432T1842 1241T1923 932Q1923 815 1892 710T1802 523T1659 396T1468 349Q1377 349 1315 393T1248 514Q1193
436 1091 394T877 352Q733 352 659 423T584 616Q584 713 623 798T730 949T885 1052T1067 1089Q1141 1089 1191 1072T1265 1031Q1266 1049 1269 1073T1276 1111Q1295 1112 1330 1113T1402 1116T1462 1119Q1455 1049 1450 972T1440 825T1433 707T1430 647Q1430 593
1448 572T1509 550Q1554 550 1588 582T1646 666T1682 779T1694 898Q1694 1094 1579 1192T1238 1290Q1066 1290 906 1239T618 1093T417 864T342 563Q342 434 399 344T560 206T807 159Q912 159 993 181T1135 239T1237 317L1390 178Q1333 113 1241 64T1026 -13T756
-41ZM961 559Q1047 559 1116 597T1235 694L1244 851Q1223 870 1183 882T1088 894Q1006 894 948 863T860 782T829 673Q829 618 867 589T961 559Z" />
<glyph unicode="A" horiz-adv-x="1129" d="M204 -15Q181 -15 142 -14T59 -11T-26 -8T-94 -4Q-68 55 -23 150T79 363T201 610T329 866T452 1106T558 1305Q619 1314 683 1320T812 1331T939 1335Q988 1335 1036 1332T1129 1323Q1125 1235 1114 1119T1080 845T1022
481T934 3Q903 -2 849 -6T737 -12T632 -15Q637 13 646 54T665 142T686 236T707 327T725 403Q693 403 653 401T570 397T489 391T423 384T382 379Q346 305 311 231T249 92T204 -15ZM484 622Q513 628 568 633T684 641T784 646Q788 670 801 732T830 867T857 1004T872
1095Q854 1095 818 1093T748 1088T700 1084Q686 1056 661 1004T606 887T544 753T484 622Z" />
<glyph unicode="B" horiz-adv-x="1174" d="M-8 21Q2 60 26 145T83 344T151 584T222 831T286 1052T333 1215T353 1285Q403 1289 476 1294T633 1302T797 1306Q943 1306 1033 1249T1123 1062Q1123 972 1077 898T958 775T805 710Q809 710 813 710T826 709Q898 706
952 675T1036 590T1067 465Q1067 333 998 244T810 102T543 26T233 3Q164 3 100 7T-8 21ZM346 263Q353 263 366 263T395 263Q464 263 535 270T668 298T767 358T805 462Q805 521 754 548T586 575Q569 575 540 575T479 573T424 568L346 263ZM480 791Q552 791 594 795T669
812Q717 823 763 846T838 905T868 994Q868 1055 830 1080T729 1105Q686 1105 638 1100T556 1090L480 791Z" />
<glyph unicode="C" horiz-adv-x="1137" d="M1030 224Q931 126 798 58T501 -11Q355 -11 258 54T112 229T63 469Q63 638 118 792T273 1066T507 1256T799 1326Q897 1326 984 1298T1135 1215T1222 1079Q1191 1053 1145 1021T1052 959T971 911Q970 922 961 949T929
1007T867 1058T762 1079Q676 1079 605 1030T483 900T403 723T375 534Q375 415 416 343T549 271Q613 271 672 296T785 359T882 439Q907 418 937 379T994 297T1030 224Z" />
<glyph unicode="D" horiz-adv-x="1198" d="M58 -31Q65 17 80 106T117 311T161 553T208 803T251 1030T285 1205T303 1299Q340 1305 397 1311T518 1321T643 1325Q833 1325 945 1260T1107 1080T1156 819Q1156 596 1091 437T891 175T549 22T58 -31ZM396 258Q525 264
615 308T762 428T844 598T870 799Q870 881 851 945T784 1046T654 1083Q634 1083 604 1082T555 1080Q529 944 502 803T449 524T396 258Z" />
<glyph unicode="E" horiz-adv-x="957" d="M688 -13Q589 -6 492 -1T294 7Q220 10 142 13T-10 20Q28 185 67 341T143 636Q205 868 251 1026T320 1251Q514 1284 676 1300T947 1321T1082 1326Q1067 1268 1049 1213T1008 1097L544 1060Q538 1044 528 1011T508 940T488
868T474 818Q497 819 536 819T624 821T720 824T810 825T879 827L813 585Q800 586 760 587T667 589T561 592T466 594T408 594Q405 583 397 555T378 489T357 413T337 340T322 285Q338 286 395 286T508 286Q563 286 618 285T719 281T795 275Q785 240 770 196T738 108T708
32T688 -13Z" />
<glyph unicode="F" horiz-adv-x="949" d="M321 -10L25 6Q79 221 131 441T233 880T326 1303Q437 1308 537 1309T725 1310Q833 1309 918 1301T1070 1280Q1059 1219 1044 1152T1016 1037Q979 1041 909 1046T744 1055T542 1059Q537 1030 528 985T509 892T490 802Q572
802 650 797T787 786T868 775Q856 723 839 664T800 549Q755 554 694 559T568 567T447 570Q431 486 411 386T368 183T321 -10Z" />
<glyph unicode="G" horiz-adv-x="1275" d="M598 -48Q361 -48 236 78T111 432Q111 611 163 774T313 1064T550 1264T862 1338Q967 1338 1057 1309T1212 1229T1302 1113Q1281 1094 1237 1060T1140 989T1040 928Q1023 971 996 1002T925 1051T817 1068Q719 1068 641
1015T508 873T423 678T394 464Q394 342 449 271T638 200Q716 200 774 232T870 316T924 430Q927 445 930 459T936 485Q918 489 879 495T793 508T701 519T626 525Q632 549 643 588T667 666T689 729Q760 727 861 717T1063 691T1237 656Q1234 618 1226 572T1208 486Q1168
339 1090 218T891 24T598 -48Z" />
<glyph unicode="H" horiz-adv-x="1094" d="M18 2Q24 46 42 134T87 339T143 583T204 836T262 1066Q281 1134 297 1189T326 1282Q335 1283 369 1285T446 1289T530 1292T599 1294Q588 1245 571 1175T538 1042Q524 989 511 934T487 834T471 771Q494 773 526 775T594
779T666 782T732 785T782 787Q804 859 831 949T886 1132T939 1304Q954 1306 982 1307T1038 1308Q1092 1308 1146 1306T1225 1299Q1211 1267 1190 1204T1141 1058T1084 880T1025 685T967 491Q937 393 911 301T864 134T830 8Q808 7 766 5T671 2T571 1Q596 104 620
198T668 377T714 539Q693 538 663 538T599 536T530 535T466 534T418 533Q402 462 383 377T347 213T317 80T302 15Q281 12 244 10T163 6T80 3T18 2Z" />
<glyph unicode="I" horiz-adv-x="550" d="M253 -15Q220 -15 173 -14T77 -11T-7 -3Q6 47 23 119T62 274T105 443T148 606Q189 760 239 940T346 1316Q361 1317 393 1317T467 1319T546 1321T611 1322Q585 1210 554 1078T489 813T424 561Q409 504 391 438T353 303T315
173T281 61T253 -15Z" />
<glyph unicode="J" horiz-adv-x="1178" d="M463 -19Q327 -19 231 33T84 179T31 402Q51 414 89 432T172 469T260 505T329 531Q329 454 350 391T413 289T519 251Q588 251 639 293T730 417T801 617Q818 679 836 762T872 934T905 1099T929 1226T939 1283Q975 1290
1018 1294T1100 1299Q1140 1299 1172 1297T1234 1291Q1223 1227 1205 1138T1167 951T1125 762T1087 603Q1032 384 945 247T739 45T463 -19Z" />
<glyph unicode="K" horiz-adv-x="1095" d="M2 -32Q20 39 44 143T97 372T155 626T212 882T262 1114T302 1296Q333 1302 373 1304T449 1307Q490 1307 525 1304T580 1297Q575 1272 562 1215T531 1082T496 926T463 775Q514 810 580 865T720 990T869 1140T1013 1306Q1048
1275 1088 1245T1163 1191T1213 1158Q1192 1130 1142 1074T1021 948T868 807T703 680Q739 624 773 558T838 423T893 294T932 187T951 119Q924 103 874 79T768 33T670 -2Q667 20 656 66T628 174T590 300T543 426T491 532Q472 519 447 507T406 489Q393 423 377 344T345
190T318 64T302 -3Q285 -4 237 -8T125 -19T2 -32Z" />
<glyph unicode="L" horiz-adv-x="961" d="M-11 20Q7 75 35 170T98 384T166 630Q199 757 232 882T292 1113T334 1287Q360 1290 414 1294T525 1299Q554 1299 592 1297T644 1292Q631 1234 608 1148T556 957T493 739T425 516Q406 452 389 396T356 298Q433 303 514
306T678 312T841 314Q839 291 828 242T804 137T778 42Q657 27 539 20T317 12Q228 10 143 12T-11 20Z" />
<glyph unicode="M" horiz-adv-x="1450" d="M-30 -4Q-11 67 16 164T74 374T140 607T208 844T274 1064T331 1249Q375 1253 432 1255T544 1259T636 1261T679 1262Q679 1252 680 1203T683 1078T686 913T689 732T691 559T690 420T687 339L653 335Q672 365 712 433T804
592T913 783T1022 977T1114 1146T1173 1260Q1211 1260 1270 1258T1390 1253T1487 1242Q1484 1181 1469 1094T1429 905T1375 693Q1342 566 1304 436T1230 192T1167 2Q1124 2 1074 3T980 8T908 13Q935 90 969 201T1037 428Q1058 500 1079 575T1118 712T1146 808Q1123
766 1084 697T994 545T892 377T793 216T711 86T661 11Q648 10 623 10T582 9Q557 9 532 11T477 17Q478 30 479 86T480 224T481 401T482 588T482 756T481 875Q460 795 436 703T386 517T339 337T297 179T266 61T249 1Q217 0 169 -1T69 -3T-30 -4Z" />
<glyph unicode="N" horiz-adv-x="1282" d="M323 -6Q271 -7 213 -4T105 3T27 10Q31 22 44 74T79 206T126 379T178 573T228 763Q255 861 279 956T324 1133T355 1268Q374 1268 409 1267T485 1262T565 1255T631 1247Q671 1147 706 1034T773 806T830 584T873 387L1065
1251Q1092 1251 1131 1249T1211 1242T1286 1233T1337 1222Q1328 1174 1314 1111T1283 975T1247 826T1208 674T1172 533Q1148 443 1123 356T1074 195T1032 70T1004 2Q978 1 950 1T894 0Q853 0 815 1T752 8Q745 35 731 89T698 217T655 373T608 539T562 699T521 833Q516
805 502 742T469 595T428 420T386 244T349 93T323 -6Z" />
<glyph unicode="O" horiz-adv-x="1354" d="M570 -51Q405 -51 300 12T145 184T94 432Q94 626 144 788T289 1069T523 1254T838 1320Q1012 1320 1114 1254T1260 1074T1305 818Q1305 627 1260 468T1122 192T892 13T570 -51ZM609 229Q717 229 798 272T934 392T1016
571T1044 791Q1044 866 1025 933T957 1044T820 1087Q712 1087 630 1042T492 916T408 732T380 509Q380 436 402 372T475 269T609 229Z" />
<glyph unicode="P" horiz-adv-x="1010" d="M-40 -12Q-30 23 -11 92T35 253T93 451T157 668T223 887T286 1088T340 1253Q430 1270 527 1279T733 1289Q896 1289 991 1220T1087 1012Q1087 906 1047 820T934 672T765 577T555 543Q524 543 480 547T411 558Q404 531
384 462T339 304T287 130T242 -19Q221 -19 183 -19T102 -18T21 -15T-40 -12ZM468 788Q492 783 525 780T593 776Q665 776 721 798T810 862T843 962Q843 1030 805 1058T699 1086Q668 1086 629 1083T547 1074Q546 1069 539 1042T521 977T500 900T481 830T468 788Z"
/>
<glyph unicode="Q" horiz-adv-x="1291" d="M949 -128Q922 -115 882 -78T807 0T762 61Q744 49 707 32T617 3T501 -10Q365 -10 276 48T144 206T101 434Q101 602 155 757T308 1034T540 1227T833 1299Q989 1299 1085 1244T1225 1090T1269 863Q1269 729 1235 596T1132
351T960 169Q988 124 1036 90T1135 32Q1099 -8 1047 -52T949 -128ZM678 268Q664 286 649 319T621 390T604 458Q623 472 657 492T729 533T795 568Q802 520 819 456T864 349Q904 386 933 445T982 572T1012 708T1022 834Q1022 946 976 1011T813 1076Q709 1076 629
1026T492 891T407 698T378 474Q378 372 417 302T562 232Q611 232 639 246T678 268Z" />
<glyph unicode="R" horiz-adv-x="1094" d="M-1 -26Q29 98 64 257T137 592T212 951T285 1303Q341 1310 417 1315T574 1324T724 1327Q838 1327 924 1300T1058 1211T1107 1040Q1107 899 1029 811T820 668Q831 632 842 570T863 433T881 286T894 154T902 64Q865 47
820 33T732 7T656 -11T614 -19Q614 52 613 143T607 327T597 493T582 605Q552 599 520 594T461 587T417 584Q414 562 405 510T381 387T351 243T323 102T298 -8Q262 -15 210 -19T103 -24T-1 -26ZM451 797Q516 797 612 813Q683 825 737 845T822 901T854 1000Q854 1073
809 1098T676 1124Q660 1124 636 1123T585 1120T537 1115T505 1112Q503 1095 497 1063T485 991T471 912T459 842T451 797Z" />
<glyph unicode="S" horiz-adv-x="1152" d="M469 -15Q388 -15 314 4T175 58T63 140T-13 244Q-5 254 23 280T88 336T159 393T216 429Q236 394 262 356T325 283T410 228T519 206Q586 206 644 229T739 298T775 406Q775 451 752 486T682 552T561 609Q467 646 394 689T278
794T235 944Q235 1078 304 1168T489 1303T739 1349Q836 1349 926 1329T1087 1271T1196 1177Q1158 1127 1104 1073T1007 994Q981 1030 940 1063T846 1117T725 1138Q671 1138 623 1122T544 1072T513 986Q513 950 532 926T584 884T657 852Q741 822 813 788T940 710T1024
607T1055 464Q1055 347 1007 258T877 109T689 17T469 -15Z" />
<glyph unicode="T" horiz-adv-x="1039" d="M198 1071Q200 1091 206 1126T220 1201T235 1271T245 1315Q361 1323 507 1329T801 1335Q912 1335 1015 1331T1202 1314Q1184 1243 1163 1180T1125 1083Q1105 1083 1067 1083T982 1085T890 1086T810 1087Q801 1050 784
977T746 809T700 608T652 402T610 215T579 74T563 5Q526 0 469 -4T354 -11T263 -14Q276 45 296 132T341 321T393 531T446 741T496 928Q508 974 519 1013T539 1083Q502 1081 458 1080T368 1076T278 1073T198 1071Z" />
<glyph unicode="U" horiz-adv-x="1212" d="M487 -33Q292 -33 212 67T131 352Q131 468 157 612T227 928Q252 1027 283 1132T348 1346Q384 1350 423 1352T495 1355Q541 1355 584 1352T660 1345Q629 1258 593 1148T527 926Q501 834 480 746T445 586T432 466Q432 298
565 298Q675 298 750 411T877 717Q888 758 903 821T936 956T969 1101T998 1232T1014 1329Q1050 1329 1095 1326T1184 1320T1260 1312T1302 1304Q1296 1249 1284 1183T1257 1046T1222 905Q1168 706 1106 536T962 238T764 39T487 -33Z" />
<glyph unicode="V" horiz-adv-x="1177" d="M480 -21Q430 -21 382 -18T307 -10Q298 53 291 155T277 383T267 643T260 905T256 1140T254 1318Q300 1332 359 1341T475 1355T569 1360Q569 1322 569 1251T568 1085T566 881T561 656T554 430T542 219L518 214Q566 302
621 416T732 654T841 897T935 1115T1005 1281T1038 1363Q1086 1363 1141 1357T1248 1339T1342 1310Q1267 1152 1189 997T1035 699T892 433T770 214T682 59T637 -16Q610 -19 569 -20T480 -21Z" />
<glyph unicode="W" horiz-adv-x="1344" d="M684 -16Q684 29 683 91T681 224T680 362T679 485T678 572L712 576Q705 563 679 524T616 428T537 309T453 185T378 75T323 -1L19 10Q35 107 56 225T105 477T165 755T234 1050T311 1352L612 1340Q587 1247 557 1138T494
915T431 692T376 488T335 325L315 311Q334 344 367 399T441 521T524 659T604 796T669 915T708 996L921 999Q918 983 913 930T902 802T891 644T880 482T872 342T868 254L830 251Q868 336 911 446T997 679T1080 924T1153 1156T1207 1348L1492 1376Q1445 1199 1383
1018T1255 668T1130 362T1027 131T969 11L684 -16Z" />
<glyph unicode="X" horiz-adv-x="1201" d="M513 674Q486 763 448 854T369 1026T296 1164T251 1241Q282 1254 325 1269T417 1299T508 1324T582 1340Q597 1309 615 1253T654 1128T692 992T725 868Q775 925 823 989T914 1115T989 1231T1041 1321Q1094 1315 1153 1298T1260
1261T1325 1223Q1281 1160 1214 1081T1071 922T929 772T816 660Q843 607 874 524T937 349T992 178T1025 54Q982 32 931 13T830 -19T740 -39Q733 15 718 90T680 250T629 421Q604 387 569 344T492 254T410 162T333 79T273 15T241 -19Q100 -4 -57 50Q12 117 90 201T247
371T395 536T513 674Z" />
<glyph unicode="Y" horiz-adv-x="1065" d="M434 548Q419 582 402 634T366 750T330 882T297 1019T269 1151T248 1266Q337 1296 409 1308T531 1322Q533 1305 539 1261T553 1159T572 1038T592 921T611 829Q628 853 662 900T740 1007T829 1125T914 1233T977 1307Q1025
1302 1075 1286T1167 1250T1236 1210Q1176 1151 1092 1055T905 834T693 567Q681 518 666 457T636 338T611 243Q600 199 587 149T563 60T549 9Q536 5 502 2T427 -1Q384 -1 343 2T273 11Q301 116 330 220T387 410T434 548Z" />
<glyph unicode="Z" horiz-adv-x="1044" d="M823 -14Q646 -14 434 -6T-27 22Q-21 50 -10 98T13 197T34 279Q87 325 159 394T312 543T474 707T627 866T753 1001T834 1090Q809 1090 748 1087T608 1080T447 1070T301 1059Q305 1081 312 1114T327 1179Q336 1213 345
1243T363 1294Q419 1299 500 1305T673 1317T856 1327T1022 1332Q1043 1333 1080 1333T1155 1332T1208 1330Q1207 1309 1200 1278T1185 1218Q1175 1179 1165 1146T1149 1101Q1105 1047 1039 974T896 819T739 654T585 497T454 367T364 282Q393 280 436 278T535 274T653
273Q714 273 781 275T912 280Q908 257 899 219T879 140Q866 93 850 49T823 -14Z" />
<glyph unicode="[" horiz-adv-x="735" d="M76 -526Q19 -526 -41 -524T-161 -518Q-124 -276 -64 -6T67 527Q128 751 191 955T312 1325T418 1601Q471 1610 543 1618T698 1632T863 1641T1021 1645Q1009 1597 988 1542Q975 1508 963 1481T945 1442Q919 1442 863 1439T739
1431T616 1421Q576 1316 535 1197T455 951T377 692T304 429Q267 291 234 159T175 -87T133 -285Q147 -287 184 -289T270 -292Q313 -293 363 -293T444 -293Q436 -323 422 -366T393 -450T369 -512Q320 -518 244 -522T76 -526Z" />
<glyph unicode="\" horiz-adv-x="725" d="M592 3Q524 -37 460 -64T339 -104Q291 139 260 381T212 876T191 1400Q225 1429 297 1448T441 1473Q441 1358 445 1236T459 989T481 736T511 484T548 238T592 3Z" />
<glyph unicode="]" horiz-adv-x="619" d="M653 543Q602 350 544 167T426 -176T311 -462Q229 -479 133 -488T-55 -500T-210 -504Q-203 -473 -193 -433T-173 -353T-156 -287Q-131 -287 -93 -285T-13 -278T64 -270T115 -262Q160 -156 206 -22T296 260T382 558Q419
695 450 826T506 1074T545 1281T564 1429Q527 1432 482 1433T392 1436T309 1438Q302 1447 298 1456T292 1475Q305 1519 321 1568T349 1646Q377 1648 413 1648T479 1648Q582 1648 673 1642T853 1619Q839 1407 788 1130T653 543Z" />
<glyph unicode="^" horiz-adv-x="1032" d="M880 1325Q905 1287 935 1229T993 1101T1044 955T1077 805Q1040 779 983 759T847 724Q845 762 836 810T811 910T777 1013T737 1111T693 1193L817 1188Q763 1151 703 1102T581 998T465 888T365 787T290 705Q243 714 190
741T103 812Q162 874 236 946T387 1089T537 1223T663 1326Q686 1330 716 1332T777 1335Q810 1335 838 1333T880 1325Z" />
<glyph unicode="_" horiz-adv-x="1549" d="M192 21Q363 21 538 23T873 30T1163 39T1373 48Q1352 -29 1329 -99T1286 -214Q1230 -216 1127 -218T874 -220Q786 -220 673 -220T431 -218T167 -214T-102 -210Q-100 -197 -96 -168T-85 -104T-72 -35T-61 23Q-40 22 -7
22T63 21T134 21T192 21Z" />
<glyph unicode="`" horiz-adv-x="663" d="M359 1485Q381 1482 432 1464T548 1414T674 1346T778 1269Q765 1246 742 1219T698 1171T668 1145Q635 1164 578 1187T455 1234T325 1277T213 1309Q221 1321 242 1352T294 1419T359 1485Z" />
<glyph unicode="a" horiz-adv-x="1295" d="M394 -18Q222 -18 120 48T17 269Q17 379 66 456T200 580T388 649T603 671Q660 671 714 663T810 644T864 622Q867 642 867 672T859 727Q847 790 792 820T648 850Q585 850 524 831T413 779T331 711L153 851Q245 947 389
1007T695 1068Q887 1068 998 992T1109 741Q1109 690 1099 631T1072 512Q1053 446 1039 381T1024 267Q1024 238 1034 229T1063 220Q1091 220 1114 239T1154 292L1214 123Q1188 64 1129 29T994 -7Q914 -7 874 36T834 166Q808 123 743 80T589 10T394 -18ZM490 191Q543
191 601 206T711 246T796 303Q805 345 814 382T832 450Q810 459 746 471T602 484Q550 484 497 474T399 444T327 391T300 315Q300 248 346 220T490 191Z" />
<glyph unicode="b" horiz-adv-x="1200" d="M28 -9Q35 26 53 108T98 303T154 545T215 805T274 1053T325 1260T360 1395Q374 1398 450 1410T633 1438Q616 1371 590 1264T534 1028T478 770Q502 792 537 818T616 867T710 905T818 920Q972 920 1047 835T1123 579Q1123
465 1089 361T988 177T825 49T608 2Q534 2 478 22T385 68T337 114Q330 85 321 42T308 -19Q245 -19 163 -18T28 -9ZM384 318Q397 307 426 290T497 260T591 247Q677 247 738 282T833 381T866 525Q866 605 837 649T722 693Q657 693 601 668T502 607T431 544Q430 535
425 513T414 461T402 403T391 351T384 318Z" />
<glyph unicode="c" horiz-adv-x="1026" d="M902 211Q866 159 796 109T631 25T421 -9Q294 -9 213 45T92 192T53 406Q53 551 99 676T231 896T433 1042T689 1095Q783 1095 857 1066T982 985T1051 864L830 752Q829 762 823 781T799 823T750 860T663 875Q583 875 520
841T414 749T348 615T325 459Q325 378 361 326T490 273Q542 273 588 289T669 329T727 374T756 405L902 211Z" />
<glyph unicode="d" horiz-adv-x="1195" d="M690 3Q693 18 700 47T714 105T726 151Q714 136 689 111T624 61T525 19T385 1Q289 1 213 50T92 185T48 380Q48 551 121 681T324 885T622 959Q702 959 765 941T868 897T922 846Q936 898 957 965T1002 1103T1049 1241T1090
1359T1118 1434Q1170 1434 1233 1428T1341 1410Q1222 1064 1123 717T926 -5Q904 -5 858 -4T764 -1T690 3ZM485 258Q536 258 581 272T666 310T735 358T784 402Q790 424 799 457T819 525T839 591T853 640Q836 661 801 682T719 718T616 732Q483 732 397 654T311 442Q311
349 359 304T485 258Z" />
<glyph unicode="e" horiz-adv-x="1111" d="M970 195Q936 163 889 129T778 66T636 19T462 0Q274 0 163 98T51 384Q51 538 102 663T245 878T459 1017T722 1066Q895 1066 987 980T1080 740Q1080 683 1067 624T1029 510Q1017 511 970 511T862 512T745 512T657 512Q598
511 535 508T417 499T332 488Q323 460 323 418Q323 369 348 333T419 276T522 256Q578 256 625 271T711 309T782 357T839 401Q844 396 862 374T902 319T944 254T970 195ZM382 657Q408 661 451 665T552 672T673 677Q710 677 745 677T806 677T839 677Q843 692 845
710T847 747Q846 784 830 816T779 868T688 888Q617 888 552 858T442 775T382 657Z" />
<glyph unicode="f" horiz-adv-x="896" d="M133 -9Q134 -2 140 53T155 187T174 343T191 475Q164 470 119 459T39 436Q40 463 44 506T55 594T72 673Q83 676 104 682T151 694T198 705T230 712Q237 761 246 811T268 907Q300 1028 368 1131T537 1297T771 1361Q855 1361
912 1340T1005 1288T1059 1226T1084 1173Q1063 1148 1035 1116T976 1051T921 992T882 954Q876 970 866 993T840 1039T799 1077T740 1092Q685 1092 645 1064T578 988T536 885Q528 856 522 819T513 753Q545 755 598 756T702 758T778 757Q771 711 757 647T728 532Q719
532 675 530T576 524T481 516Q478 489 473 436T463 319T453 191T444 79T440 10Q402 4 347 0T234 -6T133 -9Z" />
<glyph unicode="g" horiz-adv-x="1231" d="M597 248Q424 248 328 295T192 417T153 578Q153 732 234 839T450 1001T745 1056Q954 1056 1052 971T1150 739Q1150 586 1077 476T879 307T597 248ZM353 -499Q210 -499 101 -473T-68 -386T-129 -225Q-129 -137 -85 -70T35
45T202 118T389 150Q451 153 516 154T669 156Q810 156 890 98T971 -77Q971 -192 922 -272T787 -403T590 -476T353 -499ZM393 -326Q471 -326 541 -308T655 -249T699 -144Q699 -106 678 -85T622 -56T550 -47Q504 -47 449 -47T347 -47Q296 -47 251 -64T178 -115T150
-199Q150 -241 181 -269T267 -312T393 -326ZM249 53Q146 75 103 117T59 207Q59 254 85 294T153 364T240 404L392 312Q341 298 313 273T285 219Q285 192 311 171T389 150L249 53ZM618 460Q696 460 759 487T858 566T895 693Q895 763 849 806T724 849Q650 849 585
823T479 744T438 613Q438 542 486 501T618 460ZM1091 815L967 946Q991 985 1036 1029T1132 1111T1227 1170Q1235 1152 1251 1119T1284 1053T1314 998Q1291 987 1260 967T1196 922T1135 869T1091 815Z" />
<glyph unicode="h" d="M226 -14Q204 -17 167 -19T90 -21Q45 -21 6 -18T-49 -8Q-24 56 9 156T80 380T154 639Q190 773 222 910T282 1174T331 1408Q339 1411 373 1416T452 1428T535 1438T594 1443Q590 1368 573 1262T530 1031T470 770Q511 809 570 841T698 892T830
912Q951 912 1006 857T1062 694Q1062 634 1042 547T989 361T921 169T853 -1Q821 -6 787 -8T719 -11Q645 -11 588 2Q612 57 644 136T706 300T756 456T776 569Q776 616 752 644T675 673Q633 673 592 659T515 622T449 574T402 527Q380 448 356 368T308 214T263 81T226
-14Z" />
<glyph unicode="i" horiz-adv-x="610" d="M274 1Q257 0 215 -3T126 -6Q91 -6 57 -4T-10 2Q0 24 21 85T70 231T129 414T189 606T244 782T284 915Q314 918 363 921T462 926T542 928Q539 898 525 831T488 683Q464 591 434 487T372 283T315 109T274 1ZM469 1059Q400
1059 356 1094T311 1187Q311 1249 343 1299T427 1378T541 1408Q603 1408 642 1371T681 1276Q681 1219 652 1170T575 1090T469 1059Z" />
<glyph unicode="j" horiz-adv-x="677" d="M473 205Q431 39 377 -91T251 -312T83 -449T-136 -496Q-241 -496 -324 -459T-458 -354T-515 -198Q-451 -159 -372 -124T-236 -72Q-233 -116 -218 -157T-172 -225T-95 -252Q-46 -252 -6 -212T65 -106T121 35T164 182Q193
291 217 418T259 670T282 900L578 914Q575 860 568 778T547 598T516 400T473 205ZM495 1401Q575 1401 618 1355T662 1252Q662 1195 627 1147T538 1070T425 1041Q354 1041 309 1082T264 1182Q264 1241 296 1290T380 1370T495 1401Z" />
<glyph unicode="k" horiz-adv-x="1156" d="M735 -48Q727 -16 709 35T666 144T614 258T560 356T511 418Q498 410 475 396T427 367T383 339T357 321Q345 278 329 227T297 127T268 37T247 -25Q214 -29 181 -31T115 -33Q73 -33 36 -30T-28 -23Q-13 23 14 114T79 325T157
579T240 848T319 1101T384 1311T427 1447Q457 1450 487 1451T547 1453Q588 1453 626 1449T693 1435Q665 1334 632 1220T565 995T504 793T458 648Q500 687 560 728T691 811T831 891T965 962T1077 1019Q1097 1002 1122 963T1168 882T1198 815Q1154 792 1089 757T955
685T825 613T729 556Q749 539 777 502T836 413T900 302T962 178T1012 52Q997 44 960 30T879 -1T795 -30T735 -48Z" />
<glyph unicode="l" horiz-adv-x="645" d="M525 53Q490 22 420 -8T259 -39Q145 -39 89 14T33 162Q33 220 51 314T99 523T166 764T242 1012T317 1242T379 1429Q444 1434 497 1434Q531 1434 564 1432T637 1426Q598 1310 558 1192T482 959T413 740T357 547T320 393T306
290Q306 253 319 231T366 209Q403 209 430 225T480 269Q483 258 490 227T504 159T518 91T525 53Z" />
<glyph unicode="m" horiz-adv-x="1858" d="M10 -8Q22 59 43 159T91 376T145 609T198 826T241 993Q263 999 300 1005T379 1016T458 1024T518 1027Q514 1011 507 985T494 930T482 879T473 843Q485 863 515 895T591 959T698 1014T836 1036Q941 1036 989 978T1045
844Q1048 815 1046 785T1038 725Q1080 806 1147 879T1302 998T1497 1045Q1646 1045 1713 974T1781 771Q1781 697 1764 605T1719 409T1657 198T1587 -13Q1554 -15 1520 -16T1451 -18Q1416 -18 1381 -17T1311 -12Q1359 106 1407 235T1487 480T1519 674Q1519 802 1417
802Q1340 802 1280 756T1172 630T1085 445T1012 225Q995 171 979 112T946 -9Q927 -10 895 -11T827 -13Q786 -13 747 -12T691 -7Q727 117 759 245T813 484T834 661Q834 732 808 767T721 803Q676 803 629 782T538 727T463 656T417 587Q381 428 354 298T312 86T293
-14Q283 -15 252 -16T197 -17Q142 -17 89 -15T10 -8Z" />
<glyph unicode="n" horiz-adv-x="1330" d="M280 -13Q252 -14 214 -14T137 -13Q104 -11 62 -9T2 -6Q34 78 68 181T141 412T224 693T317 1034Q352 1039 399 1041T492 1044Q525 1044 555 1043T607 1037Q605 1028 598 999T581 935T564 879Q603 917 676 959T837 1031T1010
1060Q1162 1060 1226 999T1290 818Q1290 748 1269 649T1215 436T1142 209T1064 -3Q1045 -5 1007 -6T926 -8Q881 -8 842 -7T782 -3Q813 66 851 159T924 351T981 535T1003 678Q1003 739 972 772T866 806Q797 806 729 783T602 726T502 661Q457 499 414 367T337 139T280
-13Z" />
<glyph unicode="o" horiz-adv-x="1171" d="M481 -25Q266 -25 161 79T55 362Q55 514 102 642T236 865T445 1012T716 1065Q921 1065 1013 957T1105 664Q1105 515 1063 389T939 170T743 26T481 -25ZM517 226Q597 226 660 260T766 352T832 485T855 640Q855 735 812
797T670 859Q591 859 528 824T421 727T354 591T330 436Q330 345 376 286T517 226Z" />
<glyph unicode="p" horiz-adv-x="1218" d="M-195 -445Q-139 -286 -82 -110T30 242T131 574T213 853T267 1043Q326 1061 399 1068T540 1076Q535 1046 525 1002T503 921Q530 947 580 983T703 1046T868 1074Q978 1074 1046 1030T1147 906T1179 719Q1179 541 1106
394T899 160T584 72Q517 72 455 91T348 137T290 187Q283 163 265 106T221 -26T170 -178T121 -320T84 -421Q35 -430 -19 -435T-120 -443T-195 -445ZM600 345Q700 345 769 387T874 505T910 678Q910 759 875 802T748 846Q697 846 651 833T566 800T498 759T450 721Q448
709 440 681T421 618T400 548T381 485T369 446Q382 428 410 405T484 363T600 345Z" />
<glyph unicode="q" horiz-adv-x="1207" d="M831 -459Q752 -459 687 -455T575 -445Q588 -363 607 -270T650 -78T700 120Q682 99 643 75T547 34T417 17Q302 17 230 66T124 201T90 398Q90 592 154 748T343 994T647 1085Q764 1085 842 1047T968 955Q973 974 984 1001T1005
1054T1021 1090Q1080 1089 1141 1080T1260 1054Q1205 917 1148 757T1040 433T949 122Q918 7 895 -104T856 -308T831 -459ZM513 291Q567 291 617 307T708 344T770 380Q777 404 788 439T814 516T842 599T868 677T890 737Q879 748 847 770T768 811T660 830Q567 830
499 779T393 645T356 464Q356 387 393 339T513 291Z" />
<glyph unicode="r" horiz-adv-x="853" d="M422 893Q460 940 520 981T653 1048T799 1074Q848 1074 898 1065T967 1041L837 762Q817 771 785 782T703 793Q653 793 600 775T497 725T407 651Q402 589 390 496T362 305T332 127T306 7Q243 -1 161 -3T5 -4Q27 85 51 191T98
410T139 635T168 844T181 1018Q224 1030 276 1041T371 1059T425 1067Q425 1031 425 977T422 893Z" />
<glyph unicode="s" horiz-adv-x="991" d="M363 -80Q249 -80 158 -52T6 17T-80 94Q-69 111 -45 143T11 213T72 283T122 332Q156 288 203 247T305 180T417 154Q468 154 515 170T592 220T622 304Q622 360 570 401T435 477Q364 509 310 549T225 645T194 775Q194 864
235 929T345 1037T498 1101T671 1122Q793 1122 890 1091T1038 1016Q1027 998 1000 963T939 889T869 817Q835 851 777 882T650 913Q619 913 584 908T519 889T471 853T452 798Q452 755 494 723T617 655Q691 626 752 581T851 473T889 327Q889 195 815 105T620 -33T363
-80Z" />
<glyph unicode="t" horiz-adv-x="964" d="M793 130Q766 90 722 50T613 -18T457 -45Q330 -45 275 28T219 211Q219 252 230 317T258 459T296 613T336 756T371 865Q284 856 213 846T116 830Q120 877 128 928T145 1017T157 1065Q217 1073 287 1080T431 1092Q444 1134
456 1180T479 1271Q489 1310 497 1348T510 1412L771 1433Q770 1426 764 1398T747 1330T724 1244Q716 1213 707 1178T689 1105Q721 1107 765 1109T837 1112Q881 1114 918 1114T980 1114T1013 1113Q1008 1072 993 1009T965 898Q955 898 898 898T787 894Q749 892 705
889T625 883Q610 840 590 778T550 644T513 504T486 379T475 289Q475 246 488 221T542 196Q578 196 607 217T658 268T695 320Q700 313 714 286T745 225T775 165T793 130Z" />
<glyph unicode="u" horiz-adv-x="1178" d="M891 985Q915 993 957 997T1038 1001Q1071 1001 1110 999T1172 992Q1163 905 1148 817T1109 642Q1071 499 1015 373T879 151T694 0T450 -55Q317 -55 237 -8T122 125T87 326Q87 426 109 542T169 782T249 1029Q273 1030
310 1031T378 1032Q422 1031 464 1026T531 1013Q492 909 456 794T397 573T374 384Q374 294 407 248T508 201Q580 201 640 257T748 413T831 642Q856 730 871 816T891 985Z" />
<glyph unicode="v" horiz-adv-x="1007" d="M860 1091Q920 1080 972 1066T1061 1041T1105 1026Q1074 963 1031 884T936 714T828 529T714 343T601 166T495 11Q446 3 377 3Q344 3 313 5T261 11Q238 123 220 250T188 512T167 780T153 1033Q167 1036 198 1043T267 1059T341
1077T402 1092Q402 1005 406 892T418 666T433 459T451 317L436 313Q472 371 514 441T602 589T692 750T780 920T860 1091Z" />
<glyph unicode="w" horiz-adv-x="1520" d="M325 7Q184 7 127 91T69 309Q69 414 97 538T169 796T261 1059Q316 1059 387 1056T514 1049Q483 964 451 869T392 681T349 510T332 379Q332 327 349 298T406 268Q448 268 488 305T566 410T636 567T697 759Q714 821 733
897T768 1041Q794 1041 839 1041T930 1039T1004 1036Q962 878 934 768T888 582T862 454T854 360Q854 303 872 271T932 239Q979 239 1022 281T1105 397T1179 569T1244 775Q1259 832 1276 904T1310 1041Q1336 1041 1366 1041T1426 1041Q1454 1041 1493 1039T1554
1035Q1546 997 1535 944T1512 838T1489 748Q1456 626 1415 517T1322 316T1207 157T1069 52T902 15Q830 15 784 39T712 109T675 214T664 345L728 354Q715 305 682 246T598 132T478 42T325 7Z" />
<glyph unicode="x" horiz-adv-x="1142" d="M110 -22Q91 -4 61 28T3 95T-39 154Q-20 169 23 205T124 291T244 393T365 497T469 587Q413 683 358 763T255 906T177 1008Q187 1017 216 1037T282 1082T354 1127T412 1159Q433 1132 467 1080T540 967T609 850T654 758Q716
820 777 885T896 1019T1009 1160Q1042 1144 1083 1123T1163 1081T1225 1042Q1189 998 1136 940T1020 817T893 691T770 579Q796 533 822 477T875 359T925 236T973 114Q925 80 853 43T726 -19Q713 29 695 83T655 193T611 300T565 391Q512 340 459 289T356 191T260
103T176 30T110 -22Z" />
<glyph unicode="y" horiz-adv-x="1079" d="M202 -527Q103 -527 16 -506T-139 -453T-246 -388Q-233 -367 -210 -336T-159 -270T-106 -207T-65 -162Q-39 -183 8 -211T118 -260T247 -281Q326 -281 389 -240T503 -131T591 22T652 192Q628 151 584 116T479 60T345 39Q198
39 137 119T76 335Q76 466 120 631T220 972Q237 976 268 977T335 979Q383 979 428 977T488 970Q466 917 442 847T396 701T360 555T346 433Q346 370 369 331T449 291Q520 291 579 338T688 474T773 682Q787 722 800 767T825 852T843 920T853 957Q874 959 895 960T938
961Q1020 961 1092 944Q1070 843 1033 706Q1008 613 976 505T910 282T839 56Q784 -117 698 -248T490 -453T202 -527Z" />
<glyph unicode="z" horiz-adv-x="1074" d="M849 4Q768 -1 649 -4T404 -8Q271 -8 145 -4T-70 12L-2 223Q24 249 66 288T164 374T280 475T404 580T526 682T636 771T722 838Q705 838 668 838T584 837T488 836T397 836Q360 836 323 836T253 835T199 833T172 832L241
1047Q270 1046 322 1046T441 1045T578 1045T716 1045Q815 1045 922 1045T1113 1042Q1113 1036 1107 1010T1094 951T1080 890T1069 849Q1025 818 962 767T826 656T680 532T540 410T422 307T346 236Q369 233 433 232T558 230Q625 230 695 232T826 239T927 248Q925
238 915 204T891 128T867 51T849 4Z" />
<glyph unicode="{" horiz-adv-x="665" d="M268 -424Q156 -409 101 -332T46 -143Q46 -65 69 -7T118 104Q143 155 164 207T185 325Q185 381 144 417T28 470Q28 488 33 517T46 576Q53 603 62 631T80 677Q185 692 236 760T297 932Q302 974 303 1005T305 1063Q307 1092
310 1120T322 1181Q348 1284 412 1370T576 1513T806 1579Q819 1563 826 1527T835 1453T837 1386Q767 1374 712 1335T619 1241T565 1124Q555 1086 552 1056T548 998Q548 970 546 939T532 866Q510 779 456 714T328 611T175 569L182 589Q249 584 307 563T400 500T436
389Q436 329 416 274T369 164Q342 107 320 50T298 -71Q298 -134 326 -178T414 -237Q379 -286 344 -333T268 -424Z" />
<glyph unicode="|" horiz-adv-x="487" d="M73 -556Q22 -556 -46 -553T-166 -539Q-130 -387 -74 -162T58 349Q126 601 209 898T392 1527Q412 1529 456 1531T549 1534T633 1536Q611 1435 583 1310T522 1045T452 759T379 467T305 187Q262 27 220 -117T141 -373T73 -556Z" />
<glyph unicode="}" horiz-adv-x="614" d="M-90 -433Q-102 -410 -113 -357T-124 -241Q-43 -216 11 -179T97 -89T135 38Q140 67 140 92T139 143Q137 168 137 193T142 250Q151 349 206 428T342 554T509 602L497 570Q438 573 380 598T283 671T245 793Q245 854 266
907T314 1013Q340 1066 362 1123T385 1249Q385 1312 357 1357T259 1419Q293 1464 343 1516T432 1604Q536 1584 588 1501T641 1313Q641 1232 614 1167T556 1040Q529 987 508 936T486 826Q486 763 532 735T641 701Q641 673 639 645T630 593Q623 567 612 538T586 491Q518
482 473 445T404 350T372 218Q368 194 367 167T366 112Q367 85 366 58T360 5Q353 -78 315 -151T214 -284T74 -382T-90 -433Z" />
<glyph unicode="~" horiz-adv-x="1115" d="M216 746Q232 791 271 833T365 904T486 933Q544 933 584 906T659 847Q688 819 719 798T788 776Q833 776 862 811T905 889L1047 804Q1042 781 1024 747T974 679T900 622T800 599Q744 599 700 629T619 693Q588 720 559
740T499 761Q460 761 431 740T382 689T352 635L216 746Z" />
<glyph unicode="&#xa0;" horiz-adv-x="615" />
<glyph unicode="&#xa1;" horiz-adv-x="708" d="M297 645Q323 645 368 644T458 639T531 633Q510 538 485 430T433 209T377 -14T321 -224T268 -407L-48 -393Q-30 -348 3 -254T77 -38T160 212T238 454T297 645ZM505 1093Q583 1093 627 1052T672 949Q672 887 640 840T554
765T439 738Q367 738 322 781T276 889Q276 947 308 993T393 1066T505 1093Z" />
<glyph unicode="&#xa2;" horiz-adv-x="1026" d="M761 1314Q794 1314 836 1309T890 1296Q852 1186 805 1063T704 812T597 561T491 328T396 130T319 -15Q277 -13 238 -4T172 21Q228 126 293 257T425 532T555 819T672 1089T761 1314ZM895 322Q860 271 790 221T625
137T415 103Q288 103 206 157T85 304T46 518Q46 663 93 788T225 1008T426 1154T683 1207Q776 1207 851 1178T976 1096T1044 976L824 864Q823 874 817 893T793 935T743 972T656 987Q577 987 514 953T407 861T341 727T318 571Q318 490 355 438T483 385Q536 385 581
401T662 441T720 486T750 517L895 322Z" />
<glyph unicode="&#xa3;" horiz-adv-x="1140" d="M202 536Q158 536 125 537T75 542L135 739Q158 738 190 737T262 736Q330 736 418 738T593 746T752 757T858 770Q857 759 852 734T840 678T827 620T816 579Q781 569 707 561T541 548T360 539T202 536ZM-7 -32Q-8
-18 -11 10T-16 70T-21 132T-23 179Q37 202 91 246T188 347T261 469T299 597Q315 674 315 747T327 888Q348 1025 429 1125T631 1280T894 1335Q972 1335 1030 1318T1126 1279T1185 1237Q1180 1227 1163 1199T1125 1139T1084 1081T1058 1048Q1035 1075 987 1103T871
1131Q777 1131 705 1090T593 976T553 806Q553 771 554 730T555 654Q555 589 531 523T465 395T373 283T267 199Q297 211 337 220T420 233T496 238Q563 238 620 225T724 212Q788 212 836 225T940 261Q940 250 941 221T944 156T946 91T947 49Q890 23 813 7T676 -9Q609
-9 556 -2T453 13T349 20Q238 20 144 -1T-7 -32Z" />
<glyph unicode="&#xa4;" horiz-adv-x="974" d="M46 60Q41 68 24 88T-13 131T-51 175T-74 204Q-32 239 20 281T126 364T225 440L354 336Q334 319 295 283T208 204T118 122T46 60ZM679 79Q655 114 627 162T573 251T532 309L702 425Q728 396 756 358T811 286T857
228Q846 217 823 197T772 154T719 110T679 79ZM275 662Q232 710 187 772T106 884Q115 894 139 913T193 955T249 997T291 1026Q314 1001 341 961T394 878T437 797L275 662ZM760 665L657 796Q713 844 787 906T931 1025Q937 1018 952 998T983 954T1014 909T1032 880Q963
825 895 769T760 665ZM387 225Q303 225 239 258T138 351T101 485Q101 593 161 678T317 813T523 863Q656 863 739 798T822 623Q822 543 786 471T689 344T549 257T387 225ZM421 419Q466 419 506 440T571 499T597 580Q597 619 571 644T485 669Q443 669 406 649T346
593T322 513Q322 470 348 445T421 419Z" />
<glyph unicode="&#xa5;" horiz-adv-x="1065" d="M124 496Q133 529 147 566T174 636T195 682Q267 688 338 691T483 696T639 698Q743 698 832 695T983 683Q978 639 971 591T954 507Q931 507 868 507T720 505T542 503T363 500T214 498T124 496ZM883 228Q856 228 791
229T638 230T457 231T277 233T129 234T42 234Q53 277 69 316T103 395Q166 400 239 403T394 407T569 409Q666 409 757 407T914 399Q913 383 909 354T899 291T883 228ZM429 548Q414 582 397 634T361 750T325 882T292 1019T264 1151T242 1266Q331 1296 403 1308T526
1322Q528 1305 534 1261T548 1159T567 1038T587 921T606 829Q623 853 657 900T735 1007T824 1125T908 1233T972 1307Q1020 1302 1069 1286T1162 1250T1230 1210Q1171 1151 1087 1055T900 834T687 567Q676 518 661 457T630 338T606 243Q595 199 582 149T558 60T544
9Q531 5 497 2T422 -1Q379 -1 338 2T267 11Q296 116 325 220T382 410T429 548Z" />
<glyph unicode="&#xa6;" horiz-adv-x="432" d="M21 277Q75 282 143 283T263 285Q255 257 237 188T196 28T150 -153T109 -317T83 -428Q63 -434 22 -438T-65 -445T-139 -448Q-132 -407 -118 -337T-85 -180T-47 -6T-9 156T21 277ZM158 760Q184 855 216 964T281 1179T342
1370T385 1502Q417 1502 459 1501T540 1494T596 1479Q583 1435 562 1360T517 1197T469 1021T426 862T397 752Q347 752 296 753T207 756T158 760Z" />
<glyph unicode="&#xa7;" horiz-adv-x="1000" d="M575 698Q530 694 481 674T396 619T361 540Q361 491 414 452T550 379Q627 351 686 306T780 199T814 56Q814 -71 742 -163T553 -304T303 -354Q189 -354 90 -326T-78 -257T-177 -177Q-164 -160 -140 -131T-88 -71T-32
-12T13 29Q53 -12 107 -47T223 -104T343 -126Q402 -126 453 -109T536 -56T568 30Q568 87 513 129T355 214Q286 242 230 280T139 371T105 496Q105 584 146 646T257 749T411 816L575 698ZM539 360Q584 370 626 398T696 466T724 547Q724 601 655 642T487 723Q385 765
326 824T267 987Q267 1113 330 1196T500 1320T732 1361Q806 1361 879 1347T1012 1308T1112 1251Q1106 1242 1082 1209T1023 1136T952 1062Q928 1085 889 1105T804 1139T711 1152Q663 1152 616 1141T539 1104T508 1036Q508 991 559 957T691 888Q767 859 830 815T931
711T970 571Q970 477 924 405T801 282T633 198L539 360Z" />
<glyph unicode="&#xa8;" horiz-adv-x="944" d="M480 1187Q423 1187 378 1222T332 1315Q332 1377 375 1419T479 1461Q544 1461 586 1419T628 1316Q628 1260 584 1224T480 1187ZM891 1197Q832 1197 788 1236T744 1335Q744 1393 784 1431T880 1470Q944 1470 990 1431T1036
1331Q1036 1291 1015 1261T961 1214T891 1197Z" />
<glyph unicode="&#xa9;" horiz-adv-x="1745" d="M743 -68Q534 -68 383 -6T149 174T67 452Q67 658 144 824T358 1107T680 1287T1079 1350Q1276 1350 1415 1287T1627 1102T1701 804Q1701 603 1629 442T1427 167T1123 -7T743 -68ZM768 142Q918 142 1041 186T1255
314T1393 517T1442 789Q1442 957 1342 1052T1035 1147Q894 1147 771 1100T554 968T408 766T355 509Q355 393 405 311T548 186T768 142ZM819 286Q681 286 608 353T535 538Q535 669 603 771T783 932T1027 991Q1111 991 1179 969T1274 903Q1229 857 1184 817T1108
753Q1098 774 1059 790T967 807Q907 807 855 778T771 700T739 593Q739 552 758 529T808 497T870 488Q912 488 951 503T1027 545T1096 607Q1129 588 1165 558T1229 497Q1152 394 1043 340T819 286Z" />
<glyph unicode="&#xaa;" horiz-adv-x="750" d="M568 722Q572 730 582 753T598 792Q576 775 542 760T468 734T388 724Q275 724 215 769T154 910Q154 998 211 1052T354 1131T526 1156Q554 1156 590 1152T656 1141T692 1127Q695 1142 695 1155Q695 1210 656 1235T551
1260Q489 1260 430 1240T339 1194L254 1321Q318 1368 403 1397T592 1427Q739 1427 803 1364T868 1187Q868 1121 849 1038T800 870T741 717Q737 716 718 716T688 716Q659 716 624 717T568 722ZM470 874Q518 874 563 890T640 929Q644 942 647 953T654 973Q656 981
658 992T662 1013Q654 1016 632 1020T582 1026T526 1029Q488 1029 450 1019T386 987T360 929Q360 898 389 886T470 874Z" />
<glyph unicode="&#xab;" horiz-adv-x="1214" d="M1257 1135Q1283 1113 1297 1078T1316 1012T1324 968L833 598Q868 574 908 544T988 485T1058 430T1104 389Q1102 373 1091 344T1063 280T1030 216T1003 165T988 143L557 571Q740 732 917 876T1257 1135ZM763 1121Q797
1088 825 1046T861 988L359 547Q408 494 461 436T564 325T648 239T691 198Q679 177 658 145T616 80T579 25T561 0Q430 116 309 249T90 528Q245 673 414 823T763 1121Z" />
<glyph unicode="&#xac;" horiz-adv-x="1000" d="M1006 843Q1000 824 985 774T948 655T904 514T861 378T828 272Q813 272 784 272T721 271T659 271T618 273Q626 304 641 352T674 454T705 552T727 621Q682 618 612 614T462 607T304 600T164 595T69 592Q75 620 85
660T107 741T126 811Q170 815 258 819T455 827T674 834T872 840T1006 843Z" />
<glyph unicode="&#xad;" horiz-adv-x="760" d="M781 801Q774 747 758 682T729 569Q694 569 628 567T481 563T316 558T160 551T41 543Q47 567 57 602T80 675T103 742T119 787Q203 799 303 806T498 814Q587 814 658 812T781 801Z" />
<glyph unicode="&#xae;" horiz-adv-x="1400" d="M669 267Q558 267 461 289T289 360T172 484T129 666Q129 817 189 938T356 1144T601 1275T894 1321Q1049 1321 1162 1274T1337 1137T1399 913Q1399 760 1345 640T1193 437T962 310T669 267ZM681 430Q830 430 941
489T1116 655T1179 908Q1179 991 1142 1047T1036 1133T869 1162Q760 1162 666 1127T501 1027T389 874T348 680Q348 605 375 557T450 480T557 441T681 430ZM671 536Q628 536 584 543T512 561Q524 604 541 667T578 800T616 928T645 1021Q684 1040 731 1049T833 1059Q907
1059 968 1036T1030 949Q1030 894 984 849T881 787Q889 769 897 738T913 672T927 607T936 562Q908 549 866 543T776 536Q769 581 764 638T750 744Q744 744 737 744T725 744Q723 732 716 705T700 644T683 581T671 536ZM747 855Q794 855 833 871T872 925Q872 941
857 946T820 951Q806 951 792 950T766 947Q765 940 761 921T753 883T747 855Z" />
<glyph unicode="&#xaf;" horiz-adv-x="1079" d="M1104 1209Q1044 1209 951 1207T749 1200T533 1189T340 1176Q346 1216 354 1256T375 1333Q420 1341 495 1349T662 1365T846 1379T1017 1388T1143 1392Q1141 1372 1130 1320T1104 1209Z" />
<glyph unicode="&#xb0;" horiz-adv-x="814" d="M513 881Q429 881 365 914T264 1007T227 1141Q227 1249 287 1334T443 1469T649 1519Q782 1519 865 1454T948 1279Q948 1199 912 1127T815 1000T675 913T513 881ZM547 1075Q592 1075 632 1096T697 1155T723 1236Q723
1275 697 1300T611 1325Q569 1325 532 1305T472 1249T448 1169Q448 1126 474 1101T547 1075Z" />
<glyph unicode="&#xb1;" horiz-adv-x="1050" d="M1058 788Q997 776 896 769T666 762Q575 762 478 765T294 775T148 790Q149 805 155 837T168 908T183 977T194 1020Q227 1016 284 1013T415 1009T569 1007Q683 1007 792 1010T991 1020T1137 1036Q1126 991 1109 938T1078
843T1058 788ZM865 1358Q862 1306 851 1228T819 1055T771 860Q742 752 706 642T629 440Q617 440 584 440T512 442T441 444T396 448Q416 500 435 564T474 696Q497 783 517 876T554 1058T581 1223T598 1349Q607 1349 634 1350T698 1353T769 1356T831 1357T865 1358ZM905
368Q896 337 884 297T860 220T839 158Q801 156 724 152T551 142T356 131T174 122T43 117Q50 145 60 185T81 266T100 336Q154 341 236 345T413 354T601 361T775 366T905 368Z" />
<glyph unicode="&#xb2;" horiz-adv-x="733" d="M709 712Q708 699 702 671T687 610T672 551T662 516L93 490Q93 499 94 532T98 605T108 673Q154 703 219 747T367 846Q424 887 476 928T562 1006T596 1071Q596 1093 579 1103T532 1113Q496 1113 458 1097T388 1057T335
1009Q315 1021 290 1041T243 1084T210 1121Q285 1208 389 1265T604 1323Q696 1323 754 1282T812 1168Q812 1094 757 1010T619 851Q564 800 509 757T411 687Q434 690 470 693T548 700T632 706T709 712Z" />
<glyph unicode="&#xb3;" horiz-adv-x="782" d="M380 498Q262 498 191 540T98 641Q122 655 154 672T220 704T278 728Q286 699 321 677T416 655Q454 655 488 665T544 696T566 747Q566 780 544 797T468 820T320 827Q320 853 325 889T339 960Q375 960 422 966T512
985T583 1020T612 1072Q612 1094 595 1107T538 1121Q504 1121 464 1110T388 1084T333 1054Q315 1071 292 1095T250 1141T224 1175Q246 1191 297 1219T421 1271T585 1294Q683 1294 750 1252T818 1130Q818 1074 787 1031T706 960T602 918Q675 914 721 874T767 760Q767
667 712 609T568 525T380 498Z" />
<glyph unicode="&#xb4;" horiz-adv-x="621" d="M612 1502Q654 1481 687 1449T742 1388T773 1346Q740 1334 694 1313T599 1267T505 1217T425 1173T375 1143Q367 1146 347 1156T303 1179T259 1205T230 1228Q256 1261 307 1304T417 1389T530 1462T612 1502Z" />
<glyph unicode="&#xb5;" horiz-adv-x="1178" d="M-103 -408Q-91 -333 -69 -224T-18 10T40 262T100 503T152 704L421 695Q385 573 355 463T296 245T238 21Q221 -49 204 -124T173 -268T148 -392Q100 -399 29 -403T-103 -408ZM891 985Q915 993 957 997T1038 1001Q1071
1001 1110 999T1172 992Q1163 905 1148 817T1109 642Q1071 499 1015 373T879 151T694 0T450 -55Q317 -55 237 -8T122 125T87 326Q87 426 109 542T169 782T249 1029Q273 1030 310 1031T378 1032Q422 1031 464 1026T531 1013Q492 909 456 794T397 573T374 384Q374
294 407 248T508 201Q580 201 640 257T748 413T831 642Q856 730 871 816T891 985Z" />
<glyph unicode="&#xb6;" horiz-adv-x="1210" d="M805 -360Q785 -360 755 -357T694 -350T638 -342T601 -336Q624 -278 653 -193T716 -7T784 204T853 422T916 630T968 809Q984 869 997 926T1021 1035Q1005 1041 976 1048T919 1059Q879 930 833 781T741 480T651 189T574
-61T520 -240T497 -312Q476 -313 441 -313T369 -311T302 -309T263 -307Q277 -259 299 -187T349 -29T404 143T455 304T496 433T519 505Q477 492 439 492Q346 492 282 527T185 624T151 770Q151 891 192 991T309 1163T488 1274T716 1314Q782 1314 860 1304T1015 1277T1157
1236T1262 1184Q1253 1113 1229 1006T1171 771Q1143 669 1108 550T1034 307T955 63T876 -166T805 -360Z" />
<glyph unicode="&#xb7;" horiz-adv-x="450" d="M293 689Q222 689 191 726T160 814Q160 867 187 908T258 973T355 996Q418 996 449 957T480 863Q480 813 453 774T383 712T293 689Z" />
<glyph unicode="&#xb8;" horiz-adv-x="660" d="M1 -484Q-78 -484 -130 -475T-196 -461L-125 -306Q-102 -315 -54 -324T24 -333Q123 -333 181 -311T240 -235Q240 -205 212 -192T133 -178Q98 -178 59 -184T-14 -198T-68 -215L15 21L180 27L137 -106Q157 -86 199
-71T287 -56Q358 -56 401 -90T444 -199Q444 -276 407 -330T307 -419T164 -468T1 -484Z" />
<glyph unicode="&#xb9;" horiz-adv-x="561" d="M400 682Q413 682 432 682T471 679T502 675Q500 664 493 641T477 591T460 541T446 505Q423 505 368 504T248 501T130 497T58 493Q63 515 72 547T91 611T109 659Q124 662 147 665T192 671T226 674Q232 694 242 733T266
819T292 914T315 1001T332 1062Q324 1057 308 1047T272 1024T237 1000T213 983Q202 1012 193 1047T178 1110Q196 1126 238 1157T326 1222T401 1273Q420 1273 449 1272T509 1269T556 1263Q554 1248 544 1203T518 1091T478 943Q463 885 443 817T400 682Z" />
<glyph unicode="&#xba;" horiz-adv-x="750" d="M465 755Q324 755 257 819T190 1000Q190 1196 300 1314T605 1432Q736 1432 798 1354T860 1158Q860 1035 812 945T675 805T465 755ZM487 938Q580 938 634 1005T688 1165Q688 1217 662 1250T584 1283Q524 1283 481
1250T413 1163T389 1048Q389 1000 412 969T487 938Z" />
<glyph unicode="&#xbb;" horiz-adv-x="1313" d="M264 993Q298 1015 343 1040T431 1088T499 1121Q516 1109 557 1061T648 947T747 811T827 689Q659 556 474 429T111 200Q105 223 99 258T88 329T83 391Q89 395 121 417T202 472T312 546T435 629T556 710Q514 752
459 805T351 909T264 993ZM744 1076Q775 1095 814 1117T891 1160T952 1190Q985 1159 1030 1103T1125 980T1217 852T1290 746T1327 692Q1148 544 968 404T594 132Q584 144 564 172T525 230T502 280Q521 293 563 325T663 403T786 501T918 606T1045 708Q1012 755 971
809T888 915T808 1010T744 1076Z" />
<glyph unicode="&#xbc;" horiz-adv-x="1578" d="M400 682Q413 682 432 682T471 679T502 675Q500 664 493 641T477 591T460 541T446 505Q423 505 368 504T248 501T130 497T58 493Q63 515 72 547T91 611T109 659Q124 662 147 665T192 671T226 674Q232 694 242 733T266
819T292 914T315 1001T332 1062Q324 1057 308 1047T272 1024T237 1000T213 983Q202 1012 193 1047T178 1110Q196 1126 238 1157T326 1222T401 1273Q420 1273 449 1272T509 1269T556 1263Q554 1248 544 1203T518 1091T478 943Q463 885 443 817T400 682ZM1086 1322Q1099
1318 1124 1306T1174 1279T1203 1258Q1187 1233 1135 1159T1008 980T844 754T667 509T497 276T356 88T266 -27Q260 -25 243 -17T205 1T168 21T148 34Q177 67 237 145T376 329T544 556T720 798T883 1025T1012 1210T1086 1322ZM1410 176Q1385 176 1347 176T1275 175Q1262
123 1251 76T1234 10Q1210 6 1173 2T1100 -4T1043 -6Q1050 19 1059 51T1077 114T1094 164Q1046 162 978 158T851 149T772 142Q772 186 775 234T782 313Q814 349 866 403T980 519T1099 637T1200 735T1259 788Q1271 790 1299 792T1360 796T1423 800T1468 801Q1461
782 1444 727T1404 600T1361 460T1328 346Q1352 347 1378 347T1423 346T1449 344Q1449 339 1442 309T1426 242T1410 176ZM1249 596Q1232 580 1203 550T1139 484T1072 413T1017 353T988 320Q1002 323 1034 326T1101 333T1158 337Q1164 353 1176 389T1202 467T1230
544T1249 596Z" />
<glyph unicode="&#xbd;" horiz-adv-x="1467" d="M400 682Q413 682 432 682T471 679T502 675Q500 664 493 641T477 591T460 541T446 505Q423 505 368 504T248 501T130 497T58 493Q63 515 72 547T91 611T109 659Q124 662 147 665T192 671T226 674Q232 694 242 733T266
819T292 914T315 1001T332 1062Q324 1057 308 1047T272 1024T237 1000T213 983Q202 1012 193 1047T178 1110Q196 1126 238 1157T326 1222T401 1273Q420 1273 449 1272T509 1269T556 1263Q554 1248 544 1203T518 1091T478 943Q463 885 443 817T400 682ZM1086 1322Q1099
1318 1124 1306T1174 1279T1203 1258Q1187 1233 1135 1159T1008 980T844 754T667 509T497 276T356 88T266 -27Q260 -25 243 -17T205 1T168 21T148 34Q177 67 237 145T376 329T544 556T720 798T883 1025T1012 1210T1086 1322ZM1309 212Q1308 199 1302 171T1287 110T1272
51T1262 16L693 -10Q693 -1 694 32T698 105T708 173Q754 203 819 247T967 346Q1024 387 1076 428T1162 506T1196 571Q1196 593 1179 603T1132 613Q1096 613 1058 597T988 557T935 509Q915 521 890 541T843 584T810 621Q885 708 989 765T1204 823Q1296 823 1354
782T1412 668Q1412 594 1357 510T1219 351Q1164 300 1109 257T1011 187Q1034 190 1070 193T1148 200T1232 206T1309 212Z" />
<glyph unicode="&#xbe;" horiz-adv-x="1799" d="M380 498Q262 498 191 540T98 641Q122 655 154 672T220 704T278 728Q286 699 321 677T416 655Q454 655 488 665T544 696T566 747Q566 780 544 797T468 820T320 827Q320 853 325 889T339 960Q375 960 422 966T512
985T583 1020T612 1072Q612 1094 595 1107T538 1121Q504 1121 464 1110T388 1084T333 1054Q315 1071 292 1095T250 1141T224 1175Q246 1191 297 1219T421 1271T585 1294Q683 1294 750 1252T818 1130Q818 1074 787 1031T706 960T602 918Q675 914 721 874T767 760Q767
667 712 609T568 525T380 498ZM1307 1322Q1320 1318 1345 1306T1395 1279T1424 1258Q1408 1233 1356 1159T1229 980T1065 754T888 509T718 276T577 88T487 -27Q481 -25 464 -17T426 1T389 21T369 34Q398 67 458 145T597 329T765 556T941 798T1104 1025T1233 1210T1307
1322ZM1631 176Q1606 176 1568 176T1496 175Q1483 123 1472 76T1455 10Q1431 6 1394 2T1321 -4T1264 -6Q1271 19 1280 51T1298 114T1315 164Q1267 162 1199 158T1072 149T993 142Q993 186 996 234T1003 313Q1035 349 1087 403T1201 519T1320 637T1421 735T1480
788Q1492 790 1520 792T1581 796T1644 800T1689 801Q1682 782 1665 727T1625 600T1582 460T1549 346Q1573 347 1599 347T1644 346T1670 344Q1670 339 1663 309T1647 242T1631 176ZM1470 596Q1453 580 1424 550T1360 484T1293 413T1238 353T1209 320Q1223 323 1255
326T1322 333T1379 337Q1385 353 1397 389T1423 467T1451 544T1470 596Z" />
<glyph unicode="&#xbf;" horiz-adv-x="1036" d="M473 659Q532 659 578 658T667 653T757 644Q734 556 695 478T595 332T448 208Q362 153 309 94T255 -36Q255 -86 287 -111T385 -136Q446 -136 494 -118T581 -69T655 4T722 92L920 -33Q822 -206 668 -292T333 -379Q219
-379 135 -349T5 -258T-42 -104Q-42 -5 -9 68T83 200T220 312Q272 347 321 395T410 509T473 659ZM708 1103Q776 1103 819 1066T863 962Q863 902 829 858T744 791T639 767Q566 767 523 804T479 900Q479 956 512 1002T598 1076T708 1103Z" />
<glyph unicode="&#xc0;" horiz-adv-x="1129" d="M204 -15Q181 -15 142 -14T59 -11T-26 -8T-94 -4Q-68 55 -23 150T79 363T201 610T329 866T452 1106T558 1305Q619 1314 683 1320T812 1331T939 1335Q988 1335 1036 1332T1129 1323Q1125 1235 1114 1119T1080 845T1022
481T934 3Q903 -2 849 -6T737 -12T632 -15Q637 13 646 54T665 142T686 236T707 327T725 403Q693 403 653 401T570 397T489 391T423 384T382 379Q346 305 311 231T249 92T204 -15ZM484 622Q513 628 568 633T684 641T784 646Q788 670 801 732T830 867T857 1004T872
1095Q854 1095 818 1093T748 1088T700 1084Q686 1056 661 1004T606 887T544 753T484 622ZM597 1692Q619 1690 670 1670T787 1617T914 1548T1018 1476L897 1400Q864 1417 806 1439T680 1483T546 1524T432 1553Q441 1564 465 1588T525 1640T597 1692Z" />
<glyph unicode="&#xc1;" horiz-adv-x="1129" d="M204 -15Q181 -15 142 -14T59 -11T-26 -8T-94 -4Q-68 55 -23 150T79 363T201 610T329 866T452 1106T558 1305Q619 1314 683 1320T812 1331T939 1335Q988 1335 1036 1332T1129 1323Q1125 1235 1114 1119T1080 845T1022
481T934 3Q903 -2 849 -6T737 -12T632 -15Q637 13 646 54T665 142T686 236T707 327T725 403Q693 403 653 401T570 397T489 391T423 384T382 379Q346 305 311 231T249 92T204 -15ZM484 622Q513 628 568 633T684 641T784 646Q788 670 801 732T830 867T857 1004T872
1095Q854 1095 818 1093T748 1088T700 1084Q686 1056 661 1004T606 887T544 753T484 622ZM1085 1723Q1125 1700 1159 1671T1218 1618T1248 1582Q1208 1571 1146 1548T1016 1498T894 1445T811 1406L684 1483Q718 1512 774 1550T893 1626T1007 1691T1085 1723Z" />
<glyph unicode="&#xc2;" horiz-adv-x="1129" d="M204 -15Q181 -15 142 -14T59 -11T-26 -8T-94 -4Q-68 55 -23 150T79 363T201 610T329 866T452 1106T558 1305Q619 1314 683 1320T812 1331T939 1335Q988 1335 1036 1332T1129 1323Q1125 1235 1114 1119T1080 845T1022
481T934 3Q903 -2 849 -6T737 -12T632 -15Q637 13 646 54T665 142T686 236T707 327T725 403Q693 403 653 401T570 397T489 391T423 384T382 379Q346 305 311 231T249 92T204 -15ZM484 622Q513 628 568 633T684 641T784 646Q788 670 801 732T830 867T857 1004T872
1095Q854 1095 818 1093T748 1088T700 1084Q686 1056 661 1004T606 887T544 753T484 622ZM1021 1758Q1059 1717 1111 1665T1214 1564T1297 1490Q1252 1458 1204 1433T1118 1394Q1093 1420 1063 1452T1002 1516T949 1573T917 1609H943Q933 1601 905 1579T841 1525T766
1462T697 1400Q674 1408 639 1427T570 1469T513 1513Q573 1553 643 1603T769 1697T846 1757Q861 1757 895 1757T966 1757T1021 1758Z" />
<glyph unicode="&#xc3;" horiz-adv-x="1129" d="M204 -15Q181 -15 142 -14T59 -11T-26 -8T-94 -4Q-68 55 -23 150T79 363T201 610T329 866T452 1106T558 1305Q619 1314 683 1320T812 1331T939 1335Q988 1335 1036 1332T1129 1323Q1125 1235 1114 1119T1080 845T1022
481T934 3Q903 -2 849 -6T737 -12T632 -15Q637 13 646 54T665 142T686 236T707 327T725 403Q693 403 653 401T570 397T489 391T423 384T382 379Q346 305 311 231T249 92T204 -15ZM484 622Q513 628 568 633T684 641T784 646Q788 670 801 732T830 867T857 1004T872
1095Q854 1095 818 1093T748 1088T700 1084Q686 1056 661 1004T606 887T544 753T484 622ZM497 1584Q513 1629 552 1672T646 1743T766 1771Q825 1771 865 1744T940 1685Q969 1657 999 1636T1069 1614Q1114 1614 1143 1649T1186 1727L1328 1643Q1323 1619 1305 1585T1255
1517T1181 1460T1081 1437Q1025 1437 981 1467T899 1531Q869 1559 840 1579T780 1599Q741 1599 712 1578T663 1528T633 1474L497 1584Z" />
<glyph unicode="&#xc4;" horiz-adv-x="1129" d="M204 -15Q181 -15 142 -14T59 -11T-26 -8T-94 -4Q-68 55 -23 150T79 363T201 610T329 866T452 1106T558 1305Q619 1314 683 1320T812 1331T939 1335Q988 1335 1036 1332T1129 1323Q1125 1235 1114 1119T1080 845T1022
481T934 3Q903 -2 849 -6T737 -12T632 -15Q637 13 646 54T665 142T686 236T707 327T725 403Q693 403 653 401T570 397T489 391T423 384T382 379Q346 305 311 231T249 92T204 -15ZM484 622Q513 628 568 633T684 641T784 646Q788 670 801 732T830 867T857 1004T872
1095Q854 1095 818 1093T748 1088T700 1084Q686 1056 661 1004T606 887T544 753T484 622ZM723 1449Q665 1449 620 1484T574 1577Q574 1639 618 1681T721 1723Q786 1723 828 1681T870 1578Q870 1522 826 1486T723 1449ZM1134 1460Q1074 1460 1030 1499T986 1597Q986
1655 1026 1693T1123 1732Q1186 1732 1232 1693T1279 1594Q1279 1553 1258 1523T1203 1477T1134 1460Z" />
<glyph unicode="&#xc5;" horiz-adv-x="1129" d="M204 -15Q181 -15 142 -14T59 -11T-26 -8T-94 -4Q-68 55 -23 150T79 363T201 610T329 866T452 1106T558 1305Q619 1314 683 1320T812 1331T939 1335Q988 1335 1036 1332T1129 1323Q1125 1235 1114 1119T1080 845T1022
481T934 3Q903 -2 849 -6T737 -12T632 -15Q637 13 646 54T665 142T686 236T707 327T725 403Q693 403 653 401T570 397T489 391T423 384T382 379Q346 305 311 231T249 92T204 -15ZM484 622Q513 628 568 633T684 641T784 646Q788 670 801 732T830 867T857 1004T872
1095Q854 1095 818 1093T748 1088T700 1084Q686 1056 661 1004T606 887T544 753T484 622ZM881 1385Q782 1385 714 1442T645 1587Q645 1677 694 1749T823 1863T992 1906Q1058 1906 1113 1881T1202 1811T1235 1712Q1235 1626 1184 1551T1052 1431T881 1385ZM906 1550Q939
1550 970 1566T1021 1609T1041 1668Q1041 1701 1019 1720T959 1740Q909 1740 871 1704T833 1617Q833 1585 853 1568T906 1550Z" />
<glyph unicode="&#xc6;" horiz-adv-x="1709" d="M1433 -38Q1366 -34 1273 -30T1077 -23T878 -17T710 -14Q737 78 763 176T816 374Q785 373 740 372T644 368T549 362T469 356T423 351Q378 283 334 213T252 84T191 -16Q169 -16 128 -15T37 -13T-55 -9T-124 -6Q-91
49 -35 137T94 336T247 566T410 805T567 1029T704 1215Q726 1218 794 1223T961 1237T1172 1253T1395 1270T1600 1285T1755 1296T1827 1300Q1812 1245 1794 1189T1753 1072L1257 1035Q1252 1019 1242 986T1221 915T1201 843T1188 793Q1211 793 1253 794T1348 796T1454
799T1552 800T1624 802L1558 560Q1545 561 1502 562T1401 564T1286 567T1183 569T1122 569Q1109 523 1094 467T1063 357T1036 260Q1085 261 1142 261T1253 261Q1308 261 1363 260T1464 255T1540 250Q1530 215 1515 170T1483 82T1453 6T1433 -38ZM560 577Q590 582
648 587T770 595T872 601Q881 632 897 683T931 794T968 913T1000 1019Q981 1019 949 1017T886 1013T842 1009Q823 982 790 934T717 824T636 699T560 577Z" />
<glyph unicode="&#xc7;" horiz-adv-x="1137" d="M389 -509Q310 -509 258 -500T191 -486L257 -331Q281 -340 329 -349T407 -358Q506 -358 564 -336T622 -261Q622 -230 593 -217T513 -203Q479 -203 440 -209T367 -223T313 -240L395 33L560 39L516 -131Q535 -111
576 -96T664 -81Q736 -81 780 -117T824 -229Q824 -306 788 -359T689 -446T549 -494T389 -509ZM1030 224Q931 126 798 58T501 -11Q355 -11 258 54T112 229T63 469Q63 638 118 792T273 1066T507 1256T799 1326Q897 1326 984 1298T1135 1215T1222 1079Q1191 1053 1145
1021T1052 959T971 911Q970 922 961 949T929 1007T867 1058T762 1079Q676 1079 605 1030T483 900T403 723T375 534Q375 415 416 343T549 271Q613 271 672 296T785 359T882 439Q907 418 937 379T994 297T1030 224Z" />
<glyph unicode="&#xc8;" horiz-adv-x="957" d="M688 -13Q589 -6 492 -1T294 7Q220 10 142 13T-10 20Q28 185 67 341T143 636Q205 868 251 1026T320 1251Q514 1284 676 1300T947 1321T1082 1326Q1067 1268 1049 1213T1008 1097L544 1060Q538 1044 528 1011T508
940T488 868T474 818Q497 819 536 819T624 821T720 824T810 825T879 827L813 585Q800 586 760 587T667 589T561 592T466 594T408 594Q405 583 397 555T378 489T357 413T337 340T322 285Q338 286 395 286T508 286Q563 286 618 285T719 281T795 275Q785 240 770 196T738
108T708 32T688 -13ZM678 1677Q700 1675 751 1655T868 1602T995 1533T1099 1461L978 1385Q945 1402 887 1424T761 1468T627 1509T513 1538Q522 1549 546 1573T606 1625T678 1677Z" />
<glyph unicode="&#xc9;" horiz-adv-x="957" d="M688 -13Q589 -6 492 -1T294 7Q220 10 142 13T-10 20Q28 185 67 341T143 636Q205 868 251 1026T320 1251Q514 1284 676 1300T947 1321T1082 1326Q1067 1268 1049 1213T1008 1097L544 1060Q538 1044 528 1011T508
940T488 868T474 818Q497 819 536 819T624 821T720 824T810 825T879 827L813 585Q800 586 760 587T667 589T561 592T466 594T408 594Q405 583 397 555T378 489T357 413T337 340T322 285Q338 286 395 286T508 286Q563 286 618 285T719 281T795 275Q785 240 770 196T738
108T708 32T688 -13ZM910 1709Q950 1686 984 1657T1043 1604T1073 1568Q1033 1557 971 1534T841 1484T719 1431T636 1392L509 1469Q543 1498 599 1536T718 1612T832 1677T910 1709Z" />
<glyph unicode="&#xca;" horiz-adv-x="957" d="M688 -13Q589 -6 492 -1T294 7Q220 10 142 13T-10 20Q28 185 67 341T143 636Q205 868 251 1026T320 1251Q514 1284 676 1300T947 1321T1082 1326Q1067 1268 1049 1213T1008 1097L544 1060Q538 1044 528 1011T508
940T488 868T474 818Q497 819 536 819T624 821T720 824T810 825T879 827L813 585Q800 586 760 587T667 589T561 592T466 594T408 594Q405 583 397 555T378 489T357 413T337 340T322 285Q338 286 395 286T508 286Q563 286 618 285T719 281T795 275Q785 240 770 196T738
108T708 32T688 -13ZM846 1743Q884 1702 936 1650T1039 1549T1122 1475Q1077 1443 1029 1418T943 1379Q918 1405 888 1437T827 1501T774 1558T742 1594H768Q758 1586 730 1564T666 1510T591 1447T522 1385Q499 1393 464 1412T395 1454T338 1498Q398 1538 468 1588T594
1682T671 1742Q686 1742 720 1742T791 1742T846 1743Z" />
<glyph unicode="&#xcb;" horiz-adv-x="957" d="M688 -13Q589 -6 492 -1T294 7Q220 10 142 13T-10 20Q28 185 67 341T143 636Q205 868 251 1026T320 1251Q514 1284 676 1300T947 1321T1082 1326Q1067 1268 1049 1213T1008 1097L544 1060Q538 1044 528 1011T508
940T488 868T474 818Q497 819 536 819T624 821T720 824T810 825T879 827L813 585Q800 586 760 587T667 589T561 592T466 594T408 594Q405 583 397 555T378 489T357 413T337 340T322 285Q338 286 395 286T508 286Q563 286 618 285T719 281T795 275Q785 240 770 196T738
108T708 32T688 -13ZM547 1434Q489 1434 444 1469T398 1562Q398 1624 442 1666T545 1708Q610 1708 652 1666T694 1563Q694 1507 650 1471T547 1434ZM958 1445Q898 1445 854 1484T810 1582Q810 1640 850 1678T947 1717Q1010 1717 1056 1678T1103 1579Q1103 1538
1082 1508T1027 1462T958 1445Z" />
<glyph unicode="&#xcc;" horiz-adv-x="550" d="M253 -15Q220 -15 173 -14T77 -11T-7 -3Q6 47 23 119T62 274T105 443T148 606Q189 760 239 940T346 1316Q361 1317 393 1317T467 1319T546 1321T611 1322Q585 1210 554 1078T489 813T424 561Q409 504 391 438T353
303T315 173T281 61T253 -15ZM215 1651Q237 1649 288 1629T405 1576T532 1507T636 1435L515 1359Q482 1376 424 1398T298 1442T164 1483T50 1512Q59 1523 83 1547T143 1599T215 1651Z" />
<glyph unicode="&#xcd;" horiz-adv-x="550" d="M253 -15Q220 -15 173 -14T77 -11T-7 -3Q6 47 23 119T62 274T105 443T148 606Q189 760 239 940T346 1316Q361 1317 393 1317T467 1319T546 1321T611 1322Q585 1210 554 1078T489 813T424 561Q409 504 391 438T353
303T315 173T281 61T253 -15ZM703 1682Q743 1659 777 1630T836 1577T866 1541Q826 1530 764 1507T634 1457T512 1404T429 1365L302 1442Q336 1471 392 1509T511 1585T625 1650T703 1682Z" />
<glyph unicode="&#xce;" horiz-adv-x="550" d="M253 -15Q220 -15 173 -14T77 -11T-7 -3Q6 47 23 119T62 274T105 443T148 606Q189 760 239 940T346 1316Q361 1317 393 1317T467 1319T546 1321T611 1322Q585 1210 554 1078T489 813T424 561Q409 504 391 438T353
303T315 173T281 61T253 -15ZM639 1717Q677 1676 729 1624T832 1523T915 1449Q870 1417 822 1392T736 1353Q711 1379 681 1411T620 1475T567 1532T535 1568H561Q551 1560 523 1538T459 1484T384 1421T315 1359Q292 1367 257 1386T188 1428T131 1472Q191 1512 261
1562T387 1656T464 1716Q479 1716 513 1716T584 1716T639 1717Z" />
<glyph unicode="&#xcf;" horiz-adv-x="550" d="M253 -15Q220 -15 173 -14T77 -11T-7 -3Q6 47 23 119T62 274T105 443T148 606Q189 760 239 940T346 1316Q361 1317 393 1317T467 1319T546 1321T611 1322Q585 1210 554 1078T489 813T424 561Q409 504 391 438T353
303T315 173T281 61T253 -15ZM340 1408Q282 1408 237 1443T191 1536Q191 1598 235 1640T338 1682Q403 1682 445 1640T487 1537Q487 1481 443 1445T340 1408ZM751 1419Q691 1419 647 1458T603 1556Q603 1614 643 1652T740 1691Q803 1691 849 1652T896 1553Q896 1512
875 1482T820 1436T751 1419Z" />
<glyph unicode="&#xd0;" horiz-adv-x="1198" d="M631 583Q587 583 517 581T364 574T202 563T56 550Q63 585 70 621T88 689Q130 699 208 708T375 726T543 739T667 745Q665 728 655 681T631 583ZM58 -31Q65 17 80 106T117 311T161 553T208 803T251 1030T285 1205T303
1299Q340 1305 397 1311T518 1321T643 1325Q833 1325 945 1260T1107 1080T1156 819Q1156 596 1091 437T891 175T549 22T58 -31ZM396 258Q525 264 615 308T762 428T844 598T870 799Q870 881 851 945T784 1046T654 1083Q634 1083 604 1082T555 1080Q529 944 502 803T449
524T396 258Z" />
<glyph unicode="&#xd1;" horiz-adv-x="1282" d="M323 -6Q271 -7 213 -4T105 3T27 10Q31 22 44 74T79 206T126 379T178 573T228 763Q255 861 279 956T324 1133T355 1268Q374 1268 409 1267T485 1262T565 1255T631 1247Q671 1147 706 1034T773 806T830 584T873 387L1065
1251Q1092 1251 1131 1249T1211 1242T1286 1233T1337 1222Q1328 1174 1314 1111T1283 975T1247 826T1208 674T1172 533Q1148 443 1123 356T1074 195T1032 70T1004 2Q978 1 950 1T894 0Q853 0 815 1T752 8Q745 35 731 89T698 217T655 373T608 539T562 699T521 833Q516
805 502 742T469 595T428 420T386 244T349 93T323 -6ZM483 1543Q499 1588 538 1631T632 1702T752 1730Q811 1730 851 1703T926 1644Q955 1616 985 1595T1055 1573Q1100 1573 1129 1608T1172 1686L1314 1602Q1309 1578 1291 1544T1241 1476T1167 1419T1067 1396Q1011
1396 967 1426T885 1490Q855 1518 826 1538T766 1558Q727 1558 698 1537T649 1487T619 1433L483 1543Z" />
<glyph unicode="&#xd2;" horiz-adv-x="1354" d="M570 -51Q405 -51 300 12T145 184T94 432Q94 626 144 788T289 1069T523 1254T838 1320Q1012 1320 1114 1254T1260 1074T1305 818Q1305 627 1260 468T1122 192T892 13T570 -51ZM609 229Q717 229 798 272T934 392T1016
571T1044 791Q1044 866 1025 933T957 1044T820 1087Q712 1087 630 1042T492 916T408 732T380 509Q380 436 402 372T475 269T609 229ZM620 1651Q642 1649 693 1629T810 1576T937 1507T1041 1435L920 1359Q887 1376 829 1398T703 1442T569 1483T455 1512Q464 1523
488 1547T548 1599T620 1651Z" />
<glyph unicode="&#xd3;" horiz-adv-x="1354" d="M570 -51Q405 -51 300 12T145 184T94 432Q94 626 144 788T289 1069T523 1254T838 1320Q1012 1320 1114 1254T1260 1074T1305 818Q1305 627 1260 468T1122 192T892 13T570 -51ZM609 229Q717 229 798 272T934 392T1016
571T1044 791Q1044 866 1025 933T957 1044T820 1087Q712 1087 630 1042T492 916T408 732T380 509Q380 436 402 372T475 269T609 229ZM1108 1682Q1148 1659 1182 1630T1241 1577T1271 1541Q1231 1530 1169 1507T1039 1457T917 1404T834 1365L707 1442Q741 1471 797
1509T916 1585T1030 1650T1108 1682Z" />
<glyph unicode="&#xd4;" horiz-adv-x="1354" d="M570 -51Q405 -51 300 12T145 184T94 432Q94 626 144 788T289 1069T523 1254T838 1320Q1012 1320 1114 1254T1260 1074T1305 818Q1305 627 1260 468T1122 192T892 13T570 -51ZM609 229Q717 229 798 272T934 392T1016
571T1044 791Q1044 866 1025 933T957 1044T820 1087Q712 1087 630 1042T492 916T408 732T380 509Q380 436 402 372T475 269T609 229ZM1044 1717Q1082 1676 1134 1624T1237 1523T1320 1449Q1275 1417 1227 1392T1141 1353Q1116 1379 1086 1411T1025 1475T972 1532T940
1568H966Q956 1560 928 1538T864 1484T789 1421T720 1359Q697 1367 662 1386T593 1428T536 1472Q596 1512 666 1562T792 1656T869 1716Q884 1716 918 1716T989 1716T1044 1717Z" />
<glyph unicode="&#xd5;" horiz-adv-x="1354" d="M570 -51Q405 -51 300 12T145 184T94 432Q94 626 144 788T289 1069T523 1254T838 1320Q1012 1320 1114 1254T1260 1074T1305 818Q1305 627 1260 468T1122 192T892 13T570 -51ZM609 229Q717 229 798 272T934 392T1016
571T1044 791Q1044 866 1025 933T957 1044T820 1087Q712 1087 630 1042T492 916T408 732T380 509Q380 436 402 372T475 269T609 229ZM519 1543Q535 1588 574 1631T668 1702T788 1730Q847 1730 887 1703T962 1644Q991 1616 1021 1595T1091 1573Q1136 1573 1165 1608T1208
1686L1350 1602Q1345 1578 1327 1544T1277 1476T1203 1419T1103 1396Q1047 1396 1003 1426T921 1490Q891 1518 862 1538T802 1558Q763 1558 734 1537T685 1487T655 1433L519 1543Z" />
<glyph unicode="&#xd6;" horiz-adv-x="1354" d="M570 -51Q405 -51 300 12T145 184T94 432Q94 626 144 788T289 1069T523 1254T838 1320Q1012 1320 1114 1254T1260 1074T1305 818Q1305 627 1260 468T1122 192T892 13T570 -51ZM609 229Q717 229 798 272T934 392T1016
571T1044 791Q1044 866 1025 933T957 1044T820 1087Q712 1087 630 1042T492 916T408 732T380 509Q380 436 402 372T475 269T609 229ZM745 1408Q687 1408 642 1443T596 1536Q596 1598 640 1640T743 1682Q808 1682 850 1640T892 1537Q892 1481 848 1445T745 1408ZM1156
1419Q1096 1419 1052 1458T1008 1556Q1008 1614 1048 1652T1145 1691Q1208 1691 1254 1652T1301 1553Q1301 1512 1280 1482T1225 1436T1156 1419Z" />
<glyph unicode="&#xd7;" horiz-adv-x="1041" d="M1067 932Q1032 896 959 833T789 692T587 535T384 385T211 268Q201 276 182 298T140 347T99 397T74 428Q114 454 182 505T334 623T508 761T681 901T829 1024T929 1111Q937 1104 957 1079T1001 1022T1044 966T1067
932ZM413 1095Q455 1058 520 984T660 816T807 624T934 438Q923 425 896 401T838 351T779 303T737 273Q702 325 647 396T526 545T397 695T281 822T198 902Q206 911 228 932T278 979T335 1030T384 1072T413 1095Z" />
<glyph unicode="&#xd8;" horiz-adv-x="1354" d="M1131 1388Q1197 1381 1248 1354T1317 1297Q1169 1053 1004 839T676 446T367 127T113 -107Q59 -93 19 -61T-47 3Q87 123 243 277T560 611T868 987T1131 1388ZM570 -51Q405 -51 300 12T145 184T94 432Q94 626 144
788T289 1069T523 1254T838 1320Q1012 1320 1114 1254T1260 1074T1305 818Q1305 627 1260 468T1122 192T892 13T570 -51ZM609 229Q717 229 798 272T934 392T1016 571T1044 791Q1044 866 1025 933T957 1044T820 1087Q712 1087 630 1042T492 916T408 732T380 509Q380
436 402 372T475 269T609 229Z" />
<glyph unicode="&#xd9;" horiz-adv-x="1212" d="M487 -33Q292 -33 212 67T131 352Q131 468 157 612T227 928Q252 1027 283 1132T348 1346Q384 1350 423 1352T495 1355Q541 1355 584 1352T660 1345Q629 1258 593 1148T527 926Q501 834 480 746T445 586T432 466Q432
298 565 298Q675 298 750 411T877 717Q888 758 903 821T936 956T969 1101T998 1232T1014 1329Q1050 1329 1095 1326T1184 1320T1260 1312T1302 1304Q1296 1249 1284 1183T1257 1046T1222 905Q1168 706 1106 536T962 238T764 39T487 -33ZM577 1681Q599 1679 650
1659T767 1606T894 1537T998 1465L877 1389Q844 1406 786 1428T660 1472T526 1513T412 1542Q421 1553 445 1577T505 1629T577 1681Z" />
<glyph unicode="&#xda;" horiz-adv-x="1212" d="M487 -33Q292 -33 212 67T131 352Q131 468 157 612T227 928Q252 1027 283 1132T348 1346Q384 1350 423 1352T495 1355Q541 1355 584 1352T660 1345Q629 1258 593 1148T527 926Q501 834 480 746T445 586T432 466Q432
298 565 298Q675 298 750 411T877 717Q888 758 903 821T936 956T969 1101T998 1232T1014 1329Q1050 1329 1095 1326T1184 1320T1260 1312T1302 1304Q1296 1249 1284 1183T1257 1046T1222 905Q1168 706 1106 536T962 238T764 39T487 -33ZM1064 1712Q1104 1689 1138
1660T1197 1607T1227 1571Q1187 1560 1125 1537T995 1487T873 1434T790 1395L663 1472Q697 1501 753 1539T872 1615T986 1680T1064 1712Z" />
<glyph unicode="&#xdb;" horiz-adv-x="1212" d="M487 -33Q292 -33 212 67T131 352Q131 468 157 612T227 928Q252 1027 283 1132T348 1346Q384 1350 423 1352T495 1355Q541 1355 584 1352T660 1345Q629 1258 593 1148T527 926Q501 834 480 746T445 586T432 466Q432
298 565 298Q675 298 750 411T877 717Q888 758 903 821T936 956T969 1101T998 1232T1014 1329Q1050 1329 1095 1326T1184 1320T1260 1312T1302 1304Q1296 1249 1284 1183T1257 1046T1222 905Q1168 706 1106 536T962 238T764 39T487 -33ZM1000 1747Q1038 1706 1090
1654T1193 1553T1276 1479Q1231 1447 1183 1422T1097 1383Q1072 1409 1042 1441T981 1505T928 1562T896 1598H922Q912 1590 884 1568T820 1514T745 1451T676 1389Q653 1397 618 1416T549 1458T492 1502Q552 1542 622 1592T748 1686T825 1746Q840 1746 874 1746T945
1746T1000 1747Z" />
<glyph unicode="&#xdc;" horiz-adv-x="1212" d="M487 -33Q292 -33 212 67T131 352Q131 468 157 612T227 928Q252 1027 283 1132T348 1346Q384 1350 423 1352T495 1355Q541 1355 584 1352T660 1345Q629 1258 593 1148T527 926Q501 834 480 746T445 586T432 466Q432
298 565 298Q675 298 750 411T877 717Q888 758 903 821T936 956T969 1101T998 1232T1014 1329Q1050 1329 1095 1326T1184 1320T1260 1312T1302 1304Q1296 1249 1284 1183T1257 1046T1222 905Q1168 706 1106 536T962 238T764 39T487 -33ZM702 1438Q644 1438 599
1473T553 1566Q553 1628 597 1670T700 1712Q765 1712 807 1670T849 1567Q849 1511 805 1475T702 1438ZM1113 1449Q1053 1449 1009 1488T965 1586Q965 1644 1005 1682T1102 1721Q1165 1721 1211 1682T1258 1583Q1258 1542 1237 1512T1182 1466T1113 1449Z" />
<glyph unicode="&#xdd;" horiz-adv-x="1065" d="M434 548Q419 582 402 634T366 750T330 882T297 1019T269 1151T248 1266Q337 1296 409 1308T531 1322Q533 1305 539 1261T553 1159T572 1038T592 921T611 829Q628 853 662 900T740 1007T829 1125T914 1233T977 1307Q1025
1302 1075 1286T1167 1250T1236 1210Q1176 1151 1092 1055T905 834T693 567Q681 518 666 457T636 338T611 243Q600 199 587 149T563 60T549 9Q536 5 502 2T427 -1Q384 -1 343 2T273 11Q301 116 330 220T387 410T434 548ZM984 1682Q1024 1659 1058 1630T1117 1577T1147
1541Q1107 1530 1045 1507T915 1457T793 1404T710 1365L583 1442Q617 1471 673 1509T792 1585T906 1650T984 1682Z" />
<glyph unicode="&#xde;" horiz-adv-x="1316" d="M566 1282Q557 1218 539 1115T496 888T446 632T393 378T345 156T306 -3Q270 -9 215 -13T101 -20T-6 -22Q8 28 33 124T89 342T153 599T216 862T271 1097T308 1268Q325 1270 397 1276T566 1282ZM427 794L470 1050Q538
1065 623 1078T799 1092Q931 1092 1035 1056T1199 943T1260 745Q1260 557 1168 443T919 278T563 226Q496 226 418 230T277 243L359 495Q411 488 476 483T607 477Q709 477 796 496T936 564T990 703Q990 774 929 811T748 849Q655 849 572 832T427 794Z" />
<glyph unicode="&#xdf;" horiz-adv-x="1144" d="M51 -5Q54 42 64 133T88 339T121 575T160 804T200 988Q239 1132 319 1225T508 1363T741 1408Q839 1408 915 1374T1036 1278T1080 1136Q1080 1070 1057 1018T1000 925T932 854Q897 823 875 798T852 752Q852 725 868
700T918 647Q944 628 971 595T1016 516T1034 416Q1034 333 1000 258T907 123T772 30T613 -5Q520 -5 461 23T376 81L521 285Q547 258 583 238T665 217Q707 217 738 238T786 294T804 367Q804 434 751 490T632 596Q613 611 599 636T584 695Q584 754 623 799T711 885Q759
925 797 968T836 1067Q836 1120 792 1156T681 1192Q633 1192 589 1175T511 1118T458 1011Q444 958 428 873T396 685T365 478T338 281T318 124T307 35L51 -5Z" />
<glyph unicode="&#xe0;" horiz-adv-x="1295" d="M394 -18Q222 -18 120 48T17 269Q17 379 66 456T200 580T388 649T603 671Q660 671 714 663T810 644T864 622Q867 642 867 672T859 727Q847 790 792 820T648 850Q585 850 524 831T413 779T331 711L153 851Q245 947
389 1007T695 1068Q887 1068 998 992T1109 741Q1109 690 1099 631T1072 512Q1053 446 1039 381T1024 267Q1024 238 1034 229T1063 220Q1091 220 1114 239T1154 292L1214 123Q1188 64 1129 29T994 -7Q914 -7 874 36T834 166Q808 123 743 80T589 10T394 -18ZM490
191Q543 191 601 206T711 246T796 303Q805 345 814 382T832 450Q810 459 746 471T602 484Q550 484 497 474T399 444T327 391T300 315Q300 248 346 220T490 191ZM530 1485Q552 1482 603 1464T719 1414T845 1346T949 1269Q936 1246 913 1219T869 1171T839 1145Q806
1164 749 1187T626 1234T496 1277T384 1309Q392 1321 413 1352T465 1419T530 1485Z" />
<glyph unicode="&#xe1;" horiz-adv-x="1295" d="M394 -18Q222 -18 120 48T17 269Q17 379 66 456T200 580T388 649T603 671Q660 671 714 663T810 644T864 622Q867 642 867 672T859 727Q847 790 792 820T648 850Q585 850 524 831T413 779T331 711L153 851Q245 947
389 1007T695 1068Q887 1068 998 992T1109 741Q1109 690 1099 631T1072 512Q1053 446 1039 381T1024 267Q1024 238 1034 229T1063 220Q1091 220 1114 239T1154 292L1214 123Q1188 64 1129 29T994 -7Q914 -7 874 36T834 166Q808 123 743 80T589 10T394 -18ZM490
191Q543 191 601 206T711 246T796 303Q805 345 814 382T832 450Q810 459 746 471T602 484Q550 484 497 474T399 444T327 391T300 315Q300 248 346 220T490 191ZM918 1502Q960 1481 993 1449T1048 1388T1079 1346Q1046 1334 1000 1313T905 1267T811 1217T731 1173T681
1143Q673 1146 653 1156T609 1179T565 1205T536 1228Q562 1261 613 1304T723 1389T836 1462T918 1502Z" />
<glyph unicode="&#xe2;" horiz-adv-x="1295" d="M394 -18Q222 -18 120 48T17 269Q17 379 66 456T200 580T388 649T603 671Q660 671 714 663T810 644T864 622Q867 642 867 672T859 727Q847 790 792 820T648 850Q585 850 524 831T413 779T331 711L153 851Q245 947
389 1007T695 1068Q887 1068 998 992T1109 741Q1109 690 1099 631T1072 512Q1053 446 1039 381T1024 267Q1024 238 1034 229T1063 220Q1091 220 1114 239T1154 292L1214 123Q1188 64 1129 29T994 -7Q914 -7 874 36T834 166Q808 123 743 80T589 10T394 -18ZM490
191Q543 191 601 206T711 246T796 303Q805 345 814 382T832 450Q810 459 746 471T602 484Q550 484 497 474T399 444T327 391T300 315Q300 248 346 220T490 191ZM958 1493Q988 1457 1026 1408T1102 1308T1168 1217Q1126 1185 1073 1160T979 1121Q961 1152 938 1187T892
1255T852 1313T830 1344H856Q844 1336 810 1313T729 1258T637 1194T555 1135Q533 1143 500 1162T434 1204T385 1248Q439 1283 498 1321T614 1393T715 1453T783 1492Q798 1492 832 1493T903 1494T958 1493Z" />
<glyph unicode="&#xe3;" horiz-adv-x="1295" d="M394 -18Q222 -18 120 48T17 269Q17 379 66 456T200 580T388 649T603 671Q660 671 714 663T810 644T864 622Q867 642 867 672T859 727Q847 790 792 820T648 850Q585 850 524 831T413 779T331 711L153 851Q245 947
389 1007T695 1068Q887 1068 998 992T1109 741Q1109 690 1099 631T1072 512Q1053 446 1039 381T1024 267Q1024 238 1034 229T1063 220Q1091 220 1114 239T1154 292L1214 123Q1188 64 1129 29T994 -7Q914 -7 874 36T834 166Q808 123 743 80T589 10T394 -18ZM490
191Q543 191 601 206T711 246T796 303Q805 345 814 382T832 450Q810 459 746 471T602 484Q550 484 497 474T399 444T327 391T300 315Q300 248 346 220T490 191ZM348 1295Q363 1340 402 1383T496 1454T617 1482Q675 1482 716 1455T790 1396Q820 1368 850 1347T919
1325Q964 1325 993 1360T1036 1438L1178 1354Q1173 1330 1155 1296T1105 1228T1031 1171T931 1148Q875 1148 831 1178T750 1242Q719 1270 690 1290T630 1310Q591 1310 562 1289T513 1239T483 1185L348 1295Z" />
<glyph unicode="&#xe4;" horiz-adv-x="1295" d="M394 -18Q222 -18 120 48T17 269Q17 379 66 456T200 580T388 649T603 671Q660 671 714 663T810 644T864 622Q867 642 867 672T859 727Q847 790 792 820T648 850Q585 850 524 831T413 779T331 711L153 851Q245 947
389 1007T695 1068Q887 1068 998 992T1109 741Q1109 690 1099 631T1072 512Q1053 446 1039 381T1024 267Q1024 238 1034 229T1063 220Q1091 220 1114 239T1154 292L1214 123Q1188 64 1129 29T994 -7Q914 -7 874 36T834 166Q808 123 743 80T589 10T394 -18ZM490
191Q543 191 601 206T711 246T796 303Q805 345 814 382T832 450Q810 459 746 471T602 484Q550 484 497 474T399 444T327 391T300 315Q300 248 346 220T490 191ZM599 1187Q542 1187 497 1222T451 1315Q451 1377 494 1419T598 1461Q663 1461 705 1419T747 1316Q747
1260 703 1224T599 1187ZM1010 1197Q951 1197 907 1236T863 1335Q863 1393 903 1431T999 1470Q1063 1470 1109 1431T1155 1331Q1155 1291 1134 1261T1080 1214T1010 1197Z" />
<glyph unicode="&#xe5;" horiz-adv-x="1295" d="M394 -18Q222 -18 120 48T17 269Q17 379 66 456T200 580T388 649T603 671Q660 671 714 663T810 644T864 622Q867 642 867 672T859 727Q847 790 792 820T648 850Q585 850 524 831T413 779T331 711L153 851Q245 947
389 1007T695 1068Q887 1068 998 992T1109 741Q1109 690 1099 631T1072 512Q1053 446 1039 381T1024 267Q1024 238 1034 229T1063 220Q1091 220 1114 239T1154 292L1214 123Q1188 64 1129 29T994 -7Q914 -7 874 36T834 166Q808 123 743 80T589 10T394 -18ZM490
191Q543 191 601 206T711 246T796 303Q805 345 814 382T832 450Q810 459 746 471T602 484Q550 484 497 474T399 444T327 391T300 315Q300 248 346 220T490 191ZM758 1166Q659 1166 591 1223T522 1368Q522 1458 571 1530T700 1644T869 1687Q935 1687 990 1662T1079
1593T1112 1493Q1112 1407 1061 1332T929 1212T758 1166ZM783 1331Q816 1331 847 1347T898 1390T918 1450Q918 1482 896 1501T836 1521Q786 1521 748 1485T710 1398Q710 1366 730 1349T783 1331Z" />
<glyph unicode="&#xe6;" horiz-adv-x="1828" d="M425 -3Q314 -3 226 31T87 133T36 305Q36 407 81 479T202 598T374 665T571 687Q597 687 635 684T712 676T781 665T820 651Q827 688 827 718Q827 799 781 841T645 884Q557 884 470 848T331 757L177 919Q230 968 315
1012T499 1083T692 1111Q875 1111 977 1015T1079 740Q1079 675 1066 598T1031 427Q1008 335 949 257T807 121T625 30T425 -3ZM449 205Q533 205 601 230T712 290T763 358Q770 384 775 415T784 471Q768 477 736 483T663 494T584 499Q519 499 452 478T339 415T293
309Q293 248 340 227T449 205ZM1730 195Q1696 163 1648 129T1538 66T1396 19T1222 0Q1034 0 922 98T810 384Q810 538 862 663T1005 878T1219 1017T1482 1066Q1655 1066 1747 980T1840 740Q1840 683 1827 624T1789 510Q1777 511 1730 511T1622 512T1505 512T1416
512Q1357 511 1294 508T1177 499T1091 488Q1082 460 1082 418Q1082 369 1108 333T1179 276T1282 256Q1337 256 1384 271T1471 309T1542 357T1598 401Q1603 396 1621 374T1662 319T1703 254T1730 195ZM1142 657Q1167 661 1211 665T1312 672T1433 677Q1470 677 1505
677T1566 677T1598 677Q1603 692 1604 710T1606 747Q1606 784 1589 816T1538 868T1448 888Q1377 888 1312 858T1202 775T1142 657Z" />
<glyph unicode="&#xe7;" horiz-adv-x="1026" d="M314 -509Q236 -509 184 -500T116 -486L182 -331Q206 -340 254 -349T333 -358Q431 -358 489 -336T548 -261Q548 -230 519 -217T439 -203Q404 -203 365 -209T293 -223T239 -240L321 33L485 39L442 -131Q460 -111
502 -96T590 -81Q662 -81 706 -117T750 -229Q750 -306 714 -359T615 -446T475 -494T314 -509ZM902 211Q866 159 796 109T631 25T421 -9Q294 -9 213 45T92 192T53 406Q53 551 99 676T231 896T433 1042T689 1095Q783 1095 857 1066T982 985T1051 864L830 752Q829
762 823 781T799 823T750 860T663 875Q583 875 520 841T414 749T348 615T325 459Q325 378 361 326T490 273Q542 273 588 289T669 329T727 374T756 405L902 211Z" />
<glyph unicode="&#xe8;" horiz-adv-x="1111" d="M970 195Q936 163 889 129T778 66T636 19T462 0Q274 0 163 98T51 384Q51 538 102 663T245 878T459 1017T722 1066Q895 1066 987 980T1080 740Q1080 683 1067 624T1029 510Q1017 511 970 511T862 512T745 512T657
512Q598 511 535 508T417 499T332 488Q323 460 323 418Q323 369 348 333T419 276T522 256Q578 256 625 271T711 309T782 357T839 401Q844 396 862 374T902 319T944 254T970 195ZM382 657Q408 661 451 665T552 672T673 677Q710 677 745 677T806 677T839 677Q843
692 845 710T847 747Q846 784 830 816T779 868T688 888Q617 888 552 858T442 775T382 657ZM514 1485Q536 1482 587 1464T703 1414T829 1346T933 1269Q920 1246 897 1219T853 1171T823 1145Q790 1164 733 1187T610 1234T480 1277T368 1309Q376 1321 397 1352T449
1419T514 1485Z" />
<glyph unicode="&#xe9;" horiz-adv-x="1111" d="M970 195Q936 163 889 129T778 66T636 19T462 0Q274 0 163 98T51 384Q51 538 102 663T245 878T459 1017T722 1066Q895 1066 987 980T1080 740Q1080 683 1067 624T1029 510Q1017 511 970 511T862 512T745 512T657
512Q598 511 535 508T417 499T332 488Q323 460 323 418Q323 369 348 333T419 276T522 256Q578 256 625 271T711 309T782 357T839 401Q844 396 862 374T902 319T944 254T970 195ZM382 657Q408 661 451 665T552 672T673 677Q710 677 745 677T806 677T839 677Q843
692 845 710T847 747Q846 784 830 816T779 868T688 888Q617 888 552 858T442 775T382 657ZM903 1502Q945 1481 978 1449T1033 1388T1064 1346Q1031 1334 985 1313T890 1267T796 1217T716 1173T666 1143Q658 1146 638 1156T594 1179T550 1205T521 1228Q547 1261
598 1304T708 1389T821 1462T903 1502Z" />
<glyph unicode="&#xea;" horiz-adv-x="1111" d="M970 195Q936 163 889 129T778 66T636 19T462 0Q274 0 163 98T51 384Q51 538 102 663T245 878T459 1017T722 1066Q895 1066 987 980T1080 740Q1080 683 1067 624T1029 510Q1017 511 970 511T862 512T745 512T657
512Q598 511 535 508T417 499T332 488Q323 460 323 418Q323 369 348 333T419 276T522 256Q578 256 625 271T711 309T782 357T839 401Q844 396 862 374T902 319T944 254T970 195ZM382 657Q408 661 451 665T552 672T673 677Q710 677 745 677T806 677T839 677Q843
692 845 710T847 747Q846 784 830 816T779 868T688 888Q617 888 552 858T442 775T382 657ZM943 1493Q973 1457 1011 1408T1087 1308T1153 1217Q1111 1185 1058 1160T964 1121Q946 1152 923 1187T877 1255T837 1313T815 1344H841Q829 1336 795 1313T714 1258T622
1194T540 1135Q518 1143 485 1162T419 1204T370 1248Q424 1283 483 1321T599 1393T700 1453T768 1492Q783 1492 817 1493T888 1494T943 1493Z" />
<glyph unicode="&#xeb;" horiz-adv-x="1111" d="M970 195Q936 163 889 129T778 66T636 19T462 0Q274 0 163 98T51 384Q51 538 102 663T245 878T459 1017T722 1066Q895 1066 987 980T1080 740Q1080 683 1067 624T1029 510Q1017 511 970 511T862 512T745 512T657
512Q598 511 535 508T417 499T332 488Q323 460 323 418Q323 369 348 333T419 276T522 256Q578 256 625 271T711 309T782 357T839 401Q844 396 862 374T902 319T944 254T970 195ZM382 657Q408 661 451 665T552 672T673 677Q710 677 745 677T806 677T839 677Q843
692 845 710T847 747Q846 784 830 816T779 868T688 888Q617 888 552 858T442 775T382 657ZM584 1187Q527 1187 482 1222T436 1315Q436 1377 479 1419T583 1461Q648 1461 690 1419T732 1316Q732 1260 688 1224T584 1187ZM995 1197Q936 1197 892 1236T848 1335Q848
1393 888 1431T984 1470Q1048 1470 1094 1431T1140 1331Q1140 1291 1119 1261T1065 1214T995 1197Z" />
<glyph unicode="&#xec;" horiz-adv-x="581" d="M249 -3Q213 -3 166 -1T66 5T-35 14Q-24 36 -1 95T52 238T115 417T181 605T240 778T283 910Q316 919 363 922T456 927T533 928Q527 894 509 822T463 654T405 458T344 263T289 99T249 -3ZM212 1403Q234 1400 285 1382T401
1332T527 1264T631 1187Q618 1164 595 1137T551 1089T521 1063Q488 1082 431 1105T308 1152T178 1195T66 1227Q74 1239 95 1270T147 1337T212 1403Z" />
<glyph unicode="&#xed;" horiz-adv-x="581" d="M249 -3Q213 -3 166 -1T66 5T-35 14Q-24 36 -1 95T52 238T115 417T181 605T240 778T283 910Q316 919 363 922T456 927T533 928Q527 894 509 822T463 654T405 458T344 263T289 99T249 -3ZM856 1676Q898 1655 931 1623T986
1562T1017 1520Q984 1508 938 1487T843 1441T749 1391T669 1347T619 1317Q611 1320 591 1330T547 1353T503 1379T474 1402Q500 1435 551 1478T661 1563T774 1636T856 1676Z" />
<glyph unicode="&#xee;" horiz-adv-x="581" d="M249 -3Q213 -3 166 -1T66 5T-35 14Q-24 36 -1 95T52 238T115 417T181 605T240 778T283 910Q316 919 363 922T456 927T533 928Q527 894 509 822T463 654T405 458T344 263T289 99T249 -3ZM641 1411Q671 1375 709 1326T785
1226T851 1135Q809 1103 756 1078T662 1039Q644 1070 621 1105T575 1173T535 1231T513 1262H539Q527 1254 493 1231T412 1176T320 1112T238 1053Q216 1061 183 1080T117 1122T68 1166Q122 1201 181 1239T297 1311T398 1371T466 1410Q481 1410 515 1411T586 1412T641
1411Z" />
<glyph unicode="&#xef;" horiz-adv-x="581" d="M249 -3Q213 -3 166 -1T66 5T-35 14Q-24 36 -1 95T52 238T115 417T181 605T240 778T283 910Q316 919 363 922T456 927T533 928Q527 894 509 822T463 654T405 458T344 263T289 99T249 -3ZM281 1105Q224 1105 179 1140T133
1233Q133 1295 176 1337T280 1379Q345 1379 387 1337T429 1234Q429 1178 385 1142T281 1105ZM692 1115Q633 1115 589 1154T545 1253Q545 1311 585 1349T681 1388Q745 1388 791 1349T837 1249Q837 1209 816 1179T762 1132T692 1115Z" />
<glyph unicode="&#xf0;" horiz-adv-x="1200" d="M467 -17Q283 -17 177 62T70 305Q70 428 119 526T254 695T451 804T686 842Q740 842 783 826T839 790Q831 832 799 872T727 942T654 986Q625 955 585 919T510 855Q471 877 424 901T351 939Q362 948 377 962T410 993T442
1026T466 1052Q441 1063 405 1074T332 1096T266 1114L422 1298Q442 1294 472 1287T532 1270T588 1253T625 1240Q641 1261 659 1287T695 1342T726 1395L915 1324Q901 1299 882 1270T843 1213T805 1162Q954 1089 1027 982T1101 710Q1101 560 1056 428T928 196T727
40T467 -17ZM505 206Q566 206 622 228T723 290T794 385T821 501Q821 567 778 604T655 642Q566 642 490 607T368 509T321 360Q321 281 376 244T505 206Z" />
<glyph unicode="&#xf1;" horiz-adv-x="1330" d="M280 -13Q252 -14 214 -14T137 -13Q104 -11 62 -9T2 -6Q34 78 68 181T141 412T224 693T317 1034Q352 1039 399 1041T492 1044Q525 1044 555 1043T607 1037Q605 1028 598 999T581 935T564 879Q603 917 676 959T837
1031T1010 1060Q1162 1060 1226 999T1290 818Q1290 748 1269 649T1215 436T1142 209T1064 -3Q1045 -5 1007 -6T926 -8Q881 -8 842 -7T782 -3Q813 66 851 159T924 351T981 535T1003 678Q1003 739 972 772T866 806Q797 806 729 783T602 726T502 661Q457 499 414 367T337
139T280 -13ZM406 1295Q421 1340 460 1383T554 1454T675 1482Q733 1482 774 1455T848 1396Q878 1368 908 1347T977 1325Q1022 1325 1051 1360T1094 1438L1236 1354Q1231 1330 1213 1296T1163 1228T1089 1171T989 1148Q933 1148 889 1178T808 1242Q777 1270 748
1290T688 1310Q649 1310 620 1289T571 1239T541 1185L406 1295Z" />
<glyph unicode="&#xf2;" horiz-adv-x="1171" d="M481 -25Q266 -25 161 79T55 362Q55 514 102 642T236 865T445 1012T716 1065Q921 1065 1013 957T1105 664Q1105 515 1063 389T939 170T743 26T481 -25ZM517 226Q597 226 660 260T766 352T832 485T855 640Q855 735
812 797T670 859Q591 859 528 824T421 727T354 591T330 436Q330 345 376 286T517 226ZM498 1485Q520 1482 571 1464T687 1414T813 1346T917 1269Q904 1246 881 1219T837 1171T807 1145Q774 1164 717 1187T594 1234T464 1277T352 1309Q360 1321 381 1352T433 1419T498
1485Z" />
<glyph unicode="&#xf3;" horiz-adv-x="1171" d="M481 -25Q266 -25 161 79T55 362Q55 514 102 642T236 865T445 1012T716 1065Q921 1065 1013 957T1105 664Q1105 515 1063 389T939 170T743 26T481 -25ZM517 226Q597 226 660 260T766 352T832 485T855 640Q855 735
812 797T670 859Q591 859 528 824T421 727T354 591T330 436Q330 345 376 286T517 226ZM887 1502Q929 1481 962 1449T1017 1388T1048 1346Q1015 1334 969 1313T874 1267T780 1217T700 1173T650 1143Q642 1146 622 1156T578 1179T534 1205T505 1228Q531 1261 582
1304T692 1389T805 1462T887 1502Z" />
<glyph unicode="&#xf4;" horiz-adv-x="1171" d="M481 -25Q266 -25 161 79T55 362Q55 514 102 642T236 865T445 1012T716 1065Q921 1065 1013 957T1105 664Q1105 515 1063 389T939 170T743 26T481 -25ZM517 226Q597 226 660 260T766 352T832 485T855 640Q855 735
812 797T670 859Q591 859 528 824T421 727T354 591T330 436Q330 345 376 286T517 226ZM927 1493Q957 1457 995 1408T1071 1308T1137 1217Q1095 1185 1042 1160T948 1121Q930 1152 907 1187T861 1255T821 1313T799 1344H825Q813 1336 779 1313T698 1258T606 1194T524
1135Q502 1143 469 1162T403 1204T354 1248Q408 1283 467 1321T583 1393T684 1453T752 1492Q767 1492 801 1493T872 1494T927 1493Z" />
<glyph unicode="&#xf5;" horiz-adv-x="1171" d="M481 -25Q266 -25 161 79T55 362Q55 514 102 642T236 865T445 1012T716 1065Q921 1065 1013 957T1105 664Q1105 515 1063 389T939 170T743 26T481 -25ZM517 226Q597 226 660 260T766 352T832 485T855 640Q855 735
812 797T670 859Q591 859 528 824T421 727T354 591T330 436Q330 345 376 286T517 226ZM316 1295Q331 1340 370 1383T464 1454T585 1482Q643 1482 684 1455T758 1396Q788 1368 818 1347T887 1325Q932 1325 961 1360T1004 1438L1146 1354Q1141 1330 1123 1296T1073
1228T999 1171T899 1148Q843 1148 799 1178T718 1242Q687 1270 658 1290T598 1310Q559 1310 530 1289T481 1239T451 1185L316 1295Z" />
<glyph unicode="&#xf6;" horiz-adv-x="1171" d="M481 -25Q266 -25 161 79T55 362Q55 514 102 642T236 865T445 1012T716 1065Q921 1065 1013 957T1105 664Q1105 515 1063 389T939 170T743 26T481 -25ZM517 226Q597 226 660 260T766 352T832 485T855 640Q855 735
812 797T670 859Q591 859 528 824T421 727T354 591T330 436Q330 345 376 286T517 226ZM568 1187Q511 1187 466 1222T420 1315Q420 1377 463 1419T567 1461Q632 1461 674 1419T716 1316Q716 1260 672 1224T568 1187ZM979 1197Q920 1197 876 1236T832 1335Q832 1393
872 1431T968 1470Q1032 1470 1078 1431T1124 1331Q1124 1291 1103 1261T1049 1214T979 1197Z" />
<glyph unicode="&#xf7;" horiz-adv-x="916" d="M564 828Q494 828 445 871T395 979Q395 1040 427 1088T512 1165T626 1194Q700 1194 739 1149T779 1031Q779 939 716 884T564 828ZM373 94Q297 94 257 144T216 255Q216 309 248 353T331 425T441 452Q514 452 553 408T593
295Q593 200 528 147T373 94ZM91 554Q100 584 110 617T131 678T147 721Q202 725 278 728T439 732T601 733Q692 733 772 730T904 721Q901 694 894 646T876 560Q840 560 761 560T583 559T385 557T207 556T91 554Z" />
<glyph unicode="&#xf8;" horiz-adv-x="1174" d="M1164 1066Q1069 930 953 792T714 522T471 271T250 59T76 -97Q56 -87 28 -63T-15 -18Q55 50 144 137T332 324T534 531T732 743T911 948T1053 1131Q1084 1117 1116 1099T1164 1066ZM481 -25Q266 -25 161 79T55 362Q55
514 102 642T236 865T445 1012T716 1065Q921 1065 1013 957T1105 664Q1105 515 1063 389T939 170T743 26T481 -25ZM517 226Q597 226 660 260T766 352T832 485T855 640Q855 735 812 797T670 859Q591 859 528 824T421 727T354 591T330 436Q330 345 376 286T517 226Z"
/>
<glyph unicode="&#xf9;" horiz-adv-x="1178" d="M891 985Q915 993 957 997T1038 1001Q1071 1001 1110 999T1172 992Q1163 905 1148 817T1109 642Q1071 499 1015 373T879 151T694 0T450 -55Q317 -55 237 -8T122 125T87 326Q87 426 109 542T169 782T249 1029Q273
1030 310 1031T378 1032Q422 1031 464 1026T531 1013Q492 909 456 794T397 573T374 384Q374 294 407 248T508 201Q580 201 640 257T748 413T831 642Q856 730 871 816T891 985ZM506 1485Q528 1482 579 1464T695 1414T821 1346T925 1269Q912 1246 889 1219T845 1171T815
1145Q782 1164 725 1187T602 1234T472 1277T360 1309Q368 1321 389 1352T441 1419T506 1485Z" />
<glyph unicode="&#xfa;" horiz-adv-x="1178" d="M891 985Q915 993 957 997T1038 1001Q1071 1001 1110 999T1172 992Q1163 905 1148 817T1109 642Q1071 499 1015 373T879 151T694 0T450 -55Q317 -55 237 -8T122 125T87 326Q87 426 109 542T169 782T249 1029Q273
1030 310 1031T378 1032Q422 1031 464 1026T531 1013Q492 909 456 794T397 573T374 384Q374 294 407 248T508 201Q580 201 640 257T748 413T831 642Q856 730 871 816T891 985ZM894 1502Q936 1481 969 1449T1024 1388T1055 1346Q1022 1334 976 1313T881 1267T787
1217T707 1173T657 1143Q649 1146 629 1156T585 1179T541 1205T512 1228Q538 1261 589 1304T699 1389T812 1462T894 1502Z" />
<glyph unicode="&#xfb;" horiz-adv-x="1178" d="M891 985Q915 993 957 997T1038 1001Q1071 1001 1110 999T1172 992Q1163 905 1148 817T1109 642Q1071 499 1015 373T879 151T694 0T450 -55Q317 -55 237 -8T122 125T87 326Q87 426 109 542T169 782T249 1029Q273
1030 310 1031T378 1032Q422 1031 464 1026T531 1013Q492 909 456 794T397 573T374 384Q374 294 407 248T508 201Q580 201 640 257T748 413T831 642Q856 730 871 816T891 985ZM934 1493Q964 1457 1002 1408T1078 1308T1144 1217Q1102 1185 1049 1160T955 1121Q937
1152 914 1187T868 1255T828 1313T806 1344H832Q820 1336 786 1313T705 1258T613 1194T531 1135Q509 1143 476 1162T410 1204T361 1248Q415 1283 474 1321T590 1393T691 1453T759 1492Q774 1492 808 1493T879 1494T934 1493Z" />
<glyph unicode="&#xfc;" horiz-adv-x="1178" d="M891 985Q915 993 957 997T1038 1001Q1071 1001 1110 999T1172 992Q1163 905 1148 817T1109 642Q1071 499 1015 373T879 151T694 0T450 -55Q317 -55 237 -8T122 125T87 326Q87 426 109 542T169 782T249 1029Q273
1030 310 1031T378 1032Q422 1031 464 1026T531 1013Q492 909 456 794T397 573T374 384Q374 294 407 248T508 201Q580 201 640 257T748 413T831 642Q856 730 871 816T891 985ZM575 1187Q518 1187 473 1222T427 1315Q427 1377 470 1419T574 1461Q639 1461 681 1419T723
1316Q723 1260 679 1224T575 1187ZM986 1197Q927 1197 883 1236T839 1335Q839 1393 879 1431T975 1470Q1039 1470 1085 1431T1131 1331Q1131 1291 1110 1261T1056 1214T986 1197Z" />
<glyph unicode="&#xfd;" horiz-adv-x="1079" d="M202 -527Q103 -527 16 -506T-139 -453T-246 -388Q-233 -367 -210 -336T-159 -270T-106 -207T-65 -162Q-39 -183 8 -211T118 -260T247 -281Q326 -281 389 -240T503 -131T591 22T652 192Q628 151 584 116T479 60T345
39Q198 39 137 119T76 335Q76 466 120 631T220 972Q237 976 268 977T335 979Q383 979 428 977T488 970Q466 917 442 847T396 701T360 555T346 433Q346 370 369 331T449 291Q520 291 579 338T688 474T773 682Q787 722 800 767T825 852T843 920T853 957Q874 959 895
960T938 961Q1020 961 1092 944Q1070 843 1033 706Q1008 613 976 505T910 282T839 56Q784 -117 698 -248T490 -453T202 -527ZM851 1502Q893 1481 926 1449T981 1388T1012 1346Q979 1334 933 1313T838 1267T744 1217T664 1173T614 1143Q606 1146 586 1156T542 1179T498
1205T469 1228Q495 1261 546 1304T656 1389T769 1462T851 1502Z" />
<glyph unicode="&#xfe;" horiz-adv-x="1200" d="M169 -395L-106 -383Q-98 -348 -77 -255T-23 -28T46 262T123 579T199 888T266 1155T315 1345L590 1389Q587 1365 576 1311T547 1184T511 1033T474 885Q505 905 542 927T623 968T715 1000T815 1012Q922 1012 993
964T1100 832T1136 644Q1136 519 1092 408T971 211T790 76T567 27Q514 27 459 36T359 60T295 96Q292 77 281 32T254 -72T223 -192T193 -307T169 -395ZM576 287Q641 287 698 314T798 386T866 490T890 612Q890 683 847 722T720 761Q676 761 630 749T543 717T470 676T421
640Q419 627 413 598T398 533T381 462T365 398T354 358Q384 333 438 310T576 287Z" />
<glyph unicode="&#xff;" horiz-adv-x="1079" d="M202 -527Q103 -527 16 -506T-139 -453T-246 -388Q-233 -367 -210 -336T-159 -270T-106 -207T-65 -162Q-39 -183 8 -211T118 -260T247 -281Q326 -281 389 -240T503 -131T591 22T652 192Q628 151 584 116T479 60T345
39Q198 39 137 119T76 335Q76 466 120 631T220 972Q237 976 268 977T335 979Q383 979 428 977T488 970Q466 917 442 847T396 701T360 555T346 433Q346 370 369 331T449 291Q520 291 579 338T688 474T773 682Q787 722 800 767T825 852T843 920T853 957Q874 959 895
960T938 961Q1020 961 1092 944Q1070 843 1033 706Q1008 613 976 505T910 282T839 56Q784 -117 698 -248T490 -453T202 -527ZM533 1187Q476 1187 431 1222T385 1315Q385 1377 428 1419T532 1461Q597 1461 639 1419T681 1316Q681 1260 637 1224T533 1187ZM944 1197Q885
1197 841 1236T797 1335Q797 1393 837 1431T933 1470Q997 1470 1043 1431T1089 1331Q1089 1291 1068 1261T1014 1214T944 1197Z" />
<glyph unicode="&#x2013;" horiz-adv-x="1359" d="M1376 806Q1372 775 1366 732T1352 647T1335 573Q1303 573 1228 573T1050 571T830 569T595 566T373 563T192 560T81 556L163 804Q231 808 302 810T446 814T589 818T726 820T854 821Q1037 821 1177 816T1376 806Z" />
<glyph unicode="&#x2014;" horiz-adv-x="1667" d="M1686 806Q1681 755 1670 689T1646 575Q1611 575 1520 575T1302 573T1028 569T733 565T454 562T226 559T86 557Q98 600 112 647T142 737T168 804Q222 807 292 809T443 814T606 817T770 819T921 821T1046 822T1133
822Q1255 822 1360 820T1549 813T1686 806Z" />
<glyph unicode="&#x2018;" horiz-adv-x="533" d="M528 1406Q552 1389 571 1358T593 1296Q569 1287 532 1265T460 1209T405 1132Q419 1155 451 1172T517 1190Q564 1190 590 1163T616 1086Q616 1027 585 987T503 926T397 905Q327 905 279 941T230 1048Q230 1120
269 1189T375 1316T528 1406Z" />
<glyph unicode="&#x2019;" horiz-adv-x="515" d="M351 929Q330 945 301 975T261 1033Q283 1045 319 1068T389 1119T430 1170Q422 1164 406 1157T364 1149Q307 1149 285 1182T263 1260Q263 1318 295 1359T376 1422T478 1444Q555 1444 598 1406T642 1303Q642 1223
600 1151T491 1021T351 929Z" />
<glyph unicode="&#x201a;" horiz-adv-x="515" d="M20 -305Q-1 -289 -30 -259T-70 -201Q-48 -189 -12 -166T58 -115T99 -64Q91 -70 75 -77T33 -85Q-24 -85 -46 -52T-68 26Q-68 84 -36 125T45 188T147 210Q224 210 267 172T311 69Q311 -11 269 -83T160 -213T20 -305Z" />
<glyph unicode="&#x201c;" horiz-adv-x="1007" d="M868 895Q788 895 737 936T686 1043Q686 1118 730 1196T846 1339T995 1444Q1014 1438 1037 1424T1079 1390T1100 1350Q1075 1339 1033 1316T954 1262T905 1193Q904 1187 904 1181T902 1170Q922 1193 949 1206T1006
1219Q1056 1219 1080 1191T1104 1118Q1104 1016 1039 956T868 895ZM389 899Q303 899 253 946T202 1066Q202 1135 242 1204T343 1335T467 1440Q505 1437 551 1418T620 1374Q579 1354 531 1319T447 1247T404 1179Q403 1173 402 1168T400 1157Q422 1181 452 1200T524
1220Q576 1220 602 1188T628 1105Q628 1039 596 993T510 923T389 899Z" />
<glyph unicode="&#x201d;" horiz-adv-x="981" d="M326 900Q308 923 291 959T271 1033Q305 1048 343 1073T415 1125T465 1173Q450 1156 425 1147T369 1137Q313 1137 285 1169T257 1250Q257 1314 290 1361T376 1433T491 1459Q576 1459 620 1414T664 1295Q664 1210
617 1137T492 1004T326 900ZM835 920Q796 947 764 973T712 1032Q742 1046 779 1069T849 1120T896 1172Q888 1163 873 1156T837 1149Q778 1149 750 1176T721 1249Q721 1315 755 1362T846 1434T968 1459Q1042 1459 1084 1414T1126 1305Q1126 1230 1082 1157T970 1024T835
920Z" />
<glyph unicode="&#x201e;" horiz-adv-x="981" d="M-8 -361Q-26 -338 -43 -302T-63 -228Q-29 -213 9 -188T81 -136T131 -88Q116 -105 91 -114T35 -124Q-21 -124 -49 -92T-77 -11Q-77 53 -44 100T42 172T157 198Q242 198 286 153T330 34Q330 -51 283 -124T158 -257T-8
-361ZM501 -341Q462 -314 430 -288T378 -229Q408 -215 445 -192T515 -141T562 -89Q554 -98 539 -105T503 -112Q444 -112 416 -85T387 -12Q387 54 421 101T512 173T634 198Q708 198 750 153T792 44Q792 -31 748 -104T636 -237T501 -341Z" />
<glyph unicode="&#x2022;" horiz-adv-x="636" d="M330 524Q242 524 205 567T168 671Q168 775 234 842T406 909Q484 909 525 862T567 744Q567 679 533 630T444 552T330 524Z" />
<glyph unicode="&#x2039;" horiz-adv-x="850" d="M750 1154Q769 1137 790 1107T830 1047T854 995L367 561Q414 511 467 458T570 359T654 281T698 242Q691 227 677 200T644 141T608 81T577 34Q450 145 328 273T90 557Q248 708 411 857T750 1154Z" />
<glyph unicode="&#x203a;" horiz-adv-x="834" d="M277 982Q305 1004 343 1030T421 1080T489 1117Q513 1101 557 1055T654 945T754 810T836 674Q663 512 492 386T142 154Q134 165 121 187T92 237T65 290T48 332Q54 337 88 362T176 425T294 510T427 603T558 694Q518
737 466 791T363 898T277 982Z" />
</font>
</defs>
</svg>
