<?xml version="1.0" standalone="no"?>
<!DOCTYPE svg PUBLIC "-//W3C//DTD SVG 1.1//EN" "http://www.w3.org/Graphics/SVG/1.1/DTD/svg11.dtd">
<svg xmlns="http://www.w3.org/2000/svg">
<defs >
<font id="Grandstander" horiz-adv-x="1125" ><font-face
    font-family="Grandstander Thin ExtraBold"
    units-per-em="2000"
    panose-1="0 0 0 0 0 0 0 0 0 0"
    ascent="1465"
    descent="-530"
    alphabetic="0" />
<glyph unicode=" " horiz-adv-x="615" />
<glyph unicode="!" horiz-adv-x="708" d="M466 453Q433 453 375 455T259 460T162 468Q155 563 149 663T139 865T131 1071T127 1276T127 1473L543 1456Q539 1419 531 1329T513 1121T493 876T476 639T466 453ZM327 -26Q230 -26 164 34T97 188Q97 280 163 333T324
386Q417 386 483 331T549 192Q549 91 486 33T327 -26Z" />
<glyph unicode="&quot;" horiz-adv-x="764" d="M291 1015Q243 1015 191 1020T96 1035Q83 1085 73 1143T56 1258T45 1363T41 1441Q89 1449 130 1453T219 1458Q247 1458 273 1457T324 1452Q327 1441 328 1425T330 1388Q330 1341 325 1273T312 1135T291 1015ZM413
1022Q409 1049 406 1096T399 1197T394 1302T392 1386Q392 1400 392 1413T392 1437T393 1456Q472 1456 546 1453T681 1441Q682 1437 682 1424T683 1395Q683 1353 673 1285T648 1149T620 1039Q543 1030 491 1026T413 1022Z" />
<glyph unicode="#" horiz-adv-x="1511" d="M44 804Q44 830 45 873T49 963T54 1044T57 1087Q138 1092 255 1098T502 1111T750 1125Q961 1137 1159 1146T1511 1159Q1511 1142 1509 1101T1504 1010T1497 920T1490 862Q1361 855 1208 848T898 833Q740 828 585 822T291
811T44 804ZM1400 361Q1256 370 1097 378T777 394Q667 399 559 401T348 403Q257 403 173 401T16 393Q16 407 18 445T23 526T30 605T36 652Q137 657 246 662T470 670Q572 674 677 675T887 676Q1027 675 1166 671T1438 657Q1438 640 1434 598T1423 508T1410 418T1400
361ZM319 18Q319 200 323 370T336 694T354 986T376 1245T400 1466Q417 1470 469 1471T585 1474T703 1475Q696 1382 688 1253T673 972T659 659T648 340T644 42Q628 39 585 35T488 27T388 21T319 18ZM874 55Q863 230 857 408T851 764Q851 943 857 1119T878 1464Q889
1466 926 1469T1010 1475T1097 1480T1152 1482Q1147 1400 1145 1307T1143 1114Q1143 951 1149 777T1168 430T1197 100Q1181 96 1136 89T1037 74T937 61T874 55Z" />
<glyph unicode="$" horiz-adv-x="1027" d="M671 -82L341 -89Q341 -77 344 -40T351 42T360 124T367 175L669 158Q669 136 669 93T670 1T671 -82ZM381 1201Q382 1223 384 1266T388 1350T392 1409L652 1421Q653 1399 653 1358T654 1274T654 1203L381 1201ZM535 53Q409
53 310 82T146 148T57 209Q62 229 81 270T126 359T179 450T226 512Q276 473 331 435T441 373T542 349Q573 349 598 356T637 379T651 419Q651 447 618 477T534 536T430 588Q353 621 286 666T176 779T133 945Q133 1047 193 1116T351 1221T559 1257Q658 1257 767 1229T948
1143Q942 1123 920 1080T867 988T800 896Q762 932 702 965T579 998Q551 998 524 993T478 973T459 934Q459 909 479 889T541 848T640 803Q693 781 752 749T864 672T950 567T983 428Q983 302 921 219T757 94T535 53Z" />
<glyph unicode="%" horiz-adv-x="1385" d="M185 -43Q165 -29 127 -3T51 52T-8 98Q67 172 159 272T351 488T554 730T754 980T937 1224T1088 1446Q1126 1429 1164 1397T1233 1331T1282 1271Q1217 1173 1141 1070T981 860T811 650T638 448T471 260T317 94T185 -43ZM1029
288Q1061 288 1094 312T1127 382Q1127 430 1100 450T1038 471Q1001 471 970 450T938 387Q938 343 961 316T1029 288ZM1007 92Q936 92 874 118T774 199T735 343Q735 430 771 501T876 614T1038 656Q1166 656 1244 582T1322 381Q1322 287 1285 223T1177 125T1007 92ZM327
738Q240 738 170 774T59 874T18 1021Q18 1116 60 1188T175 1300T343 1340Q479 1340 560 1261T642 1041Q642 952 598 884T481 777T327 738ZM335 960Q380 960 405 981T431 1055Q431 1094 409 1120T340 1146Q289 1146 265 1119T240 1044Q240 999 270 980T335 960Z"
/>
<glyph unicode="&amp;" horiz-adv-x="1395" d="M552 -91Q398 -91 281 -42T99 105T34 353Q34 449 63 524T140 658T243 761T350 838Q329 858 294 899T232 997T205 1125Q205 1232 259 1298T400 1395T589 1426Q684 1426 762 1390T888 1288T935 1133Q935 1060 914 1006T852
904T750 805Q774 779 804 746T869 673T942 591T1020 502Q1032 514 1047 534T1079 578T1107 622T1125 653Q1154 640 1193 612T1271 551T1336 490Q1327 467 1303 434T1252 368T1203 312Q1230 285 1257 257T1312 200T1364 144Q1340 108 1307 70T1238 -2T1167 -56Q1148
-33 1124 -2T1076 60T1033 116Q1009 86 966 50T862 -18T723 -70T552 -91ZM563 169Q608 169 651 182T734 217T803 262T852 309Q816 346 774 392T688 486T603 582T529 669Q491 640 459 607T403 537T367 455T354 359Q354 297 380 255T454 191T563 169ZM566 965Q600
989 631 1037T662 1134Q662 1173 638 1193T576 1213Q545 1213 518 1194T491 1130Q491 1082 516 1036T566 965Z" />
<glyph unicode="&apos;" horiz-adv-x="462" d="M375 1380Q375 1326 371 1254T357 1109T335 982Q279 977 240 977Q216 977 191 979T137 983Q128 1015 116 1075T92 1207T72 1341T64 1441Q113 1450 162 1454T259 1459Q321 1459 371 1452Q373 1441 374 1422T375 1380Z" />
<glyph unicode="(" horiz-adv-x="677" d="M333 -538Q237 -424 168 -251T61 130T23 552Q23 751 55 942T144 1297T274 1579Q373 1565 465 1537T617 1479Q556 1350 502 1195T413 870T379 532Q379 359 408 192T493 -119T625 -361Q604 -378 566 -403T483 -454T399 -504T333
-538Z" />
<glyph unicode=")" horiz-adv-x="651" d="M254 629Q254 772 226 929T143 1228T11 1470Q79 1508 168 1537T334 1583Q404 1498 457 1380T546 1125T600 849T619 579Q619 446 597 294T532 -10T433 -290T306 -504Q279 -495 239 -475T157 -430T79 -381T26 -338Q127 -202
190 41T254 629Z" />
<glyph unicode="*" horiz-adv-x="963" d="M784 930Q744 952 682 991T557 1074T454 1150Q417 1164 360 1186T239 1235T118 1288T22 1333Q28 1348 44 1378T81 1441T120 1503T149 1545Q181 1529 235 1499T350 1432T467 1362T557 1304Q599 1290 666 1263T802 1206T920
1148Q914 1134 896 1103T855 1037T813 972T784 930ZM486 841Q444 841 406 843T352 849Q353 898 358 967T370 1110T384 1250Q378 1306 373 1370T362 1495T354 1596Q370 1599 406 1601T483 1603Q523 1603 559 1601T611 1596Q611 1508 605 1410T590 1250Q595 1200
601 1123T612 970T619 849Q604 846 567 844T486 841ZM177 901Q169 913 150 943T109 1011T68 1080T45 1126Q81 1146 135 1170T250 1220T366 1268T458 1305Q489 1329 535 1361T632 1429T729 1493T808 1542Q818 1530 836 1501T875 1437T913 1372T937 1326Q902 1306
847 1276T729 1214T610 1154T516 1109Q442 1061 349 1003T177 901Z" />
<glyph unicode="+" horiz-adv-x="1050" d="M990 565Q943 556 863 552T682 547Q573 547 453 552T225 565T44 584Q41 601 38 643T32 734T27 824T25 879Q64 874 134 871T294 865T479 863Q587 863 690 866T877 875T1010 889Q1010 829 1007 760T998 635T990 565ZM679
1182Q691 1140 699 1063T713 888T719 686Q719 575 712 462T687 261Q671 261 628 262T534 265T440 269T383 273Q388 314 390 363T392 464Q392 559 386 662T371 864T352 1042T333 1168Q344 1169 380 1170T462 1174T555 1178T636 1181T679 1182Z" />
<glyph unicode="," horiz-adv-x="667" d="M340 -327Q328 -323 299 -293T239 -224T189 -153Q213 -141 245 -115T301 -58T326 -10Q326 -4 323 -1Q309 -12 287 -20T225 -28Q152 -28 109 29T66 157Q66 228 105 273T204 338T323 359Q386 359 445 336T543 258T582 114Q582
-31 516 -142T340 -327Z" />
<glyph unicode="-" horiz-adv-x="924" d="M883 830Q895 760 897 676T899 529Q866 529 786 527T602 523T386 516T180 508T26 500Q26 532 28 578T34 674T42 762T50 818Q157 831 279 839T506 847Q622 847 715 844T883 830Z" />
<glyph unicode="." horiz-adv-x="632" d="M271 386Q366 386 425 320T484 160Q484 74 424 18T282 -38Q220 -38 166 -11T79 64T45 176Q45 235 76 282T159 357T271 386Z" />
<glyph unicode="/" horiz-adv-x="969" d="M720 1537Q832 1515 892 1487T984 1422Q909 1173 818 939T628 497T430 116T240 -185Q166 -168 94 -127T-21 -42Q52 75 135 235T303 574T466 931T610 1267T720 1537Z" />
<glyph unicode="0" horiz-adv-x="1087" d="M537 -32Q413 -32 325 28T182 192T101 430T75 710Q75 881 119 1024T264 1252T537 1338Q660 1338 745 1286T883 1140T959 919T983 644Q983 508 957 386T875 170T735 22T537 -32ZM537 307Q571 307 597 333T641 410T668
533T677 696Q677 757 670 817T646 928T602 1007T536 1037Q498 1037 471 1007T428 928T404 820T396 704Q396 544 414 458T464 340T537 307Z" />
<glyph unicode="1" horiz-adv-x="809" d="M540 290Q572 290 603 288T660 283T704 276Q704 261 703 225T700 146T694 66T687 9Q660 9 597 8T454 4T295 0T156 -6T73 -12Q73 18 73 69T74 171T77 251Q93 255 116 259T164 266T211 273T246 277Q246 302 247 351T250
463T254 596T258 729T263 844T268 923Q257 914 240 896T206 858T175 822T155 797Q122 834 77 904T2 1034Q17 1051 51 1084T129 1160T215 1242T292 1312Q322 1312 368 1310T461 1305T535 1297Q538 1277 541 1229T546 1105T551 931T553 714Q553 616 550 509T540 290Z"
/>
<glyph unicode="2" horiz-adv-x="995" d="M874 376Q883 350 889 300T898 192T902 88T903 27L102 -17Q100 -9 93 26T76 111T59 211T50 300Q83 330 126 372T223 473T340 610Q391 671 431 725T500 827T544 914T560 984Q560 1013 543 1025T502 1037Q461 1037 418 1011T338
942T278 852Q242 870 192 902T95 970T25 1029Q73 1124 154 1199T336 1319T542 1364Q699 1364 789 1274T879 1027Q879 928 837 814T702 583Q656 525 622 484T563 414T521 368T490 337Q515 340 549 344T624 352T708 361T793 369T874 376Z" />
<glyph unicode="3" horiz-adv-x="1032" d="M477 -3Q368 -3 282 24T136 106T44 243Q79 268 129 294T233 343T327 381Q348 331 383 298T485 265Q546 265 583 293T620 380Q620 442 579 482T461 540T278 559Q269 587 260 653T251 795Q320 795 387 817T498 879T543
968Q543 1005 522 1029T456 1053Q414 1053 369 1034T288 988T235 942Q185 982 139 1024T62 1098T26 1135Q48 1164 107 1211T264 1297T494 1335Q593 1335 679 1297T817 1185T870 1008Q870 950 841 894T763 796T652 734Q730 717 794 673T897 560T936 398Q936 272
873 182T705 45T477 -3Z" />
<glyph unicode="4" horiz-adv-x="1104" d="M1001 307Q972 307 943 307T885 307T825 304Q825 204 826 133T830 19Q802 13 757 8T662 -1T571 -8T508 -10Q508 26 513 104T527 286Q479 283 416 278T291 267T180 256T111 248Q96 318 84 385T62 527Q92 579 136 652T232
809T334 976T430 1132T507 1255T552 1321Q569 1324 606 1327T689 1334T778 1340T851 1342Q849 1313 846 1254T840 1115T834 944T830 760T828 583Q855 583 888 583T948 583T983 582Q985 575 988 544T993 471T998 384T1001 307ZM604 978Q586 948 563 909T514 828T463
743T416 662T379 596T356 551Q366 553 390 555T445 561T508 567T564 570Q565 586 567 624T574 711T584 813T595 908T604 978Z" />
<glyph unicode="5" horiz-adv-x="1137" d="M12 238Q37 276 85 321T182 402T252 452Q276 409 316 373T409 315T524 293Q592 293 641 320T716 398T742 519Q742 563 728 604T680 672T591 699Q553 699 524 688T474 658T442 618T428 577Q400 574 357 571T272 567Q235
567 189 568T123 570Q123 745 113 905T85 1207Q131 1218 208 1232T380 1261T570 1290T750 1316T891 1331Q895 1322 908 1278T933 1174T946 1053Q892 1052 823 1047T681 1034T546 1019T445 1004Q445 988 445 968T446 927T447 886T448 849Q457 866 477 882T525 913T589
936T662 944Q780 944 865 882T997 719T1044 499Q1044 349 976 237T788 62T520 0Q431 0 335 24T154 100T12 238Z" />
<glyph unicode="6" horiz-adv-x="1154" d="M866 1142Q804 1126 735 1087T599 993T482 872T401 734Q434 769 484 792T591 828T704 840Q811 840 888 798T1008 674T1050 470Q1050 325 982 218T801 51T550 -9Q398 -9 292 57T131 243T76 519Q76 674 122 812T253 1065T456
1263T716 1392Q740 1373 771 1331T830 1239T866 1142ZM449 507Q434 490 426 466T418 420Q418 358 460 322T572 286Q624 286 663 309T725 369T747 449Q747 510 711 543T619 576Q567 576 522 558T449 507Z" />
<glyph unicode="7" horiz-adv-x="1012" d="M437 -45Q398 -34 338 -15T218 23T114 57T63 75Q99 172 141 271T233 470T337 666T453 853T578 1023Q506 1011 432 997T291 967T176 940T108 922Q103 942 97 986T86 1082T78 1182T75 1257Q179 1281 299 1302T538 1340T758
1367T924 1377Q927 1365 934 1325T949 1237T963 1148T971 1097Q852 902 768 748T623 464T519 211T437 -45Z" />
<glyph unicode="8" horiz-adv-x="1243" d="M613 -11Q452 -11 325 30T124 157T51 377Q51 455 80 518T159 629T275 709Q192 745 142 820T91 997Q91 1126 162 1209T355 1334T623 1375Q746 1375 844 1336T1001 1217T1059 1018Q1059 906 1013 817T871 692Q932 683 985
648T1072 547T1106 382Q1106 263 1039 175T861 38T613 -11ZM587 280Q636 280 680 294T753 338T782 416Q782 494 727 519T595 545Q562 545 528 538T464 516T417 474T399 409Q399 375 414 351T457 311T517 288T587 280ZM589 857Q636 857 669 877T719 928T736 994Q736
1058 691 1086T578 1115Q505 1115 464 1073T422 973Q422 934 442 908T500 870T589 857Z" />
<glyph unicode="9" horiz-adv-x="1067" d="M897 27Q837 15 729 8T501 0Q513 21 538 76T593 209T645 375T673 554Q661 537 628 522T549 497T450 487Q323 487 229 537T84 677T33 887Q33 1041 103 1147T287 1309T534 1364Q697 1364 803 1295T962 1102T1014 809Q1014
703 1003 592T974 375T936 180T897 27ZM538 1107Q461 1107 408 1062T354 935Q354 872 390 828T497 784Q556 784 596 807T656 872T677 968Q677 1032 640 1069T538 1107Z" />
<glyph unicode=":" horiz-adv-x="564" d="M262 -10Q171 -10 108 48T45 186Q45 244 73 294T151 375T260 407Q352 407 410 343T469 187Q469 100 408 45T262 -10ZM262 1041Q356 1041 415 975T474 815Q474 729 415 674T273 618Q211 618 157 645T70 720T36 831Q36 890
67 937T150 1013T262 1041Z" />
<glyph unicode=";" horiz-adv-x="593" d="M267 1042Q362 1042 421 976T480 816Q480 730 420 674T279 618Q216 618 162 645T75 721T41 832Q41 891 72 938T155 1013T267 1042ZM306 -325Q293 -321 266 -293T210 -228T163 -161Q186 -151 216 -125T269 -71T292 -25Q292
-19 289 -16Q276 -26 255 -34T196 -43Q127 -43 87 11T47 132Q47 200 84 241T177 302T289 322Q348 322 404 300T496 227T533 91Q533 -44 470 -149T306 -325Z" />
<glyph unicode="&lt;" horiz-adv-x="807" d="M618 1142Q675 1109 716 1044T773 929Q635 829 517 736T261 526L262 612Q292 602 351 580T479 530T605 474T691 424Q690 368 675 288T642 149Q493 214 337 276T17 389L21 650Q99 719 189 797T365 948T518 1073T618 1142Z" />
<glyph unicode="=" horiz-adv-x="1050" d="M84 1090Q127 1099 210 1108T398 1126T613 1142T822 1153T992 1158Q995 1141 999 1094T1008 989T1015 886T1019 825Q964 825 866 825T648 823T411 821T198 820T53 818Q53 840 55 880T61 964T71 1043T84 1090ZM17 664Q126
674 251 681T505 693T750 697Q821 697 884 696T999 691Q1002 674 1006 631T1015 536T1021 442T1024 386Q989 386 916 386T746 386T544 387T339 387T159 388T32 388Q30 401 27 436T22 515T18 600T17 664Z" />
<glyph unicode="&gt;" horiz-adv-x="790" d="M46 955Q71 987 105 1025T177 1096T245 1146Q265 1141 320 1108T449 1026T605 921T757 814L765 501Q668 452 558 399T349 298T181 220T98 185Q85 197 71 230T43 305T22 382T13 431Q21 435 61 460T159 524T284 607T410
694T514 768L481 655Q452 675 396 713T273 797T145 885T46 955Z" />
<glyph unicode="?" horiz-adv-x="1036" d="M675 454Q598 454 538 456T422 461T302 472Q302 607 357 709T508 898Q559 945 591 985T624 1067Q624 1111 592 1135T511 1159Q471 1159 436 1146T372 1108T317 1045T272 954L-10 1119Q16 1232 93 1310T281 1430T516 1472Q647
1472 755 1433T928 1313T993 1111Q993 1021 970 961T910 856T830 773Q791 739 757 691T700 583T675 454ZM512 -10Q423 -10 356 40T288 183Q288 234 318 278T398 349T505 377Q602 377 668 327T735 197Q735 139 704 92T623 18T512 -10Z" />
<glyph unicode="@" horiz-adv-x="1920" d="M834 -41Q663 -41 514 2T251 131T73 343T9 634Q9 832 87 991T304 1263T624 1436T1010 1497Q1253 1497 1437 1404T1725 1139T1829 734Q1829 621 1790 532T1671 392T1475 341Q1384 341 1308 383T1205 495Q1178 446 1123
414T998 367T856 351Q685 351 586 442T487 694Q487 803 538 892T678 1035T877 1089Q947 1089 999 1077T1084 1033Q1080 1051 1078 1074T1074 1109Q1096 1109 1137 1110T1221 1114T1291 1117Q1307 1038 1322 963T1349 826T1369 724T1380 674Q1390 627 1410 611T1459
595Q1489 595 1507 616T1533 673T1542 751Q1542 902 1478 1011T1297 1180T1024 1239Q882 1239 755 1198T530 1080T377 894T321 650Q321 544 364 462T482 323T652 238T852 209Q939 209 1009 229T1132 280T1213 348L1433 178Q1391 108 1305 60T1098 -15T834 -41ZM915
609Q984 609 1035 639T1121 712L1096 824Q1074 835 1040 839T959 844Q871 844 828 808T784 721Q784 661 823 635T915 609Z" />
<glyph unicode="A" horiz-adv-x="1185" d="M392 -15Q366 -15 317 -14T211 -10T100 -7T10 -3Q21 62 41 159T87 372T142 615T202 865T263 1103T318 1306Q432 1320 534 1328T731 1337Q789 1337 845 1334T958 1323Q978 1235 998 1124T1039 861T1081 499T1125 6Q1088
1 1019 -4T875 -12T742 -15Q740 14 739 47T736 118T734 193T732 268T731 340Q699 339 665 338T598 335T537 331T486 325T453 320Q439 258 427 196T406 78T392 -15ZM499 633Q517 636 560 640T651 646T723 649Q722 668 720 723T715 844T710 963T706 1033Q692 1033
663 1032T608 1028T570 1025Q564 995 554 943T534 832T514 720T499 633Z" />
<glyph unicode="B" horiz-adv-x="1174" d="M90 25Q90 64 91 149T96 349T102 588T107 834T113 1055T117 1217T119 1285Q179 1289 259 1294T428 1302T596 1306Q716 1306 808 1276T952 1179T1005 1001Q1005 920 967 862T875 771T774 728Q779 728 785 728T799 727Q889
721 956 683T1060 582T1097 437Q1097 301 1045 216T897 85T668 20T369 2Q289 2 215 7T90 25ZM459 336Q469 336 482 336T511 336Q555 336 599 342T680 362T741 398T764 456Q764 478 756 497T727 530T671 551T580 558Q563 558 542 558T498 556T452 551L459 336ZM448
835Q482 835 505 836T546 842Q605 846 655 873T705 952Q705 999 670 1024T583 1050Q552 1050 513 1046T442 1038L448 835Z" />
<glyph unicode="C" horiz-adv-x="1137" d="M1108 224Q1058 165 985 111T819 22T618 -13Q474 -13 365 36T181 174T68 388T30 661Q30 854 97 1004T293 1240T606 1326Q757 1326 885 1264T1088 1073Q1057 1040 1008 999T907 920T818 860Q815 869 801 894T762 946T701
994T618 1014Q568 1014 531 989T468 920T430 817T417 691Q417 623 427 561T460 452T520 377T612 350Q656 350 699 366T781 412T856 479Q897 451 946 407T1039 314T1108 224Z" />
<glyph unicode="D" horiz-adv-x="1198" d="M152 -33Q146 13 139 100T121 301T102 540T83 787T66 1015T53 1196T45 1299Q89 1304 156 1310T299 1320T444 1325Q631 1325 761 1287T971 1166T1088 952T1125 637Q1125 426 1068 294T891 91T589 -6T152 -33ZM489 340Q593
342 652 374T735 465T759 609Q759 708 735 801T657 954T511 1014Q494 1014 475 1014T443 1012Q450 916 458 798T474 560T489 340Z" />
<glyph unicode="E" horiz-adv-x="957" d="M816 -14Q721 -8 628 -3T439 8Q353 12 266 17T91 27Q85 200 82 359T79 659Q79 873 83 1026T91 1251Q283 1288 447 1304T722 1325T859 1329Q859 1257 855 1187T843 1038L443 1005Q441 996 441 974T440 925T439 876T439
843Q463 843 496 843T569 845T648 846T723 847T785 849L780 542Q767 543 732 544T650 548T559 552T479 555T431 556Q430 547 430 529T429 488T428 442T427 400T426 368Q437 369 494 369T614 369Q660 369 704 368T787 364T852 358Q851 313 847 255T838 140T826 41T816
-14Z" />
<glyph unicode="F" horiz-adv-x="949" d="M505 -3L121 13Q116 230 110 446T96 876T79 1302Q187 1309 293 1311T496 1313Q614 1312 709 1303T868 1280Q874 1201 878 1117T882 974Q843 976 769 980T603 989T423 994Q426 975 428 947T433 889T437 833Q494 833 565
828T698 817T790 804Q790 738 789 667T781 515Q743 519 689 524T575 532T464 535Q472 453 479 361T494 175T505 -3Z" />
<glyph unicode="G" horiz-adv-x="1275" d="M682 -48Q489 -48 351 34T139 272T65 646Q65 849 132 1005T327 1249T640 1338Q736 1338 829 1313T1001 1238T1131 1114Q1111 1091 1064 1048T959 958T848 879Q831 904 804 930T738 974T645 992Q591 992 549 962T479 880T437
761T423 621Q423 520 451 440T538 313T686 266Q734 266 772 285T833 336T855 406Q855 419 855 427T852 444Q837 448 806 453T739 462T669 470T615 473Q614 504 616 552T621 649T627 727Q696 726 797 716T999 689T1172 653Q1182 619 1186 572T1190 487Q1190 346
1134 224T966 27T682 -48Z" />
<glyph unicode="H" horiz-adv-x="1094" d="M103 4Q99 47 93 134T82 335T72 576T66 827T63 1057Q63 1127 64 1185T69 1282Q78 1283 121 1285T221 1290T332 1294T421 1296Q420 1244 420 1178T420 1054Q420 984 422 906T427 792Q449 794 472 796T519 799T566 801T609
803T647 804Q648 831 649 892T653 1030T657 1180T661 1304Q688 1306 725 1306T798 1307Q868 1307 930 1305T1025 1299Q1021 1276 1017 1225T1009 1103T1000 948T992 772T985 589Q980 472 977 360T972 157T970 11Q946 9 893 7T775 3T645 2Q645 72 645 136T645 260T645
377T645 493Q625 492 604 492T561 491T519 490T478 490T441 490Q443 442 445 373T450 230T455 100T458 20Q431 16 384 14T282 9T179 5T103 4Z" />
<glyph unicode="I" horiz-adv-x="583" d="M452 -21Q407 -21 347 -20T227 -16T116 -6Q114 56 112 155T109 368T107 589Q107 754 110 937T117 1315Q136 1316 178 1317T272 1319T373 1322T456 1323Q462 1221 466 1091T472 823T475 552Q475 486 474 419T472 287T468
165T461 59T452 -21Z" />
<glyph unicode="J" horiz-adv-x="1178" d="M535 -19Q395 -19 285 30T104 173T8 401Q27 415 69 438T163 486T263 532T342 564Q359 495 393 442T469 357T555 326Q605 326 632 359T672 462T685 641Q685 703 682 783T673 945T662 1099T653 1217T648 1271Q691 1280
746 1285T848 1291Q899 1291 939 1289T1020 1282Q1026 1216 1031 1128T1042 944T1049 761T1052 610Q1052 431 1016 310T912 116T749 12T535 -19Z" />
<glyph unicode="K" horiz-adv-x="1108" d="M94 -32Q94 31 92 127T85 342T76 589T65 846T53 1089T42 1296Q81 1303 132 1306T227 1310Q281 1310 327 1306T400 1297Q400 1271 402 1214T406 1083T411 934T418 796Q453 829 493 882T576 1005T664 1154T751 1319Q840
1251 925 1201T1048 1131Q1037 1103 1004 1049T923 930T823 800T716 689Q764 633 812 569T905 439T985 317T1046 215T1081 148Q1052 129 997 99T878 41T764 -4Q752 25 729 71T676 173T614 285T552 391T497 473Q481 460 468 452T440 436Q444 380 449 312T458 180T465
69T468 6Q448 5 388 0T250 -14T94 -32Z" />
<glyph unicode="L" horiz-adv-x="961" d="M80 27Q84 82 87 176T93 388T95 632Q95 758 93 880T88 1108T80 1284Q113 1288 184 1294T333 1300Q368 1300 415 1298T480 1292Q481 1247 480 1174T475 1006T467 804T456 583Q453 530 449 477T441 383Q522 388 595 391T741
396T890 397Q895 370 898 307T904 171T907 46Q784 29 656 21T411 13Q318 12 232 16T80 27Z" />
<glyph unicode="M" horiz-adv-x="1478" d="M93 3Q93 74 94 184T96 428T101 705T108 988T119 1246Q174 1251 247 1254T391 1259T511 1261T565 1262Q567 1258 578 1217T607 1111T645 968T687 810T726 657T757 533T774 461L733 456Q743 482 760 541T801 678T848 843T895
1012T934 1158T958 1257Q1005 1257 1077 1255T1225 1249T1350 1235Q1370 1145 1378 1008T1386 714Q1386 586 1382 454T1372 206T1359 7Q1304 7 1240 9T1118 15T1028 20Q1032 74 1036 167T1045 362Q1047 424 1049 485T1053 596T1057 673Q1047 637 1029 581T989 459T944
324T898 194T859 87T833 21Q817 20 786 20T739 19Q710 19 680 22T610 28Q608 44 599 82T578 175T551 296T521 428T490 559T462 676T440 763Q441 670 441 569T442 371T443 197T444 69T445 8Q405 7 345 6T218 4T93 3Z" />
<glyph unicode="N" horiz-adv-x="1282" d="M486 -7Q417 -7 342 -3T203 7T104 17Q105 25 105 63T105 162T106 299T106 460T107 632Q107 751 106 870T103 1093T95 1265Q116 1265 161 1264T262 1259T369 1250T459 1240Q522 1152 577 1063T681 885T774 705T857 519L818
1246Q850 1246 898 1243T999 1236T1095 1225T1161 1212Q1165 1174 1168 1127T1174 1025T1178 912T1180 793T1181 675Q1181 563 1179 453T1171 248T1160 89T1147 4Q1117 3 1083 2T1012 1Q958 1 908 3T823 12Q815 27 796 63T749 153T686 271T613 406T537 548T462
685Q466 658 468 606T473 487T478 348T482 206T485 82T486 -7Z" />
<glyph unicode="O" horiz-adv-x="1354" d="M666 -51Q452 -51 317 39T117 284T53 636Q53 834 126 988T335 1231T666 1320Q827 1320 943 1269T1133 1125T1244 908T1280 640Q1280 505 1245 381T1135 159T945 6T666 -51ZM671 310Q763 310 826 362T921 498T954 677Q954
747 941 810T896 921T814 998T688 1026Q607 1026 545 975T447 836T411 644Q411 548 435 473T516 354T671 310Z" />
<glyph unicode="P" horiz-adv-x="1010" d="M61 -7Q61 9 62 75T65 242T70 461T77 703T85 936T94 1131T104 1255Q198 1274 300 1282T509 1291Q644 1291 746 1253T906 1133T964 922Q964 795 920 699T783 550T551 497Q526 497 489 501T436 513Q436 486 435 418T431
265T427 105T424 -16Q398 -16 350 -16T246 -14T141 -10T61 -7ZM429 803Q446 800 469 798T512 795Q555 795 590 810T645 853T666 924Q666 989 629 1012T529 1035Q505 1035 480 1033T426 1027Q426 1022 426 1001T427 952T428 893T429 839T429 803Z" />
<glyph unicode="Q" horiz-adv-x="1291" d="M1080 -167Q1056 -157 1019 -130T941 -70T870 -8T828 40Q812 29 780 16T705 -7T610 -17Q481 -17 375 31T193 166T76 368T35 617Q35 767 77 891T199 1107T391 1249T641 1299Q843 1299 971 1219T1161 998T1223 675Q1223
572 1211 478T1163 306T1057 173Q1095 125 1154 86T1267 20Q1234 -29 1181 -80T1080 -167ZM674 307Q664 317 646 344T611 403T586 455Q606 472 642 496T718 545T789 588Q805 547 829 494T882 405Q897 429 906 485T916 641Q916 756 889 840T805 970T656 1016Q565
1016 502 974T405 854T372 676Q372 588 397 500T474 352T609 293Q640 293 654 298T674 307Z" />
<glyph unicode="R" horiz-adv-x="1094" d="M116 -25Q110 88 101 251T83 599T65 968T49 1303Q90 1307 154 1311T292 1320T438 1327T565 1330Q643 1330 722 1316T869 1265T976 1161T1017 987Q1017 884 964 793T826 658Q849 615 877 554T933 425T987 291T1033 169T1063
81Q1030 61 975 43T863 11T763 -11T713 -20Q707 14 691 77T654 215T611 363T572 495T544 581Q526 578 510 575T478 571T448 569Q451 543 456 491T466 371T475 233T483 101T486 -1Q441 -11 378 -16T245 -23T116 -25ZM416 836Q443 836 472 838T543 846Q597 855 633
871T686 913T704 977Q704 1022 682 1042T620 1067T525 1073Q509 1073 490 1072T453 1069T419 1066T395 1063Q397 1046 399 1023T404 973T409 920T413 872T416 836Z" />
<glyph unicode="S" horiz-adv-x="1152" d="M558 -17Q489 -17 414 -3T266 43T130 126T22 250Q28 261 56 288T123 348T199 409T260 450Q297 410 333 376T409 315T490 275T580 260Q630 260 659 278T700 326T713 386Q713 409 702 432T667 477T604 523T508 568Q388
617 288 669T129 796T69 982Q69 1102 136 1183T313 1307T549 1349Q638 1349 724 1331T889 1273T1030 1162Q1014 1139 978 1098T901 1016T831 950Q788 992 739 1021T642 1067T550 1083Q498 1083 459 1062T420 996Q420 977 428 960T454 929T496 902T555 878Q659 842
751 804T915 717T1027 596T1067 423Q1067 323 1029 242T922 104T761 15T558 -17Z" />
<glyph unicode="T" horiz-adv-x="1039" d="M56 1002Q51 1026 47 1071T40 1167T36 1258T34 1311Q146 1320 288 1326T576 1332Q688 1332 794 1328T988 1310Q988 1216 981 1136T964 1016Q946 1016 913 1016T840 1017T762 1018T695 1020Q697 983 700 913T707 752T717
563T726 369T735 196T742 69T745 11Q699 4 627 -2T484 -11T368 -14Q365 44 362 124T357 298T353 488T350 678T349 852Q349 899 349 939T351 1013Q318 1010 282 1009T207 1006T131 1004T56 1002Z" />
<glyph unicode="U" horiz-adv-x="1212" d="M593 -29Q413 -29 311 47T157 268Q107 408 95 611T83 1073Q83 1105 84 1138T85 1205T87 1273T90 1339Q137 1343 184 1346T274 1350Q329 1350 385 1347T486 1338Q479 1265 475 1181T468 1008T466 833Q466 736 471 662T488
537Q504 469 534 437T614 405Q674 405 705 444T748 553T760 712Q760 751 759 815T756 956T751 1107T745 1240T737 1328Q782 1328 841 1325T958 1317T1059 1307T1113 1299Q1121 1247 1126 1188T1134 1067T1137 940Q1137 739 1116 564T1037 255T872 46T593 -29Z"
/>
<glyph unicode="V" horiz-adv-x="1181" d="M641 -22Q578 -22 518 -18T423 -10Q389 60 344 183T249 458T154 767T71 1066T14 1307Q70 1325 147 1336T300 1353T424 1359Q426 1349 437 1297T465 1163T505 977T550 756T597 519T639 286L612 280Q624 340 639 436T671
648T704 881T733 1101T754 1274T764 1365Q854 1365 965 1349T1165 1304Q1134 1148 1094 977T1012 640T933 335T870 103T837 -16Q806 -20 753 -21T641 -22Z" />
<glyph unicode="W" horiz-adv-x="1344" d="M785 -15Q769 34 752 89T719 202T689 315T664 418T648 501L691 508Q687 493 677 460T652 381T619 283T582 179T545 81T511 2L110 17Q101 80 92 185T74 425T58 714T45 1031T40 1355L432 1340Q432 1262 430 1159T424 945T417
729T412 542T408 415L388 392Q399 421 414 470T445 581T479 710T510 843T534 963T547 1057L806 1063Q807 1041 813 986T831 855T854 697T880 539T906 405T929 322L880 320Q898 421 912 559T935 844T949 1125T954 1349L1305 1386Q1305 1215 1291 1037T1253 691T1207
383T1164 148T1136 20L785 -15Z" />
<glyph unicode="X" horiz-adv-x="1236" d="M432 640Q382 731 318 825T191 1002T79 1142T14 1218Q46 1235 98 1254T209 1292T322 1325T413 1345Q437 1312 469 1255T535 1133T596 1013T636 930Q663 977 686 1029T730 1133T768 1235T797 1326Q880 1314 954 1293T1085
1249T1168 1203Q1147 1153 1105 1084T1009 940T905 794T814 670Q853 621 897 555T987 417T1072 277T1141 155T1184 72Q1138 44 1075 20T949 -22T838 -49Q820 4 795 65T733 198T643 356Q618 311 593 267T542 183T495 108T455 45T423 -1T403 -27Q314 -18 233 2T35
54Q80 110 131 181T236 330T339 487T432 640Z" />
<glyph unicode="Y" horiz-adv-x="1065" d="M413 571Q382 613 350 662T284 764T217 876T151 996T87 1123T28 1255Q132 1295 227 1309T381 1324Q389 1305 404 1268T438 1185T479 1090T520 998T555 924Q564 946 582 983T622 1065T669 1157T714 1244T751 1308Q812
1305 874 1287T992 1245T1087 1198Q1042 1139 983 1045T858 835T730 597Q732 536 734 467T738 337T739 238Q739 194 739 147T738 64T737 18Q724 12 682 8T587 4Q532 4 478 8T389 20Q389 73 391 147T396 300T404 450T413 571Z" />
<glyph unicode="Z" horiz-adv-x="1044" d="M924 -14Q747 -14 530 -6T52 22Q51 57 49 119T45 246T43 352Q80 394 130 453T236 579T347 715T451 845T534 954T583 1024Q558 1024 501 1022T370 1016T225 1008T97 999Q94 1028 92 1070T90 1150Q90 1192 91 1230T96 1294Q142
1299 222 1305T400 1319T593 1330T768 1335Q792 1335 829 1335T900 1333T951 1330Q957 1302 959 1263T961 1184Q961 1134 959 1093T954 1037Q929 1001 889 945T798 823T693 686T589 552T497 436T432 356Q451 354 483 352T559 350T649 349Q713 349 786 351T934 358Q936
330 938 281T940 181Q940 121 935 65T924 -14Z" />
<glyph unicode="[" horiz-adv-x="735" d="M348 -526Q292 -526 230 -524T101 -517Q70 -271 57 -3T44 522Q44 760 53 973T78 1356T113 1626Q165 1635 233 1643T380 1657T545 1666T714 1670Q714 1637 712 1604T705 1538Q699 1492 693 1457T683 1409Q664 1409 620
1407T524 1401T430 1394Q416 1272 406 1147T390 896T381 646T378 401Q378 288 380 180T386 -28T396 -212Q410 -216 443 -218T519 -223Q552 -224 593 -224T663 -225Q663 -271 660 -327T652 -433T642 -510Q595 -516 521 -521T348 -526Z" />
<glyph unicode="\" horiz-adv-x="725" d="M749 22Q673 -30 599 -64T453 -115Q346 83 265 265T125 625T27 988T-39 1377Q-17 1404 31 1424T142 1458T266 1476Q286 1347 307 1233T354 1014T409 811T474 618T551 427T642 231T749 22Z" />
<glyph unicode="]" horiz-adv-x="619" d="M608 572Q608 359 597 165T567 -186T524 -445Q447 -463 355 -472T175 -485T21 -489Q18 -448 17 -396T14 -293T13 -208Q30 -208 55 -206T109 -200T163 -193T204 -185Q221 -82 232 48T248 324T253 614Q253 739 250 858T240
1082T225 1269T205 1402Q171 1403 136 1403T66 1404T0 1406Q-4 1418 -6 1431T-10 1458Q-10 1516 -6 1578T5 1675Q26 1677 60 1677T124 1678Q229 1678 327 1670T516 1645Q565 1406 586 1128T608 572Z" />
<glyph unicode="^" horiz-adv-x="1032" d="M681 1325Q720 1284 761 1227T845 1103T925 961T993 805Q955 774 888 750T721 707Q704 760 686 807T647 897T600 983T543 1067T472 1154L638 1145Q589 1106 544 1059T459 960T384 858T323 761T278 680Q215 689 147 722T17
812Q58 874 109 946T214 1089T322 1223T418 1326Q444 1331 480 1333T554 1336Q594 1336 628 1334T681 1325Z" />
<glyph unicode="_" horiz-adv-x="1549" d="M317 27Q492 27 662 30T983 39T1256 50T1458 59Q1458 -35 1453 -126T1438 -275Q1376 -277 1256 -279T953 -282Q896 -282 831 -282T692 -281T541 -279T381 -277T216 -274T52 -271Q50 -254 47 -217T39 -133T30 -44T24 29Q43
28 83 28T168 27T254 27T317 27Z" />
<glyph unicode="`" horiz-adv-x="663" d="M202 1534Q224 1531 276 1511T393 1457T519 1385T622 1307Q604 1277 573 1243T515 1183T475 1152Q442 1171 386 1193T264 1238T135 1280T24 1312Q32 1324 57 1363T120 1449T202 1534Z" />
<glyph unicode="a" horiz-adv-x="1295" d="M504 -16Q380 -16 278 17T116 126T55 328Q55 455 126 531T314 640T561 674Q607 674 650 667T727 649T777 627Q776 650 767 678T739 724Q711 755 667 777T547 800Q472 800 412 766T321 688L49 863Q95 926 173 973T349
1046T555 1073Q735 1073 844 1018T1008 857Q1033 809 1049 750T1072 618Q1076 562 1078 508T1082 399Q1083 320 1098 296T1141 271Q1166 271 1186 281T1213 308L1319 78Q1306 44 1256 17T1126 -10Q1067 -10 1014 9T924 61T883 140Q868 101 819 65T691 7T504 -16ZM580
245Q622 245 667 257T749 289T803 324Q800 346 799 373T797 418Q777 426 723 434T612 443Q562 443 515 434T438 403T408 346Q408 309 428 287T488 255T580 245Z" />
<glyph unicode="b" horiz-adv-x="1200" d="M108 -4Q105 31 102 112T95 306T87 546T79 805T73 1051T69 1256T67 1391Q81 1394 173 1411T401 1449Q401 1388 402 1281T407 1043T419 781Q444 806 477 830T552 875T639 907T734 919Q849 919 937 867T1074 709T1124 445Q1124
240 1016 121T727 1Q657 1 601 21T508 67T455 114Q456 95 457 66T460 12T462 -19Q364 -20 271 -17T108 -4ZM445 358Q461 349 489 338T553 318T625 310Q720 310 762 351T805 472Q805 516 791 552T746 611T664 633Q602 633 557 613T483 566T436 517Q436 509 437 494T439
458T441 418T443 382T445 358Z" />
<glyph unicode="c" horiz-adv-x="1026" d="M985 214Q953 160 890 109T736 23T525 -11Q371 -11 259 64T84 266T22 542Q22 699 86 824T267 1022T539 1096Q633 1096 711 1068T851 987T954 858L711 725Q707 732 698 746T671 777T625 805T556 816Q490 816 446 790T378
714T355 595Q355 543 370 487T425 392T534 353Q577 353 614 368T679 403T724 442T747 469L985 214Z" />
<glyph unicode="d" horiz-adv-x="1195" d="M766 3Q765 16 764 39T762 88T761 130Q748 112 722 90T657 46T563 12T439 -2Q316 -2 226 60T87 228T38 463Q38 594 87 706T235 889T485 959Q555 959 613 943T713 902T772 849Q775 909 780 982T792 1132T805 1276T817
1390T824 1453Q888 1453 968 1446T1112 1421Q1095 1193 1085 966T1071 500T1066 -7Q1041 -7 983 -6T864 -3T766 3ZM534 325Q568 325 600 332T660 352T712 383T753 423Q753 442 753 466T753 514T753 559T755 594Q734 615 698 633T619 661T536 672Q454 672 406 623T358
495Q358 413 403 369T534 325Z" />
<glyph unicode="e" horiz-adv-x="1119" d="M1050 165Q1021 129 978 97T876 41T743 3T576 -11Q425 -11 307 46T122 215T55 495Q55 667 123 795T315 993T605 1064Q815 1064 937 951T1062 633Q1062 594 1060 564T1050 499Q1035 500 984 501T868 503T749 505T672 506Q591
506 517 499T397 484Q397 469 399 454T406 426Q418 391 446 367T514 331T599 318Q636 318 668 325T731 348T788 383T842 428Q848 423 875 396T936 329T1002 246T1050 165ZM411 688Q448 695 503 700T633 705Q674 705 708 704T756 701Q756 718 750 739Q742 769 721
794T667 834T592 850Q535 850 496 825T435 763T411 688Z" />
<glyph unicode="f" horiz-adv-x="896" d="M231 -13Q228 5 222 49T208 156T190 291T172 436Q155 433 120 423T53 402Q37 456 28 541T18 705Q27 708 45 713T83 723T122 733T150 739Q144 780 141 821T138 901Q138 1020 183 1124T322 1293T558 1358Q644 1358 704 1341T804
1299T868 1247T905 1200Q881 1156 846 1098T779 988T731 917Q719 934 703 950T669 981T632 1003T591 1012Q551 1012 526 994T490 945T478 874Q478 855 480 834T488 790Q519 791 566 790T658 788T724 783Q731 724 733 644T736 499Q727 499 688 498T603 494T528 489Q532
462 541 410T561 294T584 171T603 66T615 6Q571 -1 503 -5T361 -11T231 -13Z" />
<glyph unicode="g" horiz-adv-x="1231" d="M659 265Q447 265 324 322T149 470T97 660Q97 791 166 878T356 1011T631 1056Q879 1056 999 951T1119 673Q1119 538 1062 448T901 311T659 265ZM615 -499Q457 -499 327 -469T119 -363T41 -148Q41 -64 97 7T258 125T507
181Q569 186 636 188T804 190Q963 190 1064 118T1165 -115Q1165 -255 1092 -339T894 -461T615 -499ZM623 -285Q684 -285 731 -272T805 -232T832 -165Q832 -128 811 -107T757 -76T687 -67Q664 -67 633 -67T572 -67T519 -67Q484 -67 457 -75T414 -104T398 -165Q398
-204 426 -230T504 -271T623 -285ZM370 71Q228 102 174 150T119 259Q119 307 140 341T190 397T243 425L468 317Q433 305 416 286T399 248Q399 223 426 202T507 181L370 71ZM629 531Q683 531 720 545T778 591T799 672Q799 711 777 739T719 783T642 799Q573 799 515
771T456 669Q456 599 506 565T629 531ZM1043 792L844 960Q856 999 890 1044T969 1127T1058 1185Q1074 1162 1102 1121T1161 1038T1213 969Q1188 957 1162 940T1111 900T1069 850T1043 792Z" />
<glyph unicode="h" horiz-adv-x="1123" d="M413 -8Q387 -12 342 -15T246 -18Q188 -18 138 -14T64 -1Q72 57 78 149T89 357T93 602Q93 739 89 881T77 1157T63 1401Q71 1404 112 1410T209 1424T314 1437T389 1443Q404 1368 416 1267T438 1046T451 790Q485 826 535
853T645 897T761 913Q886 913 952 867T1042 733T1067 517Q1067 435 1061 343T1045 162T1022 4Q983 -2 942 -5T859 -9Q815 -9 771 -5T690 7Q697 51 705 112T720 237T732 359T737 454Q737 505 726 540T693 593T634 611Q604 611 577 601T525 574T482 540T449 504Q449
403 444 305T430 124T413 -8Z" />
<glyph unicode="i" horiz-adv-x="610" d="M447 2Q430 1 376 -2T263 -6Q220 -6 176 -4T89 4Q93 30 100 109T114 297T127 522T138 739T142 902Q165 904 208 906T303 910T400 913T472 914Q479 882 482 809T486 646Q486 555 483 456T475 265T463 103T447 2ZM318 1034Q220
1034 153 1090T85 1241Q85 1305 117 1350T200 1420T307 1445Q398 1445 458 1387T519 1236Q519 1151 461 1093T318 1034Z" />
<glyph unicode="j" horiz-adv-x="704" d="M623 241Q623 51 595 -92T505 -331T349 -475T121 -524Q9 -524 -94 -486T-272 -379T-373 -222Q-326 -190 -261 -160T-132 -107T-24 -71Q-13 -108 7 -140T56 -193T121 -213Q160 -213 185 -174T224 -73T243 59T249 190Q249
268 242 360T222 547T193 727T160 878L536 896Q546 867 560 797T589 632T613 435T623 241ZM281 1441Q349 1441 403 1411T488 1332T520 1226Q520 1165 486 1114T396 1031T279 999Q220 999 167 1025T81 1097T48 1206Q48 1272 78 1325T162 1410T281 1441Z" />
<glyph unicode="k" horiz-adv-x="1156" d="M812 -55Q800 -27 774 17T713 110T642 207T571 289T508 337Q497 329 479 316T446 290T424 271Q423 228 422 185T418 103T414 32T410 -22Q368 -27 326 -29T244 -32Q190 -32 142 -28T58 -20Q59 4 63 85T74 287T86 547T100
829T112 1098T120 1317T124 1447Q161 1451 198 1453T272 1455Q325 1455 375 1450T469 1430Q469 1351 467 1260T462 1075T455 897T447 747T439 647Q488 698 551 750T682 852T816 948T935 1029Q951 1013 978 980T1033 908T1087 831T1127 768Q1086 741 1033 706T927
635T830 568T759 518Q786 500 822 468T899 393T982 299T1066 191T1144 74Q1127 63 1083 45T984 5T883 -32T812 -55Z" />
<glyph unicode="l" horiz-adv-x="645" d="M656 41Q626 13 544 -14T364 -42Q239 -42 174 14T85 174T61 417Q61 533 63 645T68 865T76 1071T85 1261T95 1429Q175 1435 242 1435Q285 1435 327 1433T421 1426Q416 1333 410 1226T397 1009T386 799T378 619T375 495Q375
435 380 384T403 303T456 272Q489 272 510 285T544 321Q551 307 567 267T603 179T637 91T656 41Z" />
<glyph unicode="m" horiz-adv-x="1858" d="M119 -7Q114 54 110 156T103 378T98 616T95 833T94 986Q121 994 166 1001T262 1014T358 1023T432 1027Q433 1010 433 988T434 943T435 901T435 871Q441 889 462 917T521 973T611 1019T732 1038Q798 1038 844 1014T922
951T972 868Q981 847 986 825T996 783Q1020 848 1072 907T1201 1005T1370 1044Q1495 1044 1574 1002T1698 875T1759 666T1777 377Q1777 318 1775 255T1770 125T1764 -10Q1723 -12 1679 -13T1593 -15Q1548 -15 1503 -13T1413 -7Q1433 141 1446 266T1460 485Q1460
608 1433 673T1339 738Q1278 738 1239 701T1178 595T1146 436T1130 238Q1128 181 1126 119T1123 -9Q1102 -10 1062 -11T976 -13Q923 -13 875 -12T804 -7Q803 61 803 120T802 243Q802 357 798 449T778 607T733 710T652 746Q618 746 586 733T527 699T480 649T451
591Q457 432 464 300T476 84T482 -14Q471 -15 433 -16T364 -17Q293 -17 222 -14T119 -7Z" />
<glyph unicode="n" horiz-adv-x="1330" d="M433 -14Q399 -14 349 -14T247 -12Q207 -10 153 -8T79 -4Q89 79 94 187T103 427T109 710T111 1032Q153 1038 212 1041T329 1044Q371 1044 410 1042T478 1035Q479 1027 479 1000T479 941T477 883Q499 920 555 961T687
1031T845 1060Q998 1060 1080 999T1193 813T1224 501Q1224 439 1221 354T1210 175T1192 -3Q1169 -5 1121 -6T1019 -8Q962 -8 911 -7T836 -3Q845 43 858 124T882 302T892 489Q892 565 880 622T832 710T729 742Q680 742 632 725T543 680T470 625Q469 470 463 347T449
134T433 -14Z" />
<glyph unicode="o" horiz-adv-x="1170" d="M600 -20Q334 -20 197 119T59 525Q59 705 129 823T325 1001T613 1060Q777 1060 886 986T1051 780T1107 477Q1107 326 1048 215T876 42T600 -20ZM588 303Q634 303 671 319T736 365T777 438T792 536Q792 615 769 675T702
768T595 802Q525 802 481 765T418 671T398 553Q398 446 446 375T588 303Z" />
<glyph unicode="p" horiz-adv-x="1225" d="M46 -452Q57 -284 65 -101T78 262T87 596T92 864T94 1029Q164 1052 254 1061T428 1071Q432 1036 434 994T437 915Q455 940 500 976T616 1041T779 1070Q984 1070 1079 941T1175 580Q1175 418 1112 301T942 122T701 59Q643
59 584 74T478 111T415 155Q415 130 413 75T409 -51T403 -192T396 -325T388 -422Q328 -433 263 -439T139 -449T46 -452ZM646 408Q706 408 748 431T814 498T837 605Q837 690 798 736T666 782Q609 782 564 766T489 726T440 680Q440 666 439 641T438 588T436 534T434
495Q451 477 477 457T545 423T646 408Z" />
<glyph unicode="q" horiz-adv-x="1207" d="M1103 -461Q999 -461 917 -456T778 -445Q768 -359 763 -272T755 -95T752 93Q741 74 706 53T618 18T500 4Q353 4 253 69T103 252T52 525Q52 635 72 735T136 914T252 1038T430 1084Q505 1084 570 1069T689 1024T787 946Q788
968 791 997T798 1052T804 1089Q895 1089 965 1079T1121 1047Q1103 914 1091 757T1072 439T1065 131Q1065 16 1072 -98T1088 -306T1103 -461ZM560 357Q601 357 638 366T705 389T752 413Q753 434 754 459T757 512T760 568T762 622T766 671Q751 683 718 703T640 741T546
758Q492 758 455 735T400 669T381 567Q381 505 401 458T462 384T560 357Z" />
<glyph unicode="r" horiz-adv-x="853" d="M386 899Q406 943 450 983T557 1050T694 1077Q740 1077 784 1067T849 1043L779 686Q758 694 724 705T649 716Q606 716 568 703T497 664T437 604Q446 549 458 463T481 286T499 120T507 10Q427 0 325 -3T127 -7Q127 74 123
182T110 410T91 644T67 856T40 1012Q95 1027 160 1040T277 1062T343 1072Q355 1045 370 991T386 899Z" />
<glyph unicode="s" horiz-adv-x="989" d="M491 -78Q365 -78 266 -49T102 16T13 78Q19 98 38 139T83 228T135 319T182 381Q232 341 287 304T397 242T498 218Q530 218 554 225T593 247T607 288Q607 316 574 346T490 405T387 456Q310 490 242 535T132 647T90 814Q90
915 150 984T308 1089T515 1125Q614 1125 723 1097T904 1012Q898 992 877 949T824 857T756 764Q718 801 658 834T535 867Q507 867 480 862T434 842T415 802Q415 778 436 758T497 717T597 672Q649 650 708 618T820 541T906 435T940 297Q940 170 878 87T714 -37T491
-78Z" />
<glyph unicode="t" horiz-adv-x="964" d="M932 112Q911 80 868 42T757 -23T595 -50Q471 -50 391 1T271 138T231 330Q231 387 232 447T236 566T240 675T245 766T249 828Q178 820 112 811T19 796Q7 860 1 925T-7 1038T-9 1097Q49 1104 112 1109T249 1119Q247 1138
245 1186T242 1272Q241 1308 238 1344T233 1402L564 1434Q563 1423 563 1383T564 1286Q564 1256 564 1216T567 1134Q601 1136 645 1138T715 1142Q756 1145 786 1145T837 1146T864 1146Q872 1091 874 1011T876 867Q866 867 812 865T707 860Q671 858 628 855T561
849Q560 830 558 798T555 727T553 644T551 560T550 483Q550 416 556 366T582 287T645 258Q673 258 693 272T728 305T754 342Q769 321 795 287T849 217T900 152T932 112Z" />
<glyph unicode="u" horiz-adv-x="1178" d="M713 971Q742 981 794 986T897 992Q938 992 988 989T1071 979Q1082 904 1088 828T1094 678Q1094 526 1068 392T981 157T821 -3T576 -61Q422 -61 322 -1T166 169T88 424T65 741Q65 808 68 877T76 1016Q106 1019 153 1021T240
1023Q297 1022 353 1017T443 1001Q437 940 432 865T427 711Q427 594 440 493T488 331T587 270Q647 270 680 325T728 470T742 665Q742 751 734 833T713 971Z" />
<glyph unicode="v" horiz-adv-x="1007" d="M656 1091Q735 1077 804 1060T919 1030T975 1012Q955 928 929 831T871 629T806 420T734 216T659 28Q600 18 515 18Q473 18 434 21T366 28Q315 134 268 249T176 490T88 747T3 1019Q18 1021 56 1029T141 1049T234 1072T307
1092Q322 1034 344 957T393 796T444 637T488 503T518 418L505 413Q522 468 536 524T566 640T595 769T624 918T656 1091Z" />
<glyph unicode="w" horiz-adv-x="1520" d="M441 7Q324 7 250 58T133 197T73 401T56 644Q56 746 64 852T82 1060Q154 1060 242 1056T404 1046Q395 923 389 816T383 623Q383 535 391 471T421 372T477 338Q509 338 532 367T569 448T591 570T599 720Q599 793 598 876T594
1041Q627 1041 683 1041T797 1039T891 1036Q891 1002 891 970T891 905Q891 758 894 646T907 456T941 338T1005 298Q1042 298 1066 330T1106 420T1128 559T1135 734Q1135 779 1135 829T1133 933T1131 1041Q1162 1041 1201 1041T1278 1041Q1314 1041 1364 1039T1441
1034Q1445 992 1448 930T1453 807T1456 706Q1456 577 1440 470T1392 278T1308 135T1185 46T1020 15Q937 15 881 43T792 115T741 206T718 290T711 344L781 332Q780 298 762 244T703 136T599 44T441 7Z" />
<glyph unicode="x" horiz-adv-x="1142" d="M234 -34Q201 -8 158 30T75 111T6 190Q21 205 53 237T126 311T212 401T300 493T377 574Q306 653 249 716T146 827T67 912T6 977Q14 987 44 1013T115 1069T194 1127T254 1166Q282 1137 324 1088T413 983T500 875T565 789Q623
872 679 962T799 1163Q871 1131 954 1088T1091 1011Q1059 955 1003 875T883 714T761 569Q801 521 838 472T912 372T988 264T1071 146Q1014 101 943 59T805 -20Q781 13 757 47T707 117T656 187T604 256T550 323Q505 266 468 219T397 135T335 66T282 11T234 -34Z"
/>
<glyph unicode="y" horiz-adv-x="1079" d="M451 -526Q295 -526 170 -480T-40 -378Q-26 -341 2 -284T60 -172T109 -91Q147 -115 204 -143T328 -192T463 -213Q529 -213 574 -178T648 -86T690 40T706 175Q682 138 643 107T554 56T451 37Q293 37 206 121T83 347T48
665Q48 733 51 808T58 965Q77 969 114 971T196 973Q258 973 318 970T400 961Q396 944 390 899T380 792T375 666Q375 609 380 554T399 455T438 385T502 358Q569 358 608 410T665 554T685 765Q686 799 686 830T686 886T684 930T682 957Q708 959 733 960T784 962Q887
962 989 939Q995 817 995 662Q995 572 993 472T988 266T978 56Q969 -116 909 -247T736 -452T451 -526Z" />
<glyph unicode="z" horiz-adv-x="1074" d="M973 3Q896 -2 774 -6T520 -10Q387 -10 259 -5T43 12L58 259Q77 287 109 326T181 411T266 507T360 608T455 706T545 793Q525 793 481 792T382 790T273 788T179 787Q160 787 142 787T107 787T80 787T66 787L80 1056Q115
1054 172 1052T295 1049T427 1046T545 1045Q651 1045 764 1045T957 1044Q959 1037 960 1006T963 935T965 861T966 812Q929 779 883 733T788 636T689 533T598 434T523 349T473 289Q495 288 548 288T637 287Q695 287 761 290T887 297T987 305Q987 295 986 253T983
158T979 61T973 3Z" />
<glyph unicode="{" horiz-adv-x="665" d="M529 -451Q418 -436 342 -376T227 -223T187 -14Q187 30 194 73T211 155Q218 185 222 211T226 260Q226 322 177 367T42 427Q36 449 34 486T31 560Q31 594 33 630T40 690Q113 701 151 745T189 846Q189 893 181 924T160 986Q149
1016 141 1050T133 1133Q133 1211 156 1290T228 1435T349 1546T522 1598Q542 1583 565 1543T605 1452T621 1350Q566 1336 530 1301T478 1218T461 1113Q461 1075 466 1045T478 986Q486 957 490 926T495 853Q495 771 456 704T349 597T192 555L193 578Q284 574 360
547T484 461T531 306Q531 263 526 227T513 155Q506 122 501 89T496 17Q496 -42 513 -89T567 -168T658 -212Q628 -278 596 -336T529 -451Z" />
<glyph unicode="|" horiz-adv-x="487" d="M372 -555Q305 -555 218 -551T56 -533Q53 -389 50 -180T46 294Q46 468 48 666T54 1081T66 1528Q91 1530 148 1532T269 1536T377 1539Q385 1421 392 1272T404 957T412 620T415 286Q415 110 411 -50T398 -340T372 -555Z" />
<glyph unicode="}" horiz-adv-x="614" d="M175 -466Q152 -437 120 -368T74 -216Q154 -177 190 -132T227 -29Q227 16 217 56T193 138Q179 180 169 222T158 314Q158 391 200 455T311 558T462 597L459 555Q399 556 338 577T227 640T145 739T113 874Q113 914 118 944T129
1004Q136 1033 141 1065T146 1137Q146 1200 128 1251T71 1337T-34 1390Q-1 1449 48 1515T138 1627Q232 1606 306 1540T424 1385T467 1204Q467 1172 460 1139T442 1071Q430 1033 421 993T412 911Q412 815 460 771T588 725Q602 698 608 661T615 590Q615 558 609 520T591
461Q521 450 487 411T452 303Q452 255 462 213T484 131Q497 93 505 53T514 -31Q514 -132 468 -225T345 -383T175 -466Z" />
<glyph unicode="~" horiz-adv-x="1050" d="M94 745Q110 793 151 836T251 908T376 936Q433 936 474 912T548 859Q576 835 604 818T665 800Q710 800 738 834T780 908L948 801Q943 777 924 740T871 667T791 606T682 581Q631 581 588 607T509 663Q479 687 450 704T393
722Q355 722 327 701T282 652T257 606L94 745Z" />
<glyph unicode="&#xa0;" horiz-adv-x="615" />
<glyph unicode="&#xa1;" horiz-adv-x="708" d="M180 613Q214 613 271 611T388 606T484 598Q491 503 497 403T507 201T515 -5T519 -209T520 -407L103 -390Q107 -353 115 -263T133 -55T153 190T170 427T180 613ZM319 1092Q417 1092 483 1032T549 878Q549 786 483
733T323 680Q229 680 163 735T97 874Q97 975 161 1033T319 1092Z" />
<glyph unicode="&#xa2;" horiz-adv-x="1026" d="M565 1372Q606 1372 652 1361T716 1333Q707 1242 692 1124T657 875T616 611T573 359T531 144T495 -8Q443 -7 397 3T299 47Q327 154 359 290T424 575T486 869T536 1145T565 1372ZM985 374Q953 320 890 269T736 183T525
149Q371 149 259 224T84 426T22 703Q22 859 86 984T267 1182T539 1256Q633 1256 711 1228T851 1147T954 1019L711 885Q707 892 698 906T671 937T625 965T556 976Q490 976 446 950T378 874T355 755Q355 703 370 647T425 552T534 513Q577 513 614 528T679 563T724
603T747 630L985 374Z" />
<glyph unicode="&#xa3;" horiz-adv-x="1140" d="M163 502Q69 502 33 508L42 752Q68 751 104 750T184 749Q252 749 339 751T513 757T669 767T771 780Q772 769 773 737T777 667T780 594T781 545Q748 535 674 527T507 514T322 505T163 502ZM116 -35Q111 -20 99 12T74
83T50 159T36 216Q84 236 121 274T184 361T223 466T236 576Q236 642 223 704T197 827T184 945Q184 1069 251 1156T428 1290T667 1336Q742 1336 799 1321T897 1286T965 1248Q964 1236 951 1201T922 1125T892 1050T870 1009Q848 1030 804 1054T691 1079Q636 1080
590 1059T516 998T488 901Q488 843 504 794T535 698T551 597Q551 546 536 496T495 401T442 318T386 256Q418 267 454 275T525 289T593 295Q650 295 697 283T787 270Q844 270 886 282T975 316Q978 305 988 267T1011 181T1032 95T1043 45Q1012 28 959 15T848 -6T752
-14Q684 -14 639 -6T552 11T456 19Q349 19 262 -3T116 -35Z" />
<glyph unicode="&#xa4;" horiz-adv-x="974" d="M187 43Q175 53 145 78T81 133T19 189T-20 226Q34 279 101 343T221 458L425 323Q412 305 381 267T311 183T239 99T187 43ZM793 67Q766 94 731 131T661 206T597 274T557 319L725 453Q763 421 809 381T897 304T963
242Q954 232 931 208T879 155T827 101T793 67ZM215 646Q157 696 101 755T-3 867Q3 875 25 898T76 949T131 1000T173 1034Q215 993 271 927T372 803L215 646ZM732 647L544 818Q575 853 620 901T712 997T793 1077Q799 1067 824 1041T880 984T939 927T975 891Q944
856 901 812T814 723T732 647ZM481 211Q383 211 301 256T169 376T119 542Q119 640 167 716T297 834T475 877Q579 877 664 838T800 730T851 572Q851 475 800 393T665 261T481 211ZM479 456Q507 456 529 467T566 498T580 542Q580 580 555 606T479 632Q455 632 435
623T403 595T390 552Q390 509 414 483T479 456Z" />
<glyph unicode="&#xa5;" horiz-adv-x="1065" d="M155 504Q155 547 159 594T169 681T178 737Q249 743 323 746T473 751T626 753Q734 753 829 750T989 738Q998 683 1004 622T1011 515Q988 515 923 515T769 513T583 511T397 508T243 506T155 504ZM1017 205Q989 205
920 206T761 209T572 211T385 214T232 216T143 217Q143 272 149 320T163 419Q216 423 285 426T436 432T603 434Q712 434 816 431T994 420Q997 404 1003 368T1013 288T1017 205ZM441 571Q410 613 378 662T313 764T246 876T180 996T116 1123T57 1255Q161 1295 256
1309T410 1324Q418 1305 433 1268T467 1185T508 1090T549 998T584 924Q593 946 611 983T651 1065T698 1157T743 1244T780 1308Q841 1305 903 1287T1021 1245T1115 1198Q1071 1139 1012 1045T887 835T758 597Q761 536 763 467T766 337T768 238Q768 194 768 147T767
64T766 18Q753 12 711 8T616 4Q561 4 507 8T417 20Q417 73 419 147T425 300T433 450T441 571Z" />
<glyph unicode="&#xa6;" horiz-adv-x="432" d="M50 282Q117 289 204 291T358 293Q358 267 358 201T360 49T362 -126T366 -288T370 -402Q348 -411 296 -416T188 -425T93 -428Q88 -382 83 -311T71 -155T61 13T53 167T50 282ZM59 801Q59 890 62 994T69 1200T77 1381T83
1502Q123 1502 179 1500T288 1492T366 1472Q365 1431 365 1361T365 1207T365 1041T366 891T368 787Q303 787 236 789T121 795T59 801Z" />
<glyph unicode="&#xa7;" horiz-adv-x="1000" d="M525 665Q504 662 474 648T421 609T398 543Q398 514 427 487T505 435T616 385Q671 363 730 332T840 255T923 151T955 14Q955 -101 895 -184T732 -312T504 -357Q372 -357 267 -327T94 -258T-1 -194Q10 -174 31 -138T77
-62T127 14T170 65Q226 30 286 -1T404 -51T511 -70Q553 -70 583 -61T630 -33T647 16Q647 56 575 101T394 187Q313 218 242 261T126 370T81 535Q81 632 140 700T287 803L525 665ZM543 396Q592 402 626 439T660 535Q660 566 624 594T527 650T394 704Q313 735 249
778T148 887T110 1053Q110 1154 170 1223T324 1328T520 1364Q624 1364 735 1336T929 1251Q927 1242 908 1201T859 1107T791 1012Q765 1036 721 1057T628 1092T541 1106Q513 1106 483 1101T431 1081T410 1041Q410 1003 466 972T616 902Q671 880 732 849T846 773T933
669T967 532Q967 409 892 322T703 194L543 396Z" />
<glyph unicode="&#xa8;" horiz-adv-x="944" d="M273 1181Q207 1181 156 1220T104 1322Q104 1390 153 1436T272 1482Q348 1482 395 1436T442 1323Q442 1261 392 1221T273 1181ZM698 1189Q631 1189 582 1233T533 1341Q533 1406 579 1451T690 1497Q762 1497 815 1453T868
1342Q868 1296 843 1262T778 1209T698 1189Z" />
<glyph unicode="&#xa9;" horiz-adv-x="1745" d="M875 -68Q699 -68 549 -28T287 91T113 290T51 567Q51 814 161 989T467 1257T918 1350Q1156 1350 1328 1264T1593 1004T1687 571Q1687 430 1627 313T1457 110T1200 -21T875 -68ZM857 199Q1008 199 1119 245T1293
382T1355 607Q1355 836 1253 963T917 1091Q783 1091 667 1032T479 869T407 625Q407 524 438 445T527 311T669 228T857 199ZM865 289Q708 289 618 375T527 613Q527 723 579 809T724 944T935 994Q1104 994 1181 906Q1139 847 1095 797T1021 722Q1006 741 969 754T896
768Q863 768 834 753T786 711T767 645Q767 619 776 599T801 566T840 546T889 539Q914 539 941 548T994 577T1043 633Q1091 610 1144 574T1245 500Q1195 397 1088 343T865 289Z" />
<glyph unicode="&#xaa;" horiz-adv-x="750" d="M460 729Q462 734 464 752T467 784Q451 769 422 756T358 735T286 727Q170 727 99 777T28 931Q28 1013 72 1063T186 1137T337 1161Q362 1161 390 1157T442 1147T471 1132Q471 1162 452 1183Q439 1199 412 1212T330
1225Q280 1225 229 1211T156 1182L35 1342Q91 1383 168 1407T345 1431Q480 1431 555 1381T661 1236T692 1008Q692 916 684 839T670 722Q665 721 643 721T607 721Q572 721 528 723T460 729ZM368 912Q403 912 429 921T471 943Q472 949 472 955T472 965Q472 970 472
980T471 996Q464 999 449 1002T415 1006T378 1008Q354 1008 332 1003T294 988T279 960Q279 935 302 924T368 912Z" />
<glyph unicode="&#xab;" horiz-adv-x="1214" d="M1011 1135Q1068 1101 1106 1036T1161 922L806 604Q838 586 876 565T952 520T1023 476T1075 437Q1075 403 1069 351T1053 240T1029 128L469 574Q605 731 740 872T1011 1135ZM520 1120Q565 1086 614 1037T691 955L349
561Q404 513 464 460T580 358T675 278T725 239Q719 214 705 173T673 84T641 0Q477 119 318 253T14 543Q131 688 256 832T520 1120Z" />
<glyph unicode="&#xac;" horiz-adv-x="1000" d="M962 887Q958 844 954 777T947 634T941 481T936 344T933 247Q909 247 861 247T762 248T682 250Q682 285 684 334T688 435T693 531T697 602Q625 596 530 591T339 580T163 572T43 567Q43 603 43 654T43 759T45 850Q90
854 179 859T380 869T606 878T814 884T962 887Z" />
<glyph unicode="&#xad;" horiz-adv-x="801" d="M752 830Q763 760 765 676T767 529Q740 529 672 527T515 523T332 516T157 508T26 500Q25 532 27 578T33 674T39 762T47 818Q137 831 241 839T433 847Q530 847 609 844T752 830Z" />
<glyph unicode="&#xae;" horiz-adv-x="1400" d="M725 266Q602 266 483 286T268 361T114 515T57 770Q57 904 111 1007T258 1180T472 1285T725 1321Q912 1321 1054 1267T1278 1101T1359 816Q1359 681 1312 579T1178 406T976 301T725 266ZM716 469Q806 469 888 500T1024
602T1077 795Q1077 891 1051 954T976 1054T862 1107T719 1123Q626 1123 538 1088T394 979T337 787Q337 676 371 612T461 518T584 478T716 469ZM700 549Q649 549 592 558T496 579Q496 620 497 679T501 801T507 918T514 1001Q557 1026 604 1036T708 1046Q767 1046
823 1033T916 989T952 903Q952 862 930 826T869 776Q882 762 894 735T917 677T934 620T942 580Q913 563 864 556T759 549Q755 570 749 603T736 670T717 723Q712 722 698 721Q699 710 699 687T700 636T700 586T700 549ZM686 855Q711 855 738 862T765 891Q765 910
753 915T723 921Q713 921 703 921T683 918Q684 912 684 900T685 876T686 855Z" />
<glyph unicode="&#xaf;" horiz-adv-x="1079" d="M922 1216Q868 1216 774 1214T568 1207T344 1196T145 1182Q139 1234 135 1283T132 1382Q182 1392 260 1401T431 1419T615 1434T784 1444T910 1448Q912 1422 917 1356T922 1216Z" />
<glyph unicode="&#xb0;" horiz-adv-x="814" d="M375 867Q277 867 195 912T63 1032T13 1198Q13 1296 61 1372T191 1490T369 1533Q473 1533 558 1494T694 1386T745 1228Q745 1131 694 1049T559 917T375 867ZM373 1112Q401 1112 423 1123T460 1154T474 1198Q474 1236
449 1262T373 1288Q349 1288 329 1279T297 1251T284 1208Q284 1165 308 1139T373 1112Z" />
<glyph unicode="&#xb1;" horiz-adv-x="1050" d="M992 763Q945 754 865 750T684 745Q575 745 455 750T227 763T46 782Q43 799 40 841T34 932T29 1022T27 1077Q66 1072 136 1069T296 1063T481 1061Q589 1061 692 1064T879 1073T1012 1087Q1012 1027 1009 958T1000
833T992 763ZM681 1380Q693 1338 701 1261T715 1086T721 884Q721 773 714 660T689 459Q673 459 630 460T536 463T442 467T385 471Q390 512 392 561T394 662Q394 757 388 860T373 1062T354 1240T335 1366Q346 1367 382 1368T464 1372T557 1376T638 1379T681 1380ZM937
392Q935 352 933 301T929 203T924 123Q871 122 789 117T610 106T421 93T251 81T132 72Q130 108 128 159T125 264T124 355Q183 361 264 366T438 376T623 384T796 390T937 392Z" />
<glyph unicode="&#xb2;" horiz-adv-x="738" d="M637 762Q640 745 642 709T645 633T646 560T647 516L77 490Q75 498 65 540T45 633T34 722Q65 736 116 769T238 850Q287 883 322 913T376 971T396 1018Q396 1038 384 1049T347 1060Q311 1060 273 1034T217 987Q187
1001 149 1027T77 1081T25 1128Q61 1185 119 1230T247 1301T388 1328Q503 1328 567 1267T632 1101Q632 1051 613 988T535 857Q518 836 497 816T457 780T422 752T397 738Q417 741 445 744T505 750T570 756T637 762Z" />
<glyph unicode="&#xb3;" horiz-adv-x="787" d="M354 498Q232 498 151 538T39 641Q64 658 100 679T172 720T235 750Q247 730 279 711T360 692Q395 692 416 706T438 746Q438 765 418 778T350 799T218 806Q211 828 205 876T198 968Q248 968 296 976T375 1000T406
1038Q406 1058 393 1070T348 1082Q324 1082 293 1073T234 1051T196 1031Q174 1049 137 1080T68 1140T26 1182Q39 1195 83 1223T199 1275T366 1299Q437 1299 501 1275T605 1206T645 1097Q645 1056 627 1023T575 965T497 926Q547 923 591 900T663 835T691 738Q691
662 644 608T519 526T354 498Z" />
<glyph unicode="&#xb4;" horiz-adv-x="621" d="M445 1519Q498 1491 539 1451T606 1375T641 1327Q599 1313 552 1293T456 1249T365 1204T290 1164T241 1136Q233 1140 208 1153T152 1184T95 1218T59 1248Q87 1284 139 1326T250 1409T363 1480T445 1519Z" />
<glyph unicode="&#xb5;" horiz-adv-x="1178" d="M131 -423Q120 -322 111 -196T93 64T78 327T69 563T66 741L427 711Q422 591 420 477T417 250T416 21Q417 -49 420 -125T429 -273T440 -405Q384 -412 296 -417T131 -423ZM713 971Q742 981 794 986T897 992Q938 992
988 989T1071 979Q1082 904 1088 828T1094 678Q1094 526 1068 392T981 157T821 -3T576 -61Q422 -61 322 -1T166 169T88 424T65 741Q65 808 68 877T76 1016Q106 1019 153 1021T240 1023Q297 1022 353 1017T443 1001Q437 940 432 865T427 711Q427 594 440 493T488
331T587 270Q647 270 680 325T728 470T742 665Q742 751 734 833T713 971Z" />
<glyph unicode="&#xb6;" horiz-adv-x="1210" d="M1096 -367Q1071 -367 1032 -363T950 -354T874 -344T830 -337Q839 -277 848 -185T865 19T879 250T888 484T892 698Q892 770 890 838T882 971Q856 980 828 987T769 999Q763 870 757 731T744 453T733 188T723 -42T717
-216T715 -310Q689 -310 643 -310T548 -307T461 -304T413 -302Q415 -255 418 -189T425 -45T433 111T441 257T448 374T452 441Q414 425 376 425Q273 425 197 488T78 650T36 858Q36 1071 158 1192T518 1314Q589 1314 675 1303T850 1271T1012 1223T1131 1163Q1144
1078 1150 947T1157 662Q1157 563 1154 455T1146 236T1134 18T1117 -187T1096 -367Z" />
<glyph unicode="&#xb7;" horiz-adv-x="450" d="M208 662Q110 662 69 715T27 843Q27 919 84 971T222 1023Q303 1023 349 968T396 843Q396 794 370 753T301 687T208 662Z" />
<glyph unicode="&#xb8;" horiz-adv-x="660" d="M204 -493Q125 -493 70 -484T0 -470L58 -283Q81 -293 130 -301T206 -309Q298 -309 347 -292T396 -240Q396 -210 362 -198T277 -185Q240 -185 202 -190T132 -202T82 -216L135 12L336 22L312 -101Q329 -77 369 -60T459
-43Q539 -43 589 -88T640 -231Q640 -321 580 -379T420 -465T204 -493Z" />
<glyph unicode="&#xb9;" horiz-adv-x="568" d="M375 727Q395 727 420 725T463 718Q463 702 461 658T456 569T450 505Q425 505 367 504T241 501T120 497T48 493Q48 521 48 561T51 639T58 700Q72 703 91 706T130 712T161 716Q161 738 161 768T161 832T161 900T161
964T161 1016Q152 1011 136 1000T105 978T85 962Q62 999 39 1041T2 1117Q19 1135 53 1166T123 1229T181 1276Q205 1276 242 1275T316 1271T376 1264Q379 1245 381 1213T384 1134T385 1026Q385 964 383 886T375 727Z" />
<glyph unicode="&#xba;" horiz-adv-x="750" d="M377 764Q210 764 122 849T34 1098Q34 1267 132 1349T387 1431Q540 1431 618 1330T697 1071Q697 931 615 848T377 764ZM368 994Q396 994 420 1007T459 1046T474 1114Q474 1175 446 1211T374 1248Q318 1248 296 1205T274
1121Q274 1068 298 1031T368 994Z" />
<glyph unicode="&#xbb;" horiz-adv-x="1313" d="M71 946Q110 976 159 1011T253 1076T326 1121Q342 1112 381 1078T474 995T582 890T687 782T769 689Q685 600 584 512T378 345T172 200Q156 228 138 276T106 371T93 446Q99 451 131 476T212 539T315 617T418 696Q381
722 335 755T241 823T148 889T71 946ZM547 1043Q581 1067 623 1096T707 1151T772 1190Q806 1166 864 1112T990 990T1120 858T1226 747T1278 690Q1140 540 993 401T686 132Q672 146 641 182T581 257T540 318Q564 339 607 381T704 478T813 590T915 700Q875 742 825
791T723 889T625 978T547 1043Z" />
<glyph unicode="&#xbc;" horiz-adv-x="1619" d="M375 727Q395 727 420 725T463 718Q463 702 461 658T456 569T450 505Q425 505 367 504T241 501T120 497T48 493Q48 521 48 561T51 639T58 700Q72 703 91 706T130 712T161 716Q161 738 161 768T161 832T161 900T161
964T161 1016Q152 1011 136 1000T105 978T85 962Q62 999 39 1041T2 1117Q19 1135 53 1166T123 1229T181 1276Q205 1276 242 1275T316 1271T376 1264Q379 1245 381 1213T384 1134T385 1026Q385 964 383 886T375 727ZM846 1335Q860 1331 897 1315T968 1282T1010 1258Q1001
1233 969 1159T888 979T784 752T669 506T559 273T466 83T407 -32Q401 -30 377 -20T324 3T271 27T243 41Q264 75 303 152T394 334T502 558T614 797T717 1024T799 1213T846 1335ZM1517 146Q1503 147 1467 148T1404 149Q1404 114 1405 82T1407 15Q1377 9 1330 4T1238
-3T1170 -5Q1170 15 1170 40T1172 91T1175 135Q1134 134 1072 131T954 124T880 118Q869 162 858 214T839 309Q861 346 898 401T980 519T1068 638T1142 735T1183 787Q1202 790 1248 794T1345 802T1431 806Q1430 790 1428 733T1423 603T1418 463T1416 361Q1432 361
1452 360T1488 359T1511 357Q1513 351 1514 313T1516 228T1517 146ZM1223 559Q1213 546 1197 522T1162 469T1125 413T1095 365T1078 337Q1091 340 1113 343T1160 348T1200 351Q1200 363 1203 392T1209 454T1216 517T1223 559Z" />
<glyph unicode="&#xbd;" horiz-adv-x="1514" d="M375 727Q395 727 420 725T463 718Q463 702 461 658T456 569T450 505Q425 505 367 504T241 501T120 497T48 493Q48 521 48 561T51 639T58 700Q72 703 91 706T130 712T161 716Q161 738 161 768T161 832T161 900T161
964T161 1016Q152 1011 136 1000T105 978T85 962Q62 999 39 1041T2 1117Q19 1135 53 1166T123 1229T181 1276Q205 1276 242 1275T316 1271T376 1264Q379 1245 381 1213T384 1134T385 1026Q385 964 383 886T375 727ZM846 1335Q860 1331 897 1315T968 1282T1010 1258Q1001
1233 969 1159T888 979T784 752T669 506T559 273T466 83T407 -32Q401 -30 377 -20T324 3T271 27T243 41Q264 75 303 152T394 334T502 558T614 797T717 1024T799 1213T846 1335ZM1414 262Q1417 245 1419 209T1422 133T1423 60T1424 16L854 -10Q852 -2 842 40T822
133T811 222Q842 236 893 269T1015 350Q1064 383 1099 413T1153 471T1173 518Q1173 538 1161 549T1124 560Q1088 560 1050 534T994 487Q964 501 926 527T854 581T802 628Q838 685 896 730T1024 801T1165 828Q1280 828 1344 767T1409 601Q1409 551 1390 488T1312
357Q1295 336 1274 316T1234 280T1199 252T1174 238Q1194 241 1222 244T1282 250T1347 256T1414 262Z" />
<glyph unicode="&#xbe;" horiz-adv-x="1839" d="M354 498Q232 498 151 538T39 641Q64 658 100 679T172 720T235 750Q247 730 279 711T360 692Q395 692 416 706T438 746Q438 765 418 778T350 799T218 806Q211 828 205 876T198 968Q248 968 296 976T375 1000T406
1038Q406 1058 393 1070T348 1082Q324 1082 293 1073T234 1051T196 1031Q174 1049 137 1080T68 1140T26 1182Q39 1195 83 1223T199 1275T366 1299Q437 1299 501 1275T605 1206T645 1097Q645 1056 627 1023T575 965T497 926Q547 923 591 900T663 835T691 738Q691
662 644 608T519 526T354 498ZM1065 1335Q1079 1331 1116 1315T1187 1282T1229 1258Q1220 1233 1188 1159T1107 979T1003 752T888 506T778 273T685 83T626 -32Q620 -30 596 -20T543 3T490 27T462 41Q483 75 522 152T613 334T721 558T833 797T936 1024T1018 1213T1065
1335ZM1736 146Q1722 147 1686 148T1623 149Q1623 114 1624 82T1626 15Q1596 9 1549 4T1457 -3T1389 -5Q1389 15 1389 40T1391 91T1394 135Q1353 134 1291 131T1173 124T1099 118Q1088 162 1077 214T1058 309Q1080 346 1117 401T1199 519T1287 638T1361 735T1402
787Q1421 790 1467 794T1564 802T1650 806Q1649 790 1647 733T1642 603T1637 463T1635 361Q1651 361 1671 360T1707 359T1730 357Q1732 351 1733 313T1735 228T1736 146ZM1442 559Q1432 546 1416 522T1381 469T1344 413T1314 365T1297 337Q1310 340 1332 343T1379
348T1419 351Q1419 363 1422 392T1428 454T1435 517T1442 559Z" />
<glyph unicode="&#xbf;" horiz-adv-x="1036" d="M332 639Q411 639 471 637T586 632T706 622Q706 487 651 385T499 195Q448 149 416 108T384 26Q384 -18 416 -42T497 -66Q537 -66 572 -53T636 -15T690 48T735 139L1018 -26Q991 -138 914 -217T727 -337T492 -379Q360
-379 252 -339T80 -219T15 -18Q15 72 37 132T97 237T178 320Q217 354 251 402T308 510T332 639ZM496 1103Q585 1103 652 1053T720 910Q720 859 689 815T609 744T503 716Q405 716 339 766T272 896Q272 954 303 1001T385 1075T496 1103Z" />
<glyph unicode="&#xc0;" horiz-adv-x="1185" d="M392 -15Q366 -15 317 -14T211 -10T100 -7T10 -3Q21 62 41 159T87 372T142 615T202 865T263 1103T318 1306Q432 1320 534 1328T731 1337Q789 1337 845 1334T958 1323Q978 1235 998 1124T1039 861T1081 499T1125
6Q1088 1 1019 -4T875 -12T742 -15Q740 14 739 47T736 118T734 193T732 268T731 340Q699 339 665 338T598 335T537 331T486 325T453 320Q439 258 427 196T406 78T392 -15ZM499 633Q517 636 560 640T651 646T723 649Q722 668 720 723T715 844T710 963T706 1033Q692
1033 663 1032T608 1028T570 1025Q564 995 554 943T534 832T514 720T499 633ZM425 1724Q448 1722 499 1700T613 1645T737 1575T840 1505L686 1409Q653 1424 595 1445T469 1487T335 1526T222 1554Q230 1565 259 1593T333 1658T425 1724Z" />
<glyph unicode="&#xc1;" horiz-adv-x="1185" d="M392 -15Q366 -15 317 -14T211 -10T100 -7T10 -3Q21 62 41 159T87 372T142 615T202 865T263 1103T318 1306Q432 1320 534 1328T731 1337Q789 1337 845 1334T958 1323Q978 1235 998 1124T1039 861T1081 499T1125
6Q1088 1 1019 -4T875 -12T742 -15Q740 14 739 47T736 118T734 193T732 268T731 340Q699 339 665 338T598 335T537 331T486 325T453 320Q439 258 427 196T406 78T392 -15ZM499 633Q517 636 560 640T651 646T723 649Q722 668 720 723T715 844T710 963T706 1033Q692
1033 663 1032T608 1028T570 1025Q564 995 554 943T534 832T514 720T499 633ZM823 1719Q873 1688 917 1652T990 1587T1026 1548Q981 1538 917 1519T785 1477T660 1432T571 1395L415 1491Q454 1523 513 1560T634 1633T748 1692T823 1719Z" />
<glyph unicode="&#xc2;" horiz-adv-x="1185" d="M392 -15Q366 -15 317 -14T211 -10T100 -7T10 -3Q21 62 41 159T87 372T142 615T202 865T263 1103T318 1306Q432 1320 534 1328T731 1337Q789 1337 845 1334T958 1323Q978 1235 998 1124T1039 861T1081 499T1125
6Q1088 1 1019 -4T875 -12T742 -15Q740 14 739 47T736 118T734 193T732 268T731 340Q699 339 665 338T598 335T537 331T486 325T453 320Q439 258 427 196T406 78T392 -15ZM499 633Q517 636 560 640T651 646T723 649Q722 668 720 723T715 844T710 963T706 1033Q692
1033 663 1032T608 1028T570 1025Q564 995 554 943T534 832T514 720T499 633ZM778 1780Q816 1738 871 1682T978 1576T1058 1503Q1002 1464 940 1433T830 1386Q804 1416 775 1448T720 1511T674 1562T647 1593H678Q666 1584 641 1564T583 1515T515 1455T450 1392Q419
1402 376 1426T291 1479T220 1534Q280 1573 350 1623T476 1717T553 1777Q573 1777 617 1777T708 1778T778 1780Z" />
<glyph unicode="&#xc3;" horiz-adv-x="1185" d="M392 -15Q366 -15 317 -14T211 -10T100 -7T10 -3Q21 62 41 159T87 372T142 615T202 865T263 1103T318 1306Q432 1320 534 1328T731 1337Q789 1337 845 1334T958 1323Q978 1235 998 1124T1039 861T1081 499T1125
6Q1088 1 1019 -4T875 -12T742 -15Q740 14 739 47T736 118T734 193T732 268T731 340Q699 339 665 338T598 335T537 331T486 325T453 320Q439 258 427 196T406 78T392 -15ZM499 633Q517 636 560 640T651 646T723 649Q722 668 720 723T715 844T710 963T706 1033Q692
1033 663 1032T608 1028T570 1025Q564 995 554 943T534 832T514 720T499 633ZM202 1587Q219 1635 260 1678T359 1750T484 1778Q542 1778 582 1754T656 1701Q684 1677 712 1660T774 1642Q818 1642 846 1676T888 1750L1056 1643Q1052 1619 1033 1582T980 1509T899
1448T791 1423Q739 1423 697 1449T617 1505Q587 1529 559 1546T502 1564Q463 1564 436 1543T391 1494T365 1448L202 1587Z" />
<glyph unicode="&#xc4;" horiz-adv-x="1185" d="M392 -15Q366 -15 317 -14T211 -10T100 -7T10 -3Q21 62 41 159T87 372T142 615T202 865T263 1103T318 1306Q432 1320 534 1328T731 1337Q789 1337 845 1334T958 1323Q978 1235 998 1124T1039 861T1081 499T1125
6Q1088 1 1019 -4T875 -12T742 -15Q740 14 739 47T736 118T734 193T732 268T731 340Q699 339 665 338T598 335T537 331T486 325T453 320Q439 258 427 196T406 78T392 -15ZM499 633Q517 636 560 640T651 646T723 649Q722 668 720 723T715 844T710 963T706 1033Q692
1033 663 1032T608 1028T570 1025Q564 995 554 943T534 832T514 720T499 633ZM427 1457Q361 1457 310 1496T258 1597Q258 1665 307 1711T426 1758Q502 1758 549 1712T596 1599Q596 1537 546 1497T427 1457ZM852 1465Q785 1465 736 1509T687 1617Q687 1681 733 1726T844
1772Q916 1772 969 1729T1022 1618Q1022 1572 997 1538T932 1484T852 1465Z" />
<glyph unicode="&#xc5;" horiz-adv-x="1185" d="M392 -15Q366 -15 317 -14T211 -10T100 -7T10 -3Q21 62 41 159T87 372T142 615T202 865T263 1103T318 1306Q432 1320 534 1328T731 1337Q789 1337 845 1334T958 1323Q978 1235 998 1124T1039 861T1081 499T1125
6Q1088 1 1019 -4T875 -12T742 -15Q740 14 739 47T736 118T734 193T732 268T731 340Q699 339 665 338T598 335T537 331T486 325T453 320Q439 258 427 196T406 78T392 -15ZM499 633Q517 636 560 640T651 646T723 649Q722 668 720 723T715 844T710 963T706 1033Q692
1033 663 1032T608 1028T570 1025Q564 995 554 943T534 832T514 720T499 633ZM637 1379Q553 1379 485 1415T376 1516T335 1663Q335 1739 378 1800T490 1898T640 1934Q724 1934 793 1901T904 1810T945 1678Q945 1596 904 1528T793 1420T637 1379ZM632 1582Q668 1582
694 1603T721 1654Q721 1690 697 1710T637 1731Q607 1731 583 1710T558 1661Q558 1624 580 1603T632 1582Z" />
<glyph unicode="&#xc6;" horiz-adv-x="1744" d="M1602 -44Q1527 -39 1427 -34T1220 -25T1016 -18T847 -15Q851 60 852 143T854 315Q823 314 781 313T693 310T605 306T533 301T490 296Q463 239 438 181T393 71T359 -16Q334 -16 285 -15T178 -12T67 -8T-20 -5Q5
56 46 146T137 345T245 571T359 804T469 1026T568 1216Q596 1219 664 1225T827 1238T1026 1254T1235 1270T1427 1285T1573 1295T1646 1299Q1646 1227 1642 1157T1629 1009L1185 976Q1184 966 1184 944T1183 896T1182 846T1182 813Q1205 813 1243 813T1327 815T1419
816T1506 817T1572 819L1567 512Q1553 513 1514 514T1421 518T1316 522T1225 525T1174 526Q1173 490 1171 432T1169 339Q1225 339 1284 339T1401 339Q1447 339 1491 338T1574 334T1638 329Q1638 284 1634 226T1625 111T1613 12T1602 -44ZM606 588Q625 591 673 594T771
600T848 604Q848 626 850 676T856 783T862 890T868 961Q854 961 830 960T783 957T750 954Q738 925 718 877T677 774T637 669T606 588Z" />
<glyph unicode="&#xc7;" horiz-adv-x="1137" d="M541 -519Q462 -519 407 -510T336 -496L394 -310Q417 -319 466 -327T543 -335Q635 -335 684 -318T733 -266Q733 -236 699 -224T613 -211Q577 -211 539 -216T469 -228T418 -243L472 12L672 22L649 -128Q666 -104
706 -87T796 -69Q876 -69 926 -114T977 -258Q977 -347 917 -405T756 -491T541 -519ZM1108 224Q1058 165 985 111T819 22T618 -13Q474 -13 365 36T181 174T68 388T30 661Q30 854 97 1004T293 1240T606 1326Q757 1326 885 1264T1088 1073Q1057 1040 1008 999T907
920T818 860Q815 869 801 894T762 946T701 994T618 1014Q568 1014 531 989T468 920T430 817T417 691Q417 623 427 561T460 452T520 377T612 350Q656 350 699 366T781 412T856 479Q897 451 946 407T1039 314T1108 224Z" />
<glyph unicode="&#xc8;" horiz-adv-x="957" d="M816 -14Q721 -8 628 -3T439 8Q353 12 266 17T91 27Q85 200 82 359T79 659Q79 873 83 1026T91 1251Q283 1288 447 1304T722 1325T859 1329Q859 1257 855 1187T843 1038L443 1005Q441 996 441 974T440 925T439 876T439
843Q463 843 496 843T569 845T648 846T723 847T785 849L780 542Q767 543 732 544T650 548T559 552T479 555T431 556Q430 547 430 529T429 488T428 442T427 400T426 368Q437 369 494 369T614 369Q660 369 704 368T787 364T852 358Q851 313 847 255T838 140T826 41T816
-14ZM282 1717Q305 1715 356 1693T470 1638T594 1568T697 1498L543 1402Q510 1417 452 1438T326 1480T192 1519T79 1547Q87 1558 116 1586T190 1651T282 1717Z" />
<glyph unicode="&#xc9;" horiz-adv-x="957" d="M816 -14Q721 -8 628 -3T439 8Q353 12 266 17T91 27Q85 200 82 359T79 659Q79 873 83 1026T91 1251Q283 1288 447 1304T722 1325T859 1329Q859 1257 855 1187T843 1038L443 1005Q441 996 441 974T440 925T439 876T439
843Q463 843 496 843T569 845T648 846T723 847T785 849L780 542Q767 543 732 544T650 548T559 552T479 555T431 556Q430 547 430 529T429 488T428 442T427 400T426 368Q437 369 494 369T614 369Q660 369 704 368T787 364T852 358Q851 313 847 255T838 140T826 41T816
-14ZM680 1713Q730 1682 774 1646T847 1581T883 1542Q838 1532 774 1513T642 1471T517 1426T428 1389L272 1485Q311 1517 370 1554T491 1627T605 1686T680 1713Z" />
<glyph unicode="&#xca;" horiz-adv-x="957" d="M816 -14Q721 -8 628 -3T439 8Q353 12 266 17T91 27Q85 200 82 359T79 659Q79 873 83 1026T91 1251Q283 1288 447 1304T722 1325T859 1329Q859 1257 855 1187T843 1038L443 1005Q441 996 441 974T440 925T439 876T439
843Q463 843 496 843T569 845T648 846T723 847T785 849L780 542Q767 543 732 544T650 548T559 552T479 555T431 556Q430 547 430 529T429 488T428 442T427 400T426 368Q437 369 494 369T614 369Q660 369 704 368T787 364T852 358Q851 313 847 255T838 140T826 41T816
-14ZM635 1773Q673 1731 728 1675T835 1569T915 1496Q859 1457 797 1426T687 1379Q661 1409 632 1441T577 1504T531 1555T504 1586H535Q523 1577 498 1557T440 1508T372 1448T307 1385Q276 1395 233 1419T148 1472T77 1527Q137 1566 207 1616T333 1710T410 1770Q430
1770 474 1770T565 1771T635 1773Z" />
<glyph unicode="&#xcb;" horiz-adv-x="957" d="M816 -14Q721 -8 628 -3T439 8Q353 12 266 17T91 27Q85 200 82 359T79 659Q79 873 83 1026T91 1251Q283 1288 447 1304T722 1325T859 1329Q859 1257 855 1187T843 1038L443 1005Q441 996 441 974T440 925T439 876T439
843Q463 843 496 843T569 845T648 846T723 847T785 849L780 542Q767 543 732 544T650 548T559 552T479 555T431 556Q430 547 430 529T429 488T428 442T427 400T426 368Q437 369 494 369T614 369Q660 369 704 368T787 364T852 358Q851 313 847 255T838 140T826 41T816
-14ZM284 1450Q218 1450 167 1489T115 1590Q115 1658 164 1704T283 1751Q359 1751 406 1705T453 1592Q453 1530 403 1490T284 1450ZM709 1458Q642 1458 593 1502T544 1610Q544 1674 590 1719T701 1765Q773 1765 826 1722T879 1611Q879 1565 854 1531T789 1477T709
1458Z" />
<glyph unicode="&#xcc;" horiz-adv-x="583" d="M452 -21Q407 -21 347 -20T227 -16T116 -6Q114 56 112 155T109 368T107 589Q107 754 110 937T117 1315Q136 1316 178 1317T272 1319T373 1322T456 1323Q462 1221 466 1091T472 823T475 552Q475 486 474 419T472 287T468
165T461 59T452 -21ZM338 1688Q361 1686 412 1664T526 1609T650 1539T753 1469L599 1373Q566 1388 508 1409T382 1451T248 1490T135 1518Q143 1529 172 1557T246 1622T338 1688Z" />
<glyph unicode="&#xcd;" horiz-adv-x="583" d="M452 -21Q407 -21 347 -20T227 -16T116 -6Q114 56 112 155T109 368T107 589Q107 754 110 937T117 1315Q136 1316 178 1317T272 1319T373 1322T456 1323Q462 1221 466 1091T472 823T475 552Q475 486 474 419T472 287T468
165T461 59T452 -21ZM481 1684Q531 1653 575 1617T648 1552T684 1513Q639 1503 575 1484T443 1442T318 1397T229 1360L73 1456Q112 1488 171 1525T292 1598T406 1657T481 1684Z" />
<glyph unicode="&#xce;" horiz-adv-x="583" d="M452 -21Q407 -21 347 -20T227 -16T116 -6Q114 56 112 155T109 368T107 589Q107 754 110 937T117 1315Q136 1316 178 1317T272 1319T373 1322T456 1323Q462 1221 466 1091T472 823T475 552Q475 486 474 419T472 287T468
165T461 59T452 -21ZM435 1744Q473 1702 528 1646T635 1540T715 1467Q659 1428 597 1397T487 1350Q461 1380 432 1412T377 1475T331 1526T304 1557H335Q323 1548 298 1528T240 1479T172 1419T107 1356Q76 1366 33 1390T-52 1443T-123 1498Q-63 1537 7 1587T133
1681T210 1741Q230 1741 274 1741T365 1742T435 1744Z" />
<glyph unicode="&#xcf;" horiz-adv-x="583" d="M452 -21Q407 -21 347 -20T227 -16T116 -6Q114 56 112 155T109 368T107 589Q107 754 110 937T117 1315Q136 1316 178 1317T272 1319T373 1322T456 1323Q462 1221 466 1091T472 823T475 552Q475 486 474 419T472 287T468
165T461 59T452 -21ZM84 1421Q18 1421 -33 1460T-85 1561Q-85 1629 -36 1675T83 1722Q159 1722 206 1676T253 1563Q253 1501 203 1461T84 1421ZM509 1429Q442 1429 393 1473T344 1581Q344 1645 390 1690T501 1736Q573 1736 626 1693T679 1582Q679 1536 654 1502T589
1448T509 1429Z" />
<glyph unicode="&#xd0;" horiz-adv-x="1198" d="M606 563Q565 563 495 561T340 555T172 546T22 533Q16 577 14 619T11 703Q58 714 137 724T306 742T473 755T596 760Q598 739 602 682T606 563ZM152 -33Q146 13 139 100T121 301T102 540T83 787T66 1015T53 1196T45
1299Q89 1304 156 1310T299 1320T444 1325Q631 1325 761 1287T971 1166T1088 952T1125 637Q1125 426 1068 294T891 91T589 -6T152 -33ZM489 340Q593 342 652 374T735 465T759 609Q759 708 735 801T657 954T511 1014Q494 1014 475 1014T443 1012Q450 916 458 798T474
560T489 340Z" />
<glyph unicode="&#xd1;" horiz-adv-x="1282" d="M486 -7Q417 -7 342 -3T203 7T104 17Q105 25 105 63T105 162T106 299T106 460T107 632Q107 751 106 870T103 1093T95 1265Q116 1265 161 1264T262 1259T369 1250T459 1240Q522 1152 577 1063T681 885T774 705T857
519L818 1246Q850 1246 898 1243T999 1236T1095 1225T1161 1212Q1165 1174 1168 1127T1174 1025T1178 912T1180 793T1181 675Q1181 563 1179 453T1171 248T1160 89T1147 4Q1117 3 1083 2T1012 1Q958 1 908 3T823 12Q815 27 796 63T749 153T686 271T613 406T537
548T462 685Q466 658 468 606T473 487T478 348T482 206T485 82T486 -7ZM204 1551Q221 1599 262 1642T361 1714T486 1742Q544 1742 584 1718T658 1665Q686 1641 714 1624T776 1606Q820 1606 848 1640T890 1714L1058 1607Q1054 1583 1035 1546T982 1473T901 1412T793
1387Q741 1387 699 1413T619 1469Q589 1493 561 1510T504 1528Q465 1528 438 1507T393 1458T367 1412L204 1551Z" />
<glyph unicode="&#xd2;" horiz-adv-x="1354" d="M666 -51Q452 -51 317 39T117 284T53 636Q53 834 126 988T335 1231T666 1320Q827 1320 943 1269T1133 1125T1244 908T1280 640Q1280 505 1245 381T1135 159T945 6T666 -51ZM671 310Q763 310 826 362T921 498T954
677Q954 747 941 810T896 921T814 998T688 1026Q607 1026 545 975T447 836T411 644Q411 548 435 473T516 354T671 310ZM463 1688Q486 1686 537 1664T651 1609T775 1539T878 1469L724 1373Q691 1388 633 1409T507 1451T373 1490T260 1518Q268 1529 297 1557T371
1622T463 1688Z" />
<glyph unicode="&#xd3;" horiz-adv-x="1354" d="M666 -51Q452 -51 317 39T117 284T53 636Q53 834 126 988T335 1231T666 1320Q827 1320 943 1269T1133 1125T1244 908T1280 640Q1280 505 1245 381T1135 159T945 6T666 -51ZM671 310Q763 310 826 362T921 498T954
677Q954 747 941 810T896 921T814 998T688 1026Q607 1026 545 975T447 836T411 644Q411 548 435 473T516 354T671 310ZM861 1684Q911 1653 955 1617T1028 1552T1064 1513Q1019 1503 955 1484T823 1442T698 1397T609 1360L453 1456Q492 1488 551 1525T672 1598T786
1657T861 1684Z" />
<glyph unicode="&#xd4;" horiz-adv-x="1354" d="M666 -51Q452 -51 317 39T117 284T53 636Q53 834 126 988T335 1231T666 1320Q827 1320 943 1269T1133 1125T1244 908T1280 640Q1280 505 1245 381T1135 159T945 6T666 -51ZM671 310Q763 310 826 362T921 498T954
677Q954 747 941 810T896 921T814 998T688 1026Q607 1026 545 975T447 836T411 644Q411 548 435 473T516 354T671 310ZM816 1744Q854 1702 909 1646T1016 1540T1096 1467Q1040 1428 978 1397T868 1350Q842 1380 813 1412T758 1475T712 1526T685 1557H716Q704 1548
679 1528T621 1479T553 1419T488 1356Q457 1366 414 1390T329 1443T258 1498Q318 1537 388 1587T514 1681T591 1741Q611 1741 655 1741T746 1742T816 1744Z" />
<glyph unicode="&#xd5;" horiz-adv-x="1354" d="M666 -51Q452 -51 317 39T117 284T53 636Q53 834 126 988T335 1231T666 1320Q827 1320 943 1269T1133 1125T1244 908T1280 640Q1280 505 1245 381T1135 159T945 6T666 -51ZM671 310Q763 310 826 362T921 498T954
677Q954 747 941 810T896 921T814 998T688 1026Q607 1026 545 975T447 836T411 644Q411 548 435 473T516 354T671 310ZM240 1551Q257 1599 298 1642T397 1714T522 1742Q580 1742 620 1718T694 1665Q722 1641 750 1624T812 1606Q856 1606 884 1640T926 1714L1094
1607Q1090 1583 1071 1546T1018 1473T937 1412T829 1387Q777 1387 735 1413T655 1469Q625 1493 597 1510T540 1528Q501 1528 474 1507T429 1458T403 1412L240 1551Z" />
<glyph unicode="&#xd6;" horiz-adv-x="1354" d="M666 -51Q452 -51 317 39T117 284T53 636Q53 834 126 988T335 1231T666 1320Q827 1320 943 1269T1133 1125T1244 908T1280 640Q1280 505 1245 381T1135 159T945 6T666 -51ZM671 310Q763 310 826 362T921 498T954
677Q954 747 941 810T896 921T814 998T688 1026Q607 1026 545 975T447 836T411 644Q411 548 435 473T516 354T671 310ZM464 1421Q398 1421 347 1460T295 1561Q295 1629 344 1675T463 1722Q539 1722 586 1676T633 1563Q633 1501 583 1461T464 1421ZM889 1429Q822
1429 773 1473T724 1581Q724 1645 770 1690T881 1736Q953 1736 1006 1693T1059 1582Q1059 1536 1034 1502T969 1448T889 1429Z" />
<glyph unicode="&#xd7;" horiz-adv-x="1041" d="M990 909Q965 873 906 810T766 670T598 513T425 364T274 248Q261 257 231 285T166 348T103 413T66 456Q107 487 180 554T341 705T515 876T668 1034T767 1143Q779 1134 811 1101T883 1026T952 951T990 909ZM291 1124Q346
1082 431 1006T614 836T810 643T985 458Q975 442 946 411T881 345T814 282T769 245Q720 298 645 368T484 515T314 663T163 789T58 869Q65 877 88 904T142 966T204 1035T260 1093T291 1124Z" />
<glyph unicode="&#xd8;" horiz-adv-x="1354" d="M903 1408Q988 1400 1050 1368T1143 1300Q1068 1051 965 836T747 441T523 121T329 -117Q254 -100 199 -70T101 2Q204 122 322 279T552 618T757 1001T903 1408ZM666 -51Q452 -51 317 39T117 284T53 636Q53 834 126
988T335 1231T666 1320Q827 1320 943 1269T1133 1125T1244 908T1280 640Q1280 505 1245 381T1135 159T945 6T666 -51ZM671 310Q763 310 826 362T921 498T954 677Q954 747 941 810T896 921T814 998T688 1026Q607 1026 545 975T447 836T411 644Q411 548 435 473T516
354T671 310Z" />
<glyph unicode="&#xd9;" horiz-adv-x="1212" d="M593 -29Q413 -29 311 47T157 268Q107 408 95 611T83 1073Q83 1105 84 1138T85 1205T87 1273T90 1339Q137 1343 184 1346T274 1350Q329 1350 385 1347T486 1338Q479 1265 475 1181T468 1008T466 833Q466 736 471
662T488 537Q504 469 534 437T614 405Q674 405 705 444T748 553T760 712Q760 751 759 815T756 956T751 1107T745 1240T737 1328Q782 1328 841 1325T958 1317T1059 1307T1113 1299Q1121 1247 1126 1188T1134 1067T1137 940Q1137 739 1116 564T1037 255T872 46T593
-29ZM392 1722Q415 1720 466 1698T580 1643T704 1573T807 1503L653 1407Q620 1422 562 1443T436 1485T302 1524T189 1552Q197 1563 226 1591T300 1656T392 1722Z" />
<glyph unicode="&#xda;" horiz-adv-x="1212" d="M593 -29Q413 -29 311 47T157 268Q107 408 95 611T83 1073Q83 1105 84 1138T85 1205T87 1273T90 1339Q137 1343 184 1346T274 1350Q329 1350 385 1347T486 1338Q479 1265 475 1181T468 1008T466 833Q466 736 471
662T488 537Q504 469 534 437T614 405Q674 405 705 444T748 553T760 712Q760 751 759 815T756 956T751 1107T745 1240T737 1328Q782 1328 841 1325T958 1317T1059 1307T1113 1299Q1121 1247 1126 1188T1134 1067T1137 940Q1137 739 1116 564T1037 255T872 46T593
-29ZM790 1718Q840 1687 884 1651T957 1586T993 1547Q948 1537 884 1518T752 1476T627 1431T538 1394L382 1490Q421 1522 480 1559T601 1632T715 1691T790 1718Z" />
<glyph unicode="&#xdb;" horiz-adv-x="1212" d="M593 -29Q413 -29 311 47T157 268Q107 408 95 611T83 1073Q83 1105 84 1138T85 1205T87 1273T90 1339Q137 1343 184 1346T274 1350Q329 1350 385 1347T486 1338Q479 1265 475 1181T468 1008T466 833Q466 736 471
662T488 537Q504 469 534 437T614 405Q674 405 705 444T748 553T760 712Q760 751 759 815T756 956T751 1107T745 1240T737 1328Q782 1328 841 1325T958 1317T1059 1307T1113 1299Q1121 1247 1126 1188T1134 1067T1137 940Q1137 739 1116 564T1037 255T872 46T593
-29ZM745 1778Q783 1736 838 1680T945 1574T1025 1501Q969 1462 907 1431T797 1384Q771 1414 742 1446T687 1509T641 1560T614 1591H645Q633 1582 608 1562T550 1513T482 1453T417 1390Q386 1400 343 1424T258 1477T187 1532Q247 1571 317 1621T443 1715T520 1775Q540
1775 584 1775T675 1776T745 1778Z" />
<glyph unicode="&#xdc;" horiz-adv-x="1212" d="M593 -29Q413 -29 311 47T157 268Q107 408 95 611T83 1073Q83 1105 84 1138T85 1205T87 1273T90 1339Q137 1343 184 1346T274 1350Q329 1350 385 1347T486 1338Q479 1265 475 1181T468 1008T466 833Q466 736 471
662T488 537Q504 469 534 437T614 405Q674 405 705 444T748 553T760 712Q760 751 759 815T756 956T751 1107T745 1240T737 1328Q782 1328 841 1325T958 1317T1059 1307T1113 1299Q1121 1247 1126 1188T1134 1067T1137 940Q1137 739 1116 564T1037 255T872 46T593
-29ZM393 1455Q327 1455 276 1494T224 1595Q224 1663 273 1709T392 1756Q468 1756 515 1710T562 1597Q562 1535 512 1495T393 1455ZM818 1463Q751 1463 702 1507T653 1615Q653 1679 699 1724T810 1770Q882 1770 935 1727T988 1616Q988 1570 963 1536T898 1482T818
1463Z" />
<glyph unicode="&#xdd;" horiz-adv-x="1065" d="M413 571Q382 613 350 662T284 764T217 876T151 996T87 1123T28 1255Q132 1295 227 1309T381 1324Q389 1305 404 1268T438 1185T479 1090T520 998T555 924Q564 946 582 983T622 1065T669 1157T714 1244T751 1308Q812
1305 874 1287T992 1245T1087 1198Q1042 1139 983 1045T858 835T730 597Q732 536 734 467T738 337T739 238Q739 194 739 147T738 64T737 18Q724 12 682 8T587 4Q532 4 478 8T389 20Q389 73 391 147T396 300T404 450T413 571ZM766 1684Q816 1653 860 1617T933 1552T969
1513Q924 1503 860 1484T728 1442T603 1397T514 1360L358 1456Q397 1488 456 1525T577 1598T691 1657T766 1684Z" />
<glyph unicode="&#xde;" horiz-adv-x="1316" d="M389 1282Q398 1221 408 1120T428 895T448 638T465 383T477 161T482 4Q436 -4 367 -10T225 -19T95 -22Q95 30 94 127T91 348T86 605T80 866T73 1098T64 1264Q79 1266 170 1274T389 1282ZM376 749L339 1072Q393 1087
477 1102T650 1117Q806 1117 939 1068T1154 914T1236 637Q1236 513 1186 430T1049 297T852 227T623 205Q562 205 502 209T383 220L397 539Q440 534 500 529T622 524Q747 524 822 554T897 672Q897 750 835 780T672 810Q577 810 502 790T376 749Z" />
<glyph unicode="&#xdf;" horiz-adv-x="1144" d="M160 -5Q150 33 136 120T106 324T76 563T52 798T43 988Q43 1137 108 1231T281 1369T513 1413Q631 1413 730 1365T889 1234T950 1048Q950 983 920 934T859 848Q840 825 826 806T812 770Q812 741 845 715T916 663Q959
638 1001 593T1071 485T1099 347Q1099 247 1060 167T946 39T769 -8Q669 -8 607 18T516 69L622 331Q653 308 686 289T756 269Q792 269 807 292T822 345Q822 392 789 434T701 514T583 588Q555 604 529 638T502 729Q502 769 525 801T578 865Q608 898 632 933T657 1011Q657
1044 636 1073T580 1121T505 1140Q477 1140 444 1132T388 1097T365 1018Q365 961 371 874T388 686T411 481T436 287T457 133T470 47L160 -5Z" />
<glyph unicode="&#xe0;" horiz-adv-x="1295" d="M504 -16Q380 -16 278 17T116 126T55 328Q55 455 126 531T314 640T561 674Q607 674 650 667T727 649T777 627Q776 650 767 678T739 724Q711 755 667 777T547 800Q472 800 412 766T321 688L49 863Q95 926 173 973T349
1046T555 1073Q735 1073 844 1018T1008 857Q1033 809 1049 750T1072 618Q1076 562 1078 508T1082 399Q1083 320 1098 296T1141 271Q1166 271 1186 281T1213 308L1319 78Q1306 44 1256 17T1126 -10Q1067 -10 1014 9T924 61T883 140Q868 101 819 65T691 7T504 -16ZM580
245Q622 245 667 257T749 289T803 324Q800 346 799 373T797 418Q777 426 723 434T612 443Q562 443 515 434T438 403T408 346Q408 309 428 287T488 255T580 245ZM393 1534Q415 1531 467 1511T584 1457T710 1385T813 1307Q795 1277 764 1243T706 1183T666 1152Q633
1171 577 1193T455 1238T326 1280T215 1312Q223 1324 248 1363T311 1449T393 1534Z" />
<glyph unicode="&#xe1;" horiz-adv-x="1295" d="M504 -16Q380 -16 278 17T116 126T55 328Q55 455 126 531T314 640T561 674Q607 674 650 667T727 649T777 627Q776 650 767 678T739 724Q711 755 667 777T547 800Q472 800 412 766T321 688L49 863Q95 926 173 973T349
1046T555 1073Q735 1073 844 1018T1008 857Q1033 809 1049 750T1072 618Q1076 562 1078 508T1082 399Q1083 320 1098 296T1141 271Q1166 271 1186 281T1213 308L1319 78Q1306 44 1256 17T1126 -10Q1067 -10 1014 9T924 61T883 140Q868 101 819 65T691 7T504 -16ZM580
245Q622 245 667 257T749 289T803 324Q800 346 799 373T797 418Q777 426 723 434T612 443Q562 443 515 434T438 403T408 346Q408 309 428 287T488 255T580 245ZM754 1519Q807 1491 848 1451T915 1375T950 1327Q908 1313 861 1293T765 1249T674 1204T599 1164T550
1136Q542 1140 517 1153T461 1184T404 1218T368 1248Q396 1284 448 1326T559 1409T672 1480T754 1519Z" />
<glyph unicode="&#xe2;" horiz-adv-x="1295" d="M504 -16Q380 -16 278 17T116 126T55 328Q55 455 126 531T314 640T561 674Q607 674 650 667T727 649T777 627Q776 650 767 678T739 724Q711 755 667 777T547 800Q472 800 412 766T321 688L49 863Q95 926 173 973T349
1046T555 1073Q735 1073 844 1018T1008 857Q1033 809 1049 750T1072 618Q1076 562 1078 508T1082 399Q1083 320 1098 296T1141 271Q1166 271 1186 281T1213 308L1319 78Q1306 44 1256 17T1126 -10Q1067 -10 1014 9T924 61T883 140Q868 101 819 65T691 7T504 -16ZM580
245Q622 245 667 257T749 289T803 324Q800 346 799 373T797 418Q777 426 723 434T612 443Q562 443 515 434T438 403T408 346Q408 309 428 287T488 255T580 245ZM741 1518Q780 1482 831 1432T934 1331T1022 1239Q966 1200 904 1169T794 1122Q768 1154 739 1187T682
1251T636 1303T610 1331H641Q629 1323 604 1302T545 1252T477 1192T413 1131Q382 1141 339 1164T254 1217T183 1273Q228 1309 277 1346T373 1417T457 1477T516 1515Q536 1516 580 1517T671 1518T741 1518Z" />
<glyph unicode="&#xe3;" horiz-adv-x="1295" d="M504 -16Q380 -16 278 17T116 126T55 328Q55 455 126 531T314 640T561 674Q607 674 650 667T727 649T777 627Q776 650 767 678T739 724Q711 755 667 777T547 800Q472 800 412 766T321 688L49 863Q95 926 173 973T349
1046T555 1073Q735 1073 844 1018T1008 857Q1033 809 1049 750T1072 618Q1076 562 1078 508T1082 399Q1083 320 1098 296T1141 271Q1166 271 1186 281T1213 308L1319 78Q1306 44 1256 17T1126 -10Q1067 -10 1014 9T924 61T883 140Q868 101 819 65T691 7T504 -16ZM580
245Q622 245 667 257T749 289T803 324Q800 346 799 373T797 418Q777 426 723 434T612 443Q562 443 515 434T438 403T408 346Q408 309 428 287T488 255T580 245ZM172 1322Q188 1370 229 1413T329 1485T454 1513Q512 1513 552 1489T626 1437Q654 1413 682 1395T744
1377Q788 1377 816 1411T858 1485L1026 1379Q1022 1354 1003 1318T950 1245T869 1184T760 1159Q709 1159 667 1185T587 1240Q557 1265 528 1282T471 1299Q433 1299 405 1278T360 1230T335 1184L172 1322Z" />
<glyph unicode="&#xe4;" horiz-adv-x="1295" d="M504 -16Q380 -16 278 17T116 126T55 328Q55 455 126 531T314 640T561 674Q607 674 650 667T727 649T777 627Q776 650 767 678T739 724Q711 755 667 777T547 800Q472 800 412 766T321 688L49 863Q95 926 173 973T349
1046T555 1073Q735 1073 844 1018T1008 857Q1033 809 1049 750T1072 618Q1076 562 1078 508T1082 399Q1083 320 1098 296T1141 271Q1166 271 1186 281T1213 308L1319 78Q1306 44 1256 17T1126 -10Q1067 -10 1014 9T924 61T883 140Q868 101 819 65T691 7T504 -16ZM580
245Q622 245 667 257T749 289T803 324Q800 346 799 373T797 418Q777 426 723 434T612 443Q562 443 515 434T438 403T408 346Q408 309 428 287T488 255T580 245ZM390 1181Q324 1181 273 1220T221 1322Q221 1390 270 1436T389 1482Q465 1482 512 1436T559 1323Q559
1261 509 1221T390 1181ZM815 1189Q748 1189 699 1233T650 1341Q650 1406 696 1451T807 1497Q879 1497 932 1453T985 1342Q985 1296 960 1262T895 1209T815 1189Z" />
<glyph unicode="&#xe5;" horiz-adv-x="1295" d="M504 -16Q380 -16 278 17T116 126T55 328Q55 455 126 531T314 640T561 674Q607 674 650 667T727 649T777 627Q776 650 767 678T739 724Q711 755 667 777T547 800Q472 800 412 766T321 688L49 863Q95 926 173 973T349
1046T555 1073Q735 1073 844 1018T1008 857Q1033 809 1049 750T1072 618Q1076 562 1078 508T1082 399Q1083 320 1098 296T1141 271Q1166 271 1186 281T1213 308L1319 78Q1306 44 1256 17T1126 -10Q1067 -10 1014 9T924 61T883 140Q868 101 819 65T691 7T504 -16ZM580
245Q622 245 667 257T749 289T803 324Q800 346 799 373T797 418Q777 426 723 434T612 443Q562 443 515 434T438 403T408 346Q408 309 428 287T488 255T580 245ZM599 1159Q515 1159 447 1195T338 1296T297 1443Q297 1519 340 1580T452 1678T602 1714Q686 1714 755
1681T866 1590T907 1458Q907 1376 866 1308T755 1200T599 1159ZM594 1363Q630 1363 656 1384T683 1434Q683 1470 659 1490T599 1511Q569 1511 545 1490T520 1441Q520 1404 542 1384T594 1363Z" />
<glyph unicode="&#xe6;" horiz-adv-x="1762" d="M530 -13Q402 -13 291 28T112 152T43 361Q43 451 84 513T195 613T350 668T523 685Q546 685 576 683T636 677T691 667T728 652Q727 680 721 705T700 752Q678 786 637 806T532 827Q464 827 390 802T280 737L67 941Q111
987 187 1026T354 1089T531 1114Q633 1114 732 1079T907 956Q969 884 1003 803T1050 634T1063 450Q1063 352 1020 268T903 120T732 22T530 -13ZM515 250Q587 250 639 266T719 304T748 348Q748 369 747 390T742 429Q726 436 703 441T653 449T600 452Q551 452 498
440T409 404T373 339Q373 300 394 281T448 256T515 250ZM1778 165Q1748 129 1705 97T1603 41T1470 3T1304 -11Q1152 -11 1034 46T849 215T782 495Q782 667 850 795T1042 993T1333 1064Q1542 1064 1664 951T1789 633Q1790 594 1788 564T1778 499Q1762 500 1711 501T1595
503T1476 505T1400 506Q1318 506 1245 499T1125 484Q1125 469 1127 454T1133 426Q1145 391 1173 367T1241 331T1326 318Q1364 318 1396 325T1459 348T1515 383T1569 428Q1575 423 1602 396T1663 329T1730 246T1778 165ZM1139 688Q1176 695 1231 700T1360 705Q1401
705 1435 704T1483 701Q1483 718 1477 739Q1470 769 1449 794T1395 834T1319 850Q1263 850 1223 825T1163 763T1139 688Z" />
<glyph unicode="&#xe7;" horiz-adv-x="1026" d="M480 -493Q401 -493 346 -484T275 -470L333 -283Q356 -293 405 -301T482 -309Q573 -309 622 -292T672 -240Q672 -210 638 -198T552 -185Q515 -185 477 -190T407 -202T357 -216L410 12L611 22L587 -101Q605 -77 645
-60T735 -43Q814 -43 864 -88T915 -231Q915 -321 855 -379T695 -465T480 -493ZM985 214Q953 160 890 109T736 23T525 -11Q371 -11 259 64T84 266T22 542Q22 699 86 824T267 1022T539 1096Q633 1096 711 1068T851 987T954 858L711 725Q707 732 698 746T671 777T625
805T556 816Q490 816 446 790T378 714T355 595Q355 543 370 487T425 392T534 353Q577 353 614 368T679 403T724 442T747 469L985 214Z" />
<glyph unicode="&#xe8;" horiz-adv-x="1119" d="M1050 165Q1021 129 978 97T876 41T743 3T576 -11Q425 -11 307 46T122 215T55 495Q55 667 123 795T315 993T605 1064Q815 1064 937 951T1062 633Q1062 594 1060 564T1050 499Q1035 500 984 501T868 503T749 505T672
506Q591 506 517 499T397 484Q397 469 399 454T406 426Q418 391 446 367T514 331T599 318Q636 318 668 325T731 348T788 383T842 428Q848 423 875 396T936 329T1002 246T1050 165ZM411 688Q448 695 503 700T633 705Q674 705 708 704T756 701Q756 718 750 739Q742
769 721 794T667 834T592 850Q535 850 496 825T435 763T411 688ZM405 1535Q427 1532 479 1512T596 1458T722 1386T825 1308Q807 1278 776 1244T718 1184T678 1153Q645 1172 589 1194T467 1239T338 1281T227 1313Q235 1325 260 1364T323 1450T405 1535Z" />
<glyph unicode="&#xe9;" horiz-adv-x="1119" d="M1050 165Q1021 129 978 97T876 41T743 3T576 -11Q425 -11 307 46T122 215T55 495Q55 667 123 795T315 993T605 1064Q815 1064 937 951T1062 633Q1062 594 1060 564T1050 499Q1035 500 984 501T868 503T749 505T672
506Q591 506 517 499T397 484Q397 469 399 454T406 426Q418 391 446 367T514 331T599 318Q636 318 668 325T731 348T788 383T842 428Q848 423 875 396T936 329T1002 246T1050 165ZM411 688Q448 695 503 700T633 705Q674 705 708 704T756 701Q756 718 750 739Q742
769 721 794T667 834T592 850Q535 850 496 825T435 763T411 688ZM766 1520Q819 1492 860 1452T927 1376T962 1328Q920 1314 873 1294T777 1250T686 1205T611 1165T562 1137Q554 1141 529 1154T473 1185T416 1219T380 1249Q408 1285 460 1327T571 1410T684 1481T766
1520Z" />
<glyph unicode="&#xea;" horiz-adv-x="1119" d="M1050 165Q1021 129 978 97T876 41T743 3T576 -11Q425 -11 307 46T122 215T55 495Q55 667 123 795T315 993T605 1064Q815 1064 937 951T1062 633Q1062 594 1060 564T1050 499Q1035 500 984 501T868 503T749 505T672
506Q591 506 517 499T397 484Q397 469 399 454T406 426Q418 391 446 367T514 331T599 318Q636 318 668 325T731 348T788 383T842 428Q848 423 875 396T936 329T1002 246T1050 165ZM411 688Q448 695 503 700T633 705Q674 705 708 704T756 701Q756 718 750 739Q742
769 721 794T667 834T592 850Q535 850 496 825T435 763T411 688ZM754 1519Q793 1483 844 1433T947 1332T1035 1240Q979 1201 917 1170T807 1123Q781 1155 752 1188T695 1252T649 1304T623 1332H654Q642 1324 617 1303T558 1253T490 1193T426 1132Q395 1142 352
1165T267 1218T196 1274Q241 1310 290 1347T386 1418T470 1478T529 1516Q549 1517 593 1518T684 1519T754 1519Z" />
<glyph unicode="&#xeb;" horiz-adv-x="1119" d="M1050 165Q1021 129 978 97T876 41T743 3T576 -11Q425 -11 307 46T122 215T55 495Q55 667 123 795T315 993T605 1064Q815 1064 937 951T1062 633Q1062 594 1060 564T1050 499Q1035 500 984 501T868 503T749 505T672
506Q591 506 517 499T397 484Q397 469 399 454T406 426Q418 391 446 367T514 331T599 318Q636 318 668 325T731 348T788 383T842 428Q848 423 875 396T936 329T1002 246T1050 165ZM411 688Q448 695 503 700T633 705Q674 705 708 704T756 701Q756 718 750 739Q742
769 721 794T667 834T592 850Q535 850 496 825T435 763T411 688ZM402 1182Q336 1182 285 1221T233 1323Q233 1391 282 1437T401 1483Q477 1483 524 1437T571 1324Q571 1262 521 1222T402 1182ZM827 1190Q760 1190 711 1234T662 1342Q662 1407 708 1452T819 1498Q891
1498 944 1454T997 1343Q997 1297 972 1263T907 1210T827 1190Z" />
<glyph unicode="&#xec;" horiz-adv-x="581" d="M412 -6Q383 -6 321 -4T187 3T53 12Q58 38 65 117T81 304T96 528T110 745T117 908Q137 910 181 911T278 913T374 914T438 915Q438 860 437 780T435 606T431 418T427 238T420 89T412 -6ZM69 1448Q91 1445 143 1425T260
1371T386 1299T489 1221Q471 1191 440 1157T382 1097T342 1066Q309 1085 253 1107T131 1152T2 1194T-109 1226Q-101 1238 -76 1277T-13 1363T69 1448Z" />
<glyph unicode="&#xed;" horiz-adv-x="581" d="M412 -6Q383 -6 321 -4T187 3T53 12Q58 38 65 117T81 304T96 528T110 745T117 908Q137 910 181 911T278 913T374 914T438 915Q438 860 437 780T435 606T431 418T427 238T420 89T412 -6ZM686 1689Q739 1661 780 1621T847
1545T882 1497Q840 1483 793 1463T697 1419T606 1374T531 1334T482 1306Q474 1310 449 1323T393 1354T336 1388T300 1418Q328 1454 380 1496T491 1579T604 1650T686 1689Z" />
<glyph unicode="&#xee;" horiz-adv-x="581" d="M412 -6Q383 -6 321 -4T187 3T53 12Q58 38 65 117T81 304T96 528T110 745T117 908Q137 910 181 911T278 913T374 914T438 915Q438 860 437 780T435 606T431 418T427 238T420 89T412 -6ZM418 1432Q457 1396 508 1346T611
1245T699 1153Q643 1114 581 1083T471 1036Q445 1068 416 1101T359 1165T313 1217T287 1245H318Q306 1237 281 1216T222 1166T154 1106T90 1045Q59 1055 16 1078T-69 1131T-140 1187Q-95 1223 -46 1260T50 1331T134 1391T193 1429Q213 1430 257 1431T348 1432T418
1432Z" />
<glyph unicode="&#xef;" horiz-adv-x="581" d="M412 -6Q383 -6 321 -4T187 3T53 12Q58 38 65 117T81 304T96 528T110 745T117 908Q137 910 181 911T278 913T374 914T438 915Q438 860 437 780T435 606T431 418T427 238T420 89T412 -6ZM66 1095Q0 1095 -51 1134T-103
1236Q-103 1304 -54 1350T65 1396Q141 1396 188 1350T235 1237Q235 1175 185 1135T66 1095ZM491 1103Q424 1103 375 1147T326 1255Q326 1320 372 1365T483 1411Q555 1411 608 1367T661 1256Q661 1210 636 1176T571 1123T491 1103Z" />
<glyph unicode="&#xf0;" horiz-adv-x="1200" d="M596 -17Q458 -17 345 23T165 150T98 381Q98 517 165 620T347 782T605 840Q639 840 670 832T716 814Q696 844 661 875T589 931T530 963Q516 943 498 922T461 881T425 842Q370 870 305 900T204 946Q224 965 237 981T259
1011T277 1039Q253 1047 221 1056T153 1073T87 1087L223 1319Q245 1317 272 1312T328 1299T380 1286T417 1275Q428 1296 437 1317T455 1360T472 1406L720 1322Q708 1285 694 1252T662 1181Q810 1115 909 1024T1059 801T1110 477Q1110 338 1042 226T858 49T596 -17ZM597
267Q645 267 691 285T766 342T796 445Q796 495 775 531T715 587T623 607Q561 607 512 583T433 516T404 412Q404 362 434 330T508 283T597 267Z" />
<glyph unicode="&#xf1;" horiz-adv-x="1330" d="M433 -14Q399 -14 349 -14T247 -12Q207 -10 153 -8T79 -4Q89 79 94 187T103 427T109 710T111 1032Q153 1038 212 1041T329 1044Q371 1044 410 1042T478 1035Q479 1027 479 1000T479 941T477 883Q499 920 555 961T687
1031T845 1060Q998 1060 1080 999T1193 813T1224 501Q1224 439 1221 354T1210 175T1192 -3Q1169 -5 1121 -6T1019 -8Q962 -8 911 -7T836 -3Q845 43 858 124T882 302T892 489Q892 565 880 622T832 710T729 742Q680 742 632 725T543 680T470 625Q469 470 463 347T449
134T433 -14ZM253 1322Q269 1370 310 1413T410 1485T535 1513Q593 1513 633 1489T707 1437Q735 1413 763 1395T825 1377Q869 1377 897 1411T939 1485L1107 1379Q1103 1354 1084 1318T1031 1245T950 1184T841 1159Q790 1159 748 1185T668 1240Q638 1265 609 1282T552
1299Q514 1299 486 1278T441 1230T416 1184L253 1322Z" />
<glyph unicode="&#xf2;" horiz-adv-x="1170" d="M600 -20Q334 -20 197 119T59 525Q59 705 129 823T325 1001T613 1060Q777 1060 886 986T1051 780T1107 477Q1107 326 1048 215T876 42T600 -20ZM588 303Q634 303 671 319T736 365T777 438T792 536Q792 615 769 675T702
768T595 802Q525 802 481 765T418 671T398 553Q398 446 446 375T588 303ZM378 1534Q400 1531 452 1511T569 1457T695 1385T798 1307Q780 1277 749 1243T691 1183T651 1152Q618 1171 562 1193T440 1238T311 1280T200 1312Q208 1324 233 1363T296 1449T378 1534Z"
/>
<glyph unicode="&#xf3;" horiz-adv-x="1170" d="M600 -20Q334 -20 197 119T59 525Q59 705 129 823T325 1001T613 1060Q777 1060 886 986T1051 780T1107 477Q1107 326 1048 215T876 42T600 -20ZM588 303Q634 303 671 319T736 365T777 438T792 536Q792 615 769 675T702
768T595 802Q525 802 481 765T418 671T398 553Q398 446 446 375T588 303ZM739 1519Q792 1491 833 1451T900 1375T935 1327Q893 1313 846 1293T750 1249T659 1204T584 1164T535 1136Q527 1140 502 1153T446 1184T389 1218T353 1248Q381 1284 433 1326T544 1409T657
1480T739 1519Z" />
<glyph unicode="&#xf4;" horiz-adv-x="1170" d="M600 -20Q334 -20 197 119T59 525Q59 705 129 823T325 1001T613 1060Q777 1060 886 986T1051 780T1107 477Q1107 326 1048 215T876 42T600 -20ZM588 303Q634 303 671 319T736 365T777 438T792 536Q792 615 769 675T702
768T595 802Q525 802 481 765T418 671T398 553Q398 446 446 375T588 303ZM726 1518Q765 1482 816 1432T919 1331T1007 1239Q951 1200 889 1169T779 1122Q753 1154 724 1187T667 1251T621 1303T595 1331H626Q614 1323 589 1302T530 1252T462 1192T398 1131Q367 1141
324 1164T239 1217T168 1273Q213 1309 262 1346T358 1417T442 1477T501 1515Q521 1516 565 1517T656 1518T726 1518Z" />
<glyph unicode="&#xf5;" horiz-adv-x="1170" d="M600 -20Q334 -20 197 119T59 525Q59 705 129 823T325 1001T613 1060Q777 1060 886 986T1051 780T1107 477Q1107 326 1048 215T876 42T600 -20ZM588 303Q634 303 671 319T736 365T777 438T792 536Q792 615 769 675T702
768T595 802Q525 802 481 765T418 671T398 553Q398 446 446 375T588 303ZM157 1322Q173 1370 214 1413T314 1485T439 1513Q497 1513 537 1489T611 1437Q639 1413 667 1395T729 1377Q773 1377 801 1411T843 1485L1011 1379Q1007 1354 988 1318T935 1245T854 1184T745
1159Q694 1159 652 1185T572 1240Q542 1265 513 1282T456 1299Q418 1299 390 1278T345 1230T320 1184L157 1322Z" />
<glyph unicode="&#xf6;" horiz-adv-x="1170" d="M600 -20Q334 -20 197 119T59 525Q59 705 129 823T325 1001T613 1060Q777 1060 886 986T1051 780T1107 477Q1107 326 1048 215T876 42T600 -20ZM588 303Q634 303 671 319T736 365T777 438T792 536Q792 615 769 675T702
768T595 802Q525 802 481 765T418 671T398 553Q398 446 446 375T588 303ZM375 1181Q309 1181 258 1220T206 1322Q206 1390 255 1436T374 1482Q450 1482 497 1436T544 1323Q544 1261 494 1221T375 1181ZM800 1189Q733 1189 684 1233T635 1341Q635 1406 681 1451T792
1497Q864 1497 917 1453T970 1342Q970 1296 945 1262T880 1209T800 1189Z" />
<glyph unicode="&#xf7;" horiz-adv-x="916" d="M433 821Q372 821 317 848T228 923T194 1033Q194 1092 226 1139T310 1215T421 1243Q515 1243 575 1178T635 1017Q635 931 574 876T433 821ZM439 44Q348 44 285 99T222 235Q222 295 250 346T327 429T437 461Q531 461
589 395T647 235Q647 151 585 98T439 44ZM31 526Q32 566 34 609T40 687T47 738Q90 742 139 744T243 749T352 752T461 753Q560 753 649 750T802 738Q807 702 814 644T822 537Q792 537 714 536T534 534T331 531T148 528T31 526Z" />
<glyph unicode="&#xf8;" horiz-adv-x="1190" d="M1063 1063Q997 933 907 796T716 525T514 272T326 60T179 -92Q154 -79 118 -52T60 4Q125 80 217 188T411 424T612 681T793 929T925 1138Q963 1120 1002 1100T1063 1063ZM600 -20Q334 -20 197 119T59 525Q59 705
129 823T325 1001T613 1060Q777 1060 886 986T1051 780T1107 477Q1107 326 1048 215T876 42T600 -20ZM588 303Q634 303 671 319T736 365T777 438T792 536Q792 615 769 675T702 768T595 802Q525 802 481 765T418 671T398 553Q398 446 446 375T588 303Z" />
<glyph unicode="&#xf9;" horiz-adv-x="1178" d="M713 971Q742 981 794 986T897 992Q938 992 988 989T1071 979Q1082 904 1088 828T1094 678Q1094 526 1068 392T981 157T821 -3T576 -61Q422 -61 322 -1T166 169T88 424T65 741Q65 808 68 877T76 1016Q106 1019 153
1021T240 1023Q297 1022 353 1017T443 1001Q437 940 432 865T427 711Q427 594 440 493T488 331T587 270Q647 270 680 325T728 470T742 665Q742 751 734 833T713 971ZM362 1534Q384 1531 436 1511T553 1457T679 1385T782 1307Q764 1277 733 1243T675 1183T635 1152Q602
1171 546 1193T424 1238T295 1280T184 1312Q192 1324 217 1363T280 1449T362 1534Z" />
<glyph unicode="&#xfa;" horiz-adv-x="1178" d="M713 971Q742 981 794 986T897 992Q938 992 988 989T1071 979Q1082 904 1088 828T1094 678Q1094 526 1068 392T981 157T821 -3T576 -61Q422 -61 322 -1T166 169T88 424T65 741Q65 808 68 877T76 1016Q106 1019 153
1021T240 1023Q297 1022 353 1017T443 1001Q437 940 432 865T427 711Q427 594 440 493T488 331T587 270Q647 270 680 325T728 470T742 665Q742 751 734 833T713 971ZM723 1519Q776 1491 817 1451T884 1375T919 1327Q877 1313 830 1293T734 1249T643 1204T568 1164T519
1136Q511 1140 486 1153T430 1184T373 1218T337 1248Q365 1284 417 1326T528 1409T641 1480T723 1519Z" />
<glyph unicode="&#xfb;" horiz-adv-x="1178" d="M713 971Q742 981 794 986T897 992Q938 992 988 989T1071 979Q1082 904 1088 828T1094 678Q1094 526 1068 392T981 157T821 -3T576 -61Q422 -61 322 -1T166 169T88 424T65 741Q65 808 68 877T76 1016Q106 1019 153
1021T240 1023Q297 1022 353 1017T443 1001Q437 940 432 865T427 711Q427 594 440 493T488 331T587 270Q647 270 680 325T728 470T742 665Q742 751 734 833T713 971ZM710 1518Q749 1482 800 1432T903 1331T991 1239Q935 1200 873 1169T763 1122Q737 1154 708 1187T651
1251T605 1303T579 1331H610Q598 1323 573 1302T514 1252T446 1192T382 1131Q351 1141 308 1164T223 1217T152 1273Q197 1309 246 1346T342 1417T426 1477T485 1515Q505 1516 549 1517T640 1518T710 1518Z" />
<glyph unicode="&#xfc;" horiz-adv-x="1178" d="M713 971Q742 981 794 986T897 992Q938 992 988 989T1071 979Q1082 904 1088 828T1094 678Q1094 526 1068 392T981 157T821 -3T576 -61Q422 -61 322 -1T166 169T88 424T65 741Q65 808 68 877T76 1016Q106 1019 153
1021T240 1023Q297 1022 353 1017T443 1001Q437 940 432 865T427 711Q427 594 440 493T488 331T587 270Q647 270 680 325T728 470T742 665Q742 751 734 833T713 971ZM359 1181Q293 1181 242 1220T190 1322Q190 1390 239 1436T358 1482Q434 1482 481 1436T528 1323Q528
1261 478 1221T359 1181ZM784 1189Q717 1189 668 1233T619 1341Q619 1406 665 1451T776 1497Q848 1497 901 1453T954 1342Q954 1296 929 1262T864 1209T784 1189Z" />
<glyph unicode="&#xfd;" horiz-adv-x="1079" d="M451 -526Q295 -526 170 -480T-40 -378Q-26 -341 2 -284T60 -172T109 -91Q147 -115 204 -143T328 -192T463 -213Q529 -213 574 -178T648 -86T690 40T706 175Q682 138 643 107T554 56T451 37Q293 37 206 121T83 347T48
665Q48 733 51 808T58 965Q77 969 114 971T196 973Q258 973 318 970T400 961Q396 944 390 899T380 792T375 666Q375 609 380 554T399 455T438 385T502 358Q569 358 608 410T665 554T685 765Q686 799 686 830T686 886T684 930T682 957Q708 959 733 960T784 962Q887
962 989 939Q995 817 995 662Q995 572 993 472T988 266T978 56Q969 -116 909 -247T736 -452T451 -526ZM691 1519Q744 1491 785 1451T852 1375T887 1327Q845 1313 798 1293T702 1249T611 1204T536 1164T487 1136Q479 1140 454 1153T398 1184T341 1218T305 1248Q333
1284 385 1326T496 1409T609 1480T691 1519Z" />
<glyph unicode="&#xfe;" horiz-adv-x="1200" d="M441 -395L85 -380Q83 -345 81 -253T74 -30T66 254T59 567T53 873T48 1141T46 1335L383 1394Q386 1362 389 1308T395 1186T400 1046T404 906Q440 931 475 949T547 981T622 1000T703 1007Q835 1007 931 938T1079
755T1131 505Q1131 366 1075 261T921 97T695 38Q644 38 595 45T506 66T442 96Q442 77 442 33T443 -68T443 -186T443 -302T441 -395ZM628 368Q685 368 727 391T791 453T814 539Q814 592 796 627T740 679T646 697Q596 697 550 681T470 644T421 604Q422 591 423 572T425
531T426 489T426 449T427 419Q460 402 514 385T628 368Z" />
<glyph unicode="&#xff;" horiz-adv-x="1079" d="M451 -526Q295 -526 170 -480T-40 -378Q-26 -341 2 -284T60 -172T109 -91Q147 -115 204 -143T328 -192T463 -213Q529 -213 574 -178T648 -86T690 40T706 175Q682 138 643 107T554 56T451 37Q293 37 206 121T83 347T48
665Q48 733 51 808T58 965Q77 969 114 971T196 973Q258 973 318 970T400 961Q396 944 390 899T380 792T375 666Q375 609 380 554T399 455T438 385T502 358Q569 358 608 410T665 554T685 765Q686 799 686 830T686 886T684 930T682 957Q708 959 733 960T784 962Q887
962 989 939Q995 817 995 662Q995 572 993 472T988 266T978 56Q969 -116 909 -247T736 -452T451 -526ZM327 1181Q261 1181 210 1220T158 1322Q158 1390 207 1436T326 1482Q402 1482 449 1436T496 1323Q496 1261 446 1221T327 1181ZM752 1189Q685 1189 636 1233T587
1341Q587 1406 633 1451T744 1497Q816 1497 869 1453T922 1342Q922 1296 897 1262T832 1209T752 1189Z" />
<glyph unicode="&#x2013;" horiz-adv-x="1359" d="M1261 836Q1268 796 1274 740T1284 629T1288 535Q1264 535 1189 534T1006 532T774 529T526 525T297 521T121 518T33 516L56 835Q157 840 238 843T388 849T520 853T647 854Q863 854 1019 848T1261 836Z" />
<glyph unicode="&#x2014;" horiz-adv-x="1667" d="M1572 836Q1582 770 1590 685T1599 536Q1576 536 1488 535T1270 533T988 529T682 525T393 521T163 518T33 516Q33 573 36 634T45 750T56 835Q124 838 194 841T333 847T471 852T604 854T726 856T834 857T925 858Q1071
858 1193 855T1411 846T1572 836Z" />
<glyph unicode="&#x2018;" horiz-adv-x="533" d="M316 1420Q351 1398 375 1358T409 1280Q394 1276 366 1262T310 1223T272 1161Q280 1178 306 1190T360 1203Q415 1203 455 1166T496 1055Q496 1006 467 971T391 917T294 898Q207 898 143 943T78 1102Q78 1187 117
1255T213 1367T316 1420Z" />
<glyph unicode="&#x2019;" horiz-adv-x="515" d="M231 908Q200 929 164 965T106 1038Q122 1046 151 1066T206 1109T235 1147Q230 1143 218 1140T191 1136Q125 1136 90 1176T55 1273Q55 1357 113 1404T253 1451Q344 1451 404 1399T464 1259Q464 1176 432 1107T347
987T231 908Z" />
<glyph unicode="&#x201a;" horiz-adv-x="515" d="M231 -326Q200 -305 164 -269T106 -196Q122 -188 151 -168T206 -125T235 -87Q230 -91 218 -94T191 -98Q125 -98 90 -58T55 39Q55 123 113 170T253 217Q344 217 404 165T464 25Q464 -58 432 -127T347 -247T231 -326Z" />
<glyph unicode="&#x201c;" horiz-adv-x="1007" d="M772 861Q667 861 604 923T540 1079Q540 1200 593 1299T758 1458Q785 1451 820 1433T886 1391T927 1340Q906 1332 870 1314T806 1270T777 1212Q777 1203 781 1195Q797 1210 817 1217T859 1224Q919 1224 956 1183T994
1084Q994 968 937 915T772 861ZM249 874Q143 874 81 940T18 1106Q18 1188 62 1283T194 1445Q227 1444 269 1434T351 1407T416 1372Q384 1357 344 1324T275 1255T246 1193Q246 1182 249 1176Q268 1197 298 1212T363 1227Q424 1227 460 1183T497 1073Q497 1006 461
962T369 896T249 874Z" />
<glyph unicode="&#x201d;" horiz-adv-x="981" d="M216 871Q187 900 152 946T104 1043Q125 1051 156 1068T216 1104T262 1140Q248 1130 224 1125T175 1120Q96 1120 59 1172T22 1299Q22 1358 58 1397T146 1456T251 1476Q319 1476 370 1446T450 1364T479 1249Q479
1137 415 1039T216 871ZM748 887Q687 923 637 957T549 1032Q574 1043 607 1061T667 1101T704 1141Q700 1137 692 1135T673 1132Q596 1132 555 1173T513 1290Q513 1384 582 1430T748 1476Q811 1476 859 1445T936 1364T964 1258Q964 1170 932 1101T851 978T748 887Z"
/>
<glyph unicode="&#x201e;" horiz-adv-x="981" d="M216 -390Q187 -361 152 -315T104 -218Q125 -210 156 -193T216 -157T262 -121Q248 -131 224 -136T175 -141Q96 -141 59 -89T22 38Q22 97 58 136T146 195T251 215Q319 215 370 185T450 103T479 -12Q479 -124 415
-222T216 -390ZM748 -374Q687 -338 637 -304T549 -229Q574 -218 607 -200T667 -160T704 -120Q700 -124 692 -126T673 -129Q596 -129 555 -88T513 29Q513 123 582 169T748 215Q811 215 859 184T936 103T964 -3Q964 -91 932 -160T851 -283T748 -374Z" />
<glyph unicode="&#x2022;" horiz-adv-x="636" d="M311 495Q189 495 139 561T89 718Q89 781 122 830T210 909T331 938Q396 938 443 905T516 819T542 709Q542 648 510 600T425 523T311 495Z" />
<glyph unicode="&#x2039;" horiz-adv-x="850" d="M522 1154Q553 1132 587 1093T650 1016T691 951L355 581Q408 530 466 482T579 395T671 331T721 298Q716 274 702 222T673 117T643 34Q487 141 330 269T16 557Q131 707 256 856T522 1154Z" />
<glyph unicode="&#x203a;" horiz-adv-x="834" d="M94 944Q132 974 180 1009T275 1074T349 1120Q372 1111 423 1069T540 963T672 827T791 684Q665 513 510 389T208 165Q196 177 175 206T132 273T93 343T70 392Q76 397 112 427T202 501T317 595T433 691Q398 717
353 751T261 820T170 888T94 944Z" />
</font>
</defs>
</svg>
