<?xml version="1.0" standalone="no"?>
<!DOCTYPE svg PUBLIC "-//W3C//DTD SVG 1.1//EN" "http://www.w3.org/Graphics/SVG/1.1/DTD/svg11.dtd">
<svg xmlns="http://www.w3.org/2000/svg">
<defs >
<font id="Grandstander" horiz-adv-x="1123" ><font-face
    font-family="Grandstander Thin"
    units-per-em="2000"
    panose-1="0 0 0 0 0 0 0 0 0 0"
    ascent="1465"
    descent="-530"
    alphabetic="0" />
<glyph unicode=" " horiz-adv-x="615" />
<glyph unicode="!" horiz-adv-x="708" d="M444 437Q415 437 364 438T261 443T178 451Q197 545 220 649T268 861T320 1076T373 1283T426 1473L790 1457Q774 1417 742 1325T668 1112T583 865T504 626T444 437ZM216 -27Q133 -27 85 17T36 128Q36 194 71 245T163 327T288
357Q366 357 415 310T465 193Q465 132 430 82T337 3T216 -27Z" />
<glyph unicode="&quot;" horiz-adv-x="764" d="M446 1031Q420 1031 384 1031T317 1034T273 1038Q274 1094 280 1152T296 1266T314 1367T331 1442Q374 1450 413 1454T496 1459Q520 1459 543 1458T587 1453Q587 1429 576 1391Q562 1341 541 1275T495 1144T446 1031ZM568
1027Q572 1051 580 1092T598 1182T618 1276T637 1353Q642 1372 648 1392T659 1429T668 1456Q730 1456 803 1454T921 1444Q920 1439 920 1433T917 1421Q909 1389 889 1339T842 1233T791 1126T747 1042Q677 1034 634 1031T568 1027Z" />
<glyph unicode="#" horiz-adv-x="1511" d="M121 818Q128 841 139 880T164 960T187 1032T201 1072Q288 1076 406 1082T654 1095T903 1109Q1111 1120 1307 1129T1663 1142Q1659 1126 1647 1089T1621 1007T1593 926T1571 873Q1435 868 1274 861T950 846Q796 840 646
835T361 825T121 818ZM1358 378Q1217 385 1061 393T747 408Q632 413 519 415T299 417Q213 417 133 415T-19 408Q-15 422 -4 455T20 528T45 599T62 642Q165 647 274 651T498 658Q605 661 712 662T927 662Q1064 662 1199 658T1464 645Q1459 628 1445 590T1413 509T1380
429T1358 378ZM197 15Q243 185 291 350T387 669T483 966T575 1235T660 1466Q678 1470 725 1472T829 1475T934 1476Q904 1387 863 1258T773 976T676 660T580 337T496 37Q480 34 440 30T351 23T260 17T197 15ZM759 59Q795 238 838 422T930 788Q977 962 1028 1133T1136
1466Q1148 1468 1182 1470T1259 1476T1338 1481T1390 1483Q1362 1397 1334 1299T1277 1096Q1234 935 1194 763T1120 422T1061 99Q1044 96 1002 90T910 76T817 64T759 59Z" />
<glyph unicode="$" horiz-adv-x="1027" d="M482 -82L186 -86Q189 -74 201 -39T229 40T258 120T278 169L546 153Q540 131 529 88T505 -2T482 -82ZM573 1204Q580 1225 592 1267T618 1350T638 1409L875 1419Q869 1397 859 1357T837 1275T818 1206L573 1204ZM418 57Q298
57 205 85T53 152T-28 222Q-17 240 10 276T73 356T141 437T198 492Q235 450 281 411T378 347T481 322Q523 322 561 335T624 375T648 443Q648 493 598 530T472 602Q405 634 354 675T273 773T244 903Q244 994 284 1061T394 1172T549 1237T726 1259Q846 1259 947 1228T1101
1150Q1090 1131 1060 1092T990 1008T910 926Q879 962 822 994T703 1026Q676 1026 647 1021T592 1005T551 975T535 928Q535 892 573 863T688 799Q753 771 813 726T911 618T950 470Q950 338 875 246T678 105T418 57Z" />
<glyph unicode="%" horiz-adv-x="1385" d="M68 -37Q53 -25 25 -2T-31 47T-73 88Q21 165 139 267T388 489T654 734T918 986T1160 1228T1362 1441Q1407 1419 1444 1371T1498 1286Q1414 1197 1314 1096T1102 888T876 674T647 463T428 268T231 98T68 -37ZM983 275Q1019
275 1051 294T1103 345T1123 413Q1123 448 1101 464T1044 480Q1006 480 974 463T924 415T905 346Q905 313 924 294T983 275ZM942 98Q848 98 780 148T712 295Q712 390 763 470T899 600T1080 649Q1189 649 1244 596T1300 446Q1300 340 1256 262T1132 141T942 98ZM453
750Q331 750 267 810T203 974Q203 1070 254 1150T389 1280T567 1329Q677 1329 748 1275T820 1122Q820 1027 769 942T634 803T453 750ZM489 948Q554 948 590 987T626 1085Q626 1117 608 1135T551 1154Q488 1154 447 1112T406 1014Q406 980 430 964T489 948Z" />
<glyph unicode="&amp;" horiz-adv-x="1395" d="M444 -102Q305 -102 210 -54T67 79T18 271Q18 377 59 464T171 622T328 748T507 844Q469 891 439 956T408 1088Q408 1193 465 1266T616 1377T822 1415Q908 1415 974 1386T1077 1302T1115 1174Q1115 1084 1074 1011T963
882T808 786Q827 761 855 722T914 636T977 545T1034 463Q1049 476 1070 498T1112 546T1151 594T1176 631Q1199 619 1232 595T1297 544T1346 491Q1336 469 1302 432T1228 356T1156 289Q1178 262 1198 232T1238 173T1275 116Q1250 85 1214 50T1139 -17T1064 -66Q1048
-43 1028 -11T988 54T957 109Q928 75 880 39T767 -30T621 -82T444 -102ZM490 132Q554 132 608 150T706 195T783 253T839 308Q815 346 786 392T728 488T671 586T620 674Q563 639 507 602T406 521T334 422T307 301Q307 225 353 179T490 132ZM700 941Q738 963 777
998T842 1075T869 1159Q869 1189 849 1205T791 1222Q752 1222 722 1205T676 1156T659 1083Q659 1042 672 1003T700 941Z" />
<glyph unicode="&apos;" horiz-adv-x="462" d="M586 1381Q573 1326 550 1256T499 1115T446 991Q395 986 360 986Q338 986 316 987T269 992Q272 1026 277 1086T291 1216T308 1347T324 1443Q370 1452 416 1455T504 1459Q530 1459 555 1458T603 1453Q601 1443 597
1424T586 1381Z" />
<glyph unicode="(" horiz-adv-x="677" d="M62 -520Q29 -462 8 -368T-25 -166T-36 39Q-36 244 9 453T135 863T326 1245T569 1576Q652 1564 728 1538T850 1486Q725 1320 622 1152T444 810T329 457T288 87Q288 8 296 -77T321 -237T363 -361Q339 -376 299 -398T214
-445T129 -489T62 -520Z" />
<glyph unicode=")" horiz-adv-x="651" d="M371 1053Q371 1134 363 1211T338 1355T295 1471Q363 1504 437 1530T584 1572Q619 1507 641 1422T675 1240T686 1043Q686 893 654 724T564 382T428 46T256 -255T58 -490Q36 -483 2 -466T-70 -426T-136 -382T-178 -345Q-85
-250 -2 -122T150 153T267 457T344 765T371 1053Z" />
<glyph unicode="*" horiz-adv-x="958" d="M888 947Q851 969 800 1008T698 1089T614 1164Q581 1179 532 1200T430 1247T329 1298T249 1342Q260 1357 282 1384T330 1441T380 1496T417 1534Q444 1517 488 1488T580 1424T673 1358T745 1301Q785 1285 844 1258T962
1200T1063 1143Q1054 1128 1030 1101T978 1042T924 984T888 947ZM566 848Q528 848 494 850T446 856Q460 905 483 972T532 1112T581 1250Q590 1305 601 1368T624 1489T645 1591Q660 1593 694 1595T764 1597Q800 1597 831 1595T877 1591Q862 1533 843 1470T803 1350T767
1250Q758 1199 744 1124T714 975T688 856Q673 853 639 851T566 848ZM277 921Q273 930 263 958T241 1019T222 1081T211 1124Q252 1144 311 1168T435 1217T559 1264T660 1302Q699 1326 752 1357T864 1421T975 1484T1065 1532Q1074 1517 1088 1477T1116 1396T1131
1333Q1092 1314 1032 1286T904 1227T775 1171T673 1127Q586 1079 477 1022T277 921Z" />
<glyph unicode="+" horiz-adv-x="1050" d="M986 588Q930 578 839 572T634 566Q534 566 426 570T221 582T60 599Q62 614 69 651T85 733T102 812T114 861Q149 857 212 854T357 849T526 847Q637 847 743 850T938 859T1079 874Q1066 822 1046 761T1009 651T986 588ZM817
1182Q815 1135 804 1057T772 883T723 685Q693 575 656 463T579 262Q565 262 528 263T445 265T362 268T312 272Q331 318 348 374T381 491Q406 582 427 680T464 873T492 1044T508 1170Q519 1171 550 1172T624 1175T707 1178T778 1181T817 1182Z" />
<glyph unicode="," horiz-adv-x="667" d="M181 -309Q170 -304 137 -283T70 -229T25 -156Q54 -141 94 -110T166 -46T201 8Q203 15 203 19Q189 4 163 -7T96 -19Q39 -19 11 20T-17 116Q-17 189 20 239T119 317T256 344Q310 344 355 324T429 261T457 150Q457 69 421
-19T322 -185T181 -309Z" />
<glyph unicode="-" horiz-adv-x="916" d="M944 816Q938 754 920 679T887 549Q847 549 767 547T584 543T375 537T177 530T26 522Q33 550 45 590T73 674T101 752T121 803Q226 815 350 822T585 830Q698 830 787 827T944 816Z" />
<glyph unicode="." horiz-adv-x="632" d="M246 357Q318 357 366 311T414 200Q414 127 381 73T294 -9T175 -38Q102 -38 48 8T-6 122Q-6 194 29 246T122 328T246 357Z" />
<glyph unicode="/" horiz-adv-x="969" d="M1003 1528Q1098 1508 1146 1482T1213 1423Q1068 1177 912 943T600 501T299 119T30 -179Q-32 -164 -88 -127T-173 -53Q-85 45 17 171T229 441T448 734T660 1027T850 1300T1003 1528Z" />
<glyph unicode="0" horiz-adv-x="1087" d="M408 -32Q296 -32 226 21T123 167T90 382Q90 519 120 656T207 915T344 1133T523 1283T739 1338Q909 1338 983 1241T1057 974Q1057 841 1026 701T937 429T799 194T620 29T408 -32ZM471 269Q520 269 565 313T649 429T717
584T762 748T778 889Q778 970 757 1020T684 1070Q634 1070 589 1025T504 906T436 748T391 581T375 437Q375 348 401 309T471 269Z" />
<glyph unicode="1" horiz-adv-x="809" d="M457 261Q489 261 525 260T592 255T639 249Q635 235 626 203T603 132T579 60T559 9Q543 9 484 8T342 4T177 0T30 -6T-57 -12Q-53 14 -42 61T-16 156T9 225Q26 229 54 233T114 240T172 246T213 250Q221 278 236 332T271
457T312 602T354 749T390 877T414 963Q403 956 384 941T342 907T296 871T257 838T234 818Q214 851 190 915T153 1032Q172 1048 215 1082T314 1160T424 1244T519 1313Q548 1313 589 1312T671 1307T736 1299Q733 1282 722 1228T690 1089T643 896T583 662Q558 568
525 464T457 261Z" />
<glyph unicode="2" horiz-adv-x="995" d="M853 337Q852 302 845 255T827 161T808 78T794 27L-15 -17Q-15 -9 -13 22T-7 97T2 184T14 264Q55 295 113 342T244 451T401 592Q440 628 486 673T579 767T664 862T725 951T748 1023Q748 1050 728 1062T681 1074Q631 1074
576 1046T469 970T377 869Q352 886 312 915T233 976T177 1027Q245 1124 345 1200T558 1320T777 1364Q901 1364 977 1304T1054 1140Q1054 1071 1028 997T957 849T856 707T739 581Q692 536 651 497T573 426T509 369T459 325T424 297Q447 300 489 304T584 314T688
324T784 332T853 337Z" />
<glyph unicode="3" horiz-adv-x="1032" d="M365 -3Q257 -3 177 25T49 108T-8 243Q30 266 78 290T178 335T271 369Q277 312 309 275T418 238Q479 238 529 261T608 327T638 422Q638 503 554 538T311 573Q311 607 318 663T344 787Q402 787 466 802T588 847T682 916T719
1007Q719 1040 700 1061T632 1082Q584 1082 530 1062T428 1014T352 959Q318 994 286 1031T233 1097T208 1133Q241 1165 312 1212T489 1297T725 1335Q858 1335 940 1268T1023 1077Q1023 992 979 921T864 801T712 731Q811 712 869 638T927 458Q927 316 854 213T655
53T365 -3Z" />
<glyph unicode="4" horiz-adv-x="1104" d="M985 325Q956 325 924 325T859 324T794 322Q764 210 745 133T716 15Q691 11 649 6T561 -2T477 -8T420 -10Q435 46 462 129T522 305Q468 301 402 296T270 284T155 273T84 265Q85 321 89 389T100 516Q139 567 199 640T331
799T476 969T615 1128T729 1255T797 1325Q813 1327 851 1330T935 1336T1025 1340T1094 1342Q1088 1326 1071 1271T1029 1133T974 955T916 760T863 573Q892 573 929 573T996 574T1035 573Q1035 566 1031 539T1019 473T1003 395T985 325ZM771 1001Q744 970 708 929T633
840T554 747T482 659T423 586T387 539Q398 541 426 544T490 551T562 557T622 560Q628 579 641 621T671 716T707 826T743 928T771 1001Z" />
<glyph unicode="5" horiz-adv-x="1137" d="M-12 228Q10 252 47 282T125 340T200 390T253 421Q265 382 296 346T378 288T499 265Q589 265 661 307T774 421T816 576Q816 637 789 680T692 724Q647 724 609 710T542 672T493 624T466 578Q439 575 405 572T318 569Q302
569 277 569T228 570T191 571Q237 742 269 902T322 1211Q370 1221 448 1235T620 1263T808 1291T984 1315T1121 1330Q1123 1309 1123 1262T1124 1164T1123 1081Q1058 1078 982 1072T831 1059T694 1043T594 1029Q589 1008 584 981T572 926T560 874T550 832Q568 858
605 884T694 928T803 946Q946 946 1018 854T1091 618Q1091 489 1041 377T902 181T697 50T449 2Q360 2 267 24T98 97T-12 228Z" />
<glyph unicode="6" horiz-adv-x="1154" d="M1071 1159Q990 1136 904 1090T735 983T585 854T474 717Q517 755 569 782T680 824T799 838Q885 838 947 801T1043 697T1077 547Q1077 427 1032 326T906 149T715 33T475 -9Q356 -9 273 36T146 162T102 346Q102 520 172
684T363 987T644 1230T982 1384Q999 1372 1018 1332T1053 1244T1071 1159ZM472 519Q440 490 420 450T400 370Q400 316 438 286T543 255Q610 255 669 287T764 372T800 493Q800 544 773 572T689 601Q629 601 571 578T472 519Z" />
<glyph unicode="7" horiz-adv-x="1012" d="M299 -39Q265 -30 214 -14T113 21T26 52T-17 68Q44 166 116 270T269 481T434 691T606 887T780 1060Q695 1047 609 1031T448 999T320 971T247 952Q248 969 253 1009T267 1096T283 1185T298 1251Q408 1275 534 1297T784
1336T1012 1364T1181 1375Q1181 1363 1178 1328T1171 1250T1162 1172T1157 1125Q981 929 854 773T630 482T455 222T299 -39Z" />
<glyph unicode="8" horiz-adv-x="1243" d="M535 -10Q313 -10 186 66T59 296Q59 401 108 490T237 643T407 736Q378 745 346 775T291 849T268 945Q268 1083 346 1179T555 1324T844 1374Q956 1374 1043 1343T1180 1248T1231 1088Q1231 1000 1194 919T1092 779T948
696Q1021 685 1072 614T1123 432Q1123 334 1075 253T944 113T756 22T535 -10ZM558 248Q630 248 691 271T789 338T827 450Q827 512 777 538T650 565Q581 565 519 545T417 482T377 373Q377 327 402 300T468 260T558 248ZM717 841Q773 841 823 864T905 930T937 1028Q937
1088 899 1114T789 1141Q729 1141 678 1121T595 1062T563 963Q563 899 602 870T717 841Z" />
<glyph unicode="9" horiz-adv-x="1067" d="M743 23Q688 13 588 7T383 0Q401 19 442 76T533 214T629 387T705 569Q687 548 652 529T569 497T459 485Q292 485 214 573T135 811Q135 937 181 1038T310 1213T501 1325T733 1364Q919 1364 1012 1273T1106 1020Q1106 943
1083 843T1020 631T932 409T835 198T743 23ZM694 1135Q619 1135 560 1103T467 1013T432 880Q432 822 464 786T560 750Q618 750 666 771T749 830T804 917T823 1020Q823 1074 790 1104T694 1135Z" />
<glyph unicode=":" horiz-adv-x="564" d="M163 -10Q79 -10 19 43T-41 172Q-41 226 -14 273T59 349T161 378Q248 378 302 319T357 173Q357 92 300 41T163 -10ZM382 1030Q454 1030 502 985T550 874Q550 800 517 747T430 664T311 635Q238 635 184 681T130 796Q130
868 165 920T258 1001T382 1030Z" />
<glyph unicode=";" horiz-adv-x="593" d="M403 1023Q475 1023 523 977T571 866Q571 792 538 739T450 657T332 628Q258 628 204 674T150 788Q150 860 185 912T279 994T403 1023ZM119 -322Q108 -317 77 -297T14 -246T-29 -177Q-8 -167 20 -147T74 -102T119 -56T140
-17Q142 -11 142 -7Q129 -22 104 -33T39 -45Q-16 -45 -42 -7T-68 83Q-68 187 7 243T191 300Q266 300 324 256T382 116Q382 39 347 -45T253 -203T119 -322Z" />
<glyph unicode="&lt;" horiz-adv-x="807" d="M784 1135Q813 1116 845 1082T900 1012T926 946Q810 872 709 807T507 674T292 528L256 606Q291 595 356 569T495 513T628 455T708 411Q700 379 681 336T641 248T600 169Q468 234 327 296T35 409L101 641Q188 710 291
788T493 939T670 1064T784 1135Z" />
<glyph unicode="=" horiz-adv-x="1050" d="M231 1078Q277 1087 362 1096T556 1113T777 1128T991 1139T1162 1143Q1161 1128 1154 1087T1138 996T1120 907T1109 854Q1054 853 955 852T736 847T498 841T283 836T137 832Q143 852 154 888T180 964T208 1034T231 1078ZM59
648Q166 658 290 665T540 677T779 681Q856 681 924 679T1043 674Q1042 659 1036 620T1021 536T1004 453T992 403Q955 403 882 403T714 403T516 405T313 407T134 409T5 410Q5 422 11 452T26 520T44 592T59 648Z" />
<glyph unicode="&gt;" horiz-adv-x="790" d="M185 967Q215 995 254 1028T334 1091T406 1135Q425 1130 472 1097T583 1013T714 906T842 797L775 522Q663 468 544 413T319 311T143 234T56 200Q49 221 36 263T11 350T0 419Q10 424 57 450T173 516T322 599T475 685T605
756L594 656Q568 677 517 717T404 804T284 894T185 967Z" />
<glyph unicode="?" horiz-adv-x="1036" d="M661 445Q593 445 540 447T438 452T334 462Q358 551 398 628T498 771T643 892Q724 945 775 997T827 1110Q827 1152 798 1173T716 1194Q665 1194 624 1179T545 1135T473 1067T401 978L178 1122Q280 1297 437 1384T777
1472Q893 1472 981 1442T1118 1349T1167 1189Q1167 1091 1134 1019T1043 889T907 778Q857 743 808 695T721 585T661 445ZM403 -10Q329 -10 281 30T233 143Q233 207 270 254T363 326T477 352Q559 352 606 312T654 207Q654 146 617 97T523 19T403 -10Z" />
<glyph unicode="@" horiz-adv-x="1920" d="M753 -41Q552 -41 400 27T161 221T75 522Q75 696 137 845T311 1115T571 1321T893 1451T1252 1497Q1463 1497 1615 1432T1849 1241T1931 930Q1931 811 1900 705T1808 518T1662 391T1467 345Q1376 345 1312 388T1242 504Q1185
429 1083 391T872 352Q726 352 650 424T574 619Q574 716 613 801T722 951T879 1052T1062 1089Q1134 1089 1184 1073T1258 1032Q1259 1050 1262 1074T1269 1110Q1289 1111 1328 1112T1408 1115T1475 1118Q1469 1048 1464 973T1454 830T1447 717T1444 661Q1444 610
1460 591T1513 572Q1552 572 1582 601T1631 679T1661 782T1671 890Q1671 1078 1564 1171T1240 1265Q1073 1265 917 1218T635 1082T437 866T364 577Q364 450 420 362T578 229T812 184Q908 184 985 205T1122 260T1220 333L1394 178Q1335 111 1240 62T1022 -14T753
-41ZM973 584Q1051 584 1115 618T1227 703L1235 833Q1215 848 1178 858T1086 869Q1009 869 957 843T877 776T850 684Q850 636 886 610T973 584Z" />
<glyph unicode="A" horiz-adv-x="1157" d="M236 -15Q211 -15 168 -14T73 -11T-25 -7T-103 -3Q-76 59 -31 155T72 368T193 612T321 866T444 1105T552 1306Q622 1315 690 1321T825 1332T954 1336Q1007 1336 1058 1333T1160 1323Q1156 1235 1146 1121T1115 853T1058
490T970 4Q936 0 874 -5T744 -12T625 -15Q630 13 638 50T655 130T675 215T694 298T713 372Q681 371 644 370T569 366T497 361T438 355T400 350Q367 282 335 213T278 85T236 -15ZM516 628Q540 632 590 636T693 644T780 648Q784 669 797 727T825 855T852 983T867
1064Q851 1064 819 1062T755 1058T712 1054Q698 1025 674 974T621 860T565 737T516 628Z" />
<glyph unicode="B" horiz-adv-x="1174" d="M-23 23Q-12 62 12 147T68 346T137 586T209 832T273 1053T320 1215T340 1285Q393 1289 470 1294T635 1302T804 1306Q954 1306 1045 1248T1137 1062Q1137 975 1092 903T974 782T819 719Q824 719 829 719T842 718Q914 714
967 683T1049 599T1079 474Q1079 341 1010 251T821 106T550 27T234 3Q160 3 92 8T-23 23ZM380 300Q388 299 401 299T430 299Q488 299 549 306T663 332T748 384T781 473Q781 520 738 543T590 567Q573 567 548 567T495 565T444 560L380 300ZM508 813Q561 813 594
816T653 827Q699 835 744 853T818 904T848 984Q848 1033 816 1055T729 1078Q692 1078 648 1074T570 1064L508 813Z" />
<glyph unicode="C" horiz-adv-x="1137" d="M1033 211Q934 118 802 53T506 -12Q356 -12 255 53T104 228T53 471Q53 640 108 794T264 1068T501 1257T797 1326Q895 1326 984 1298T1138 1215T1228 1076Q1193 1046 1141 1010T1036 940T944 885Q944 896 935 922T905
977T848 1026T756 1047Q679 1047 615 1002T505 882T433 719T408 544Q408 440 444 376T562 311Q616 311 669 331T772 386T867 459Q896 434 930 389T992 296T1033 211Z" />
<glyph unicode="D" horiz-adv-x="1198" d="M40 -32Q47 15 62 103T99 306T143 546T190 795T234 1022T268 1200T287 1299Q328 1305 386 1311T512 1321T643 1325Q840 1325 956 1261T1122 1083T1173 825Q1173 591 1105 429T897 165T544 17T40 -32ZM427 299Q540 303
619 343T749 453T823 612T846 802Q846 873 829 928T772 1016T660 1048Q641 1048 616 1048T574 1046Q551 921 527 793T477 540T427 299Z" />
<glyph unicode="E" horiz-adv-x="957" d="M687 -13Q591 -7 497 -2T304 7Q225 11 143 15T-19 24Q20 192 59 350T136 648Q196 871 242 1027T310 1251Q508 1286 673 1302T949 1323T1086 1327Q1068 1263 1048 1200T1002 1068L565 1033Q560 1020 552 993T535 933T518
872T506 831Q530 831 566 831T646 833T734 835T817 836T883 838L806 564Q793 564 756 565T669 569T571 572T484 575T431 575Q428 565 421 542T406 489T389 428T373 370T361 327Q374 327 431 327T548 328Q598 328 647 326T739 322T808 317Q797 277 780 226T744 124T710
37T687 -13Z" />
<glyph unicode="F" horiz-adv-x="949" d="M351 -6L12 10Q66 225 118 443T219 878T314 1303Q425 1309 529 1310T724 1311Q837 1311 926 1302T1078 1280Q1065 1210 1049 1135T1017 1005Q980 1009 910 1014T748 1023T558 1027Q555 1003 548 967T533 891T517 817Q587
817 660 813T791 801T874 790Q861 731 842 664T798 532Q756 537 700 541T584 549T469 552Q454 470 435 373T395 177T351 -6Z" />
<glyph unicode="G" horiz-adv-x="1275" d="M599 -48Q362 -48 237 80T111 437Q111 616 163 778T314 1066T552 1265T863 1338Q963 1338 1055 1311T1216 1233T1313 1114Q1290 1092 1240 1053T1129 973T1014 904Q1000 938 976 966T913 1012T811 1030Q724 1030 654
981T535 850T459 670T433 473Q433 364 480 299T645 233Q708 233 759 258T844 326T890 418Q893 431 895 442T900 464Q884 469 850 474T775 485T695 494T631 499Q638 527 651 570T678 657T703 728Q773 727 872 717T1071 690T1239 655Q1237 618 1230 572T1212 487Q1173
342 1094 221T893 26T599 -48Z" />
<glyph unicode="H" horiz-adv-x="1094" d="M4 3Q11 47 29 134T73 337T128 579T189 831T247 1061Q266 1131 282 1187T312 1282Q322 1283 359 1285T446 1290T542 1293T620 1295Q611 1248 595 1178T563 1048Q551 998 538 945T515 847T499 781Q522 783 549 785T607
789T667 792T721 794T765 795Q787 867 813 955T867 1134T918 1304Q936 1306 968 1307T1032 1308Q1094 1308 1154 1306T1242 1299Q1230 1271 1211 1215T1166 1081T1112 914T1055 729T998 541Q965 433 936 332T883 147T845 10Q821 8 773 6T667 3T551 1Q576 103 599
191T644 360T689 516Q668 515 642 515T589 514T533 513T481 512T438 511Q423 444 405 364T369 208T340 81T326 18Q301 14 258 12T166 7T73 4T4 3Z" />
<glyph unicode="I" horiz-adv-x="563" d="M276 -18Q237 -18 184 -17T77 -13T-20 -5Q-8 44 9 114T47 266T90 434T133 597Q175 757 226 939T334 1316Q351 1317 388 1317T472 1319T563 1321T637 1322Q613 1215 582 1085T518 818T450 557Q434 495 415 428T377 295T340
169T306 61T276 -18Z" />
<glyph unicode="J" horiz-adv-x="1178" d="M466 -19Q328 -19 230 31T78 176T23 401Q45 415 88 435T183 478T283 519T361 548Q361 475 381 416T439 323T531 289Q590 289 634 326T713 439T778 629Q795 691 813 772T848 939T880 1099T904 1222T914 1277Q955 1285
1005 1290T1097 1295Q1143 1295 1178 1293T1249 1287Q1237 1222 1219 1133T1181 948T1139 762T1102 607Q1044 377 955 240T744 42T466 -19Z" />
<glyph unicode="K" horiz-adv-x="1102" d="M-18 -32Q0 38 24 140T77 365T135 617T191 872T243 1107T284 1296Q320 1303 366 1305T452 1308Q499 1308 539 1305T602 1297Q596 1271 583 1214T552 1083T517 930T485 786Q531 820 590 874T717 998T855 1147T992 1313Q1033
1277 1079 1243T1163 1182T1220 1145Q1201 1117 1152 1060T1035 932T891 792T740 671Q775 615 807 551T868 423T919 301T956 199T974 133Q944 116 887 89T767 37T655 -3Q651 22 641 68T616 173T582 293T542 409T500 502Q481 489 459 479T420 462Q408 401 393 328T364
185T339 66T324 2Q305 1 250 -4T124 -16T-18 -32Z" />
<glyph unicode="L" horiz-adv-x="961" d="M-26 24Q-8 79 21 173T84 386T151 631Q185 757 217 882T277 1112T319 1285Q349 1289 412 1294T542 1299Q575 1299 617 1297T675 1292Q663 1240 641 1160T590 981T528 772T459 550Q441 491 424 438T391 341Q471 346 548
349T702 354T858 356Q856 330 844 274T817 155T788 44Q664 28 540 21T305 12Q214 11 127 14T-26 24Z" />
<glyph unicode="M" horiz-adv-x="1464" d="M-40 0Q-23 65 2 157T58 358T122 586T190 822T258 1049T320 1247Q370 1252 435 1255T562 1259T666 1261T714 1262Q714 1251 715 1204T717 1086T718 932T719 764T720 604T718 475T715 400L677 395Q695 423 732 487T817
635T917 813T1017 995T1102 1152T1157 1258Q1199 1258 1266 1256T1401 1250T1512 1238Q1509 1179 1494 1094T1456 910T1404 704Q1371 576 1332 445T1256 198T1192 4Q1143 4 1086 6T979 11T898 17Q921 82 953 184T1017 395Q1037 462 1057 530T1093 654T1119 741Q1098
702 1062 640T981 502T889 351T799 205T725 86T678 16Q663 15 635 15T591 14Q564 14 537 16T475 23Q477 38 478 90T481 219T485 381T488 552T490 707T491 819Q470 740 447 652T400 476T356 308T318 163T290 57T276 5Q239 4 185 3T72 1T-40 0Z" />
<glyph unicode="N" horiz-adv-x="1282" d="M344 -6Q283 -7 217 -4T95 5T8 14Q11 24 23 69T54 184T96 339T144 517T192 697Q222 806 249 913T299 1113T335 1267Q355 1267 394 1265T479 1260T570 1253T647 1243Q684 1149 716 1044T777 832T827 624T866 435L1044
1249Q1074 1249 1118 1246T1208 1239T1294 1229T1352 1217Q1345 1174 1333 1119T1306 1000T1275 869T1241 734T1207 604Q1180 503 1152 405T1096 222T1048 80T1016 3Q988 2 957 2T893 1Q846 1 802 3T729 10Q723 35 712 83T684 196T648 333T607 483T564 633T523
768Q519 740 507 682T477 547T440 388T402 227T368 88T344 -6Z" />
<glyph unicode="O" horiz-adv-x="1354" d="M578 -51Q408 -51 299 13T137 188T84 441Q84 637 134 798T280 1076T516 1256T833 1320Q1014 1320 1120 1254T1274 1073T1321 811Q1321 617 1276 459T1139 186T907 11T578 -51ZM626 269Q726 269 801 307T925 415T999 578T1024
780Q1024 849 1006 912T943 1016T813 1056Q713 1056 638 1016T512 903T436 736T410 532Q410 465 431 405T499 307T626 269Z" />
<glyph unicode="P" horiz-adv-x="1010" d="M-54 -9Q-46 16 -28 83T18 245T78 451T145 678T214 904T276 1104T327 1254Q422 1272 522 1281T731 1290Q897 1290 995 1219T1094 1004Q1094 899 1054 811T941 657T772 556T561 520Q533 520 491 524T429 536Q422 509 403
441T358 286T309 118T267 -17Q244 -17 201 -17T109 -16T16 -13T-54 -9ZM493 796Q513 792 543 789T604 786Q667 786 715 806T790 863T818 948Q818 1010 784 1035T690 1060Q662 1060 629 1058T561 1051Q560 1045 554 1022T539 965T521 897T504 835T493 796Z" />
<glyph unicode="Q" horiz-adv-x="1291" d="M934 -148Q907 -134 867 -95T794 -13T751 50Q733 39 695 24T607 -3T500 -14Q360 -14 268 45T130 208T84 441Q84 610 140 764T297 1039T536 1229T835 1299Q997 1299 1096 1243T1241 1087T1287 858Q1287 725 1252 593T1147
350T974 171Q1001 124 1049 87T1146 26Q1104 -19 1045 -66T934 -148ZM659 288Q648 302 635 332T612 396T598 457Q620 472 658 494T739 539T813 578Q819 534 832 476T869 377Q904 410 929 465T971 584T998 711T1007 825Q1007 929 964 987T812 1046Q714 1046 637
1001T507 879T426 702T398 493Q398 397 434 330T567 262Q607 262 628 272T659 288Z" />
<glyph unicode="R" horiz-adv-x="1094" d="M-17 -25Q12 98 47 256T120 592T196 951T270 1303Q328 1311 406 1317T568 1326T721 1329Q840 1329 931 1302T1073 1211T1125 1036Q1125 896 1048 808T840 663Q850 629 860 568T881 433T899 286T914 157T922 72Q880 53
828 37T727 8T642 -12T594 -19Q594 47 593 137T589 319T581 485T569 593Q545 588 521 584T475 579T437 576Q434 553 425 501T402 379T373 238T345 101T320 -4Q279 -13 221 -17T100 -23T-17 -25ZM474 816Q531 816 619 829Q680 839 729 856T808 904T838 988Q838 1053
797 1076T672 1099Q656 1099 634 1098T589 1094T548 1091T519 1088Q517 1070 512 1042T502 981T492 916T481 857T474 816Z" />
<glyph unicode="S" horiz-adv-x="1152" d="M467 -16Q392 -16 319 -1T181 46T64 123T-21 230Q-12 240 20 269T94 334T175 398T240 439Q263 402 290 366T351 299T429 251T527 233Q584 233 633 253T712 311T742 399Q742 436 724 468T665 530T554 588Q458 629 384
674T267 782T224 935Q224 1071 294 1163T482 1302T737 1349Q830 1349 920 1333T1084 1279T1204 1179Q1160 1121 1099 1061T988 972Q959 1011 918 1042T829 1092T725 1111Q678 1111 636 1098T567 1056T540 982Q540 954 555 933T599 895T665 865Q751 833 823 798T949
717T1031 610T1061 467Q1061 349 1013 259T881 108T690 16T467 -16Z" />
<glyph unicode="T" horiz-adv-x="1039" d="M191 1037Q193 1059 200 1099T216 1184T234 1264T245 1313Q360 1321 505 1327T797 1334Q908 1334 1012 1330T1200 1312Q1179 1229 1154 1158T1111 1050Q1092 1050 1057 1050T978 1051T892 1052T819 1054Q811 1017 795
945T758 781T714 587T669 387T629 208T600 73T585 8Q543 2 478 -3T348 -11T244 -14Q257 45 276 128T320 309T369 509T419 710T467 890Q480 936 491 976T511 1048Q476 1046 436 1045T353 1041T269 1038T191 1037Z" />
<glyph unicode="U" horiz-adv-x="1212" d="M485 -31Q283 -31 200 70T117 358Q117 479 144 628T216 954Q240 1045 268 1143T327 1342Q369 1347 413 1349T496 1352Q546 1352 595 1349T682 1342Q655 1262 622 1160T559 954Q532 862 511 774T476 613T462 496Q462 352
574 352Q673 352 737 451T844 715Q855 755 871 818T904 956T939 1104T968 1236T984 1329Q1024 1329 1076 1326T1178 1318T1265 1309T1312 1301Q1305 1248 1294 1186T1269 1056T1236 922Q1182 723 1119 550T972 247T770 43T485 -31Z" />
<glyph unicode="V" horiz-adv-x="1179" d="M487 -21Q430 -21 377 -18T293 -10Q284 52 277 151T263 373T253 628T245 888T240 1126T238 1313Q291 1328 359 1338T491 1354T599 1360Q599 1324 599 1258T597 1103T593 911T586 695T575 471T559 254L532 248Q571 325
619 431T719 657T819 894T909 1111T976 1278T1009 1364Q1063 1364 1126 1357T1250 1338T1358 1307Q1291 1163 1217 1015T1069 724T927 455T804 229T712 65T664 -16Q634 -19 587 -20T487 -21Z" />
<glyph unicode="W" horiz-adv-x="1344" d="M665 -15Q665 26 665 83T664 206T664 334T663 450T663 537L703 542Q695 528 673 492T618 404T549 296T474 182T405 79T349 0L-1 14Q12 94 32 205T79 451T139 735T210 1041T290 1353L634 1340Q611 1255 581 1149T518 930T454
710T399 515T360 370L336 352Q355 382 386 434T454 551T529 685T603 820T664 939T701 1026L938 1031Q934 1012 928 958T915 828T901 671T888 511T878 374T874 288L830 285Q867 368 908 476T991 703T1071 941T1141 1165T1194 1349L1517 1381Q1470 1207 1408 1027T1279
679T1152 372T1047 140T988 15L665 -15Z" />
<glyph unicode="X" horiz-adv-x="1218" d="M500 676Q474 765 435 854T355 1022T282 1156T237 1230Q271 1245 320 1262T425 1296T531 1325T615 1342Q630 1311 648 1254T683 1130T716 1003T742 899Q785 951 826 1009T906 1124T974 1233T1024 1323Q1086 1317 1154
1298T1276 1256T1349 1213Q1310 1157 1246 1083T1107 930T965 782T846 665Q875 607 908 523T972 347T1025 180T1055 63Q1008 38 950 17T835 -20T733 -44Q727 7 714 77T681 228T634 388Q605 349 570 306T498 219T426 137T360 64T308 9T278 -23Q121 -6 -62 52Q1 114
75 194T226 360T373 527T500 676Z" />
<glyph unicode="Y" horiz-adv-x="1065" d="M426 560Q409 598 391 648T353 757T317 879T284 1008T255 1137T232 1261Q334 1296 415 1309T552 1323Q554 1305 560 1265T573 1173T590 1065T608 960T625 877Q641 899 671 942T740 1037T819 1143T894 1240T953 1308Q1008
1304 1064 1287T1170 1248T1248 1204Q1188 1145 1104 1050T920 835T718 582Q705 527 689 462T658 337T633 241Q622 197 609 148T586 62T572 14Q558 9 519 6T434 2Q385 2 338 6T260 16Q290 127 321 235T379 429T426 560Z" />
<glyph unicode="Z" horiz-adv-x="1044" d="M828 -14Q651 -14 438 -6T-27 22Q-21 54 -8 109T19 221T43 315Q93 359 161 423T305 561T456 711T599 855T715 977T789 1057Q765 1057 707 1054T575 1047T426 1038T290 1029Q294 1055 302 1092T319 1164Q330 1203 340
1237T360 1294Q411 1299 493 1305T670 1318T859 1329T1031 1334Q1053 1334 1090 1334T1163 1333T1215 1330Q1213 1306 1205 1271T1188 1201Q1177 1156 1166 1119T1147 1069Q1110 1024 1050 960T919 821T774 670T629 525T504 402T417 319Q440 317 474 315T554 312T655
311Q717 311 788 313T927 319Q923 293 913 250T891 161Q876 107 858 57T828 -14Z" />
<glyph unicode="[" horiz-adv-x="735" d="M79 -526Q23 -526 -38 -524T-161 -517Q-125 -273 -66 -4T63 524Q126 756 190 964T315 1340T421 1613Q475 1623 546 1631T699 1644T865 1653T1029 1657Q1014 1601 991 1540Q975 1500 961 1469T940 1426Q919 1426 868 1423T757
1416T648 1408Q605 1294 563 1172T481 924T404 669T333 415Q299 290 269 170T215 -57T174 -249Q188 -251 222 -253T303 -257Q341 -258 387 -258T461 -259Q452 -293 435 -343T402 -440T375 -511Q327 -517 251 -521T79 -526Z" />
<glyph unicode="\" horiz-adv-x="725" d="M601 13Q523 -34 452 -64T313 -109Q266 136 237 377T193 867T175 1389Q214 1423 296 1446T462 1474Q462 1344 466 1218T478 969T498 726T525 486T560 249T601 13Z" />
<glyph unicode="]" horiz-adv-x="619" d="M656 553Q602 350 541 162T420 -185T307 -458Q225 -475 130 -484T-56 -497T-211 -501Q-203 -465 -192 -419T-170 -327T-150 -252Q-129 -252 -97 -250T-29 -244T37 -236T84 -228Q128 -123 174 9T264 287T349 582Q384 713
414 838T467 1074T504 1271T521 1411Q486 1413 446 1414T367 1416T292 1418Q288 1428 287 1439T286 1462Q300 1513 318 1568T350 1656Q376 1658 413 1658T480 1659Q584 1659 675 1652T854 1628Q839 1402 788 1125T656 553Z" />
<glyph unicode="^" horiz-adv-x="1032" d="M890 1325Q916 1285 944 1228T999 1102T1045 958T1075 805Q1033 776 968 755T811 716Q809 756 803 802T785 897T757 994T722 1088T678 1174L823 1167Q766 1129 707 1081T590 979T481 873T387 774T317 693Q262 701 201
731T101 812Q159 874 231 946T379 1089T525 1223T650 1326Q675 1331 708 1333T777 1336Q813 1336 844 1334T890 1325Z" />
<glyph unicode="_" horiz-adv-x="1549" d="M160 24Q333 24 513 27T861 35T1162 45T1376 54Q1353 -32 1326 -113T1278 -245Q1218 -247 1106 -249T829 -251Q742 -251 635 -251T406 -249T154 -245T-108 -240Q-106 -225 -101 -192T-89 -118T-74 -39T-62 26Q-42 25
-14 25T46 24T107 24T160 24Z" />
<glyph unicode="`" horiz-adv-x="663" d="M369 1509Q392 1507 444 1487T560 1436T686 1366T789 1288Q773 1262 747 1232T696 1178T660 1148Q627 1168 571 1191T448 1236T319 1279T208 1311Q215 1323 238 1358T296 1434T369 1509Z" />
<glyph unicode="a" horiz-adv-x="1295" d="M390 -17Q219 -17 116 49T12 271Q12 382 61 459T194 583T382 651T596 673Q648 673 698 665T787 646T838 625Q840 642 839 672T829 724Q815 775 768 800T640 825Q584 825 527 807T422 761T347 700L146 857Q239 952 385
1011T693 1071Q889 1071 1001 997T1113 745Q1113 693 1102 632T1075 512Q1059 452 1047 395T1034 292Q1034 264 1043 255T1072 246Q1098 246 1119 260T1156 301L1211 100Q1187 54 1129 23T993 -8Q910 -8 868 37T825 171Q800 125 737 82T585 11T390 -17ZM502 218Q549
218 602 231T702 266T777 314Q783 345 790 378T804 434Q784 443 726 453T600 464Q555 464 509 456T422 431T358 387T334 323Q334 268 373 243T502 218Z" />
<glyph unicode="b" horiz-adv-x="1200" d="M13 -7Q20 28 38 110T82 304T138 544T199 802T258 1048T309 1254T343 1389Q357 1392 443 1406T654 1439Q638 1376 611 1270T555 1035T499 776Q526 799 562 824T640 871T729 906T830 919Q980 919 1058 836T1136 583Q1136
466 1101 361T1000 175T838 48T623 2Q551 2 495 21T404 67T357 114Q350 85 341 41T328 -19Q255 -19 164 -17T13 -7ZM408 338Q421 328 449 314T517 290T599 279Q677 279 732 309T817 395T847 521Q847 588 820 625T719 663Q655 663 603 640T512 586T448 530Q447 521
443 502T433 459T423 411T414 367T408 338Z" />
<glyph unicode="c" horiz-adv-x="1026" d="M913 212Q877 160 806 109T637 24T423 -10Q293 -10 210 45T87 195T47 414Q47 559 94 683T227 899T431 1044T688 1096Q782 1096 858 1067T987 985T1059 861L809 739Q808 747 802 764T781 800T737 832T660 845Q587 845
531 816T435 735T375 617T355 477Q355 406 387 360T501 313Q549 313 591 328T667 366T722 408T751 437L913 212Z" />
<glyph unicode="d" horiz-adv-x="1195" d="M670 3Q673 17 678 43T691 96T703 141Q689 124 665 101T603 54T510 16T379 0Q285 0 209 50T87 187T42 380Q42 550 115 680T317 885T614 959Q689 959 750 942T850 900T902 848Q917 903 939 972T985 1113T1031 1251T1072
1367T1100 1441Q1158 1441 1229 1434T1351 1413Q1233 1068 1135 721T936 -6Q912 -6 861 -5T755 -2T670 3ZM495 292Q537 292 576 303T651 332T716 372T766 415Q772 435 780 463T796 521T812 576T825 618Q809 639 776 658T699 690T607 703Q494 703 418 635T341 452Q341
372 384 332T495 292Z" />
<glyph unicode="e" horiz-adv-x="1115" d="M973 181Q936 147 887 114T776 54T635 11T464 -5Q273 -5 159 93T44 377Q44 534 96 660T241 877T457 1016T724 1065Q901 1065 997 979T1093 739Q1093 680 1079 619T1038 505Q1025 506 976 506T864 507T745 508T662 509Q606
508 548 505T442 496T363 486Q354 462 354 425Q354 382 377 351T442 304T535 287Q581 287 621 298T697 329T764 370T825 415Q830 410 850 385T895 323T943 249T973 181ZM421 673Q445 676 483 680T570 687T676 690Q709 691 739 691T793 690T823 689Q826 702 827
717T829 746Q828 779 813 807T766 852T686 869Q622 869 566 841T472 768T421 673Z" />
<glyph unicode="f" horiz-adv-x="896" d="M117 -11Q118 -4 124 50T140 181T159 332T176 456Q154 452 113 441T37 419Q37 450 42 499T56 599T76 689Q86 692 106 697T148 709T191 719T221 726Q227 770 235 816T256 904Q288 1024 357 1127T532 1295T774 1360Q859
1360 916 1341T1010 1294T1066 1236T1092 1186Q1068 1157 1036 1120T970 1046T909 979T866 935Q859 952 849 972T823 1010T787 1040T738 1052Q691 1052 656 1029T597 967T561 879Q554 855 550 825T543 772Q575 773 625 773T722 773T792 770Q785 718 769 646T736
515Q727 515 685 514T592 509T506 502Q504 477 499 425T489 310T478 184T470 74T465 8Q423 1 360 -3T232 -8T117 -11Z" />
<glyph unicode="g" horiz-adv-x="1231" d="M607 257Q426 257 326 304T185 426T145 587Q145 743 227 847T447 1004T746 1056Q962 1056 1061 971T1161 739Q1161 586 1088 478T889 314T607 257ZM361 -499Q215 -499 104 -473T-68 -385T-130 -220Q-130 -130 -84 -61T39
57T212 132T407 166Q468 170 530 171T687 173Q829 173 909 114T989 -66Q989 -184 939 -266T802 -400T601 -475T361 -499ZM406 -305Q476 -305 538 -289T640 -236T680 -143Q680 -110 661 -92T612 -65T546 -57Q505 -57 454 -57T361 -57Q313 -57 274 -72T210 -117T186
-192Q186 -229 213 -254T290 -292T406 -305ZM253 62Q145 86 100 127T55 216Q55 262 81 302T148 373T233 415L407 314Q360 300 335 277T309 228Q309 204 333 185T407 166L253 62ZM634 495Q699 495 753 516T840 580T872 687Q872 750 830 787T720 824Q657 824 600
803T506 739T469 628Q469 565 514 530T634 495ZM1107 804L968 953Q990 992 1036 1036T1135 1119T1235 1178Q1244 1157 1260 1121T1296 1047T1328 984Q1302 973 1271 954T1208 911T1150 860T1107 804Z" />
<glyph unicode="h" d="M248 -11Q224 -15 183 -17T96 -19Q44 -19 0 -16T-62 -4Q-39 56 -7 152T62 369T134 621Q171 756 203 896T264 1166T315 1405Q323 1408 362 1414T451 1426T547 1438T614 1443Q610 1368 595 1265T554 1039T496 781Q538 818 596 848T719 895T846
912Q967 912 1023 858T1079 699Q1079 639 1059 551T1006 363T937 169T868 2Q832 -4 794 -7T718 -10Q635 -10 570 4Q592 55 623 132T684 291T734 443T754 549Q754 590 732 616T665 642Q629 642 594 630T526 599T468 558T422 515Q400 438 377 361T330 212T285 84T248
-11Z" />
<glyph unicode="i" horiz-adv-x="610" d="M292 2Q274 1 226 -2T125 -6Q86 -6 48 -4T-29 3Q-19 25 2 85T51 231T110 412T172 604T226 779T266 911Q301 915 357 918T469 923T561 926Q558 894 543 822T505 664Q480 573 450 471T390 274T334 106T292 2ZM467 1047Q392
1047 342 1085T292 1187Q292 1255 327 1309T419 1394T544 1426Q613 1426 657 1385T701 1281Q701 1219 669 1166T584 1080T467 1047Z" />
<glyph unicode="j" horiz-adv-x="690" d="M505 215Q461 40 403 -94T269 -320T92 -458T-137 -505Q-245 -505 -332 -467T-472 -361T-529 -205Q-455 -161 -365 -123T-212 -66Q-210 -107 -197 -144T-156 -204T-88 -227Q-43 -227 -7 -189T58 -89T109 45T150 183Q178
289 202 414T242 662T262 881L601 897Q599 852 593 775T575 604T546 409T505 215ZM497 1413Q588 1413 636 1362T685 1247Q685 1184 646 1130T546 1045T421 1013Q340 1013 290 1059T240 1170Q240 1235 276 1290T370 1379T497 1413Z" />
<glyph unicode="k" horiz-adv-x="1156" d="M713 -51Q706 -21 691 26T653 128T605 234T555 325T506 380Q494 373 474 361T431 336T392 312T369 296Q357 253 343 206T314 115T287 34T268 -24Q229 -28 191 -30T117 -32Q69 -32 27 -29T-46 -22Q-30 28 -1 121T65 335T143
591T227 859T305 1110T370 1317T411 1447Q445 1450 479 1452T546 1454Q594 1454 637 1449T715 1433Q686 1332 654 1220T589 1000T529 804T484 666Q525 703 581 743T702 822T833 898T961 967T1071 1024Q1094 1005 1122 961T1174 869T1208 791Q1161 766 1098 732T968
660T845 590T755 537Q776 520 804 485T862 403T923 300T981 184T1029 63Q1012 53 970 37T876 2T780 -31T713 -51Z" />
<glyph unicode="l" horiz-adv-x="645" d="M539 47Q502 17 427 -11T258 -40Q139 -40 80 14T20 164Q20 223 38 316T86 524T152 763T228 1010T304 1241T367 1429Q440 1434 500 1434Q539 1434 576 1432T659 1426Q615 1298 574 1176T497 941T430 729T377 549T343 408T331
314Q331 280 343 260T385 240Q420 240 446 255T493 295Q497 283 503 248T517 169T531 91T539 47Z" />
<glyph unicode="m" horiz-adv-x="1858" d="M-5 -8Q7 57 29 158T78 377T134 613T187 829T229 990Q254 996 296 1002T386 1014T476 1023T544 1027Q540 1011 534 987T521 937T510 890T502 857Q514 876 542 906T615 966T718 1016T849 1037Q951 1037 999 983T1056 857Q1059
832 1058 806T1053 754Q1095 827 1161 893T1314 1002T1500 1045Q1654 1045 1724 974T1795 767Q1795 695 1779 605T1735 412T1674 203T1605 -11Q1568 -13 1529 -14T1451 -16Q1411 -16 1371 -15T1292 -10Q1339 105 1387 231T1466 469T1498 656Q1498 770 1408 770Q1339
770 1285 728T1186 612T1105 441T1034 232Q1017 176 1000 115T965 -9Q944 -10 908 -11T831 -13Q784 -13 740 -12T678 -7Q713 116 745 242T798 475T819 645Q819 709 796 741T718 774Q679 774 637 757T557 713T489 653T444 589Q408 430 380 299T336 85T317 -14Q306
-15 271 -16T210 -17Q146 -17 85 -14T-5 -8Z" />
<glyph unicode="n" horiz-adv-x="1330" d="M303 -13Q272 -14 228 -14T139 -12Q103 -11 55 -9T-11 -5Q20 79 55 185T128 420T210 702T301 1033Q340 1038 393 1041T499 1044Q537 1044 571 1043T630 1036Q628 1027 621 999T605 937T588 881Q623 919 693 960T849 1031T1018
1060Q1170 1060 1234 999T1299 816Q1299 745 1279 645T1225 432T1152 205T1076 -3Q1055 -5 1012 -6T920 -8Q869 -8 824 -7T757 -3Q786 59 823 148T894 334T951 515T974 653Q974 710 945 742T846 774Q787 774 727 753T612 702T518 642Q475 484 434 357T359 136T303
-13Z" />
<glyph unicode="o" horiz-adv-x="1171" d="M483 -22Q264 -22 157 81T49 366Q49 519 97 646T233 867T443 1011T715 1063Q924 1063 1017 954T1110 659Q1110 509 1067 384T943 168T746 28T483 -22ZM525 265Q598 265 654 294T748 376T806 493T826 631Q826 716 788
773T662 830Q592 830 537 799T442 713T383 592T362 454Q362 372 402 319T525 265Z" />
<glyph unicode="p" horiz-adv-x="1222" d="M-205 -448Q-149 -285 -92 -105T19 252T119 585T198 858T248 1036Q316 1056 399 1064T557 1073Q552 1041 543 998T522 918Q547 943 595 979T715 1044T878 1072Q990 1072 1058 1027T1158 900T1190 710Q1190 532 1116 386T907
153T590 66Q526 66 466 84T363 128T308 176Q301 152 283 95T241 -35T192 -183T145 -322T109 -421Q54 -432 -7 -437T-121 -445T-205 -448ZM608 376Q696 376 757 412T852 512T885 664Q885 735 854 774T737 814Q690 814 648 803T572 774T510 737T466 700Q463 689 457
666T441 614T424 555T408 503T398 470Q410 453 434 431T501 393T608 376Z" />
<glyph unicode="q" horiz-adv-x="1207" d="M845 -460Q754 -460 681 -455T557 -445Q570 -361 588 -271T629 -86T678 106Q661 87 624 65T533 26T410 10Q293 10 220 60T112 200T78 401Q78 594 141 749T325 994T623 1085Q739 1085 816 1047T944 951Q950 971 961 999T983
1053T999 1090Q1067 1089 1134 1079T1271 1050Q1217 916 1161 757T1055 436T964 127Q934 12 910 -101T870 -307T845 -460ZM524 324Q572 324 617 337T699 367T756 397Q763 420 773 450T794 515T817 585T839 650T858 704Q847 715 817 736T743 776T644 794Q563 794
504 750T412 633T379 478Q379 408 414 366T524 324Z" />
<glyph unicode="r" horiz-adv-x="853" d="M448 896Q483 941 541 982T669 1049T814 1075Q861 1075 910 1066T976 1042L828 724Q809 733 777 744T700 755Q654 755 607 739T515 694T432 627Q426 568 414 479T388 295T360 123T336 9Q264 0 171 -3T-6 -5Q15 81 40 188T88
412T130 640T161 850T174 1015Q225 1029 284 1041T391 1060T452 1069Q452 1034 451 980T448 896Z" />
<glyph unicode="s" horiz-adv-x="990" d="M363 -79Q242 -79 150 -50T-2 17T-83 86Q-72 104 -45 141T18 221T86 301T143 356Q180 315 226 276T323 211T426 186Q468 186 506 199T569 239T593 308Q593 357 543 395T417 467Q350 498 299 539T218 637T189 767Q189 858
229 925T339 1037T494 1102T671 1124Q791 1124 892 1093T1046 1014Q1035 995 1005 956T935 873T855 791Q824 826 767 858T648 890Q621 890 592 886T537 870T496 839T480 793Q480 756 518 727T633 664Q698 636 758 591T856 483T895 334Q895 201 820 109T623 -31T363
-79Z" />
<glyph unicode="t" horiz-adv-x="964" d="M806 108Q778 72 733 36T621 -24T462 -48Q328 -48 269 30T209 220Q209 258 218 318T244 450T279 595T318 734T355 846Q274 838 204 829T107 813Q112 869 122 927T141 1028T154 1081Q215 1089 282 1095T423 1105Q434 1145
445 1188T465 1272Q475 1309 483 1346T495 1407L793 1433Q791 1427 785 1402T770 1341T749 1263Q741 1232 732 1196T713 1120Q746 1122 791 1124T862 1127Q905 1129 939 1129T995 1130T1025 1129Q1019 1082 1003 1011T970 884Q960 884 904 883T795 877Q759 875
717 872T640 866Q624 820 605 760T567 635T533 507T508 394T499 312Q499 272 511 250T561 227Q593 227 620 244T668 286T704 331Q709 323 724 291T756 220T788 149T806 108Z" />
<glyph unicode="u" horiz-adv-x="1178" d="M865 978Q893 987 941 991T1033 996Q1071 996 1115 993T1186 986Q1177 905 1162 823T1126 660Q1086 513 1028 383T889 154T699 -1T448 -58Q312 -58 230 -10T112 126T76 332Q76 431 97 545T155 780T232 1023Q260 1025
302 1026T379 1027Q429 1027 478 1022T554 1007Q517 906 482 795T425 580T403 398Q403 319 430 277T517 235Q583 235 637 291T734 442T809 653Q833 741 847 822T865 978Z" />
<glyph unicode="v" horiz-adv-x="1007" d="M830 1091Q898 1079 957 1063T1057 1035T1106 1019Q1074 953 1032 873T941 706T838 527T730 347T621 175T516 19Q460 10 383 10Q346 10 311 13T252 19Q230 128 212 252T180 507T159 771T145 1026Q160 1029 195 1036T273
1054T357 1074T427 1092Q427 1010 430 903T440 689T453 495T466 368L452 363Q485 420 522 482T597 614T674 760T753 919T830 1091Z" />
<glyph unicode="w" horiz-adv-x="1520" d="M324 7Q176 7 116 94T56 318Q56 423 83 545T153 799T244 1060Q308 1060 387 1056T530 1047Q500 963 470 870T413 688T370 524T354 400Q354 354 369 329T418 303Q455 303 490 336T559 429T621 568T676 739Q694 807 714
887T752 1041Q781 1041 831 1041T933 1039T1017 1036Q974 873 946 763T901 581T878 462T871 378Q871 325 887 297T940 269Q982 269 1020 306T1094 409T1160 564T1219 755Q1236 818 1254 893T1291 1041Q1320 1041 1354 1041T1423 1041Q1455 1041 1499 1039T1567
1035Q1559 994 1547 937T1522 823T1498 727Q1464 602 1422 493T1328 297T1213 146T1073 49T904 15Q832 15 785 38T711 104T672 208T661 342L730 343Q719 302 688 245T605 134T483 43T324 7Z" />
<glyph unicode="x" horiz-adv-x="1142" d="M123 -27Q103 -7 70 29T4 105T-44 174Q-25 189 16 223T113 302T227 397T343 495T444 581Q385 680 332 758T237 895T167 992Q177 1002 210 1025T286 1076T369 1127T433 1162Q452 1136 484 1086T550 977T613 864T654 774Q712
832 769 893T882 1022T995 1161Q1032 1143 1078 1119T1168 1071T1238 1026Q1202 983 1149 926T1033 806T907 682T786 573Q812 526 837 474T887 365T936 250T986 130Q930 90 850 49T707 -19Q693 27 676 76T639 175T597 271T552 357Q498 305 448 257T351 167T263
88T186 23T123 -27Z" />
<glyph unicode="y" horiz-adv-x="1079" d="M212 -527Q110 -527 19 -506T-142 -451T-256 -383Q-241 -359 -215 -323T-158 -249T-99 -177T-53 -126Q-24 -149 24 -177T135 -226T264 -247Q336 -247 394 -209T499 -108T579 31T635 184Q610 142 566 109T464 57T340 38Q188
38 126 120T63 339Q63 469 106 631T205 968Q224 973 258 974T333 976Q388 976 440 973T510 966Q489 917 465 850T420 710T384 570T370 452Q370 396 390 360T460 324Q529 324 585 374T688 514T768 723Q780 761 791 798T811 869T825 925T833 957Q856 959 880 960T927
962Q1019 962 1104 942Q1079 832 1040 684Q1015 592 985 488T921 275T853 56Q798 -119 712 -250T503 -454T212 -527Z" />
<glyph unicode="z" horiz-adv-x="1074" d="M851 3Q772 -1 651 -5T401 -9Q268 -9 141 -5T-72 12L3 242Q27 267 65 302T151 381T254 471T366 566T478 660T584 745T674 816Q656 816 616 815T526 813T424 812T332 812Q304 812 276 812T225 811T185 810T164 809L241
1051Q273 1050 327 1049T448 1047T583 1046T710 1045Q812 1045 922 1045T1114 1043Q1114 1036 1108 1008T1094 943T1077 875T1065 830Q1021 798 961 750T834 646T700 532T574 422T468 328T398 263Q420 260 478 260T585 259Q647 259 713 261T838 268T938 277Q935
266 924 228T898 143T871 56T851 3Z" />
<glyph unicode="{" horiz-adv-x="665" d="M260 -438Q142 -421 85 -344T27 -153Q27 -78 49 -21T97 88Q122 138 143 191T165 311Q165 363 126 398T14 449Q14 468 21 502T36 568Q44 599 54 631T74 683Q181 698 229 767T284 942Q287 984 288 1014T290 1072Q292 1100
295 1126T307 1185Q333 1288 398 1376T566 1521T800 1589Q816 1570 823 1530T834 1445T836 1368Q772 1355 721 1318T634 1229T584 1119Q574 1081 571 1051T567 993Q567 964 564 933T550 859Q528 774 472 708T341 604T180 562L187 584Q259 579 319 559T415 496T452
386Q452 328 432 272T385 161Q358 105 337 48T315 -69Q315 -128 343 -169T430 -224Q388 -282 347 -335T260 -438Z" />
<glyph unicode="|" horiz-adv-x="487" d="M92 -555Q32 -555 -44 -552T-183 -536Q-147 -388 -93 -171T35 321Q104 578 189 882T377 1528Q400 1530 451 1532T558 1536T655 1538Q634 1440 608 1320T550 1066T484 791T414 510T342 237Q297 69 253 -83T167 -357T92 -555Z" />
<glyph unicode="}" horiz-adv-x="614" d="M-87 -449Q-101 -423 -114 -363T-127 -229Q-49 -200 2 -165T81 -79T114 42Q117 69 117 93T115 141Q113 165 113 189T115 241Q121 342 178 423T320 552T498 600L485 563Q421 565 361 591T262 669T223 795Q223 855 243 907T289
1012Q315 1065 336 1120T357 1239Q357 1300 328 1343T231 1405Q272 1456 331 1515T435 1615Q540 1593 595 1507T650 1313Q650 1234 624 1170T568 1047Q541 995 520 944T498 832Q498 770 542 744T644 713Q644 680 642 649T632 591Q624 562 612 529T583 476Q514 466
471 430T405 337T378 204Q375 184 375 158T375 104Q376 77 376 51T371 4Q367 -82 328 -157T224 -294T79 -396T-87 -449Z" />
<glyph unicode="~" horiz-adv-x="1115" d="M211 751Q228 797 268 840T364 911T487 940Q545 940 585 914T660 858Q688 832 717 813T783 793Q828 793 856 827T899 904L1054 808Q1049 784 1030 749T979 678T902 619T797 595Q744 595 701 623T620 683Q590 709 561
728T502 747Q464 747 435 726T388 676T361 626L211 751Z" />
<glyph unicode="&#xa0;" horiz-adv-x="615" />
<glyph unicode="&#xa1;" horiz-adv-x="708" d="M274 629Q304 629 355 628T457 623T541 615Q522 521 499 417T450 205T399 -10T345 -217T293 -407L-71 -391Q-55 -350 -23 -258T51 -46T135 201T214 441T274 629ZM502 1093Q586 1093 634 1049T682 938Q682 872 647
821T555 739T430 709Q352 709 303 756T254 873Q254 936 289 985T382 1064T502 1093Z" />
<glyph unicode="&#xa2;" horiz-adv-x="1026" d="M755 1312Q790 1312 836 1306T895 1292Q853 1173 805 1046T705 792T599 545T497 319T405 128T329 -14Q283 -13 241 -3T169 24Q225 128 289 259T420 533T550 819T665 1088T755 1312ZM909 320Q873 268 802 217T633
132T418 98Q289 98 206 153T83 304T43 522Q43 667 90 791T223 1008T427 1152T684 1204Q778 1204 854 1175T982 1094T1055 970L805 847Q804 855 798 872T777 908T732 941T656 954Q583 954 527 924T431 843T371 726T351 585Q351 514 383 468T497 421Q544 421 586
437T662 475T718 517T747 546L909 320Z" />
<glyph unicode="&#xa3;" horiz-adv-x="1140" d="M194 519Q150 519 117 520T66 525L133 746Q157 744 191 743T267 742Q336 742 423 744T598 751T757 762T863 775Q862 764 856 735T842 672T827 607T815 562Q780 552 705 544T537 531T353 522T194 519ZM-6 -33Q-7
-19 -10 12T-17 79T-22 149T-25 202Q34 224 85 265T179 359T250 472T289 594Q309 677 309 756T325 906Q350 1039 433 1135T639 1283T898 1335Q974 1335 1031 1320T1127 1283T1187 1242Q1181 1232 1162 1201T1119 1132T1073 1066T1043 1029Q1024 1053 981 1079T870
1105Q782 1105 717 1067T615 961T579 801Q579 770 580 735T582 668Q582 604 558 541T495 419T406 312T305 228Q333 239 370 248T447 262T520 267Q582 267 636 254T736 241Q796 241 843 254T944 289Q944 276 945 243T947 168T949 94T950 47Q895 21 818 5T681 -12Q613
-12 559 -4T454 12T349 20Q240 20 147 -2T-6 -33Z" />
<glyph unicode="&#xa4;" horiz-adv-x="974" d="M54 51Q50 59 31 81T-12 130T-54 179T-79 211Q-38 245 16 288T124 373T224 449L367 334Q347 317 306 280T217 197T124 112T54 51ZM673 68Q649 102 620 153T566 249T524 309L716 440Q742 410 771 371T827 295T874
235Q862 224 836 201T777 152T717 102T673 68ZM265 653Q223 701 176 765T94 879Q103 889 130 911T190 959T254 1007T300 1038Q323 1014 351 973T405 887T448 805L265 653ZM766 655L650 802Q707 852 783 917T929 1039Q934 1032 950 1010T985 960T1020 909T1041 877Q971
822 903 764T766 655ZM386 218Q301 218 235 252T131 347T93 484Q93 594 153 681T311 819T521 870Q657 870 743 803T829 624Q829 542 793 469T693 339T551 250T386 218ZM425 437Q463 437 497 455T554 505T576 574Q576 608 554 629T480 651Q444 651 413 634T362 586T342
517Q342 481 363 459T425 437Z" />
<glyph unicode="&#xa5;" horiz-adv-x="1065" d="M125 500Q135 538 150 580T181 658T203 710Q275 716 348 719T496 724T651 726Q757 726 848 723T1003 711Q998 661 990 607T970 511Q947 511 883 511T731 509T549 507T366 504T214 502T125 500ZM895 216Q867 217
801 218T645 220T461 222T278 224T127 225T39 226Q52 275 69 319T107 407Q166 412 237 415T391 420T562 422Q665 422 762 419T928 410Q927 393 923 361T912 290T895 216ZM422 560Q405 598 387 648T350 757T314 879T280 1008T251 1137T229 1261Q331 1296 412 1309T549
1323Q551 1305 556 1265T569 1173T586 1065T604 960T622 877Q637 899 667 942T736 1037T815 1143T891 1240T950 1308Q1004 1304 1061 1287T1167 1248T1245 1204Q1185 1145 1100 1050T916 835T714 582Q702 527 686 462T655 337T630 241Q619 197 606 148T582 62T568
14Q555 9 516 6T431 2Q382 2 335 6T256 16Q287 127 318 235T376 429T422 560Z" />
<glyph unicode="&#xa6;" horiz-adv-x="432" d="M6 279Q68 285 145 287T283 289Q275 262 258 195T218 39T173 -140T132 -303T106 -415Q83 -422 36 -427T-62 -435T-147 -438Q-140 -395 -126 -324T-95 -167T-58 4T-22 162T6 279ZM149 780Q174 873 205 980T269 1190T327
1376T369 1502Q404 1502 453 1501T547 1493T611 1476Q599 1433 579 1360T536 1201T490 1030T449 876T421 770Q363 770 305 771T203 776T149 780Z" />
<glyph unicode="&#xa7;" horiz-adv-x="1000" d="M573 681Q534 677 490 657T416 606T385 535Q385 491 436 454T567 382Q636 355 693 311T786 204T821 56Q821 -72 748 -164T556 -306T304 -355Q181 -355 80 -326T-89 -257T-181 -185Q-167 -167 -140 -135T-81 -66T-18
1T33 47Q76 9 129 -24T240 -78T351 -98Q402 -98 445 -85T516 -44T544 26Q544 77 488 118T333 201Q269 229 215 268T129 361T96 487Q96 576 135 637T240 740T390 810L573 681ZM526 378Q568 385 607 411T671 473T697 547Q697 595 630 635T468 714Q370 754 315 815T259
980Q259 1110 323 1194T496 1321T733 1363Q804 1363 878 1349T1016 1311T1122 1251Q1116 1242 1089 1205T1023 1121T941 1037Q919 1061 880 1082T796 1116T707 1129Q667 1129 626 1120T558 1089T531 1033Q531 993 580 961T708 895Q776 868 837 824T936 717T975
573Q975 475 927 403T800 279T627 196L526 378Z" />
<glyph unicode="&#xa8;" horiz-adv-x="944" d="M476 1184Q414 1184 366 1221T317 1318Q317 1383 363 1427T475 1472Q545 1472 589 1428T634 1320Q634 1261 587 1223T476 1184ZM894 1193Q831 1193 785 1235T738 1338Q738 1399 781 1441T885 1483Q952 1483 1002
1442T1052 1337Q1052 1294 1029 1262T969 1211T894 1193Z" />
<glyph unicode="&#xa9;" horiz-adv-x="1745" d="M739 -68Q531 -68 377 -6T138 172T53 452Q53 658 132 823T351 1107T677 1287T1079 1350Q1278 1350 1418 1288T1632 1103T1706 802Q1706 600 1633 439T1429 165T1121 -8T739 -68ZM769 170Q914 170 1032 211T1236
332T1367 525T1413 785Q1413 942 1320 1030T1031 1119Q897 1119 780 1075T573 951T434 760T383 516Q383 409 429 332T561 212T769 170ZM820 288Q681 288 608 354T534 540Q534 670 601 772T780 934T1024 993Q1109 993 1177 971T1273 905Q1222 852 1170 807T1085
738Q1075 758 1039 773T959 788Q907 788 862 763T790 695T762 604Q762 571 777 551T819 522T876 513Q909 513 943 525T1011 561T1078 620Q1116 599 1156 566T1228 499Q1151 396 1043 342T820 288Z" />
<glyph unicode="&#xaa;" horiz-adv-x="750" d="M551 726Q554 732 563 752T577 788Q556 772 525 758T458 735T384 726Q270 726 213 772T155 918Q155 1005 212 1057T354 1134T523 1158Q549 1158 582 1154T641 1144T673 1130Q676 1143 676 1153Q676 1201 640 1221T544
1242Q488 1242 432 1226T346 1188L255 1332Q321 1375 405 1402T591 1429Q739 1429 804 1367T869 1189Q869 1123 849 1039T800 870T742 720Q738 719 717 719T684 719Q652 719 613 720T551 726ZM480 893Q522 893 559 906T622 936Q625 946 627 954T632 969Q635 976
636 986T639 1004Q632 1007 614 1010T573 1016T527 1018Q495 1018 463 1010T409 985T387 938Q387 913 411 903T480 893Z" />
<glyph unicode="&#xab;" horiz-adv-x="1214" d="M1256 1135Q1285 1111 1300 1071T1320 994T1327 945L866 599Q897 580 933 555T1005 505T1069 457T1112 419Q1110 400 1097 367T1066 294T1029 219T998 160T983 135L556 570Q738 731 914 874T1256 1135ZM762 1121Q801
1083 830 1036T865 972L395 552Q440 502 489 447T584 342T661 261T702 223Q689 199 666 163T618 90T577 28T558 0Q428 116 307 249T89 530Q244 676 412 825T762 1121Z" />
<glyph unicode="&#xac;" horiz-adv-x="1000" d="M1027 865Q1020 844 1003 788T963 658T915 507T870 364T838 262Q821 261 788 261T716 261T645 261T599 263Q607 296 622 344T654 445T685 542T708 611Q658 608 587 604T438 596T284 589T149 583T56 579Q64 611 76
657T100 750T123 831Q168 835 257 839T457 848T681 856T885 862T1027 865Z" />
<glyph unicode="&#xad;" horiz-adv-x="780" d="M807 816Q800 754 782 679T749 549Q718 549 651 547T498 543T323 537T157 530T30 522Q37 550 49 590T76 674T103 752T122 803Q211 815 314 822T508 830Q602 830 676 827T807 816Z" />
<glyph unicode="&#xae;" horiz-adv-x="1400" d="M664 266Q554 266 454 287T276 354T153 477T107 666Q107 819 169 940T341 1147T590 1276T888 1321Q1049 1321 1166 1275T1346 1137T1410 912Q1410 759 1354 639T1197 436T959 309T664 266ZM678 450Q821 450 929
507T1098 668T1160 909Q1160 991 1123 1042T1018 1118T860 1142Q754 1142 663 1108T503 1012T394 865T355 677Q355 605 383 560T457 491T561 459T678 450ZM675 543Q628 543 579 551T497 570Q509 612 526 673T562 801T600 923T630 1011Q673 1033 722 1043T826 1053Q903
1053 967 1029T1031 941Q1031 889 987 843T891 782Q898 766 904 737T916 676T926 615T932 571Q902 557 855 550T757 543Q755 581 754 636T746 733Q741 733 735 733T724 732Q721 721 715 696T701 640T686 583T675 543ZM747 855Q787 855 820 868T854 913Q854 927
841 931T810 936Q799 936 786 935T763 932Q763 926 760 911T753 879T747 855Z" />
<glyph unicode="&#xaf;" horiz-adv-x="1079" d="M1114 1213Q1057 1213 963 1210T758 1203T537 1193T339 1179Q346 1225 354 1269T376 1357Q425 1367 503 1375T674 1392T860 1406T1032 1416T1158 1420Q1155 1397 1143 1338T1114 1213Z" />
<glyph unicode="&#xb0;" horiz-adv-x="814" d="M512 874Q427 874 361 908T257 1003T219 1140Q219 1250 279 1337T437 1475T647 1526Q783 1526 869 1459T955 1280Q955 1198 919 1125T819 995T677 906T512 874ZM551 1093Q589 1093 623 1111T680 1161T702 1230Q702
1264 680 1285T606 1307Q570 1307 539 1290T488 1242T468 1173Q468 1137 489 1115T551 1093Z" />
<glyph unicode="&#xb1;" horiz-adv-x="1050" d="M1057 776Q1001 766 910 760T705 754Q605 754 497 758T292 770T131 787Q133 802 140 839T156 921T173 1000T185 1049Q220 1045 283 1042T428 1037T597 1035Q708 1035 814 1038T1009 1047T1150 1062Q1137 1010 1117
949T1080 839T1057 776ZM888 1370Q886 1323 875 1245T843 1071T794 873Q764 763 727 651T650 450Q636 450 599 451T516 453T433 456T383 460Q402 506 419 562T452 679Q477 770 498 868T535 1061T563 1232T579 1358Q590 1359 621 1360T695 1363T778 1366T849 1369T888
1370ZM915 380Q904 345 890 300T863 212T839 141Q802 138 725 134T550 123T352 111T168 101T33 94Q42 126 53 172T78 265T101 346Q158 351 239 356T415 365T603 373T777 378T915 380Z" />
<glyph unicode="&#xb2;" horiz-adv-x="731" d="M714 737Q713 722 707 690T691 622T674 556T663 516L90 490Q90 499 91 536T96 619T107 697Q146 722 206 760T349 850Q402 885 452 921T535 991T568 1052Q568 1069 555 1078T517 1087Q487 1087 453 1073T390 1038T343
998Q320 1011 293 1034T241 1083T203 1124Q279 1210 385 1267T600 1325Q695 1325 754 1283T813 1164Q813 1091 761 1008T632 854Q580 807 531 770T447 712Q469 715 500 718T569 725T643 731T714 737Z" />
<glyph unicode="&#xb3;" horiz-adv-x="783" d="M376 498Q256 498 187 541T92 641Q119 657 156 676T230 712T294 739Q302 714 333 694T418 674Q449 674 476 682T522 706T540 748Q540 774 521 788T453 810T315 817Q315 844 320 884T336 964Q369 964 412 969T494
986T560 1016T587 1062Q587 1080 573 1091T526 1102Q497 1102 460 1092T390 1067T340 1042Q321 1062 296 1089T249 1141T221 1179Q240 1193 289 1221T413 1273T581 1296Q679 1296 748 1253T817 1127Q817 1072 788 1031T713 961T611 918Q681 914 724 872T767 760Q767
665 711 608T565 524T376 498Z" />
<glyph unicode="&#xb4;" horiz-adv-x="621" d="M602 1515Q649 1490 686 1454T747 1386T780 1341Q743 1328 696 1307T601 1262T508 1215T431 1173T381 1144Q373 1147 351 1159T301 1186T251 1216T218 1242Q245 1277 296 1319T407 1403T520 1475T602 1515Z" />
<glyph unicode="&#xb5;" horiz-adv-x="1178" d="M-114 -415Q-100 -329 -76 -212T-24 34T35 291T94 530T143 719L450 703Q413 582 381 470T320 248T260 21Q242 -49 226 -123T194 -267T168 -398Q115 -405 35 -410T-114 -415ZM865 978Q893 987 941 991T1033 996Q1071
996 1115 993T1186 986Q1177 905 1162 823T1126 660Q1086 513 1028 383T889 154T699 -1T448 -58Q312 -58 230 -10T112 126T76 332Q76 431 97 545T155 780T232 1023Q260 1025 302 1026T379 1027Q429 1027 478 1022T554 1007Q517 906 482 795T425 580T403 398Q403
319 430 277T517 235Q583 235 637 291T734 442T809 653Q833 741 847 822T865 978Z" />
<glyph unicode="&#xb6;" horiz-adv-x="1210" d="M828 -363Q806 -363 771 -360T701 -352T637 -343T597 -337Q619 -282 647 -203T707 -29T772 170T838 377T899 577T950 753Q968 819 982 882T1008 1003Q993 1009 964 1017T904 1029Q864 900 819 754T727 459T640 175T565
-68T513 -241T491 -311Q467 -311 427 -311T344 -309T268 -306T224 -304Q239 -256 261 -186T309 -35T361 128T409 281T448 404T471 473Q429 459 391 459Q304 459 245 495T156 596T126 742Q126 868 170 972T294 1153T482 1272T720 1314Q788 1314 869 1304T1029 1274T1175
1230T1279 1174Q1270 1095 1244 976T1179 717Q1152 616 1119 502T1048 271T973 41T898 -176T828 -363Z" />
<glyph unicode="&#xb7;" horiz-adv-x="450" d="M291 675Q214 675 181 716T147 812Q147 870 176 915T254 984T359 1009Q427 1009 461 967T495 865Q495 811 466 768T389 700T291 675Z" />
<glyph unicode="&#xb8;" horiz-adv-x="660" d="M-13 -488Q-92 -488 -145 -479T-212 -465L-133 -295Q-111 -304 -63 -312T14 -321Q111 -321 166 -301T222 -234Q222 -206 192 -194T113 -181Q77 -181 38 -187T-34 -200T-88 -216L-2 16L182 24L139 -104Q160 -82 202
-66T292 -49Q363 -49 406 -84T449 -193Q449 -273 410 -329T304 -421T156 -472T-13 -488Z" />
<glyph unicode="&#xb9;" horiz-adv-x="565" d="M420 705Q433 705 451 704T486 701T515 696Q513 685 505 659T486 602T467 545T452 505Q428 505 371 504T248 501T128 497T55 493Q61 518 71 554T93 625T114 679Q129 683 150 686T193 692T225 695Q231 716 240 750T261
825T283 907T303 982T319 1039Q310 1034 296 1025T265 1006T234 986T214 973Q202 1005 191 1044T176 1114Q195 1131 237 1162T324 1225T397 1275Q419 1275 452 1274T518 1270T571 1263Q569 1246 561 1208T539 1113T505 984Q489 925 468 852T420 705Z" />
<glyph unicode="&#xba;" horiz-adv-x="750" d="M466 759Q324 759 256 824T188 1004Q188 1198 298 1315T602 1432Q733 1432 795 1353T858 1155Q858 1033 810 944T673 807T466 759ZM493 966Q574 966 620 1026T667 1164Q667 1210 645 1238T579 1266Q528 1266 491
1236T433 1159T412 1059Q412 1019 431 993T493 966Z" />
<glyph unicode="&#xbb;" horiz-adv-x="1313" d="M229 974Q269 1000 321 1029T421 1083T497 1121Q514 1110 556 1061T649 945T748 810T825 689Q660 556 474 428T111 200Q106 225 99 265T88 347T82 419Q88 423 117 443T192 494T293 562T405 638T515 713Q474 750
420 798T315 894T229 974ZM720 1059Q755 1081 800 1107T888 1156T956 1190Q987 1163 1031 1108T1125 985T1219 855T1293 746T1330 691Q1151 542 973 402T601 132Q590 145 567 177T524 244T498 299Q519 314 561 346T657 422T771 515T893 614T1008 709Q977 754 938
804T859 905T783 995T720 1059Z" />
<glyph unicode="&#xbc;" horiz-adv-x="1598" d="M420 705Q433 705 451 704T486 701T515 696Q513 685 505 659T486 602T467 545T452 505Q428 505 371 504T248 501T128 497T55 493Q61 518 71 554T93 625T114 679Q129 683 150 686T193 692T225 695Q231 716 240 750T261
825T283 907T303 982T319 1039Q310 1034 296 1025T265 1006T234 986T214 973Q202 1005 191 1044T176 1114Q195 1131 237 1162T324 1225T397 1275Q419 1275 452 1274T518 1270T571 1263Q569 1246 561 1208T539 1113T505 984Q489 925 468 852T420 705ZM1092 1329Q1105
1325 1134 1311T1190 1281T1223 1258Q1207 1233 1155 1159T1026 980T862 753T683 508T512 275T370 85T280 -30Q274 -28 255 -19T212 2T171 24T149 38Q178 71 238 148T378 331T545 557T722 797T885 1025T1016 1212T1092 1329ZM1435 162Q1411 163 1377 163T1311 162Q1301
118 1290 75T1274 13Q1246 7 1205 3T1125 -3T1062 -5Q1068 17 1076 46T1093 103T1109 150Q1064 148 997 144T872 136T793 130Q793 181 796 234T804 320Q836 356 888 410T1001 525T1118 641T1217 736T1273 787Q1287 790 1318 792T1387 797T1458 802T1509 804Q1503
786 1486 730T1446 602T1404 462T1372 353Q1394 354 1416 354T1456 352T1480 351Q1480 345 1472 312T1454 236T1435 162ZM1266 577Q1252 563 1226 536T1169 477T1110 413T1061 359T1034 329Q1048 331 1075 334T1133 341T1182 344Q1187 358 1198 390T1223 460T1249
530T1266 577Z" />
<glyph unicode="&#xbd;" horiz-adv-x="1487" d="M420 705Q433 705 451 704T486 701T515 696Q513 685 505 659T486 602T467 545T452 505Q428 505 371 504T248 501T128 497T55 493Q61 518 71 554T93 625T114 679Q129 683 150 686T193 692T225 695Q231 716 240 750T261
825T283 907T303 982T319 1039Q310 1034 296 1025T265 1006T234 986T214 973Q202 1005 191 1044T176 1114Q195 1131 237 1162T324 1225T397 1275Q419 1275 452 1274T518 1270T571 1263Q569 1246 561 1208T539 1113T505 984Q489 925 468 852T420 705ZM1092 1329Q1105
1325 1134 1311T1190 1281T1223 1258Q1207 1233 1155 1159T1026 980T862 753T683 508T512 275T370 85T280 -30Q274 -28 255 -19T212 2T171 24T149 38Q178 71 238 148T378 331T545 557T722 797T885 1025T1016 1212T1092 1329ZM1336 237Q1335 222 1329 190T1313 122T1296
56T1285 16L712 -10Q712 -1 713 36T718 119T729 197Q768 222 828 260T971 350Q1024 385 1074 421T1157 491T1190 552Q1190 569 1177 578T1139 587Q1109 587 1075 573T1012 538T965 498Q942 511 915 534T863 583T825 624Q901 710 1007 767T1222 825Q1317 825 1376
783T1435 664Q1435 591 1383 508T1254 354Q1202 307 1153 270T1069 212Q1091 215 1122 218T1191 225T1265 231T1336 237Z" />
<glyph unicode="&#xbe;" horiz-adv-x="1816" d="M376 498Q256 498 187 541T92 641Q119 657 156 676T230 712T294 739Q302 714 333 694T418 674Q449 674 476 682T522 706T540 748Q540 774 521 788T453 810T315 817Q315 844 320 884T336 964Q369 964 412 969T494
986T560 1016T587 1062Q587 1080 573 1091T526 1102Q497 1102 460 1092T390 1067T340 1042Q321 1062 296 1089T249 1141T221 1179Q240 1193 289 1221T413 1273T581 1296Q679 1296 748 1253T817 1127Q817 1072 788 1031T713 961T611 918Q681 914 724 872T767 760Q767
665 711 608T565 524T376 498ZM1310 1329Q1323 1325 1352 1311T1408 1281T1441 1258Q1425 1233 1373 1159T1244 980T1080 753T901 508T730 275T588 85T498 -30Q492 -28 473 -19T430 2T389 24T367 38Q396 71 456 148T596 331T763 557T940 797T1103 1025T1234 1212T1310
1329ZM1653 162Q1629 163 1595 163T1529 162Q1519 118 1508 75T1492 13Q1464 7 1423 3T1343 -3T1280 -5Q1286 17 1294 46T1311 103T1327 150Q1282 148 1215 144T1090 136T1011 130Q1011 181 1014 234T1022 320Q1054 356 1106 410T1219 525T1336 641T1435 736T1491
787Q1505 790 1536 792T1605 797T1676 802T1727 804Q1721 786 1704 730T1664 602T1622 462T1590 353Q1612 354 1634 354T1674 352T1698 351Q1698 345 1690 312T1672 236T1653 162ZM1484 577Q1470 563 1444 536T1387 477T1328 413T1279 359T1252 329Q1266 331 1293
334T1351 341T1400 344Q1405 358 1416 390T1441 460T1467 530T1484 577Z" />
<glyph unicode="&#xbf;" horiz-adv-x="1036" d="M457 648Q526 648 578 646T680 641T783 631Q760 542 720 465T619 322T474 201Q395 149 343 96T291 -17Q291 -59 319 -80T402 -101Q452 -101 494 -86T573 -42T645 27T716 116L939 -29Q838 -203 681 -291T340 -379Q224
-379 137 -349T0 -255T-49 -96Q-49 3 -17 75T75 204T211 315Q262 350 310 398T397 509T457 648ZM715 1103Q788 1103 836 1063T884 950Q884 887 848 840T755 768T640 742Q560 742 512 782T464 886Q464 947 501 996T595 1074T715 1103Z" />
<glyph unicode="&#xc0;" horiz-adv-x="1157" d="M236 -15Q211 -15 168 -14T73 -11T-25 -7T-103 -3Q-76 59 -31 155T72 368T193 612T321 866T444 1105T552 1306Q622 1315 690 1321T825 1332T954 1336Q1007 1336 1058 1333T1160 1323Q1156 1235 1146 1121T1115 853T1058
490T970 4Q936 0 874 -5T744 -12T625 -15Q630 13 638 50T655 130T675 215T694 298T713 372Q681 371 644 370T569 366T497 361T438 355T400 350Q367 282 335 213T278 85T236 -15ZM516 628Q540 632 590 636T693 644T780 648Q784 669 797 727T825 855T852 983T867
1064Q851 1064 819 1062T755 1058T712 1054Q698 1025 674 974T621 860T565 737T516 628ZM631 1706Q653 1704 704 1683T820 1629T945 1559T1049 1488L911 1402Q878 1418 820 1439T694 1483T561 1523T447 1551Q455 1562 482 1588T548 1647T631 1706Z" />
<glyph unicode="&#xc1;" horiz-adv-x="1157" d="M236 -15Q211 -15 168 -14T73 -11T-25 -7T-103 -3Q-76 59 -31 155T72 368T193 612T321 866T444 1105T552 1306Q622 1315 690 1321T825 1332T954 1336Q1007 1336 1058 1333T1160 1323Q1156 1235 1146 1121T1115 853T1058
490T970 4Q936 0 874 -5T744 -12T625 -15Q630 13 638 50T655 130T675 215T694 298T713 372Q681 371 644 370T569 366T497 361T438 355T400 350Q367 282 335 213T278 85T236 -15ZM516 628Q540 632 590 636T693 644T780 648Q784 669 797 727T825 855T852 983T867
1064Q851 1064 819 1062T755 1058T712 1054Q698 1025 674 974T621 860T565 737T516 628ZM1088 1726Q1132 1699 1171 1667T1237 1608T1270 1570Q1227 1560 1164 1539T1034 1493T910 1444T824 1406L683 1492Q720 1522 777 1560T897 1634T1011 1696T1088 1726Z" />
<glyph unicode="&#xc2;" horiz-adv-x="1157" d="M236 -15Q211 -15 168 -14T73 -11T-25 -7T-103 -3Q-76 59 -31 155T72 368T193 612T321 866T444 1105T552 1306Q622 1315 690 1321T825 1332T954 1336Q1007 1336 1058 1333T1160 1323Q1156 1235 1146 1121T1115 853T1058
490T970 4Q936 0 874 -5T744 -12T625 -15Q630 13 638 50T655 130T675 215T694 298T713 372Q681 371 644 370T569 366T497 361T438 355T400 350Q367 282 335 213T278 85T236 -15ZM516 628Q540 632 590 636T693 644T780 648Q784 669 797 727T825 855T852 983T867
1064Q851 1064 819 1062T755 1058T712 1054Q698 1025 674 974T621 860T565 737T516 628ZM1047 1774Q1085 1732 1139 1678T1243 1574T1324 1501Q1274 1465 1219 1437T1121 1394Q1095 1423 1066 1455T1008 1518T959 1572T929 1605H958Q947 1597 921 1576T859 1525T788
1463T721 1401Q694 1410 655 1431T578 1479T514 1528Q574 1568 644 1618T770 1712T847 1771Q864 1771 904 1771T985 1772T1047 1774Z" />
<glyph unicode="&#xc3;" horiz-adv-x="1157" d="M236 -15Q211 -15 168 -14T73 -11T-25 -7T-103 -3Q-76 59 -31 155T72 368T193 612T321 866T444 1105T552 1306Q622 1315 690 1321T825 1332T954 1336Q1007 1336 1058 1333T1160 1323Q1156 1235 1146 1121T1115 853T1058
490T970 4Q936 0 874 -5T744 -12T625 -15Q630 13 638 50T655 130T675 215T694 298T713 372Q681 371 644 370T569 366T497 361T438 355T400 350Q367 282 335 213T278 85T236 -15ZM516 628Q540 632 590 636T693 644T780 648Q784 669 797 727T825 855T852 983T867
1064Q851 1064 819 1062T755 1058T712 1054Q698 1025 674 974T621 860T565 737T516 628ZM507 1597Q523 1643 563 1686T660 1758T782 1786Q840 1786 881 1760T955 1705Q984 1679 1013 1659T1078 1639Q1123 1639 1151 1673T1194 1750L1349 1654Q1344 1630 1325 1595T1274
1524T1197 1466T1093 1442Q1039 1442 996 1470T915 1529Q885 1555 856 1574T798 1593Q759 1593 731 1572T684 1522T656 1472L507 1597Z" />
<glyph unicode="&#xc4;" horiz-adv-x="1157" d="M236 -15Q211 -15 168 -14T73 -11T-25 -7T-103 -3Q-76 59 -31 155T72 368T193 612T321 866T444 1105T552 1306Q622 1315 690 1321T825 1332T954 1336Q1007 1336 1058 1333T1160 1323Q1156 1235 1146 1121T1115 853T1058
490T970 4Q936 0 874 -5T744 -12T625 -15Q630 13 638 50T655 130T675 215T694 298T713 372Q681 371 644 370T569 366T497 361T438 355T400 350Q367 282 335 213T278 85T236 -15ZM516 628Q540 632 590 636T693 644T780 648Q784 669 797 727T825 855T852 983T867
1064Q851 1064 819 1062T755 1058T712 1054Q698 1025 674 974T621 860T565 737T516 628ZM732 1458Q671 1458 623 1495T574 1592Q574 1657 620 1701T731 1745Q802 1745 846 1701T890 1593Q890 1534 843 1496T732 1458ZM1150 1467Q1087 1467 1041 1508T994 1611Q994
1673 1037 1715T1141 1757Q1208 1757 1258 1716T1308 1610Q1308 1567 1285 1535T1225 1485T1150 1467Z" />
<glyph unicode="&#xc5;" horiz-adv-x="1157" d="M236 -15Q211 -15 168 -14T73 -11T-25 -7T-103 -3Q-76 59 -31 155T72 368T193 612T321 866T444 1105T552 1306Q622 1315 690 1321T825 1332T954 1336Q1007 1336 1058 1333T1160 1323Q1156 1235 1146 1121T1115 853T1058
490T970 4Q936 0 874 -5T744 -12T625 -15Q630 13 638 50T655 130T675 215T694 298T713 372Q681 371 644 370T569 366T497 361T438 355T400 350Q367 282 335 213T278 85T236 -15ZM516 628Q540 632 590 636T693 644T780 648Q784 669 797 727T825 855T852 983T867
1064Q851 1064 819 1062T755 1058T712 1054Q698 1025 674 974T621 860T565 737T516 628ZM894 1387Q792 1387 721 1446T649 1596Q649 1689 700 1763T833 1881T1007 1925Q1076 1925 1133 1899T1225 1827T1260 1725Q1260 1636 1207 1559T1071 1434T894 1387ZM922 1571Q952
1571 980 1585T1027 1623T1045 1677Q1045 1706 1025 1723T971 1740Q927 1740 892 1708T857 1631Q857 1602 875 1587T922 1571Z" />
<glyph unicode="&#xc6;" horiz-adv-x="1730" d="M1452 -41Q1382 -37 1286 -32T1085 -24T885 -18T717 -15Q742 69 767 160T818 344Q786 344 743 343T653 339T564 334T490 329T445 324Q403 261 362 197T285 78T226 -16Q203 -16 156 -15T53 -13T-53 -9T-133 -5Q-98
53 -41 142T90 340T244 568T407 805T567 1028T708 1216Q733 1218 804 1224T975 1238T1188 1254T1413 1270T1619 1285T1776 1296T1851 1300Q1834 1237 1813 1174T1767 1040L1292 1005Q1288 993 1280 965T1262 905T1246 844T1234 803Q1257 803 1297 804T1387 806T1486
808T1578 809T1648 811L1571 536Q1558 537 1517 538T1421 541T1312 544T1215 547T1159 548Q1148 513 1135 467T1110 377T1088 299Q1141 300 1199 300T1313 300Q1363 300 1412 299T1504 295T1573 289Q1562 249 1545 198T1509 96T1475 9T1452 -41ZM603 583Q627 587
680 591T791 598T881 602Q889 629 905 679T939 789T975 902T1003 990Q987 990 959 989T903 985T864 981Q844 954 812 906T741 799T666 684T603 583Z" />
<glyph unicode="&#xc7;" horiz-adv-x="1137" d="M385 -518Q306 -518 253 -509T185 -495L258 -325Q281 -334 329 -342T406 -351Q503 -351 558 -331T613 -264Q613 -236 583 -224T502 -211Q466 -211 427 -217T355 -230T303 -246L388 31L571 39L527 -134Q546 -112
587 -96T677 -79Q749 -79 793 -115T838 -230Q838 -308 800 -363T696 -453T550 -502T385 -518ZM1033 211Q934 118 802 53T506 -12Q356 -12 255 53T104 228T53 471Q53 640 108 794T264 1068T501 1257T797 1326Q895 1326 984 1298T1138 1215T1228 1076Q1193 1046 1141
1010T1036 940T944 885Q944 896 935 922T905 977T848 1026T756 1047Q679 1047 615 1002T505 882T433 719T408 544Q408 440 444 376T562 311Q616 311 669 331T772 386T867 459Q896 434 930 389T992 296T1033 211Z" />
<glyph unicode="&#xc8;" horiz-adv-x="957" d="M687 -13Q591 -7 497 -2T304 7Q225 11 143 15T-19 24Q20 192 59 350T136 648Q196 871 242 1027T310 1251Q508 1286 673 1302T949 1323T1086 1327Q1068 1263 1048 1200T1002 1068L565 1033Q560 1020 552 993T535 933T518
872T506 831Q530 831 566 831T646 833T734 835T817 836T883 838L806 564Q793 564 756 565T669 569T571 572T484 575T431 575Q428 565 421 542T406 489T389 428T373 370T361 327Q374 327 431 327T548 328Q598 328 647 326T739 322T808 317Q797 277 780 226T744 124T710
37T687 -13ZM700 1691Q722 1689 773 1668T889 1614T1014 1544T1118 1473L980 1387Q947 1403 889 1424T763 1468T630 1508T516 1536Q524 1547 551 1573T617 1632T700 1691Z" />
<glyph unicode="&#xc9;" horiz-adv-x="957" d="M687 -13Q591 -7 497 -2T304 7Q225 11 143 15T-19 24Q20 192 59 350T136 648Q196 871 242 1027T310 1251Q508 1286 673 1302T949 1323T1086 1327Q1068 1263 1048 1200T1002 1068L565 1033Q560 1020 552 993T535 933T518
872T506 831Q530 831 566 831T646 833T734 835T817 836T883 838L806 564Q793 564 756 565T669 569T571 572T484 575T431 575Q428 565 421 542T406 489T389 428T373 370T361 327Q374 327 431 327T548 328Q598 328 647 326T739 322T808 317Q797 277 780 226T744 124T710
37T687 -13ZM901 1711Q945 1684 984 1652T1050 1593T1083 1555Q1040 1545 977 1524T847 1478T723 1429T637 1391L496 1477Q533 1507 590 1545T710 1619T824 1681T901 1711Z" />
<glyph unicode="&#xca;" horiz-adv-x="957" d="M687 -13Q591 -7 497 -2T304 7Q225 11 143 15T-19 24Q20 192 59 350T136 648Q196 871 242 1027T310 1251Q508 1286 673 1302T949 1323T1086 1327Q1068 1263 1048 1200T1002 1068L565 1033Q560 1020 552 993T535 933T518
872T506 831Q530 831 566 831T646 833T734 835T817 836T883 838L806 564Q793 564 756 565T669 569T571 572T484 575T431 575Q428 565 421 542T406 489T389 428T373 370T361 327Q374 327 431 327T548 328Q598 328 647 326T739 322T808 317Q797 277 780 226T744 124T710
37T687 -13ZM860 1759Q898 1717 952 1663T1056 1559T1137 1486Q1087 1450 1032 1422T934 1379Q908 1408 879 1440T821 1503T772 1557T742 1590H771Q760 1582 734 1561T672 1510T601 1448T534 1386Q507 1395 468 1416T391 1464T327 1513Q387 1553 457 1603T583 1697T660
1756Q677 1756 717 1756T798 1757T860 1759Z" />
<glyph unicode="&#xcb;" horiz-adv-x="957" d="M687 -13Q591 -7 497 -2T304 7Q225 11 143 15T-19 24Q20 192 59 350T136 648Q196 871 242 1027T310 1251Q508 1286 673 1302T949 1323T1086 1327Q1068 1263 1048 1200T1002 1068L565 1033Q560 1020 552 993T535 933T518
872T506 831Q530 831 566 831T646 833T734 835T817 836T883 838L806 564Q793 564 756 565T669 569T571 572T484 575T431 575Q428 565 421 542T406 489T389 428T373 370T361 327Q374 327 431 327T548 328Q598 328 647 326T739 322T808 317Q797 277 780 226T744 124T710
37T687 -13ZM545 1443Q484 1443 436 1480T387 1577Q387 1642 433 1686T544 1730Q615 1730 659 1686T703 1578Q703 1519 656 1481T545 1443ZM963 1452Q900 1452 854 1493T807 1596Q807 1658 850 1700T954 1742Q1021 1742 1071 1701T1121 1595Q1121 1552 1098 1520T1038
1470T963 1452Z" />
<glyph unicode="&#xcc;" horiz-adv-x="563" d="M276 -18Q237 -18 184 -17T77 -13T-20 -5Q-8 44 9 114T47 266T90 434T133 597Q175 757 226 939T334 1316Q351 1317 388 1317T472 1319T563 1321T637 1322Q613 1215 582 1085T518 818T450 557Q434 495 415 428T377
295T340 169T306 61T276 -18ZM243 1663Q265 1661 316 1640T432 1586T557 1516T661 1445L523 1359Q490 1375 432 1396T306 1440T173 1480T59 1508Q67 1519 94 1545T160 1604T243 1663Z" />
<glyph unicode="&#xcd;" horiz-adv-x="563" d="M276 -18Q237 -18 184 -17T77 -13T-20 -5Q-8 44 9 114T47 266T90 434T133 597Q175 757 226 939T334 1316Q351 1317 388 1317T472 1319T563 1321T637 1322Q613 1215 582 1085T518 818T450 557Q434 495 415 428T377
295T340 169T306 61T276 -18ZM699 1684Q743 1657 782 1625T848 1566T881 1528Q838 1518 775 1497T645 1451T521 1402T435 1364L294 1450Q331 1480 388 1518T508 1592T622 1654T699 1684Z" />
<glyph unicode="&#xce;" horiz-adv-x="563" d="M276 -18Q237 -18 184 -17T77 -13T-20 -5Q-8 44 9 114T47 266T90 434T133 597Q175 757 226 939T334 1316Q351 1317 388 1317T472 1319T563 1321T637 1322Q613 1215 582 1085T518 818T450 557Q434 495 415 428T377
295T340 169T306 61T276 -18ZM659 1731Q697 1689 751 1635T855 1531T936 1458Q886 1422 831 1394T733 1351Q707 1380 678 1412T620 1475T571 1529T541 1562H570Q559 1554 533 1533T471 1482T400 1420T333 1358Q306 1367 267 1388T190 1436T126 1485Q186 1525 256
1575T382 1669T459 1728Q476 1728 516 1728T597 1729T659 1731Z" />
<glyph unicode="&#xcf;" horiz-adv-x="563" d="M276 -18Q237 -18 184 -17T77 -13T-20 -5Q-8 44 9 114T47 266T90 434T133 597Q175 757 226 939T334 1316Q351 1317 388 1317T472 1319T563 1321T637 1322Q613 1215 582 1085T518 818T450 557Q434 495 415 428T377
295T340 169T306 61T276 -18ZM344 1415Q283 1415 235 1452T186 1549Q186 1614 232 1658T343 1702Q414 1702 458 1658T502 1550Q502 1491 455 1453T344 1415ZM762 1424Q699 1424 653 1465T606 1568Q606 1630 649 1672T753 1714Q820 1714 870 1673T920 1567Q920 1524
897 1492T837 1442T762 1424Z" />
<glyph unicode="&#xd0;" horiz-adv-x="1198" d="M629 573Q587 573 516 571T362 564T195 555T45 542Q52 581 60 620T79 696Q125 706 205 716T375 734T544 747T669 753Q666 733 655 682T629 573ZM40 -32Q47 15 62 103T99 306T143 546T190 795T234 1022T268 1200T287
1299Q328 1305 386 1311T512 1321T643 1325Q840 1325 956 1261T1122 1083T1173 825Q1173 591 1105 429T897 165T544 17T40 -32ZM427 299Q540 303 619 343T749 453T823 612T846 802Q846 873 829 928T772 1016T660 1048Q641 1048 616 1048T574 1046Q551 921 527 793T477
540T427 299Z" />
<glyph unicode="&#xd1;" horiz-adv-x="1282" d="M344 -6Q283 -7 217 -4T95 5T8 14Q11 24 23 69T54 184T96 339T144 517T192 697Q222 806 249 913T299 1113T335 1267Q355 1267 394 1265T479 1260T570 1253T647 1243Q684 1149 716 1044T777 832T827 624T866 435L1044
1249Q1074 1249 1118 1246T1208 1239T1294 1229T1352 1217Q1345 1174 1333 1119T1306 1000T1275 869T1241 734T1207 604Q1180 503 1152 405T1096 222T1048 80T1016 3Q988 2 957 2T893 1Q846 1 802 3T729 10Q723 35 712 83T684 196T648 333T607 483T564 633T523
768Q519 740 507 682T477 547T440 388T402 227T368 88T344 -6ZM482 1554Q498 1600 538 1643T635 1715T757 1743Q815 1743 856 1717T930 1662Q959 1636 988 1616T1053 1596Q1098 1596 1126 1630T1169 1707L1324 1611Q1319 1587 1300 1552T1249 1481T1172 1423T1068
1399Q1014 1399 971 1427T890 1486Q860 1512 831 1531T773 1550Q734 1550 706 1529T659 1479T631 1429L482 1554Z" />
<glyph unicode="&#xd2;" horiz-adv-x="1354" d="M578 -51Q408 -51 299 13T137 188T84 441Q84 637 134 798T280 1076T516 1256T833 1320Q1014 1320 1120 1254T1274 1073T1321 811Q1321 617 1276 459T1139 186T907 11T578 -51ZM626 269Q726 269 801 307T925 415T999
578T1024 780Q1024 849 1006 912T943 1016T813 1056Q713 1056 638 1016T512 903T436 736T410 532Q410 465 431 405T499 307T626 269ZM642 1663Q664 1661 715 1640T831 1586T956 1516T1060 1445L922 1359Q889 1375 831 1396T705 1440T572 1480T458 1508Q466 1519
493 1545T559 1604T642 1663Z" />
<glyph unicode="&#xd3;" horiz-adv-x="1354" d="M578 -51Q408 -51 299 13T137 188T84 441Q84 637 134 798T280 1076T516 1256T833 1320Q1014 1320 1120 1254T1274 1073T1321 811Q1321 617 1276 459T1139 186T907 11T578 -51ZM626 269Q726 269 801 307T925 415T999
578T1024 780Q1024 849 1006 912T943 1016T813 1056Q713 1056 638 1016T512 903T436 736T410 532Q410 465 431 405T499 307T626 269ZM1099 1684Q1143 1657 1182 1625T1248 1566T1281 1528Q1238 1518 1175 1497T1045 1451T921 1402T835 1364L694 1450Q731 1480 788
1518T908 1592T1022 1654T1099 1684Z" />
<glyph unicode="&#xd4;" horiz-adv-x="1354" d="M578 -51Q408 -51 299 13T137 188T84 441Q84 637 134 798T280 1076T516 1256T833 1320Q1014 1320 1120 1254T1274 1073T1321 811Q1321 617 1276 459T1139 186T907 11T578 -51ZM626 269Q726 269 801 307T925 415T999
578T1024 780Q1024 849 1006 912T943 1016T813 1056Q713 1056 638 1016T512 903T436 736T410 532Q410 465 431 405T499 307T626 269ZM1058 1731Q1096 1689 1150 1635T1254 1531T1335 1458Q1285 1422 1230 1394T1132 1351Q1106 1380 1077 1412T1019 1475T970 1529T940
1562H969Q958 1554 932 1533T870 1482T799 1420T732 1358Q705 1367 666 1388T589 1436T525 1485Q585 1525 655 1575T781 1669T858 1728Q875 1728 915 1728T996 1729T1058 1731Z" />
<glyph unicode="&#xd5;" horiz-adv-x="1354" d="M578 -51Q408 -51 299 13T137 188T84 441Q84 637 134 798T280 1076T516 1256T833 1320Q1014 1320 1120 1254T1274 1073T1321 811Q1321 617 1276 459T1139 186T907 11T578 -51ZM626 269Q726 269 801 307T925 415T999
578T1024 780Q1024 849 1006 912T943 1016T813 1056Q713 1056 638 1016T512 903T436 736T410 532Q410 465 431 405T499 307T626 269ZM518 1554Q534 1600 574 1643T671 1715T793 1743Q851 1743 892 1717T966 1662Q995 1636 1024 1616T1089 1596Q1134 1596 1162 1630T1205
1707L1360 1611Q1355 1587 1336 1552T1285 1481T1208 1423T1104 1399Q1050 1399 1007 1427T926 1486Q896 1512 867 1531T809 1550Q770 1550 742 1529T695 1479T667 1429L518 1554Z" />
<glyph unicode="&#xd6;" horiz-adv-x="1354" d="M578 -51Q408 -51 299 13T137 188T84 441Q84 637 134 798T280 1076T516 1256T833 1320Q1014 1320 1120 1254T1274 1073T1321 811Q1321 617 1276 459T1139 186T907 11T578 -51ZM626 269Q726 269 801 307T925 415T999
578T1024 780Q1024 849 1006 912T943 1016T813 1056Q713 1056 638 1016T512 903T436 736T410 532Q410 465 431 405T499 307T626 269ZM742 1415Q681 1415 633 1452T584 1549Q584 1614 630 1658T741 1702Q812 1702 856 1658T900 1550Q900 1491 853 1453T742 1415ZM1160
1424Q1097 1424 1051 1465T1004 1568Q1004 1630 1047 1672T1151 1714Q1218 1714 1268 1673T1318 1567Q1318 1524 1295 1492T1235 1442T1160 1424Z" />
<glyph unicode="&#xd7;" horiz-adv-x="1041" d="M1082 921Q1047 885 974 822T803 681T599 524T394 375T218 258Q207 267 185 292T137 349T91 407T64 442Q104 468 173 519T327 637T502 776T675 916T824 1040T924 1127Q932 1119 956 1090T1007 1024T1056 959T1082
921ZM426 1109Q469 1070 535 995T677 826T825 634T953 448Q941 433 910 406T843 348T774 293T727 259Q692 312 636 383T512 531T380 679T260 805T176 885Q185 896 210 920T269 974T335 1034T393 1083T426 1109Z" />
<glyph unicode="&#xd8;" horiz-adv-x="1354" d="M1119 1399Q1193 1391 1250 1361T1327 1299Q1182 1052 1019 837T693 443T384 124T128 -112Q65 -96 22 -61T-50 12Q85 132 241 286T556 620T861 997T1119 1399ZM578 -51Q408 -51 299 13T137 188T84 441Q84 637 134
798T280 1076T516 1256T833 1320Q1014 1320 1120 1254T1274 1073T1321 811Q1321 617 1276 459T1139 186T907 11T578 -51ZM626 269Q726 269 801 307T925 415T999 578T1024 780Q1024 849 1006 912T943 1016T813 1056Q713 1056 638 1016T512 903T436 736T410 532Q410
465 431 405T499 307T626 269Z" />
<glyph unicode="&#xd9;" horiz-adv-x="1212" d="M485 -31Q283 -31 200 70T117 358Q117 479 144 628T216 954Q240 1045 268 1143T327 1342Q369 1347 413 1349T496 1352Q546 1352 595 1349T682 1342Q655 1262 622 1160T559 954Q532 862 511 774T476 613T462 496Q462
352 574 352Q673 352 737 451T844 715Q855 755 871 818T904 956T939 1104T968 1236T984 1329Q1024 1329 1076 1326T1178 1318T1265 1309T1312 1301Q1305 1248 1294 1186T1269 1056T1236 922Q1182 723 1119 550T972 247T770 43T485 -31ZM598 1692Q620 1690 671 1669T787
1615T912 1545T1016 1474L878 1388Q845 1404 787 1425T661 1469T528 1509T414 1537Q422 1548 449 1574T515 1633T598 1692Z" />
<glyph unicode="&#xda;" horiz-adv-x="1212" d="M485 -31Q283 -31 200 70T117 358Q117 479 144 628T216 954Q240 1045 268 1143T327 1342Q369 1347 413 1349T496 1352Q546 1352 595 1349T682 1342Q655 1262 622 1160T559 954Q532 862 511 774T476 613T462 496Q462
352 574 352Q673 352 737 451T844 715Q855 755 871 818T904 956T939 1104T968 1236T984 1329Q1024 1329 1076 1326T1178 1318T1265 1309T1312 1301Q1305 1248 1294 1186T1269 1056T1236 922Q1182 723 1119 550T972 247T770 43T485 -31ZM1054 1712Q1098 1685 1137
1653T1203 1594T1236 1556Q1193 1546 1130 1525T1000 1479T876 1430T790 1392L649 1478Q686 1508 743 1546T863 1620T977 1682T1054 1712Z" />
<glyph unicode="&#xdb;" horiz-adv-x="1212" d="M485 -31Q283 -31 200 70T117 358Q117 479 144 628T216 954Q240 1045 268 1143T327 1342Q369 1347 413 1349T496 1352Q546 1352 595 1349T682 1342Q655 1262 622 1160T559 954Q532 862 511 774T476 613T462 496Q462
352 574 352Q673 352 737 451T844 715Q855 755 871 818T904 956T939 1104T968 1236T984 1329Q1024 1329 1076 1326T1178 1318T1265 1309T1312 1301Q1305 1248 1294 1186T1269 1056T1236 922Q1182 723 1119 550T972 247T770 43T485 -31ZM1014 1760Q1052 1718 1106
1664T1210 1560T1291 1487Q1241 1451 1186 1423T1088 1380Q1062 1409 1033 1441T975 1504T926 1558T896 1591H925Q914 1583 888 1562T826 1511T755 1449T688 1387Q661 1396 622 1417T545 1465T481 1514Q541 1554 611 1604T737 1698T814 1757Q831 1757 871 1757T952
1758T1014 1760Z" />
<glyph unicode="&#xdc;" horiz-adv-x="1212" d="M485 -31Q283 -31 200 70T117 358Q117 479 144 628T216 954Q240 1045 268 1143T327 1342Q369 1347 413 1349T496 1352Q546 1352 595 1349T682 1342Q655 1262 622 1160T559 954Q532 862 511 774T476 613T462 496Q462
352 574 352Q673 352 737 451T844 715Q855 755 871 818T904 956T939 1104T968 1236T984 1329Q1024 1329 1076 1326T1178 1318T1265 1309T1312 1301Q1305 1248 1294 1186T1269 1056T1236 922Q1182 723 1119 550T972 247T770 43T485 -31ZM699 1444Q638 1444 590 1481T541
1578Q541 1643 587 1687T698 1731Q769 1731 813 1687T857 1579Q857 1520 810 1482T699 1444ZM1117 1453Q1054 1453 1008 1494T961 1597Q961 1659 1004 1701T1108 1743Q1175 1743 1225 1702T1275 1596Q1275 1553 1252 1521T1192 1471T1117 1453Z" />
<glyph unicode="&#xdd;" horiz-adv-x="1065" d="M426 560Q409 598 391 648T353 757T317 879T284 1008T255 1137T232 1261Q334 1296 415 1309T552 1323Q554 1305 560 1265T573 1173T590 1065T608 960T625 877Q641 899 671 942T740 1037T819 1143T894 1240T953 1308Q1008
1304 1064 1287T1170 1248T1248 1204Q1188 1145 1104 1050T920 835T718 582Q705 527 689 462T658 337T633 241Q622 197 609 148T586 62T572 14Q558 9 519 6T434 2Q385 2 338 6T260 16Q290 127 321 235T379 429T426 560ZM975 1684Q1019 1657 1058 1625T1124 1566T1157
1528Q1114 1518 1051 1497T921 1451T797 1402T711 1364L570 1450Q607 1480 664 1518T784 1592T898 1654T975 1684Z" />
<glyph unicode="&#xde;" horiz-adv-x="1316" d="M589 1282Q580 1220 563 1118T522 891T472 635T420 380T372 158T334 0Q292 -7 229 -12T100 -19T-19 -22Q-5 29 20 125T76 345T140 602T203 864T258 1097T295 1266Q311 1268 394 1275T589 1282ZM441 772L487 1061Q551
1076 634 1090T808 1104Q942 1104 1049 1067T1217 951T1279 749Q1279 558 1186 441T934 269T574 215Q510 215 434 219T299 232L390 517Q436 511 498 506T624 501Q716 501 795 517T924 577T974 701Q974 765 918 797T758 830Q664 830 582 811T441 772Z" />
<glyph unicode="&#xdf;" horiz-adv-x="1144" d="M36 -5Q38 37 47 126T71 331T105 569T144 801T186 988Q225 1135 310 1228T509 1365T747 1410Q847 1410 925 1375T1047 1277T1092 1132Q1092 1066 1070 1014T1015 923T948 853Q914 823 893 799T871 755Q871 728 889
704T938 655Q965 635 991 602T1034 525T1051 427Q1051 343 1017 266T922 127T784 29T621 -7Q525 -7 468 21T387 76L547 308Q572 283 605 263T678 243Q713 243 739 261T779 310T793 372Q793 436 740 490T618 592Q600 606 585 630T569 690Q569 750 608 794T695 879Q741
917 778 958T815 1051Q815 1099 776 1132T677 1166Q639 1166 600 1153T528 1108T479 1014Q465 959 449 873T416 685T385 479T358 284T338 129T326 41L36 -5Z" />
<glyph unicode="&#xe0;" horiz-adv-x="1295" d="M390 -17Q219 -17 116 49T12 271Q12 382 61 459T194 583T382 651T596 673Q648 673 698 665T787 646T838 625Q840 642 839 672T829 724Q815 775 768 800T640 825Q584 825 527 807T422 761T347 700L146 857Q239 952
385 1011T693 1071Q889 1071 1001 997T1113 745Q1113 693 1102 632T1075 512Q1059 452 1047 395T1034 292Q1034 264 1043 255T1072 246Q1098 246 1119 260T1156 301L1211 100Q1187 54 1129 23T993 -8Q910 -8 868 37T825 171Q800 125 737 82T585 11T390 -17ZM502
218Q549 218 602 231T702 266T777 314Q783 345 790 378T804 434Q784 443 726 453T600 464Q555 464 509 456T422 431T358 387T334 323Q334 268 373 243T502 218ZM536 1509Q559 1507 611 1487T727 1436T853 1366T956 1288Q940 1262 914 1232T863 1178T827 1148Q794
1168 738 1191T615 1236T486 1279T375 1311Q382 1323 405 1358T463 1434T536 1509Z" />
<glyph unicode="&#xe1;" horiz-adv-x="1295" d="M390 -17Q219 -17 116 49T12 271Q12 382 61 459T194 583T382 651T596 673Q648 673 698 665T787 646T838 625Q840 642 839 672T829 724Q815 775 768 800T640 825Q584 825 527 807T422 761T347 700L146 857Q239 952
385 1011T693 1071Q889 1071 1001 997T1113 745Q1113 693 1102 632T1075 512Q1059 452 1047 395T1034 292Q1034 264 1043 255T1072 246Q1098 246 1119 260T1156 301L1211 100Q1187 54 1129 23T993 -8Q910 -8 868 37T825 171Q800 125 737 82T585 11T390 -17ZM502
218Q549 218 602 231T702 266T777 314Q783 345 790 378T804 434Q784 443 726 453T600 464Q555 464 509 456T422 431T358 387T334 323Q334 268 373 243T502 218ZM909 1515Q956 1490 993 1454T1054 1386T1087 1341Q1050 1328 1003 1307T908 1262T815 1215T738 1173T688
1144Q680 1147 658 1159T608 1186T558 1216T525 1242Q552 1277 603 1319T714 1403T827 1475T909 1515Z" />
<glyph unicode="&#xe2;" horiz-adv-x="1295" d="M390 -17Q219 -17 116 49T12 271Q12 382 61 459T194 583T382 651T596 673Q648 673 698 665T787 646T838 625Q840 642 839 672T829 724Q815 775 768 800T640 825Q584 825 527 807T422 761T347 700L146 857Q239 952
385 1011T693 1071Q889 1071 1001 997T1113 745Q1113 693 1102 632T1075 512Q1059 452 1047 395T1034 292Q1034 264 1043 255T1072 246Q1098 246 1119 260T1156 301L1211 100Q1187 54 1129 23T993 -8Q910 -8 868 37T825 171Q800 125 737 82T585 11T390 -17ZM502
218Q549 218 602 231T702 266T777 314Q783 345 790 378T804 434Q784 443 726 453T600 464Q555 464 509 456T422 431T358 387T334 323Q334 268 373 243T502 218ZM976 1510Q1005 1474 1043 1425T1119 1324T1184 1233Q1136 1197 1076 1169T968 1126Q951 1157 929 1191T886
1258T850 1312T830 1342H859Q846 1334 813 1312T737 1260T649 1197T567 1138Q542 1147 505 1168T432 1215T377 1265Q431 1301 490 1338T606 1410T706 1470T775 1508Q792 1509 832 1509T913 1510T976 1510Z" />
<glyph unicode="&#xe3;" horiz-adv-x="1295" d="M390 -17Q219 -17 116 49T12 271Q12 382 61 459T194 583T382 651T596 673Q648 673 698 665T787 646T838 625Q840 642 839 672T829 724Q815 775 768 800T640 825Q584 825 527 807T422 761T347 700L146 857Q239 952
385 1011T693 1071Q889 1071 1001 997T1113 745Q1113 693 1102 632T1075 512Q1059 452 1047 395T1034 292Q1034 264 1043 255T1072 246Q1098 246 1119 260T1156 301L1211 100Q1187 54 1129 23T993 -8Q910 -8 868 37T825 171Q800 125 737 82T585 11T390 -17ZM502
218Q549 218 602 231T702 266T777 314Q783 345 790 378T804 434Q784 443 726 453T600 464Q555 464 509 456T422 431T358 387T334 323Q334 268 373 243T502 218ZM334 1313Q350 1359 390 1402T487 1474T610 1502Q668 1502 708 1476T783 1421Q811 1395 840 1375T906
1355Q950 1355 979 1389T1021 1466L1176 1370Q1172 1346 1153 1311T1102 1240T1024 1182T920 1158Q866 1158 823 1186T743 1245Q713 1271 684 1290T625 1309Q586 1309 558 1288T511 1238T484 1188L334 1313Z" />
<glyph unicode="&#xe4;" horiz-adv-x="1295" d="M390 -17Q219 -17 116 49T12 271Q12 382 61 459T194 583T382 651T596 673Q648 673 698 665T787 646T838 625Q840 642 839 672T829 724Q815 775 768 800T640 825Q584 825 527 807T422 761T347 700L146 857Q239 952
385 1011T693 1071Q889 1071 1001 997T1113 745Q1113 693 1102 632T1075 512Q1059 452 1047 395T1034 292Q1034 264 1043 255T1072 246Q1098 246 1119 260T1156 301L1211 100Q1187 54 1129 23T993 -8Q910 -8 868 37T825 171Q800 125 737 82T585 11T390 -17ZM502
218Q549 218 602 231T702 266T777 314Q783 345 790 378T804 434Q784 443 726 453T600 464Q555 464 509 456T422 431T358 387T334 323Q334 268 373 243T502 218ZM592 1184Q530 1184 482 1221T433 1318Q433 1383 479 1427T591 1472Q661 1472 705 1428T750 1320Q750
1261 703 1223T592 1184ZM1010 1193Q947 1193 901 1235T854 1338Q854 1399 897 1441T1001 1483Q1068 1483 1118 1442T1168 1337Q1168 1294 1145 1262T1085 1211T1010 1193Z" />
<glyph unicode="&#xe5;" horiz-adv-x="1295" d="M390 -17Q219 -17 116 49T12 271Q12 382 61 459T194 583T382 651T596 673Q648 673 698 665T787 646T838 625Q840 642 839 672T829 724Q815 775 768 800T640 825Q584 825 527 807T422 761T347 700L146 857Q239 952
385 1011T693 1071Q889 1071 1001 997T1113 745Q1113 693 1102 632T1075 512Q1059 452 1047 395T1034 292Q1034 264 1043 255T1072 246Q1098 246 1119 260T1156 301L1211 100Q1187 54 1129 23T993 -8Q910 -8 868 37T825 171Q800 125 737 82T585 11T390 -17ZM502
218Q549 218 602 231T702 266T777 314Q783 345 790 378T804 434Q784 443 726 453T600 464Q555 464 509 456T422 431T358 387T334 323Q334 268 373 243T502 218ZM755 1166Q653 1166 582 1225T511 1376Q511 1469 562 1543T694 1660T868 1704Q938 1704 995 1678T1087
1606T1121 1504Q1121 1416 1068 1339T932 1214T755 1166ZM784 1350Q813 1350 841 1364T888 1403T907 1456Q907 1486 887 1503T832 1520Q788 1520 754 1488T719 1410Q719 1382 737 1366T784 1350Z" />
<glyph unicode="&#xe6;" horiz-adv-x="1841" d="M440 -8Q324 -8 234 27T93 133T41 310Q41 412 87 484T210 600T385 665T584 686Q608 686 643 684T714 677T778 666T815 652Q822 683 822 710Q822 783 778 819T653 855Q575 855 491 824T358 747L184 930Q239 978 327
1019T515 1087T706 1113Q897 1113 1001 1014T1106 728Q1106 665 1094 594T1061 439Q1037 344 977 263T831 121T645 26T440 -8ZM470 228Q548 228 610 248T710 297T756 353Q762 377 767 403T774 450Q759 457 732 462T673 471T607 475Q548 475 484 458T376 406T331
312Q331 260 373 244T470 228ZM1735 181Q1699 147 1650 114T1538 54T1398 11T1226 -5Q1036 -5 921 93T806 377Q806 534 858 660T1003 877T1219 1016T1486 1065Q1663 1065 1759 979T1855 739Q1855 680 1841 619T1801 505Q1787 506 1738 506T1626 507T1508 508T1425
509Q1368 508 1310 505T1204 496T1125 486Q1117 462 1117 425Q1117 382 1140 351T1205 304T1297 287Q1344 287 1384 298T1460 329T1527 370T1587 415Q1592 410 1612 385T1658 323T1705 249T1735 181ZM1184 673Q1207 676 1245 680T1333 687T1439 690Q1471 691 1502
691T1555 690T1585 689Q1589 702 1590 717T1592 746Q1591 779 1575 807T1528 852T1448 869Q1384 869 1328 841T1235 768T1184 673Z" />
<glyph unicode="&#xe7;" horiz-adv-x="1026" d="M309 -518Q230 -518 177 -509T108 -495L182 -325Q205 -334 253 -342T330 -351Q426 -351 481 -331T537 -264Q537 -236 507 -224T426 -211Q390 -211 351 -217T279 -230T226 -246L311 31L494 39L450 -134Q470 -112
511 -96T601 -79Q673 -79 717 -115T761 -230Q761 -308 723 -363T619 -453T474 -502T309 -518ZM913 212Q877 160 806 109T637 24T423 -10Q293 -10 210 45T87 195T47 414Q47 559 94 683T227 899T431 1044T688 1096Q782 1096 858 1067T987 985T1059 861L809 739Q808
747 802 764T781 800T737 832T660 845Q587 845 531 816T435 735T375 617T355 477Q355 406 387 360T501 313Q549 313 591 328T667 366T722 408T751 437L913 212Z" />
<glyph unicode="&#xe8;" horiz-adv-x="1115" d="M973 181Q936 147 887 114T776 54T635 11T464 -5Q273 -5 159 93T44 377Q44 534 96 660T241 877T457 1016T724 1065Q901 1065 997 979T1093 739Q1093 680 1079 619T1038 505Q1025 506 976 506T864 507T745 508T662
509Q606 508 548 505T442 496T363 486Q354 462 354 425Q354 382 377 351T442 304T535 287Q581 287 621 298T697 329T764 370T825 415Q830 410 850 385T895 323T943 249T973 181ZM421 673Q445 676 483 680T570 687T676 690Q709 691 739 691T793 690T823 689Q826
702 827 717T829 746Q828 779 813 807T766 852T686 869Q622 869 566 841T472 768T421 673ZM522 1509Q545 1507 597 1487T713 1436T839 1366T942 1288Q926 1262 900 1232T849 1178T813 1148Q780 1168 724 1191T601 1236T472 1279T361 1311Q368 1323 391 1358T449
1434T522 1509Z" />
<glyph unicode="&#xe9;" horiz-adv-x="1115" d="M973 181Q936 147 887 114T776 54T635 11T464 -5Q273 -5 159 93T44 377Q44 534 96 660T241 877T457 1016T724 1065Q901 1065 997 979T1093 739Q1093 680 1079 619T1038 505Q1025 506 976 506T864 507T745 508T662
509Q606 508 548 505T442 496T363 486Q354 462 354 425Q354 382 377 351T442 304T535 287Q581 287 621 298T697 329T764 370T825 415Q830 410 850 385T895 323T943 249T973 181ZM421 673Q445 676 483 680T570 687T676 690Q709 691 739 691T793 690T823 689Q826
702 827 717T829 746Q828 779 813 807T766 852T686 869Q622 869 566 841T472 768T421 673ZM895 1515Q942 1490 979 1454T1040 1386T1073 1341Q1036 1328 989 1307T894 1262T801 1215T724 1173T674 1144Q666 1147 644 1159T594 1186T544 1216T511 1242Q538 1277
589 1319T700 1403T813 1475T895 1515Z" />
<glyph unicode="&#xea;" horiz-adv-x="1115" d="M973 181Q936 147 887 114T776 54T635 11T464 -5Q273 -5 159 93T44 377Q44 534 96 660T241 877T457 1016T724 1065Q901 1065 997 979T1093 739Q1093 680 1079 619T1038 505Q1025 506 976 506T864 507T745 508T662
509Q606 508 548 505T442 496T363 486Q354 462 354 425Q354 382 377 351T442 304T535 287Q581 287 621 298T697 329T764 370T825 415Q830 410 850 385T895 323T943 249T973 181ZM421 673Q445 676 483 680T570 687T676 690Q709 691 739 691T793 690T823 689Q826
702 827 717T829 746Q828 779 813 807T766 852T686 869Q622 869 566 841T472 768T421 673ZM963 1510Q992 1474 1030 1425T1106 1324T1171 1233Q1123 1197 1063 1169T955 1126Q938 1157 916 1191T873 1258T837 1312T817 1342H846Q833 1334 800 1312T724 1260T636
1197T554 1138Q529 1147 492 1168T419 1215T364 1265Q418 1301 477 1338T593 1410T693 1470T762 1508Q779 1509 819 1509T900 1510T963 1510Z" />
<glyph unicode="&#xeb;" horiz-adv-x="1115" d="M973 181Q936 147 887 114T776 54T635 11T464 -5Q273 -5 159 93T44 377Q44 534 96 660T241 877T457 1016T724 1065Q901 1065 997 979T1093 739Q1093 680 1079 619T1038 505Q1025 506 976 506T864 507T745 508T662
509Q606 508 548 505T442 496T363 486Q354 462 354 425Q354 382 377 351T442 304T535 287Q581 287 621 298T697 329T764 370T825 415Q830 410 850 385T895 323T943 249T973 181ZM421 673Q445 676 483 680T570 687T676 690Q709 691 739 691T793 690T823 689Q826
702 827 717T829 746Q828 779 813 807T766 852T686 869Q622 869 566 841T472 768T421 673ZM578 1184Q516 1184 468 1221T419 1318Q419 1383 465 1427T577 1472Q647 1472 691 1428T736 1320Q736 1261 689 1223T578 1184ZM996 1193Q933 1193 887 1235T840 1338Q840
1399 883 1441T987 1483Q1054 1483 1104 1442T1154 1337Q1154 1294 1131 1262T1071 1211T996 1193Z" />
<glyph unicode="&#xec;" horiz-adv-x="581" d="M265 -3Q224 -3 172 -1T61 6T-53 16Q-43 38 -20 97T34 239T98 416T164 602T224 774T267 905Q304 915 358 919T465 925T552 926Q546 891 528 819T482 652T424 456T363 261T307 98T265 -3ZM220 1425Q243 1423 295 1403T411
1352T537 1282T640 1204Q624 1178 598 1148T547 1094T511 1064Q478 1084 422 1107T299 1152T170 1195T59 1227Q66 1239 89 1274T147 1350T220 1425Z" />
<glyph unicode="&#xed;" horiz-adv-x="581" d="M265 -3Q224 -3 172 -1T61 6T-53 16Q-43 38 -20 97T34 239T98 416T164 602T224 774T267 905Q304 915 358 919T465 925T552 926Q546 891 528 819T482 652T424 456T363 261T307 98T265 -3ZM849 1687Q896 1662 933 1626T994
1558T1027 1513Q990 1500 943 1479T848 1434T755 1387T678 1345T628 1316Q620 1319 598 1331T548 1358T498 1388T465 1414Q492 1449 543 1491T654 1575T767 1647T849 1687Z" />
<glyph unicode="&#xee;" horiz-adv-x="581" d="M265 -3Q224 -3 172 -1T61 6T-53 16Q-43 38 -20 97T34 239T98 416T164 602T224 774T267 905Q304 915 358 919T465 925T552 926Q546 891 528 819T482 652T424 456T363 261T307 98T265 -3ZM660 1426Q689 1390 727 1341T803
1240T868 1149Q820 1113 760 1085T652 1042Q635 1073 613 1107T570 1174T534 1228T514 1258H543Q530 1250 497 1228T421 1176T333 1113T251 1054Q226 1063 189 1084T116 1131T61 1181Q115 1217 174 1254T290 1326T390 1386T459 1424Q476 1425 516 1425T597 1426T660
1426Z" />
<glyph unicode="&#xef;" horiz-adv-x="581" d="M265 -3Q224 -3 172 -1T61 6T-53 16Q-43 38 -20 97T34 239T98 416T164 602T224 774T267 905Q304 915 358 919T465 925T552 926Q546 891 528 819T482 652T424 456T363 261T307 98T265 -3ZM275 1100Q213 1100 165 1137T116
1234Q116 1299 162 1343T274 1388Q344 1388 388 1344T433 1236Q433 1177 386 1139T275 1100ZM693 1109Q630 1109 584 1151T537 1254Q537 1315 580 1357T684 1399Q751 1399 801 1358T851 1253Q851 1210 828 1178T768 1127T693 1109Z" />
<glyph unicode="&#xf0;" horiz-adv-x="1200" d="M471 -17Q284 -17 175 63T65 310Q65 434 115 531T252 698T452 804T689 841Q733 841 770 829T818 802Q808 838 779 873T714 936T653 974Q623 944 585 910T512 849Q469 874 417 901T335 943Q347 952 361 965T391 992T419
1021T442 1045Q419 1055 386 1065T319 1085T254 1101L431 1309Q451 1306 479 1300T535 1285T587 1270T622 1258Q638 1279 655 1302T688 1351T718 1401L926 1323Q912 1298 895 1271T859 1219T823 1171Q971 1097 1043 989T1115 715Q1115 561 1070 428T940 195T737
39T471 -17ZM519 236Q573 236 623 254T713 307T778 388T802 490Q802 549 764 582T650 616Q571 616 502 586T391 502T348 372Q348 303 401 270T519 236Z" />
<glyph unicode="&#xf1;" horiz-adv-x="1330" d="M303 -13Q272 -14 228 -14T139 -12Q103 -11 55 -9T-11 -5Q20 79 55 185T128 420T210 702T301 1033Q340 1038 393 1041T499 1044Q537 1044 571 1043T630 1036Q628 1027 621 999T605 937T588 881Q623 919 693 960T849
1031T1018 1060Q1170 1060 1234 999T1299 816Q1299 745 1279 645T1225 432T1152 205T1076 -3Q1055 -5 1012 -6T920 -8Q869 -8 824 -7T757 -3Q786 59 823 148T894 334T951 515T974 653Q974 710 945 742T846 774Q787 774 727 753T612 702T518 642Q475 484 434 357T359
136T303 -13ZM393 1313Q409 1359 449 1402T546 1474T669 1502Q727 1502 767 1476T842 1421Q870 1395 899 1375T965 1355Q1009 1355 1038 1389T1080 1466L1235 1370Q1231 1346 1212 1311T1161 1240T1083 1182T979 1158Q925 1158 882 1186T802 1245Q772 1271 743
1290T684 1309Q645 1309 617 1288T570 1238T543 1188L393 1313Z" />
<glyph unicode="&#xf2;" horiz-adv-x="1171" d="M483 -22Q264 -22 157 81T49 366Q49 519 97 646T233 867T443 1011T715 1063Q924 1063 1017 954T1110 659Q1110 509 1067 384T943 168T746 28T483 -22ZM525 265Q598 265 654 294T748 376T806 493T826 631Q826 716
788 773T662 830Q592 830 537 799T442 713T383 592T362 454Q362 372 402 319T525 265ZM505 1509Q528 1507 580 1487T696 1436T822 1366T925 1288Q909 1262 883 1232T832 1178T796 1148Q763 1168 707 1191T584 1236T455 1279T344 1311Q351 1323 374 1358T432 1434T505
1509Z" />
<glyph unicode="&#xf3;" horiz-adv-x="1171" d="M483 -22Q264 -22 157 81T49 366Q49 519 97 646T233 867T443 1011T715 1063Q924 1063 1017 954T1110 659Q1110 509 1067 384T943 168T746 28T483 -22ZM525 265Q598 265 654 294T748 376T806 493T826 631Q826 716
788 773T662 830Q592 830 537 799T442 713T383 592T362 454Q362 372 402 319T525 265ZM878 1515Q925 1490 962 1454T1023 1386T1056 1341Q1019 1328 972 1307T877 1262T784 1215T707 1173T657 1144Q649 1147 627 1159T577 1186T527 1216T494 1242Q521 1277 572
1319T683 1403T796 1475T878 1515Z" />
<glyph unicode="&#xf4;" horiz-adv-x="1171" d="M483 -22Q264 -22 157 81T49 366Q49 519 97 646T233 867T443 1011T715 1063Q924 1063 1017 954T1110 659Q1110 509 1067 384T943 168T746 28T483 -22ZM525 265Q598 265 654 294T748 376T806 493T826 631Q826 716
788 773T662 830Q592 830 537 799T442 713T383 592T362 454Q362 372 402 319T525 265ZM946 1510Q975 1474 1013 1425T1089 1324T1154 1233Q1106 1197 1046 1169T938 1126Q921 1157 899 1191T856 1258T820 1312T800 1342H829Q816 1334 783 1312T707 1260T619 1197T537
1138Q512 1147 475 1168T402 1215T347 1265Q401 1301 460 1338T576 1410T676 1470T745 1508Q762 1509 802 1509T883 1510T946 1510Z" />
<glyph unicode="&#xf5;" horiz-adv-x="1171" d="M483 -22Q264 -22 157 81T49 366Q49 519 97 646T233 867T443 1011T715 1063Q924 1063 1017 954T1110 659Q1110 509 1067 384T943 168T746 28T483 -22ZM525 265Q598 265 654 294T748 376T806 493T826 631Q826 716
788 773T662 830Q592 830 537 799T442 713T383 592T362 454Q362 372 402 319T525 265ZM303 1313Q319 1359 359 1402T456 1474T579 1502Q637 1502 677 1476T752 1421Q780 1395 809 1375T875 1355Q919 1355 948 1389T990 1466L1145 1370Q1141 1346 1122 1311T1071
1240T993 1182T889 1158Q835 1158 792 1186T712 1245Q682 1271 653 1290T594 1309Q555 1309 527 1288T480 1238T453 1188L303 1313Z" />
<glyph unicode="&#xf6;" horiz-adv-x="1171" d="M483 -22Q264 -22 157 81T49 366Q49 519 97 646T233 867T443 1011T715 1063Q924 1063 1017 954T1110 659Q1110 509 1067 384T943 168T746 28T483 -22ZM525 265Q598 265 654 294T748 376T806 493T826 631Q826 716
788 773T662 830Q592 830 537 799T442 713T383 592T362 454Q362 372 402 319T525 265ZM561 1184Q499 1184 451 1221T402 1318Q402 1383 448 1427T560 1472Q630 1472 674 1428T719 1320Q719 1261 672 1223T561 1184ZM979 1193Q916 1193 870 1235T823 1338Q823 1399
866 1441T970 1483Q1037 1483 1087 1442T1137 1337Q1137 1294 1114 1262T1054 1211T979 1193Z" />
<glyph unicode="&#xf7;" horiz-adv-x="916" d="M567 824Q491 824 438 871T385 989Q385 1054 420 1106T512 1188T635 1219Q714 1219 756 1170T798 1041Q798 942 730 883T567 824ZM371 69Q288 69 246 123T204 245Q204 303 238 351T328 428T445 457Q523 457 564 409T606
285Q606 183 537 126T371 69ZM85 541Q96 576 108 613T132 682T150 730Q207 735 280 738T432 742T586 743Q681 743 765 740T906 730Q903 698 895 645T875 549Q840 549 761 549T582 547T381 545T202 543T85 541Z" />
<glyph unicode="&#xf8;" horiz-adv-x="1173" d="M1171 1065Q1078 932 961 794T717 523T468 272T241 59T64 -95Q43 -83 14 -57T-30 -6Q39 59 129 146T321 334T527 542T731 756T913 959T1054 1135Q1087 1119 1120 1100T1171 1065ZM483 -22Q264 -22 157 81T49 366Q49
519 97 646T233 867T443 1011T715 1063Q924 1063 1017 954T1110 659Q1110 509 1067 384T943 168T746 28T483 -22ZM525 265Q598 265 654 294T748 376T806 493T826 631Q826 716 788 773T662 830Q592 830 537 799T442 713T383 592T362 454Q362 372 402 319T525 265Z"
/>
<glyph unicode="&#xf9;" horiz-adv-x="1178" d="M865 978Q893 987 941 991T1033 996Q1071 996 1115 993T1186 986Q1177 905 1162 823T1126 660Q1086 513 1028 383T889 154T699 -1T448 -58Q312 -58 230 -10T112 126T76 332Q76 431 97 545T155 780T232 1023Q260
1025 302 1026T379 1027Q429 1027 478 1022T554 1007Q517 906 482 795T425 580T403 398Q403 319 430 277T517 235Q583 235 637 291T734 442T809 653Q833 741 847 822T865 978ZM511 1509Q534 1507 586 1487T702 1436T828 1366T931 1288Q915 1262 889 1232T838 1178T802
1148Q769 1168 713 1191T590 1236T461 1279T350 1311Q357 1323 380 1358T438 1434T511 1509Z" />
<glyph unicode="&#xfa;" horiz-adv-x="1178" d="M865 978Q893 987 941 991T1033 996Q1071 996 1115 993T1186 986Q1177 905 1162 823T1126 660Q1086 513 1028 383T889 154T699 -1T448 -58Q312 -58 230 -10T112 126T76 332Q76 431 97 545T155 780T232 1023Q260
1025 302 1026T379 1027Q429 1027 478 1022T554 1007Q517 906 482 795T425 580T403 398Q403 319 430 277T517 235Q583 235 637 291T734 442T809 653Q833 741 847 822T865 978ZM884 1515Q931 1490 968 1454T1029 1386T1062 1341Q1025 1328 978 1307T883 1262T790
1215T713 1173T663 1144Q655 1147 633 1159T583 1186T533 1216T500 1242Q527 1277 578 1319T689 1403T802 1475T884 1515Z" />
<glyph unicode="&#xfb;" horiz-adv-x="1178" d="M865 978Q893 987 941 991T1033 996Q1071 996 1115 993T1186 986Q1177 905 1162 823T1126 660Q1086 513 1028 383T889 154T699 -1T448 -58Q312 -58 230 -10T112 126T76 332Q76 431 97 545T155 780T232 1023Q260
1025 302 1026T379 1027Q429 1027 478 1022T554 1007Q517 906 482 795T425 580T403 398Q403 319 430 277T517 235Q583 235 637 291T734 442T809 653Q833 741 847 822T865 978ZM951 1510Q980 1474 1018 1425T1094 1324T1159 1233Q1111 1197 1051 1169T943 1126Q926
1157 904 1191T861 1258T825 1312T805 1342H834Q821 1334 788 1312T712 1260T624 1197T542 1138Q517 1147 480 1168T407 1215T352 1265Q406 1301 465 1338T581 1410T681 1470T750 1508Q767 1509 807 1509T888 1510T951 1510Z" />
<glyph unicode="&#xfc;" horiz-adv-x="1178" d="M865 978Q893 987 941 991T1033 996Q1071 996 1115 993T1186 986Q1177 905 1162 823T1126 660Q1086 513 1028 383T889 154T699 -1T448 -58Q312 -58 230 -10T112 126T76 332Q76 431 97 545T155 780T232 1023Q260
1025 302 1026T379 1027Q429 1027 478 1022T554 1007Q517 906 482 795T425 580T403 398Q403 319 430 277T517 235Q583 235 637 291T734 442T809 653Q833 741 847 822T865 978ZM567 1184Q505 1184 457 1221T408 1318Q408 1383 454 1427T566 1472Q636 1472 680 1428T725
1320Q725 1261 678 1223T567 1184ZM985 1193Q922 1193 876 1235T829 1338Q829 1399 872 1441T976 1483Q1043 1483 1093 1442T1143 1337Q1143 1294 1120 1262T1060 1211T985 1193Z" />
<glyph unicode="&#xfd;" horiz-adv-x="1079" d="M212 -527Q110 -527 19 -506T-142 -451T-256 -383Q-241 -359 -215 -323T-158 -249T-99 -177T-53 -126Q-24 -149 24 -177T135 -226T264 -247Q336 -247 394 -209T499 -108T579 31T635 184Q610 142 566 109T464 57T340
38Q188 38 126 120T63 339Q63 469 106 631T205 968Q224 973 258 974T333 976Q388 976 440 973T510 966Q489 917 465 850T420 710T384 570T370 452Q370 396 390 360T460 324Q529 324 585 374T688 514T768 723Q780 761 791 798T811 869T825 925T833 957Q856 959 880
960T927 962Q1019 962 1104 942Q1079 832 1040 684Q1015 592 985 488T921 275T853 56Q798 -119 712 -250T503 -454T212 -527ZM843 1515Q890 1490 927 1454T988 1386T1021 1341Q984 1328 937 1307T842 1262T749 1215T672 1173T622 1144Q614 1147 592 1159T542 1186T492
1216T459 1242Q486 1277 537 1319T648 1403T761 1475T843 1515Z" />
<glyph unicode="&#xfe;" horiz-adv-x="1200" d="M197 -395L-117 -382Q-109 -347 -88 -254T-34 -29T35 258T112 573T188 881T255 1148T305 1340L619 1392Q615 1365 604 1311T577 1186T541 1040T505 896Q541 918 578 938T655 975T739 1001T829 1011Q937 1011 1009
962T1117 830T1153 641Q1153 517 1110 407T989 213T808 81T586 33Q535 33 482 41T388 63T326 96Q322 77 311 33T285 -69T253 -188T222 -303T197 -395ZM596 328Q654 328 704 350T793 411T852 500T874 604Q874 665 836 697T721 729Q680 729 638 718T559 690T492 655T447
622Q445 609 440 585T428 533T414 476T401 424T392 388Q421 368 473 348T596 328Z" />
<glyph unicode="&#xff;" horiz-adv-x="1079" d="M212 -527Q110 -527 19 -506T-142 -451T-256 -383Q-241 -359 -215 -323T-158 -249T-99 -177T-53 -126Q-24 -149 24 -177T135 -226T264 -247Q336 -247 394 -209T499 -108T579 31T635 184Q610 142 566 109T464 57T340
38Q188 38 126 120T63 339Q63 469 106 631T205 968Q224 973 258 974T333 976Q388 976 440 973T510 966Q489 917 465 850T420 710T384 570T370 452Q370 396 390 360T460 324Q529 324 585 374T688 514T768 723Q780 761 791 798T811 869T825 925T833 957Q856 959 880
960T927 962Q1019 962 1104 942Q1079 832 1040 684Q1015 592 985 488T921 275T853 56Q798 -119 712 -250T503 -454T212 -527ZM525 1184Q463 1184 415 1221T366 1318Q366 1383 412 1427T524 1472Q594 1472 638 1428T683 1320Q683 1261 636 1223T525 1184ZM943 1193Q880
1193 834 1235T787 1338Q787 1399 830 1441T934 1483Q1001 1483 1051 1442T1101 1337Q1101 1294 1078 1262T1018 1211T943 1193Z" />
<glyph unicode="&#x2013;" horiz-adv-x="1359" d="M1378 821Q1374 785 1367 736T1350 638T1331 554Q1303 554 1230 554T1053 552T832 550T594 546T369 543T186 540T74 536L169 820Q243 824 313 826T448 831T576 834T697 836T812 837Q1012 837 1164 831T1378 821Z" />
<glyph unicode="&#x2014;" horiz-adv-x="1667" d="M1692 821Q1685 762 1673 687T1645 556Q1616 556 1528 555T1312 553T1036 549T738 545T454 542T222 539T80 537Q93 586 110 641T145 743T175 820Q236 823 306 825T452 830T604 834T752 837T889 839T1006 840T1095
840Q1229 840 1342 837T1544 830T1692 821Z" />
<glyph unicode="&#x2018;" horiz-adv-x="533" d="M526 1413Q552 1393 572 1358T595 1288Q575 1281 540 1263T471 1216T417 1147Q430 1166 460 1181T521 1197Q569 1197 595 1170T622 1091Q622 1029 589 987T504 924T394 902Q321 902 271 938T221 1048Q221 1122
260 1193T368 1323T526 1413Z" />
<glyph unicode="&#x2019;" horiz-adv-x="515" d="M349 919Q326 937 293 970T250 1036Q270 1046 306 1068T374 1115T414 1159Q407 1153 393 1148T358 1143Q303 1143 280 1175T256 1254Q256 1316 290 1359T376 1425T483 1448Q561 1448 606 1409T652 1302Q652 1220
609 1145T496 1011T349 919Z" />
<glyph unicode="&#x201a;" horiz-adv-x="515" d="M18 -315Q-5 -297 -38 -264T-81 -198Q-61 -188 -25 -166T43 -119T83 -75Q76 -81 62 -86T27 -91Q-28 -91 -51 -59T-75 20Q-75 82 -41 125T45 191T152 214Q230 214 275 175T321 68Q321 -14 278 -89T165 -223T18 -315Z" />
<glyph unicode="&#x201c;" horiz-adv-x="1007" d="M873 878Q788 878 735 921T681 1034Q681 1113 727 1194T846 1344T999 1451Q1022 1444 1049 1428T1097 1391T1121 1345Q1097 1336 1056 1315T979 1265T931 1203Q930 1198 930 1192T929 1183Q949 1201 973 1211T1024
1222Q1075 1222 1099 1192T1123 1115Q1123 1006 1054 942T873 878ZM378 887Q289 887 237 936T184 1061Q184 1132 223 1203T325 1337T452 1443Q496 1440 549 1420T630 1373Q591 1355 543 1321T457 1251T412 1186Q411 1180 410 1176T409 1167Q432 1189 462 1206T530
1223Q583 1223 609 1189T635 1102Q635 1031 600 983T507 911T378 887Z" />
<glyph unicode="&#x201d;" horiz-adv-x="981" d="M315 885Q295 911 275 952T254 1038Q283 1049 320 1070T390 1114T443 1156Q428 1143 405 1136T354 1129Q295 1129 266 1162T237 1246Q237 1313 272 1363T365 1440T486 1467Q574 1467 621 1418T668 1292Q668 1204
618 1128T488 991T315 885ZM837 904Q792 935 756 965T696 1032Q725 1045 762 1065T833 1110T880 1157Q873 1150 862 1146T834 1141Q773 1141 743 1168T713 1243Q713 1312 749 1362T846 1440T978 1467Q1055 1467 1099 1419T1143 1305Q1143 1224 1097 1149T980 1011T837
904Z" />
<glyph unicode="&#x201e;" horiz-adv-x="981" d="M-20 -376Q-40 -350 -60 -309T-81 -223Q-52 -212 -15 -191T55 -147T108 -105Q93 -118 70 -125T19 -132Q-40 -132 -69 -99T-98 -15Q-98 52 -63 102T30 179T151 206Q239 206 286 157T333 31Q333 -57 283 -133T153
-270T-20 -376ZM502 -357Q457 -326 421 -296T361 -229Q390 -216 427 -196T498 -151T545 -104Q538 -111 527 -115T499 -120Q438 -120 408 -93T378 -18Q378 51 414 101T511 179T643 206Q720 206 764 158T808 44Q808 -37 762 -112T645 -250T502 -357Z" />
<glyph unicode="&#x2022;" horiz-adv-x="636" d="M327 509Q232 509 193 555T153 667Q153 779 223 851T407 924Q491 924 536 874T582 746Q582 677 545 624T450 540T327 509Z" />
<glyph unicode="&#x2039;" horiz-adv-x="850" d="M745 1154Q767 1135 791 1101T834 1031T859 973L398 562Q441 516 491 468T587 377T666 307T709 270Q700 254 684 223T648 155T608 87T574 34Q446 143 324 271T87 557Q243 708 405 857T745 1154Z" />
<glyph unicode="&#x203a;" horiz-adv-x="834" d="M249 963Q283 989 327 1019T415 1077T490 1119Q512 1106 556 1062T654 954T758 819T842 679Q670 513 501 388T155 160Q147 171 132 196T99 253T68 314T49 362Q55 367 87 390T169 450T279 530T404 618T525 702Q487
739 436 787T334 883T249 963Z" />
</font>
</defs>
</svg>
